<svg width="155" height="336" viewBox="0 0 155 336" fill="none" xmlns="http://www.w3.org/2000/svg">
<path d="M81.0285 290.966L81.7477 308.59C81.7477 308.59 64.0688 315.245 63.8867 318.513L98.1157 318.349V290.839L81.0285 290.966Z" fill="#263238"/>
<path d="M92.3261 307.061C92.6558 307.16 92.9373 307.378 93.1169 307.672C93.2966 307.966 93.3618 308.315 93.3001 308.654C93.2099 308.986 92.9971 309.271 92.7048 309.452C92.4124 309.632 92.0623 309.696 91.7253 309.628C91.3766 309.524 91.079 309.294 90.8906 308.983C90.7021 308.671 90.6362 308.301 90.7056 307.944C90.8293 307.603 91.0816 307.325 91.4085 307.168C91.7353 307.011 92.1105 306.989 92.4535 307.106" fill="#E0E0E0"/>
<path d="M98.1157 318.349L98.0065 315.618L65.2341 316.811C65.2341 316.811 63.7138 317.484 63.8868 318.559L98.1157 318.349Z" fill="#455A64"/>
<path d="M81.1924 308.426C81.1924 308.59 82.0299 308.663 82.8583 309.191C83.6867 309.719 84.1237 310.429 84.2784 310.366C84.4332 310.302 84.1783 309.328 83.1678 308.7C82.1573 308.071 81.156 308.272 81.1924 308.426Z" fill="white"/>
<path d="M77.6055 309.92C77.6055 310.083 78.2973 310.366 78.8708 311.067C79.4444 311.768 79.6082 312.523 79.7812 312.514C79.9541 312.505 80.0452 311.558 79.326 310.693C78.6068 309.829 77.6146 309.765 77.6055 309.92Z" fill="white"/>
<path d="M75.5938 314.225C75.7395 314.225 75.9671 313.424 75.5392 312.514C75.1113 311.604 74.3193 311.239 74.2465 311.385C74.1737 311.531 74.6653 312.004 75.0112 312.76C75.3571 313.515 75.4118 314.216 75.5938 314.225Z" fill="white"/>
<path d="M81.4744 304.385C81.5472 304.539 82.3119 304.303 83.2951 304.385C84.2783 304.466 84.9701 304.74 85.0612 304.594C85.1522 304.448 84.433 303.857 83.3224 303.802C82.2118 303.747 81.3925 304.257 81.4744 304.385Z" fill="white"/>
<path d="M133.674 295.072L138.116 315.946L136.869 333.47C136.848 333.769 136.888 334.069 136.988 334.352C137.088 334.634 137.244 334.893 137.449 335.113C137.653 335.332 137.9 335.507 138.174 335.627C138.449 335.747 138.745 335.809 139.045 335.81C139.392 335.81 139.734 335.727 140.042 335.569C140.351 335.411 140.618 335.181 140.82 334.899C143.442 331.258 153.019 317.666 152.655 316.155C152.172 314.407 149.432 293.824 149.432 293.824L133.674 295.072Z" fill="#263238"/>
<path d="M139.035 335.81L152.326 314.735L152.499 315.646C152.647 316.413 152.515 317.207 152.126 317.885C151.088 319.706 148.12 324.658 140.874 334.908C140.667 335.197 140.393 335.43 140.076 335.589C139.759 335.747 139.408 335.826 139.053 335.819L139.035 335.81Z" fill="#455A64"/>
<g opacity="0.6">
<path d="M146.746 308.781C146.53 309.025 146.41 309.339 146.41 309.664C146.41 309.99 146.53 310.304 146.746 310.547C146.976 310.78 147.286 310.916 147.613 310.926C147.941 310.936 148.259 310.82 148.503 310.602C148.734 310.345 148.863 310.011 148.863 309.664C148.863 309.318 148.734 308.984 148.503 308.727C148.237 308.515 147.9 308.413 147.562 308.442C147.223 308.47 146.908 308.628 146.682 308.882" fill="white"/>
</g>
<path d="M142.094 325.723C141.464 325.165 140.735 324.73 139.946 324.439C139.118 324.287 138.27 324.287 137.442 324.439C137.442 324.394 137.652 324.184 138.134 324.021C138.767 323.835 139.44 323.835 140.073 324.021C140.711 324.196 141.286 324.55 141.73 325.04C142.049 325.413 142.14 325.723 142.094 325.723Z" fill="white"/>
<path d="M141.13 328.827C140.464 328.608 139.786 328.426 139.1 328.281C138.4 328.285 137.701 328.324 137.006 328.399C137.624 327.946 138.388 327.739 139.15 327.818C139.913 327.897 140.618 328.257 141.13 328.827Z" fill="white"/>
<path d="M144.198 321.617C142.254 320.608 140.058 320.19 137.88 320.416C138.938 319.995 140.095 319.884 141.214 320.097C142.333 320.31 143.368 320.837 144.198 321.617Z" fill="white"/>
<path d="M143.378 315.154C143.378 315.29 142.094 315.026 140.574 315.263C139.054 315.5 137.934 316.073 137.843 315.955C138.606 315.338 139.521 314.939 140.491 314.798C141.462 314.657 142.453 314.78 143.359 315.154H143.378Z" fill="white"/>
<path d="M142.23 309C141.261 308.863 140.278 308.863 139.308 309C138.374 309.285 137.483 309.695 136.659 310.22C136.659 310.22 136.796 309.874 137.224 309.51C137.798 309.033 138.479 308.702 139.208 308.545C139.932 308.374 140.687 308.374 141.411 308.545C141.957 308.745 142.249 308.945 142.23 309Z" fill="white"/>
<path d="M139.136 307.844C139.017 307.6 138.955 307.332 138.954 307.061C138.888 306.318 138.968 305.57 139.19 304.858C139.312 304.328 139.603 303.852 140.019 303.502C140.168 303.402 140.344 303.349 140.524 303.349C140.704 303.349 140.88 303.402 141.029 303.502C141.31 303.728 141.492 304.054 141.539 304.412C141.623 305.124 141.457 305.844 141.068 306.447C140.679 307.05 140.093 307.499 139.409 307.716C138.729 307.92 138.003 307.916 137.325 307.705C136.648 307.495 136.048 307.086 135.603 306.533C135.491 306.393 135.41 306.23 135.366 306.055C135.322 305.881 135.316 305.699 135.349 305.523C135.407 305.353 135.515 305.205 135.657 305.097C135.8 304.988 135.971 304.924 136.15 304.913C136.688 304.925 137.213 305.083 137.67 305.368C138.324 305.715 138.912 306.174 139.409 306.724C139.607 306.912 139.765 307.138 139.873 307.389C139.176 306.704 138.385 306.121 137.524 305.659C137.113 305.435 136.654 305.31 136.186 305.295C136.087 305.297 135.991 305.331 135.912 305.391C135.833 305.452 135.776 305.536 135.749 305.632C135.737 305.748 135.749 305.866 135.785 305.977C135.821 306.088 135.88 306.191 135.959 306.278C136.357 306.745 136.881 307.087 137.469 307.263C138.057 307.439 138.683 307.442 139.272 307.27C139.84 307.072 140.327 306.691 140.656 306.187C140.985 305.683 141.139 305.085 141.093 304.485C141.061 304.241 140.941 304.018 140.756 303.857C140.676 303.797 140.578 303.764 140.478 303.764C140.378 303.764 140.281 303.797 140.201 303.857C139.85 304.153 139.598 304.55 139.482 304.995C139.204 305.918 139.087 306.881 139.136 307.844Z" fill="white"/>
<path d="M68.429 147.632C68.429 147.632 68.2833 156.918 68.9024 168.907C69.1391 173.55 78.9162 302.6 78.9162 302.6L100.018 303.128L97.114 182.517L100.755 183.427C100.755 183.427 111.871 223.646 114.292 232.85C117.169 243.774 132.654 305.878 132.654 305.878L151.944 306.588L139.254 233.842L128.302 164.592L126.108 144.455L68.429 147.632Z" fill="#455A64"/>
<path d="M100.755 170.318C100.472 170.511 100.166 170.67 99.8449 170.791C99.0092 171.189 98.1245 171.473 97.214 171.638C96.5698 171.755 95.91 171.755 95.2658 171.638C94.5102 171.496 93.8117 171.139 93.254 170.609C92.6802 169.995 92.2756 169.242 92.0796 168.425C91.852 167.596 91.7337 166.74 91.5789 165.876C90.9872 162.38 90.614 159.194 90.4046 156.881C90.3045 155.725 90.2407 154.788 90.2043 154.15C90.1689 153.814 90.1689 153.476 90.2043 153.14C90.3027 153.462 90.3608 153.796 90.3773 154.132C90.4683 154.87 90.5867 155.78 90.7232 156.863C91.0054 159.166 91.4333 162.325 92.0159 165.812C92.3163 167.542 92.5075 169.289 93.5453 170.364C94.0365 170.797 94.6181 171.116 95.248 171.298C95.8778 171.479 96.5401 171.517 97.1867 171.411C98.0808 171.274 98.957 171.039 99.7994 170.71C100.101 170.541 100.422 170.41 100.755 170.318Z" fill="#263238"/>
<path d="M94.8111 153.813C94.8111 153.813 94.9476 153.713 95.2481 153.695C95.6707 153.701 96.0799 153.845 96.4133 154.105C96.6727 154.297 96.8847 154.547 97.033 154.834C97.1813 155.121 97.262 155.438 97.269 155.762C97.2344 156.168 97.0823 156.556 96.8313 156.877C96.5802 157.199 96.2411 157.441 95.8551 157.573C95.4691 157.705 95.053 157.722 94.6575 157.622C94.262 157.522 93.9042 157.309 93.6276 157.009C93.435 156.752 93.303 156.454 93.2415 156.139C93.1801 155.824 93.1907 155.499 93.2726 155.188C93.3672 154.771 93.6057 154.4 93.9462 154.141C94.1829 153.959 94.3468 153.941 94.3559 153.959C93.9656 154.295 93.6942 154.749 93.5821 155.252C93.5303 155.512 93.536 155.781 93.5989 156.039C93.6618 156.296 93.7804 156.537 93.9462 156.745C94.1654 156.974 94.4483 157.132 94.7583 157.198C95.0683 157.265 95.3911 157.237 95.685 157.118C95.989 157.031 96.2596 156.854 96.4611 156.61C96.6626 156.366 96.7856 156.067 96.8138 155.752C96.8165 155.486 96.7608 155.223 96.6507 154.981C96.5406 154.739 96.3788 154.523 96.1766 154.351C95.7879 154.035 95.3108 153.847 94.8111 153.813Z" fill="#263238"/>
<path d="M128.039 163.345C127.806 163.419 127.563 163.453 127.319 163.445C126.659 163.489 125.996 163.489 125.335 163.445C120.946 163.06 116.82 161.184 113.646 158.128C113.167 157.671 112.723 157.178 112.317 156.654C112.153 156.474 112.015 156.271 111.907 156.053C111.971 156.007 112.626 156.799 113.864 157.874C115.474 159.293 117.284 160.467 119.236 161.36C121.196 162.237 123.276 162.817 125.408 163.081C127.01 163.299 128.039 163.263 128.039 163.345Z" fill="#263238"/>
<path d="M76.9404 153.759C76.7334 154.489 76.4529 155.197 76.1029 155.871C75.3581 157.447 74.4422 158.937 73.3719 160.313C72.3924 161.593 71.2545 162.743 69.9854 163.736C69.5141 164.15 68.9793 164.485 68.4014 164.729C68.8653 164.282 69.3547 163.862 69.867 163.472C71.0741 162.421 72.1776 161.257 73.1625 159.995C74.1924 158.642 75.106 157.205 75.8935 155.698C76.549 154.505 76.8949 153.722 76.9404 153.759Z" fill="#263238"/>
<path d="M89.0667 20.3839C89.387 16.2783 91.2414 12.4438 94.261 9.6435C97.2805 6.84325 101.244 5.28262 105.362 5.27222H106.208C115.357 5.78201 120.037 13.8386 119.272 22.9693L117.287 51.363L100.983 68.3136L96.8137 58.1815V51.4358C96.8137 51.4358 88.0198 50.0885 87.8832 41.3037C87.865 37.0524 88.4476 28.2948 89.0667 20.3839Z" fill="#FFBE9D"/>
<path d="M96.7861 51.4269C100.867 51.4294 104.863 50.2637 108.302 48.0677C108.302 48.0677 105.571 54.4402 96.8316 53.63L96.7861 51.4269Z" fill="#EB996E"/>
<path d="M91.415 27.7123C91.4148 28.0377 91.5409 28.3506 91.7668 28.5849C91.9926 28.8192 92.3006 28.9568 92.6258 28.9686C92.7851 28.981 92.9454 28.9614 93.097 28.9111C93.2487 28.8608 93.3889 28.7808 93.5092 28.6757C93.6296 28.5705 93.7278 28.4425 93.7981 28.2989C93.8684 28.1554 93.9093 27.9993 93.9185 27.8397C93.9234 27.5121 93.7992 27.1956 93.5726 26.9588C93.346 26.722 93.0353 26.5839 92.7077 26.5744C92.5477 26.562 92.3868 26.5818 92.2345 26.6327C92.0822 26.6836 91.9417 26.7644 91.8212 26.8705C91.7007 26.9766 91.6027 27.1057 91.5329 27.2503C91.4632 27.3949 91.4231 27.552 91.415 27.7123Z" fill="#263238"/>
<path d="M90.96 24.6808C91.1239 24.8447 92.0707 24.1347 93.418 24.1347C94.7653 24.1347 95.7667 24.8083 95.9123 24.6444C96.058 24.4806 95.8213 24.2712 95.3934 23.9617C94.8096 23.5538 94.1119 23.3404 93.3998 23.3518C92.6962 23.3504 92.0105 23.5736 91.4425 23.989C91.0238 24.3076 90.8872 24.608 90.96 24.6808Z" fill="#263238"/>
<path d="M103.632 28.0402C103.632 28.368 103.759 28.6832 103.986 28.9192C104.214 29.1553 104.524 29.2938 104.852 29.3056C105.011 29.3167 105.172 29.296 105.324 29.2446C105.475 29.1933 105.615 29.1124 105.736 29.0065C105.856 28.9007 105.954 28.772 106.024 28.628C106.094 28.484 106.135 28.3275 106.144 28.1676C106.145 27.8398 106.018 27.5246 105.79 27.2886C105.562 27.0526 105.252 26.914 104.925 26.9023C104.764 26.8899 104.604 26.9097 104.451 26.9606C104.299 27.0114 104.159 27.0923 104.038 27.1984C103.918 27.3044 103.819 27.4336 103.75 27.5782C103.68 27.7227 103.64 27.8798 103.632 28.0402Z" fill="#263238"/>
<path d="M104.242 24.8902C104.405 25.0541 105.352 24.3531 106.7 24.3531C108.047 24.3531 109.048 25.0177 109.194 24.8538C109.34 24.69 109.103 24.4897 108.675 24.1711C108.088 23.7708 107.392 23.561 106.681 23.5702C105.977 23.5663 105.291 23.7898 104.724 24.2075C104.314 24.5261 104.169 24.8174 104.242 24.8902Z" fill="#263238"/>
<path d="M99.3717 34.9314C98.6611 34.7039 97.9232 34.5722 97.1778 34.5399C96.8318 34.5399 96.5041 34.4307 96.4404 34.2031C96.4132 33.8453 96.4924 33.4874 96.668 33.1744L97.6876 30.5435C99.0895 26.802 100.109 23.725 99.9543 23.6704C99.7996 23.6158 98.5433 26.6017 97.1322 30.3432C96.7954 31.2536 96.4768 32.1639 96.1673 32.9924C95.9508 33.4097 95.8895 33.8904 95.9943 34.3488C96.0439 34.4698 96.1205 34.5779 96.2184 34.6647C96.3162 34.7515 96.4327 34.8147 96.5587 34.8495C96.749 34.8998 96.9446 34.9273 97.1414 34.9314C97.8819 35.0237 98.6311 35.0237 99.3717 34.9314Z" fill="#263238"/>
<path d="M103.35 35.8509C103.131 35.8509 103.131 37.3074 101.875 38.3452C100.619 39.383 99.062 39.2556 99.0529 39.4467C99.0438 39.6379 99.3988 39.7289 100.063 39.738C100.923 39.7551 101.761 39.4609 102.421 38.9096C103.059 38.387 103.468 37.6356 103.559 36.8158C103.632 36.2332 103.45 35.8418 103.35 35.8509Z" fill="#263238"/>
<path d="M103.888 19.6012C104.015 19.9653 105.362 19.7833 106.955 19.9744C108.548 20.1656 109.823 20.5935 110.032 20.2566C110.123 20.1019 109.896 19.7559 109.386 19.4009C108.694 18.9664 107.912 18.6954 107.1 18.6086C106.287 18.5219 105.466 18.6216 104.698 18.9002C104.115 19.1369 103.824 19.4282 103.888 19.6012Z" fill="#263238"/>
<path d="M91.452 20.7575C91.6887 21.0671 92.6173 20.7575 93.737 20.7575C94.8567 20.7575 95.8035 20.9578 96.022 20.6392C96.1221 20.4844 95.9673 20.1749 95.5486 19.8836C95.0054 19.5392 94.3705 19.3678 93.7279 19.392C93.0711 19.4023 92.4341 19.6189 91.9072 20.011C91.4702 20.3024 91.3428 20.6119 91.452 20.7575Z" fill="#263238"/>
<path d="M85.8074 12.6917C85.8737 12.2883 86.0852 11.9231 86.4021 11.6649C86.719 11.4066 87.1194 11.2732 87.5279 11.2898C87.1006 11.1814 86.6965 10.9963 86.3354 10.7435C86.1537 10.6026 86.0149 10.4137 85.9345 10.1983C85.8541 9.98282 85.8353 9.74923 85.8802 9.52369C86.0896 8.84093 86.9544 8.67706 87.6371 8.45858C88.5357 8.17761 89.3227 7.62007 89.8857 6.86548C90.6959 5.79127 90.9781 4.40754 91.6609 3.22409C92.1092 2.4725 92.7206 1.8312 93.45 1.34751C94.1793 0.86383 95.008 0.55012 95.8748 0.429536C96.7416 0.308951 97.6245 0.384569 98.4581 0.650816C99.2918 0.917063 100.055 1.36714 100.691 1.96782C101.346 1.25487 102.162 0.708528 103.07 0.374209C103.979 0.0398902 104.954 -0.0727407 105.914 0.0456785C106.875 0.164098 107.794 0.510145 108.594 1.05505C109.394 1.59996 110.052 2.32798 110.514 3.17858C111.673 2.65537 112.95 2.45355 114.214 2.59429C115.477 2.73502 116.679 3.21313 117.694 3.97846C118.709 4.74379 119.499 5.76812 119.982 6.94401C120.464 8.1199 120.621 9.40401 120.437 10.6616L115.066 14.1664C115.008 13.7564 114.865 13.3631 114.645 13.012C114.426 12.6608 114.135 12.3597 113.792 12.128C113.448 11.8963 113.06 11.7392 112.653 11.667C112.245 11.5947 111.826 11.6089 111.424 11.7085C109.786 12.2365 108.784 14.1756 107.073 14.3576C105.735 14.4942 104.57 13.4928 103.268 13.1833C101.64 12.9531 99.9865 13.3608 98.6523 14.3212C97.3369 15.2762 95.9014 16.0537 94.3828 16.6335C92.5096 17.0585 90.5499 16.88 88.7842 16.1237C88.0061 15.8737 87.2916 15.4575 86.6904 14.9038C86.3742 14.6349 86.1285 14.2928 85.9746 13.9072C85.8207 13.5217 85.7633 13.1044 85.8074 12.6917Z" fill="#263238"/>
<path d="M114.001 11.654L88.9297 12.2275C89.7741 10.5267 91.0248 9.06026 92.5711 7.958C95.828 5.43643 99.7972 4.00612 103.914 3.87054C108.001 3.79771 116.331 8.7682 119.299 11.5812C121.666 13.8388 121.657 15.7961 121.657 15.7961C122.03 19.046 120.218 22.742 119.49 25.9282C119.126 27.5759 118.407 32.5555 118.407 32.5555C117.023 32.5555 116.513 31.454 116.713 30.0885L116.968 24.7266C115.584 23.6267 114.599 22.1035 114.163 20.3903C113.728 18.677 113.866 16.8682 114.556 15.2408C114.893 14.7492 115.657 12.5643 114.001 11.654Z" fill="#263238"/>
<path d="M117.397 24.3169C118.553 19.838 119.582 15.0496 118.107 10.6617L118.844 10.6071L119.163 10.8255C119.863 10.5654 120.628 10.5356 121.346 10.7405C122.064 10.9454 122.698 11.3743 123.155 11.9646C123.612 12.555 123.869 13.276 123.888 14.0225C123.907 14.769 123.687 15.502 123.26 16.1147C124.004 16.0856 124.734 16.331 125.309 16.8042C125.885 17.2775 126.267 17.9456 126.382 18.6818C126.412 19.7129 126.16 20.7327 125.654 21.6314C125.149 22.5277 124.853 23.5267 124.789 24.5536C124.771 25.0679 124.934 25.5721 125.251 25.9782C125.567 26.3842 126.016 26.6662 126.519 26.7748C126.289 27.3018 125.885 27.7339 125.374 27.999C124.864 28.264 124.278 28.3461 123.715 28.2314C124.11 29.0955 124.741 29.8307 125.536 30.3524C123.933 31.5086 121.685 31.1991 119.882 30.3524C118.773 29.9422 117.853 29.1388 117.297 28.0948C116.927 26.857 116.962 25.5333 117.397 24.3169Z" fill="#263238"/>
<path d="M117.952 29.4785C118.106 29.4148 123.996 27.6578 123.814 33.6843C123.632 39.7108 117.642 38.2816 117.633 38.1086C117.624 37.9356 117.952 29.4785 117.952 29.4785Z" fill="#FFBE9D"/>
<path d="M119.009 35.8874C119.009 35.8874 119.118 35.9602 119.291 36.0513C119.542 36.1516 119.822 36.1516 120.074 36.0513C120.467 35.8134 120.791 35.4763 121.013 35.0736C121.236 34.671 121.348 34.217 121.339 33.7572C121.366 33.2438 121.279 32.7308 121.084 32.2551C121.035 32.066 120.941 31.8918 120.809 31.7474C120.677 31.603 120.512 31.493 120.329 31.4267C120.209 31.3913 120.082 31.3982 119.967 31.4464C119.853 31.4945 119.758 31.5808 119.7 31.6907C119.609 31.8637 119.646 31.982 119.618 31.9911C119.591 32.0002 119.491 31.8819 119.546 31.6361C119.582 31.4894 119.669 31.3604 119.791 31.272C119.874 31.2102 119.968 31.1662 120.068 31.1427C120.169 31.1192 120.273 31.1167 120.374 31.1354C120.619 31.1912 120.846 31.3094 121.033 31.4784C121.22 31.6474 121.359 31.8616 121.439 32.1004C121.684 32.6265 121.793 33.2054 121.758 33.7845C121.77 34.3196 121.624 34.8465 121.34 35.2997C121.055 35.7529 120.643 36.1124 120.156 36.3335C120 36.3694 119.838 36.3717 119.681 36.3404C119.524 36.309 119.375 36.2446 119.245 36.1514C119.018 36.0331 118.99 35.8965 119.009 35.8874Z" fill="#EB996E"/>
<path d="M124.042 24.3168C124.042 24.3168 124.206 24.0892 124.133 23.6158C124.065 23.2904 123.925 22.9843 123.723 22.7197C123.522 22.4552 123.264 22.2389 122.968 22.0865C122.107 21.7079 121.178 21.5096 120.237 21.5038C119.703 21.5199 119.172 21.4086 118.69 21.1791C118.207 20.9495 117.786 20.6084 117.461 20.1838C116.934 19.2302 116.735 18.1298 116.896 17.0522C117.015 16.0418 117.251 15.1132 117.361 14.3212C117.578 13.4735 117.54 12.5802 117.251 11.754C117.273 12.5967 117.203 13.4392 117.042 14.2666C116.887 15.0404 116.614 15.9325 116.468 16.9976C116.271 18.1796 116.483 19.3936 117.069 20.4387C117.419 20.9756 117.933 21.3845 118.535 21.604C119.072 21.7897 119.633 21.8971 120.201 21.9226C121.107 21.9046 122.008 22.0559 122.859 22.3687C123.125 22.4961 123.362 22.6752 123.557 22.8957C123.753 23.1161 123.902 23.3733 123.997 23.6522C124.032 23.8719 124.048 24.0944 124.042 24.3168Z" fill="#455A64"/>
<path d="M125.417 21.6676C125.417 21.6676 125.544 21.4947 125.59 21.1214C125.621 20.6679 125.538 20.2139 125.348 19.8006C125.159 19.3873 124.87 19.0277 124.507 18.7545C124.158 18.5048 123.761 18.3312 123.341 18.2447C122.935 18.1728 122.546 18.0246 122.194 17.8078C122.036 17.676 121.91 17.5101 121.824 17.3225C121.739 17.1349 121.698 16.9304 121.703 16.7245C121.703 16.2693 121.703 15.8141 121.703 15.3043C121.653 14.0662 121.269 12.8645 120.592 11.8268C120.451 11.59 120.253 11.3921 120.016 11.2507C119.779 11.1093 119.511 11.0288 119.236 11.0166C118.844 11.0166 118.68 11.2169 118.699 11.226C118.717 11.2351 118.899 11.1531 119.227 11.226C119.459 11.2669 119.679 11.3615 119.869 11.5021C120.058 11.6427 120.212 11.8256 120.319 12.0362C120.681 12.6685 120.942 13.3534 121.093 14.0663C121.187 14.4878 121.239 14.9179 121.248 15.3498C121.248 15.7868 121.248 16.2602 121.248 16.7791C121.245 17.0526 121.305 17.3232 121.421 17.5706C121.538 17.818 121.709 18.036 121.921 18.2083C122.329 18.4532 122.78 18.617 123.25 18.6908C123.598 18.7409 123.931 18.8642 124.228 19.0525C124.524 19.2408 124.778 19.4899 124.971 19.7832C125.309 20.351 125.464 21.0087 125.417 21.6676Z" fill="#455A64"/>
<path d="M89.8496 6.83824C89.8496 6.83824 90.3048 7.14776 91.0877 6.75631C91.5206 6.50675 91.896 6.16862 92.1892 5.76403C92.5562 5.25431 93.0165 4.81877 93.5456 4.48045C94.2408 4.06914 95.0397 3.86672 95.8469 3.89739C96.6541 3.92806 97.4354 4.19052 98.0974 4.65341C98.8529 5.17231 99.5266 5.90969 100.41 6.4741C100.864 6.79774 101.382 7.02115 101.93 7.12955C102.51 7.20825 103.1 7.1329 103.641 6.91107C104.706 6.49231 105.544 5.80955 106.463 5.44541C107.352 5.07134 108.304 4.87049 109.267 4.85369C110.917 4.81057 112.534 5.3165 113.865 6.29203C114.762 6.94829 115.515 7.78178 116.077 8.74086C116.477 9.43273 116.623 9.85148 116.659 9.83328C116.696 9.81507 116.659 9.72404 116.586 9.51466C116.494 9.22058 116.379 8.93441 116.241 8.65893C115.718 7.62999 114.971 6.73108 114.056 6.02803C112.687 4.96719 110.999 4.40231 109.267 4.42582C108.246 4.42931 107.235 4.63025 106.29 5.01755C105.298 5.4181 104.47 6.10086 103.468 6.4741C103.007 6.67133 102.5 6.73748 102.003 6.66527C101.521 6.57255 101.064 6.37693 100.665 6.09176C99.8452 5.53645 99.1533 4.80817 98.334 4.27107C97.5625 3.72917 96.6364 3.45134 95.694 3.47906C94.876 3.50309 94.0786 3.74168 93.3818 4.17093C92.8305 4.5399 92.3598 5.01682 91.998 5.57286C91.7372 5.96931 91.3998 6.30975 91.0058 6.57424C90.6626 6.79357 90.2539 6.88689 89.8496 6.83824Z" fill="#455A64"/>
<path d="M54.6193 86.5115L23.5127 61.9322L19.0794 57.2803C19.0794 57.2803 8.48296 47.3849 7.59082 46.3016C6.55303 45.0544 5.69731 45.2547 5.26945 45.6643C4.58669 46.3107 4.81428 47.6216 5.67001 48.714C5.97042 49.0963 10.8772 54.8952 10.8772 54.8952C10.0791 54.6307 9.264 54.4208 8.43744 54.2671C6.66226 53.8939 4.1133 54.959 2.06502 56.7523C0.0167423 58.5457 -0.365605 59.2376 0.298947 60.0569C0.430932 60.2048 0.594135 60.3216 0.776762 60.3987C0.959389 60.4759 1.15688 60.5115 1.35495 60.503C2.00823 60.5071 2.64018 60.2705 3.13014 59.8384C6.40738 56.9981 8.79248 58.0177 8.79248 58.0177L9.37509 58.6277C9.37509 58.6277 6.14337 58.8735 5.03275 60.8307C4.86999 61.1105 4.76476 61.42 4.72324 61.741C4.27111 62.1233 3.92646 62.6167 3.7233 63.1728C3.52014 63.7289 3.46551 64.3284 3.56478 64.912C3.66404 65.4957 3.91377 66.0434 4.28935 66.501C4.66492 66.9587 5.15334 67.3105 5.7064 67.5217C5.96291 67.6506 6.25247 67.6987 6.53687 67.6597C6.82127 67.6207 7.08715 67.4964 7.2995 67.3033C7.46205 67.0447 7.56182 66.7516 7.59082 66.4475C7.6132 66.2898 7.64976 66.1344 7.70006 65.9832L9.56628 67.458C9.56628 67.458 13.9268 70.5532 15.6747 72.119L41.7288 100.44C42.5857 101.37 43.6192 102.121 44.7691 102.648C45.919 103.174 47.1623 103.467 48.4265 103.509C49.6907 103.55 50.9505 103.34 52.1325 102.889C53.3144 102.439 54.395 101.758 55.3111 100.886C56.2969 99.9427 57.0686 98.7989 57.5743 97.5318C58.0799 96.2646 58.3076 94.9037 58.2421 93.541C58.1765 92.1783 57.8191 90.8455 57.1941 89.6328C56.5691 88.4201 55.691 87.3557 54.6193 86.5115Z" fill="#FFBE9D"/>
<path d="M22.2201 62.3327C21.9404 62.6374 21.5728 62.8476 21.1682 62.934C20.7637 63.0205 20.3423 62.979 19.9625 62.8152C19.1796 62.5512 18.515 62.0232 17.7503 61.7046C15.4836 60.7396 12.707 61.7046 10.4676 60.6122C10.149 60.4665 9.82122 60.1843 9.89405 59.8475C9.96688 59.5107 10.3492 59.4196 10.6587 59.365L18.6971 57.8265" fill="#FFBE9D"/>
<path d="M18.7147 57.8266C18.4094 57.8082 18.1029 57.8328 17.8044 57.8994C17.24 57.9813 16.4297 58.1088 15.4284 58.2817L11.8962 58.9099L10.8857 59.0919C10.4586 59.1052 10.0535 59.2849 9.75693 59.5926C9.67864 59.7065 9.63672 59.8414 9.63672 59.9795C9.63672 60.1177 9.67864 60.2526 9.75693 60.3664C9.89031 60.5477 10.0651 60.6944 10.2667 60.7943C10.6312 60.9668 11.0125 61.101 11.4047 61.1948C12.862 61.3918 14.331 61.4892 15.8016 61.4862C16.425 61.5225 17.0391 61.6546 17.6223 61.8776C18.1265 62.1007 18.6188 62.3499 19.0971 62.6241C19.4524 62.8482 19.8524 62.992 20.2691 63.0454C20.6858 63.0989 21.1091 63.0607 21.5095 62.9336C22.083 62.6878 22.2013 62.3237 22.1831 62.3328C21.9649 62.5136 21.719 62.658 21.4549 62.7606C21.0781 62.8466 20.6875 62.8529 20.3082 62.7792C19.9288 62.7055 19.569 62.5535 19.2518 62.3328C18.7754 62.0359 18.2831 61.7655 17.7771 61.5226C17.1689 61.266 16.5234 61.1092 15.8653 61.0583C14.4158 61.0391 12.9688 60.9327 11.5321 60.7397C11.1779 60.6571 10.8331 60.5382 10.5034 60.3846C10.203 60.2299 10.0118 59.975 10.1302 59.8384C10.2485 59.7019 10.6035 59.5926 10.9495 59.5289L11.9599 59.3286L15.4648 58.6095C16.4662 58.391 17.2855 58.218 17.8226 58.0815C18.1291 58.0328 18.4287 57.9472 18.7147 57.8266Z" fill="#EB996E"/>
<path d="M9.49337 58.6004C9.11839 58.2386 8.66747 57.9649 8.17338 57.7993C7.63238 57.662 7.06169 57.7002 6.54386 57.9086C5.90368 58.1781 5.30819 58.5434 4.77779 58.9919C4.23271 59.4609 3.64091 59.8727 3.01171 60.2209C2.47956 60.5114 1.87884 60.6529 1.27295 60.6305C1.06533 60.6207 0.862794 60.563 0.681177 60.462C0.49956 60.3609 0.343797 60.2192 0.22606 60.0479C0.133968 59.9268 0.0800732 59.781 0.0712891 59.6291C0.0712891 59.6291 0.153238 59.7657 0.3171 59.9751C0.43775 60.1152 0.587234 60.2276 0.755354 60.3046C0.923473 60.3816 1.10624 60.4213 1.29115 60.4211C1.85147 60.4103 2.39979 60.2568 2.88425 59.9751C3.49053 59.6212 4.06338 59.2129 4.59571 58.7552C5.14032 58.2914 5.75479 57.9166 6.4164 57.6446C7.00021 57.4215 7.64286 57.4055 8.23709 57.5991C8.62087 57.7258 8.96781 57.9446 9.24758 58.2363C9.44786 58.4548 9.51157 58.5913 9.49337 58.6004Z" fill="#EB996E"/>
<path d="M5.31543 48.2863C5.67665 48.6386 6.00566 49.0224 6.29859 49.4333L8.59268 52.2554L10.9323 55.041C11.2664 55.4109 11.5708 55.8067 11.8426 56.2245C11.4392 55.9191 11.0699 55.5712 10.7411 55.1867C10.0947 54.5039 9.23902 53.5481 8.32867 52.4556C7.41832 51.3632 6.63544 50.3345 6.08923 49.5698C5.78239 49.1734 5.52271 48.7427 5.31543 48.2863Z" fill="#EB996E"/>
<path d="M9.2746 61.0221C9.13168 61.0868 8.98208 61.1356 8.82851 61.1677C8.63551 61.2157 8.45476 61.3038 8.29794 61.4261C8.14112 61.5484 8.01173 61.7023 7.91817 61.8778C7.87069 61.9991 7.85497 62.1304 7.8725 62.2595C7.89002 62.3885 7.94022 62.511 8.01832 62.6152C8.21946 62.8732 8.44843 63.1083 8.70108 63.3161C9.02888 63.5749 9.25199 63.9435 9.32922 64.3539C9.34286 64.58 9.30393 64.8062 9.21548 65.0147C9.12703 65.2231 8.99147 65.4083 8.81943 65.5556C8.64901 65.6979 8.45118 65.8036 8.23821 65.8662C8.02524 65.9289 7.80165 65.9471 7.58135 65.9197C7.17372 65.8834 6.78659 65.7248 6.47072 65.4646C5.99268 65.0229 5.58172 64.5138 5.25086 63.9534C5.01733 63.5796 4.84522 63.1709 4.74107 62.7426C4.68645 62.4331 4.74107 62.2601 4.74107 62.2601C4.74107 62.2601 4.74107 62.4331 4.85031 62.7153C4.98599 63.1145 5.17921 63.4917 5.42383 63.835C5.7617 64.3607 6.16897 64.8384 6.63461 65.2552C6.90971 65.4836 7.25262 65.6145 7.60993 65.6277C7.96724 65.6409 8.31886 65.5355 8.61004 65.328C8.74302 65.2174 8.84904 65.0779 8.92003 64.9202C8.99101 64.7624 9.02511 64.5906 9.01971 64.4177C8.95791 64.0783 8.77315 63.7736 8.5008 63.5619C8.23436 63.3323 7.99876 63.0691 7.79985 62.779C7.70316 62.6411 7.64466 62.48 7.63027 62.3121C7.61588 62.1443 7.64613 61.9756 7.71792 61.8232C7.82914 61.6238 7.98622 61.4538 8.17618 61.3271C8.36613 61.2005 8.5835 61.1209 8.81032 61.0949C8.95895 61.041 9.1166 61.0163 9.2746 61.0221Z" fill="#EB996E"/>
<path d="M7.49942 65.6647C7.49942 65.6647 7.6451 65.7467 7.74523 66.0198C7.80591 66.215 7.82105 66.4215 7.78949 66.6235C7.75793 66.8255 7.68049 67.0176 7.56315 67.185C7.37559 67.4264 7.12831 67.6146 6.84572 67.7312C6.56314 67.8477 6.25503 67.8885 5.95185 67.8496C5.23304 67.7411 4.58227 67.3636 4.13116 66.7936C3.66602 66.2339 3.3861 65.5437 3.33005 64.8181C3.29863 64.3281 3.3762 63.8371 3.55722 63.3806C3.73824 62.9242 4.01821 62.5135 4.37695 62.1781C4.58632 61.996 4.72286 61.9232 4.73197 61.9414C4.38441 62.3161 4.09311 62.7393 3.86715 63.1977C3.62733 63.7538 3.54632 64.3656 3.63309 64.965C3.71987 65.5644 3.97105 66.128 4.35875 66.5933C4.76983 67.1153 5.36038 67.4658 6.01556 67.5765C6.27397 67.6137 6.53761 67.5858 6.78246 67.4951C7.02731 67.4045 7.2456 67.2541 7.41749 67.0576C7.52665 66.9157 7.60423 66.7522 7.64505 66.5779C7.68587 66.4036 7.689 66.2227 7.65419 66.0471C7.57226 65.8013 7.48122 65.6738 7.49942 65.6647Z" fill="#EB996E"/>
<path d="M14.7734 66.2201C14.7734 66.2201 14.9282 65.9834 15.3378 65.7558C15.8993 65.4703 16.5381 65.3745 17.1585 65.4827L17.0038 65.7012C16.8148 65.4072 16.6415 65.1033 16.4849 64.7908C15.8925 63.7441 15.6085 62.5511 15.6656 61.3497C15.9114 62.4869 16.2776 63.5947 16.758 64.6543C16.9127 64.9638 17.0857 65.2551 17.2495 65.5191L17.4316 65.8104L17.1039 65.7376C16.5334 65.6243 15.9423 65.678 15.4016 65.8924C15.0101 66.0835 14.8007 66.2747 14.7734 66.2201Z" fill="#EB996E"/>
<path d="M6.3796 56.37C6.46153 56.37 6.58897 56.9526 6.25214 57.599C5.91531 58.2453 5.3418 58.5093 5.3418 58.4365C5.3418 58.3637 5.70593 58.0359 5.98813 57.4624C6.27034 56.8889 6.29767 56.37 6.3796 56.37Z" fill="#EB996E"/>
<path d="M53.2085 102.861L71.1696 90.426C71.1696 90.426 69.5947 138.583 69.5947 139.029C69.5947 139.029 66.3084 140.331 66.8637 143.772L67.774 148.624C87.5558 153.176 107.156 156.117 127.101 148.77L129.368 110.408L136.405 63.5435L120.356 56.7159L117.625 50.3435L101.002 68.25L96.7503 56.6886L96.8687 52.3281L92.8449 56.6977L73.3635 59.9021L49.0937 79.5747L41.1373 73.1385L29.1299 89.8161L42.7851 103.599C46.2436 104.532 49.9157 104.272 53.2085 102.861Z" fill="#BF1523"/>
<path d="M98.5612 66.129C98.0407 66.4236 97.6313 66.881 97.3959 67.4308C97.1474 68.0623 97.0267 68.7368 97.0409 69.4153C97.0857 70.3416 96.956 71.268 96.6586 72.1464L96.4583 72.6198L96.258 72.1464C95.7189 70.7941 95.2927 69.3995 94.9835 67.977C94.3008 65.0275 93.8638 62.3237 93.5634 60.3665C93.3633 59.3156 93.2507 58.2498 93.2266 57.1803C93.5174 58.2088 93.7424 59.2548 93.9002 60.3119C94.2735 62.2509 94.765 64.9364 95.4478 67.8678C95.7483 69.2646 96.153 70.637 96.6586 71.9734H96.258C96.5393 71.1563 96.6808 70.2977 96.6768 69.4336C96.6871 68.7151 96.8516 68.0073 97.1593 67.358C97.3469 66.9255 97.6652 66.5626 98.0696 66.3202C98.3791 66.1199 98.5521 66.1108 98.5612 66.129Z" fill="#263238"/>
<path d="M119.454 58.9281C119.308 59.2151 119.124 59.4814 118.908 59.7201C118.526 60.2117 117.998 60.9127 117.27 61.7684C115.868 63.4798 113.919 65.8194 111.735 68.3866L108.257 72.4467L107.993 72.7562L107.893 72.3557C107.392 70.3802 106.983 68.7143 106.728 67.5309C106.618 66.9483 106.291 66.6205 105.972 66.6205C105.816 66.6125 105.662 66.6574 105.535 66.748C105.535 66.748 105.599 66.5113 105.972 66.484C106.084 66.4829 106.194 66.5041 106.297 66.5463C106.4 66.5885 106.494 66.6509 106.573 66.7298C106.765 66.9463 106.902 67.2053 106.974 67.4854C107.31 68.6506 107.775 70.2983 108.303 72.2738L107.938 72.1827L111.37 68.0953C113.555 65.5281 115.549 63.2249 117.015 61.5681C117.743 60.7397 118.344 60.0751 118.762 59.62C118.964 59.3621 119.196 59.1297 119.454 58.9281Z" fill="#263238"/>
<path d="M95.439 134.314C95.399 134.11 95.3837 133.902 95.3935 133.695C95.3935 133.249 95.3935 132.666 95.3935 131.947C95.3935 130.427 95.3935 128.224 95.3935 125.502C95.4572 120.04 95.7121 112.548 96.3039 104.273C96.8956 95.9975 97.7877 88.5144 98.5342 83.1252C98.9074 80.3941 99.2352 78.2548 99.4901 76.7528L99.7814 75.0322C99.8168 74.8298 99.8624 74.6293 99.9179 74.4314C99.9441 74.6339 99.9441 74.8389 99.9179 75.0413C99.8633 75.4874 99.7905 76.07 99.7085 76.7801C99.5083 78.3459 99.2351 80.5125 98.8983 83.1525C98.2429 88.5508 97.4327 96.0157 96.8137 104.291C96.1946 112.566 95.9033 120.058 95.7303 125.493C95.6666 128.169 95.6211 130.354 95.5847 131.929C95.5847 132.651 95.5665 133.234 95.5301 133.677C95.5139 133.891 95.4834 134.104 95.439 134.314Z" fill="#263238"/>
<path d="M90.8873 145.365C90.488 144.058 90.3458 142.685 90.4685 141.324C90.4202 139.963 90.5611 138.603 90.8873 137.282C91.0162 138.629 91.0162 139.985 90.8873 141.333C90.8326 143.554 90.9783 145.347 90.8873 145.365Z" fill="#263238"/>
<path d="M113.974 132.12C113.508 132.344 113.024 132.527 112.526 132.666C111.616 132.994 110.196 133.431 108.484 133.931C104.009 135.221 99.4695 136.276 94.8839 137.09C90.3009 137.9 85.6794 138.474 81.0375 138.811C79.2168 138.929 77.8058 139.002 76.8044 139.02C76.2895 139.063 75.7718 139.063 75.2568 139.02C75.764 138.92 76.2786 138.863 76.7953 138.847L81.0102 138.492C84.5515 138.165 89.4491 137.582 94.802 136.672C100.155 135.761 104.952 134.55 108.393 133.64L112.472 132.53C112.962 132.359 113.464 132.222 113.974 132.12Z" fill="#263238"/>
<path d="M71.1151 101.459C70.9876 101.459 70.9057 94.7593 70.933 86.5025C70.9603 78.2457 71.0969 71.5455 71.2243 71.5455C71.3518 71.5455 71.4337 78.2457 71.4064 86.5025C71.3791 94.7593 71.2516 101.459 71.1151 101.459Z" fill="#263238"/>
<g opacity="0.3">
<path d="M102.549 69.8614C103.04 69.8437 103.523 69.9922 103.92 70.283C104.316 70.5737 104.603 70.9897 104.734 71.4636C104.916 72.4377 104.779 73.4664 105.034 74.4314C105.289 75.3963 106.172 76.334 107.146 76.1337C107.726 75.9425 108.22 75.5523 108.539 75.0322C110.451 72.444 111.984 69.5962 113.091 66.5751C113.091 66.6479 108.048 72.3649 108.048 72.3649C107.86 70.919 107.48 69.5045 106.919 68.1591C106.755 67.7221 106.555 66.9756 106.136 66.7844C105.453 66.4658 104.543 67.4672 104.088 68.0771C103.622 68.6939 103.094 69.2612 102.513 69.7704" fill="black"/>
</g>
<g opacity="0.3">
<path d="M94.3281 64.6632C94.4188 67.8643 95.0338 71.0287 96.1488 74.0307C96.2455 74.3362 96.4141 74.614 96.6404 74.8409C96.7559 74.9608 96.9078 75.0391 97.0724 75.0638C97.237 75.0885 97.4052 75.0581 97.5508 74.9774C97.9179 74.363 98.2228 73.7134 98.4611 73.0384C98.9254 71.7366 100.819 71.6183 100.819 71.6183C100.503 70.1479 100.089 68.7003 99.5808 67.285C99.4893 67.0516 99.3266 66.853 99.1158 66.7174C98.905 66.5817 98.6568 66.516 98.4065 66.5294C98.0782 66.6389 97.7852 66.8343 97.5579 67.0952C97.3306 67.3561 97.1772 67.6731 97.1138 68.0133C96.8316 70.3438 96.868 71.418 96.5221 72.2373C95.6117 69.743 94.9199 66.7752 94.3372 64.5813" fill="black"/>
</g>
<g opacity="0.3">
<path d="M108.293 133.64C108.508 133.486 108.691 133.29 108.83 133.064C108.969 132.838 109.061 132.587 109.102 132.325C109.143 132.063 109.131 131.796 109.067 131.539C109.003 131.282 108.888 131.04 108.73 130.827C108.391 130.413 107.95 130.096 107.449 129.908C106.949 129.719 106.408 129.666 105.88 129.753C104.828 129.936 103.839 130.38 103.004 131.046C102.139 131.674 101.347 132.384 100.437 132.939C98.2062 134.314 95.4934 134.623 92.8716 134.669C90.2538 134.56 87.6316 134.676 85.0336 135.015C82.4664 135.515 79.8992 136.835 78.6611 139.148C78.652 139.102 101.037 137.509 108.293 133.64Z" fill="black"/>
</g>
<path d="M136.405 63.5435C136.405 63.5435 143.178 68.3683 144.816 72.7379C146.455 77.1076 152.509 107.122 153.492 112.247C154.739 118.692 154.776 126.667 145.499 129.698C142.049 130.818 120.92 129.097 120.92 129.097L121.612 114.086L133.018 114.514C133.018 114.514 132.336 113.503 133.974 112.283L130.333 92.7564C130.333 92.7564 131.671 72.0188 131.835 71.5272C131.999 71.0356 136.405 63.5435 136.405 63.5435Z" fill="#BF1523"/>
<path d="M136.769 64.0625C134.764 64.8872 132.956 66.1236 131.459 67.6918C129.963 69.26 128.813 71.125 128.084 73.166C128.133 72.5338 128.3 71.9164 128.576 71.3453C129.783 68.4021 132.06 66.0247 134.948 64.6906C135.512 64.3736 136.129 64.1609 136.769 64.0625Z" fill="#263238"/>
<path d="M140.465 117.554C140.392 117.554 140.238 117.054 139.782 116.353C139.177 115.442 138.386 114.67 137.461 114.086C136.554 113.477 135.526 113.07 134.448 112.893C133.619 112.775 133.091 112.893 133.073 112.793C133.508 112.572 134.002 112.492 134.484 112.566C135.643 112.652 136.76 113.038 137.725 113.685C138.707 114.305 139.515 115.163 140.074 116.18C140.337 116.589 140.473 117.068 140.465 117.554Z" fill="#263238"/>
<path d="M128.212 80.8947C128.351 81.2852 128.454 81.6874 128.521 82.0963C128.713 83.0067 128.94 84.09 129.222 85.4191C129.787 88.232 130.533 92.1192 131.325 96.416C132.117 100.713 132.818 104.609 133.301 107.44C133.519 108.788 133.701 109.907 133.838 110.79C133.927 111.197 133.972 111.612 133.974 112.028C133.835 111.638 133.728 111.236 133.656 110.827C133.474 109.916 133.246 108.833 132.964 107.504C132.4 104.691 131.653 100.804 130.861 96.5071C130.069 92.2103 129.368 88.314 128.886 85.4828C128.667 84.1355 128.485 83.0158 128.348 82.1327C128.26 81.726 128.214 81.311 128.212 80.8947Z" fill="#263238"/>
<path d="M120.929 129.088C120.893 128.701 120.893 128.311 120.929 127.923C120.929 127.095 120.929 126.03 121.002 124.746C121.084 122.015 121.22 118.292 121.412 114.059V113.831H121.648L123.524 113.904L133.046 114.314H133.109L133.155 114.359C134.572 115.514 135.651 117.03 136.277 118.747C136.445 119.222 136.576 119.709 136.669 120.203C136.712 120.376 136.728 120.554 136.714 120.731C136.66 120.731 136.551 120.012 136.068 118.829C135.389 117.192 134.302 115.756 132.909 114.659L133.028 114.705L123.505 114.377L121.63 114.295L121.867 114.077C121.676 118.301 121.475 122.061 121.311 124.746C121.22 126.03 121.148 127.095 121.093 127.923C121.082 128.316 121.027 128.707 120.929 129.088Z" fill="#263238"/>
<path d="M104.26 110.936L95.439 92.9295C95.1446 92.3309 94.6883 91.8268 94.1219 91.4744C93.5555 91.122 92.9016 90.9354 92.2346 90.9358H70.013C69.8247 90.9349 69.6393 90.9832 69.4753 91.0759C69.3113 91.1685 69.1743 91.3023 69.0778 91.4641C68.9813 91.6258 68.9286 91.81 68.925 91.9983C68.9214 92.1866 68.9669 92.3727 69.0572 92.538L84.0779 120.595C84.2871 120.98 84.5962 121.301 84.9727 121.526C85.3491 121.75 85.779 121.869 86.2172 121.869H109.24L104.26 110.936Z" fill="#455A64"/>
<path d="M69.2031 92.6746H69.6492H70.9146H75.5938L91.0059 92.5471C91.7186 92.5411 92.4219 92.7099 93.0542 93.0387C93.637 93.4104 94.1088 93.9325 94.4197 94.5499C95.066 95.7789 95.6031 97.0624 96.1675 98.1913L99.1171 104.473L101.129 108.688C101.357 109.152 101.548 109.525 101.702 109.825C101.759 109.962 101.832 110.09 101.921 110.208C101.892 110.062 101.843 109.921 101.775 109.789C101.648 109.48 101.475 109.097 101.275 108.624C100.81 107.559 100.164 106.111 99.3811 104.345C98.5982 102.579 97.5604 100.394 96.5135 98.0365C95.9582 96.844 95.4393 95.5968 94.7747 94.3132C94.4316 93.631 93.9092 93.0551 93.2635 92.6473C92.5746 92.2796 91.805 92.0888 91.0241 92.092C84.9794 92.092 79.5446 92.2649 75.5482 92.3469L70.8782 92.4743L69.6037 92.5289C69.4637 92.5573 69.3287 92.6064 69.2031 92.6746Z" fill="#263238"/>
<path d="M82.8857 96.6164C82.7803 96.6554 82.6853 96.7183 82.6083 96.8001C82.5312 96.8819 82.4741 96.9805 82.4415 97.0881C82.4089 97.1956 82.4016 97.3093 82.4202 97.4202C82.4389 97.531 82.4829 97.636 82.5489 97.727C82.6711 97.9173 82.8511 98.0634 83.0625 98.1437C83.2739 98.224 83.5055 98.2343 83.7232 98.1731C83.8697 98.1406 84.0043 98.0681 84.112 97.9636C84.2197 97.8591 84.2963 97.7268 84.3332 97.5814C84.3476 97.3612 84.2896 97.1423 84.1679 96.9582C84.0463 96.7741 83.8677 96.6349 83.6595 96.5618C83.401 96.5167 83.1354 96.5355 82.8857 96.6164Z" fill="white"/>
<path d="M121.375 114.696L115.858 114.159C115.858 114.159 113.355 111.318 112.371 110.463C111.388 109.607 105.762 106.821 105.762 106.821C105.762 106.821 102.84 103.717 102.458 103.763C102.075 103.808 100.874 104.181 101.393 105.72C101.886 107.25 102.532 108.726 103.323 110.126L92.2073 111.71C91.8598 111.753 91.5262 111.873 91.2303 112.06C90.9344 112.247 90.6836 112.498 90.4958 112.793C90.25 113.203 90.1772 113.631 90.7325 113.822C92.7438 114.286 94.7804 114.632 96.8318 114.86L94.647 114.568C94.647 114.568 94.4376 116.644 95.8942 117.445C96.4539 117.696 96.9775 118.02 97.4509 118.41C97.5801 119.338 97.9093 120.226 98.4158 121.014C99.0895 121.715 105.753 124.191 105.753 124.191C105.753 124.191 109.913 124.901 111.925 124.555L120.938 125.929L121.375 114.696Z" fill="#FFBE9D"/>
<path d="M102.248 110.326C103.306 110.399 104.367 110.399 105.425 110.326C106.487 110.392 107.552 110.315 108.593 110.099C107.544 109.917 106.478 109.859 105.416 109.926C104.345 109.868 103.271 110.003 102.248 110.326Z" fill="#EB996E"/>
<path d="M104.333 115.087C102.804 114.732 101.232 114.591 99.6632 114.669C98.3705 114.669 97.2053 114.669 96.3587 114.669C95.9029 114.637 95.445 114.655 94.9932 114.723C95.4273 114.881 95.8877 114.956 96.3496 114.942C97.2053 115.005 98.3705 115.033 99.6632 115.042C102.24 115.051 104.315 115.188 104.333 115.087Z" fill="#EB996E"/>
<path d="M104.77 118.738C104.77 118.62 103.131 118.738 101.129 118.656C99.1259 118.574 97.4873 118.255 97.4873 118.374C98.6484 118.825 99.8831 119.056 101.129 119.056C102.352 119.181 103.587 119.072 104.77 118.738Z" fill="#EB996E"/>
<path d="M104.588 122.898C104.697 122.898 104.807 122.452 104.834 121.879C104.861 121.305 104.789 120.85 104.679 120.841C104.57 120.832 104.461 121.296 104.433 121.86C104.406 122.425 104.479 122.898 104.588 122.898Z" fill="#EB996E"/>
<path d="M104.998 117.891C105.107 117.891 105.125 117.5 105.271 117.09C105.417 116.68 105.626 116.389 105.553 116.298C105.48 116.207 105.071 116.444 104.898 116.963C104.725 117.481 104.898 117.918 104.998 117.891Z" fill="#EB996E"/>
<path d="M105.681 112.839C105.799 112.839 105.881 112.593 105.981 112.311C106.081 112.029 106.172 111.783 106.091 111.71C106.009 111.637 105.735 111.819 105.608 112.174C105.481 112.529 105.572 112.848 105.681 112.839Z" fill="#EB996E"/>
</svg>
