<svg width="214" height="109" viewBox="0 0 214 109" fill="none" xmlns="http://www.w3.org/2000/svg">
<path d="M212.58 98.8209C212.58 98.8657 165.874 98.6989 108.315 98.4461C50.7553 98.1932 4.02774 97.9495 4.02794 97.9047C4.02814 97.8599 50.7112 98.0234 108.293 98.2764C165.875 98.5294 212.58 98.7762 212.58 98.8209Z" fill="#263238"/>
<path d="M172.213 68.4957L11.198 67.7883L11.1019 89.6663L172.117 90.3736L172.213 68.4957Z" fill="#E0E0E0"/>
<g opacity="0.4">
<path d="M172.213 68.4957L11.198 67.7883L11.1019 89.6663L172.117 90.3736L172.213 68.4957Z" fill="black"/>
</g>
<path d="M181.509 67.2473C176.947 64.3961 165.095 59.9037 161.801 59.5118C159.806 59.2727 150.931 58.0116 150.931 58.0116L148.053 57.7687C148.053 57.7687 117.496 42.4517 112.642 40.5493C105.114 37.5987 89.188 35.0079 72.2818 37.0066C72.2818 37.0066 49.6943 38.974 44.6686 40.4042C39.643 41.8345 15.3358 49.2999 15.3358 49.2999C15.3358 49.2999 4.68782 50.376 4.85232 50.7958C4.85232 50.7958 4.99645 51.4842 5.87888 52.3295L5.84906 59.1177C5.84906 59.1177 4.6616 60.7121 4.36391 61.4817C4.06621 62.2514 3.3743 68.285 3.3743 68.285C3.3743 68.285 0.142042 75.8429 0.133314 77.8295C0.124587 79.8161 5.84916 87.4934 7.25167 88.648C8.65419 89.8026 19.9681 91.5222 19.9681 91.5222L19.9741 85.7959C20.3099 77.08 27.1288 70.136 35.4621 70.1726C43.7955 70.2092 50.5532 77.2129 50.8156 85.9314L50.815 93.3501L139.162 93.7382L139.125 88.2324C139.095 87.7972 139.074 87.3589 139.076 86.9142C139.116 77.9186 146.061 70.6585 154.583 70.6959C163.105 70.7334 169.986 78.0543 169.947 87.0498C169.945 87.4945 169.924 87.9327 169.887 88.3676L170.206 88.369L170.182 93.8745L180.365 93.9192C180.365 93.9192 188.659 87.6087 188.452 84.3959L188.492 75.3556C188.5 74.1617 188.069 73.0065 187.281 72.1096C185.595 70.2254 183.652 68.5885 181.509 67.2473Z" fill="#E0E0E0"/>
<g opacity="0.2">
<path d="M188.474 77.9788L181.971 75.5414L181.181 79.2104L170.761 78.592C170.761 78.592 166.22 69.5027 156.857 68.6618C148.84 67.9452 142.446 72.0503 142.446 72.0503L96.6607 67.137C96.6607 67.137 73.4209 66.1167 64.4536 66.1925C55.4863 66.2683 47.5551 72.9866 47.5551 72.9866C47.5551 72.9866 44.927 68.9955 35.5512 68.8647C26.1753 68.7339 22.2379 74.4238 22.2379 74.4238C15.561 73.4659 9.26187 70.7399 3.99313 66.5283L3.53722 66.9038C3.43766 67.7191 3.37115 68.2947 3.37115 68.2947C3.37115 68.2947 0.138894 75.8526 0.130166 77.8392C0.121439 79.8258 5.84601 87.5031 7.24852 88.6577C8.65104 89.8123 19.9649 91.5319 19.9649 91.5319L19.9709 85.8056C20.3067 77.0897 27.1256 70.1457 35.459 70.1823C43.7924 70.2189 50.55 77.2226 50.8124 85.9411L50.8118 93.3597L139.162 93.7479L139.125 88.2421C139.095 87.8069 139.075 87.3686 139.076 86.9239C139.116 77.9283 146.061 70.6682 154.583 70.7056C163.105 70.7431 169.986 78.064 169.947 87.0595C169.945 87.5042 169.924 87.9424 169.887 88.3773L170.206 88.3787L170.182 93.8842L180.365 93.9289C180.365 93.9289 188.659 87.6184 188.452 84.4056L188.48 77.9789L188.474 77.9788Z" fill="black"/>
</g>
<path d="M31.4085 49.8664C31.2329 49.9969 31.0994 50.1761 31.0244 50.3817C30.9495 50.5873 30.9364 50.8103 30.9869 51.0233C31.0373 51.2362 31.1491 51.4297 31.3083 51.5798C31.4675 51.7299 31.6673 51.8301 31.8828 51.8679L39.642 52.9769L83.7372 58.2091L137.515 61.5389C137.944 61.572 138.375 61.4906 138.762 61.3029C139.15 61.1152 139.48 60.8279 139.72 60.4705C140.181 59.7623 140.368 58.7746 139.234 57.6435C136.985 55.3943 127.023 49.5283 124.684 48.3727C122.344 47.2172 105.936 36.9145 81.3715 38.2046C73.9358 38.4375 59.6618 40.5757 41.215 42.9995C40.8172 43.0523 40.4391 43.2047 40.1158 43.4426L31.4085 49.8664Z" fill="#263238"/>
<path d="M40.5798 52.1556C40.6932 51.8138 44.6973 44.0577 45.4703 43.6037C46.2433 43.1496 78.3638 39.0615 78.7995 39.6329C79.2353 40.2042 80.2671 56.5623 80.2671 56.5623L40.5798 52.1556Z" fill="#455A64"/>
<path d="M52.8556 42.4461L52.5272 53.8557L54.181 53.8629L54.232 42.2634L52.8556 42.4461Z" fill="#263238"/>
<path d="M129.956 51.3454C129.956 51.3454 129.984 51.4032 130.035 51.5185C130.085 51.6339 130.165 51.8102 130.263 52.0378C130.361 52.2654 130.491 52.5474 130.621 52.8935C130.75 53.2396 130.896 53.6401 131.063 54.0919C131.953 56.7467 132.572 59.4846 132.911 62.264C133.438 66.5807 133.55 70.9379 133.248 75.2761C133.093 77.7866 132.816 80.447 132.394 83.2316C132.18 84.6222 131.937 86.0447 131.63 87.4893C131.563 87.8588 131.467 88.2222 131.34 88.5757C131.195 88.9231 131.025 89.2601 130.834 89.5844C130.45 90.2384 130.033 90.8719 129.584 91.4824L129.558 91.5174L129.517 91.5173L93.0512 90.6693L73.1587 90.1244C69.9951 90.0465 66.918 89.969 63.9462 89.9336C63.5751 89.932 63.2073 89.9303 62.8394 89.9287C62.4715 89.9271 62.1068 89.9255 61.7325 89.9239C60.9967 89.8586 60.2817 89.6455 59.6303 89.2972C58.9908 88.9546 58.4043 88.521 57.8893 88.0099C57.3757 87.5094 56.9229 86.9501 56.5402 86.3437C53.1642 81.4791 50.1128 76.9838 47.4464 72.9733C46.118 70.9648 44.8755 69.0815 43.7572 67.3203C42.6388 65.5591 41.6191 63.9327 40.7587 62.4254C40.34 61.7169 39.963 60.9846 39.6295 60.2323L39.4175 59.6971C39.3479 59.5209 39.3103 59.3383 39.2567 59.1622C39.2031 58.986 39.1463 58.8162 39.1183 58.6433C39.0902 58.4704 39.0558 58.2975 39.0277 58.1279C38.8463 56.9819 38.9269 55.8098 39.2635 54.6995C39.4642 54.0166 39.76 53.3652 40.1422 52.7647C40.2698 52.5578 40.4141 52.3616 40.5734 52.178L40.464 52.3279C40.3932 52.4267 40.2902 52.5734 40.1645 52.7776C39.1871 54.3752 38.8092 56.2681 39.0982 58.1186C39.1294 58.2819 39.1607 58.4388 39.1919 58.6244C39.2231 58.8101 39.2864 58.9639 39.3304 59.1401C39.3744 59.3162 39.4248 59.4956 39.4944 59.6687L39.7065 60.1974C40.0418 60.9449 40.421 61.6719 40.8421 62.3746C41.7057 63.8755 42.7255 65.4987 43.8534 67.2536C44.9814 69.0084 46.2207 70.8885 47.5555 72.8938C50.2316 76.898 53.2765 81.3868 56.6718 86.2451C57.4175 87.4515 58.4593 88.4472 59.6982 89.1376C60.3298 89.474 61.0234 89.6784 61.7365 89.7383C62.0915 89.7591 62.4562 89.7607 62.8274 89.7431C63.1986 89.7256 63.5664 89.7464 63.9406 89.748C66.9124 89.7803 69.9896 89.8546 73.1531 89.9324L93.052 90.4837L129.517 91.3573L129.45 91.3922C129.895 90.7863 130.309 90.1582 130.69 89.5102C130.879 89.1932 131.046 88.8636 131.19 88.5239C131.311 88.1791 131.406 87.8255 131.473 87.4663C131.78 86.028 132.026 84.6087 132.244 83.2181C132.668 80.4432 132.949 77.7828 133.11 75.2818C133.42 70.9512 133.32 66.601 132.812 62.2892C132.484 59.5144 131.881 56.7791 131.012 54.1237C130.851 53.6687 130.696 53.2681 130.579 52.9189C130.462 52.5697 130.326 52.294 130.234 52.0601L130.022 51.5377C129.978 51.4127 129.956 51.3454 129.956 51.3454Z" fill="#263238"/>
<path d="M84.4186 58.2505C84.459 58.3542 84.4895 58.4614 84.51 58.5708C84.557 58.7853 84.6196 59.1055 84.6817 59.5313C84.8092 60.3572 84.9415 61.5638 85.0245 63.0517C85.2033 66.0404 85.1084 70.1732 85.0308 74.7315C84.9532 79.2898 84.8263 83.4225 84.73 86.41C84.6787 87.8877 84.6382 89.0936 84.6057 89.9476C84.589 90.3506 84.5748 90.6704 84.5631 90.9071C84.5626 91.0063 84.5623 91.0894 84.546 91.1565C84.5567 91.159 84.5662 91.1653 84.5726 91.1743C84.5791 91.1833 84.5819 91.1943 84.5807 91.2053C84.5794 91.2162 84.5742 91.2264 84.5659 91.2337C84.5577 91.2411 84.547 91.2451 84.536 91.245C84.5249 91.245 84.5143 91.2409 84.5061 91.2335C84.4979 91.226 84.4928 91.2159 84.4916 91.2049C84.4905 91.1939 84.4934 91.1829 84.4999 91.1739C84.5064 91.165 84.516 91.1588 84.5268 91.1565C84.5271 91.0893 84.5274 91.0061 84.5279 90.9069C84.5289 90.6702 84.5303 90.3471 84.5321 89.9472C84.5358 89.0931 84.5699 87.8904 84.5956 86.4094C84.66 83.4057 84.7453 79.2825 84.8389 74.7307C84.9324 70.1788 85.0338 66.0429 84.8901 63.0607C84.8263 61.5697 84.7164 60.3664 84.6113 59.5406C84.5587 59.1276 84.5089 58.8075 84.4715 58.5802C84.456 58.481 84.4403 58.4009 84.4278 58.3337C84.4207 58.3066 84.4176 58.2785 84.4186 58.2505Z" fill="#263238"/>
<path d="M84.879 39.3365L88.0822 56.5999L123.18 59.3357L128.62 51.7587C128.62 51.7587 115.046 43.6822 103.105 41.2113C90.9984 38.698 84.879 39.3365 84.879 39.3365Z" fill="#455A64"/>
<g opacity="0.2">
<path d="M57.0937 79.0556C57.0937 79.0556 73.4571 86.2741 76.4356 86.959C79.4141 87.6439 127.455 88.2421 127.455 88.2421L128.46 86.0231L78.3169 85.4605C78.3169 85.4605 58.207 77.5825 57.0937 79.0556Z" fill="black"/>
</g>
<path d="M47.5551 72.9866C47.524 72.9625 47.4952 72.9356 47.4691 72.9063C47.415 72.8484 47.3289 72.7713 47.2174 72.6652C46.8825 72.3721 46.5313 72.0982 46.1653 71.8448C45.5822 71.457 44.9723 71.1111 44.34 70.8099C43.5016 70.4232 42.6359 70.0986 41.7499 69.8388C40.6761 69.5359 39.5809 69.315 38.4737 69.1782C37.8791 69.0796 37.2586 69.0513 36.6223 68.9942C36.3025 68.964 35.9826 68.9753 35.6627 68.9643C35.3428 68.9533 35.0006 68.939 34.6614 68.9599C31.7182 69.0815 28.8389 69.8556 26.2315 71.2262C25.0669 71.8208 23.9715 72.5423 22.9654 73.3776L22.8884 73.4445L22.8312 73.3611C21.2767 71.1149 19.8304 68.994 18.5786 67.0466C17.3267 65.0993 16.266 63.3224 15.4024 61.831C14.5388 60.3397 13.8724 59.1275 13.4121 58.3033C13.1932 57.8929 13.0186 57.5722 12.8949 57.3413L12.7616 57.0912C12.7449 57.0632 12.7321 57.033 12.7236 57.0015C12.7439 57.0266 12.7619 57.0535 12.7777 57.0817L12.9238 57.3222L13.4571 58.2651L15.4923 61.7706C16.3687 63.2556 17.4358 65.0198 18.6973 66.9576C19.9588 68.8953 21.3987 71.0226 22.9659 73.2689L22.8316 73.2683C23.8488 72.4213 24.9572 71.6901 26.1362 71.0883C28.7667 69.7058 31.6733 68.9294 34.6428 68.8159C34.9821 68.7854 35.321 68.8189 35.6505 68.8203C35.98 68.8218 36.3095 68.8232 36.6325 68.8566C37.272 68.917 37.8957 68.9486 38.4935 69.0504C39.6073 69.1975 40.7079 69.4313 41.7854 69.7494C42.6766 70.0147 43.5458 70.3491 44.3851 70.7493C45.0184 71.0598 45.6274 71.4175 46.207 71.8194C46.5718 72.0791 46.9179 72.3639 47.243 72.6717C47.3513 72.781 47.4341 72.8645 47.4818 72.9255C47.5085 72.943 47.5331 72.9635 47.5551 72.9866Z" fill="#263238"/>
<path d="M5.56021 81.8906C5.49978 81.7135 5.45561 81.5313 5.42824 81.3462C5.35623 80.9908 5.25611 80.4785 5.14374 79.8414C4.91583 78.5607 4.63561 76.8096 4.36587 74.857C4.09613 72.9044 3.8928 71.128 3.76729 69.8415C3.70292 69.2014 3.66044 68.6765 3.63642 68.3181C3.6121 68.1315 3.60543 67.9429 3.6165 67.755C3.66278 67.9366 3.69301 68.122 3.70684 68.3089L3.89852 69.8261C4.05924 71.1064 4.2818 72.8764 4.55154 74.829C4.82128 76.7817 5.08227 78.5423 5.275 79.8196C5.36508 80.431 5.44282 80.94 5.49869 81.3305C5.53621 81.5149 5.5568 81.7024 5.56021 81.8906Z" fill="#263238"/>
<path d="M20.3243 83.2383C20.2615 83.2457 20.1982 83.2454 20.1355 83.2375L19.5981 83.2351C19.1278 83.233 18.4496 83.2301 17.6149 83.1848C15.9421 83.1199 13.6298 82.9722 11.0878 82.6987C8.54571 82.4252 6.25351 82.0792 4.60088 81.7872C3.77616 81.6428 3.11131 81.5152 2.65107 81.4204L2.12374 81.3029C2.06121 81.2927 2.00008 81.2753 1.94162 81.2509C2.00423 81.2418 2.06783 81.2421 2.13036 81.2517L2.66426 81.3309L4.62392 81.6402C6.2767 81.897 8.569 82.2205 11.1079 82.494C13.6467 82.7675 15.9493 82.9344 17.622 83.0345L19.5985 83.1487L20.139 83.1831C20.2031 83.1925 20.2655 83.2111 20.3243 83.2383Z" fill="#263238"/>
<path d="M181.971 75.5414C181.971 75.5414 179.965 70.6636 180.023 70.5007C180.347 69.6288 181.515 67.241 181.515 67.241C182.242 67.6737 182.945 68.1456 183.62 68.6546C185.038 69.7111 186.349 70.9041 187.533 72.2164C188.155 72.9459 188.492 73.8757 188.481 74.8342L188.464 78.9129L181.971 75.5414Z" fill="white"/>
<path d="M137.905 52.788C137.62 53.247 137.303 53.685 136.956 54.0986C136.659 54.5464 136.331 54.9726 135.974 55.3739C136.178 54.8663 136.459 54.3937 136.809 53.9732C137.109 53.5226 137.479 53.1226 137.905 52.788Z" fill="#263238"/>
<path d="M5.87573 52.3199C5.87573 52.3199 21.2444 53.6927 21.0733 54.0406C20.9022 54.3886 5.84587 59.1178 5.84587 59.1178L5.87573 52.3199Z" fill="#FF725E"/>
<path d="M5.79706 59.3223C5.70952 58.162 5.68367 56.998 5.71961 55.835C5.72804 53.9156 5.77331 52.3482 5.82769 52.3485C5.91523 53.5087 5.94108 54.6728 5.90515 55.8358C5.93086 56.9991 5.89478 58.1629 5.79706 59.3223Z" fill="#263238"/>
<path d="M170.761 78.5919L170.679 78.454C170.625 78.3642 170.552 78.2263 170.444 78.0499C170.234 77.6939 169.9 77.1838 169.443 76.5356C168.875 75.7478 168.257 74.9971 167.594 74.2881C166.712 73.3348 165.736 72.4731 164.681 71.7161C163.399 70.774 161.982 70.0302 160.478 69.5094C158.723 68.9327 156.89 68.6333 155.043 68.6218C152.948 68.5654 150.855 68.7875 148.818 69.2823C147.721 69.5442 146.649 69.9024 145.614 70.3527C144.52 70.8062 143.486 71.3937 142.536 72.1018L142.504 72.1241L142.472 72.1239L119.081 69.6251L97.3381 67.2902L96.7146 67.2235L96.0941 67.1888L94.8596 67.1226L92.4448 67L87.8198 66.8069C84.8356 66.7011 82.0623 66.6313 79.5033 66.5817C74.4268 66.4826 70.3161 66.4549 67.4755 66.4264L64.2093 66.4121L67.4788 66.4073C70.3195 66.4197 74.4303 66.4186 79.51 66.5017C82.0467 66.5416 84.8296 66.6051 87.8267 66.7046C89.3193 66.7559 90.8621 66.8171 92.4549 66.8881L94.8729 67.0043L96.1074 67.0673L96.7311 67.1052L97.3546 67.1719L119.098 69.5068L142.488 72.0248L142.427 72.0438C143.391 71.3273 144.44 70.7334 145.551 70.2756C146.598 69.8235 147.683 69.4654 148.793 69.2054C150.843 68.709 152.951 68.4902 155.06 68.5547C156.915 68.5478 158.761 68.8311 160.529 69.3945C162.042 69.931 163.466 70.6922 164.752 71.6524C165.809 72.4153 166.784 73.2858 167.661 74.25C168.323 74.9581 168.937 75.7088 169.5 76.4974C169.952 77.1392 170.279 77.6685 170.479 78.0309C170.679 78.3932 170.761 78.5919 170.761 78.5919Z" fill="#263238"/>
<path d="M127.455 88.242L127.273 88.2412L126.735 88.2388L124.672 88.2042L117.078 88.046L92.0256 87.4465L78.236 87.0948L77.446 87.0722C77.1831 87.0724 76.9205 87.0585 76.6592 87.0303C76.1506 86.9262 75.6577 86.7563 75.193 86.5248C74.2671 86.1273 73.3601 85.7586 72.482 85.4061C70.7256 84.7009 69.0809 84.0635 67.5766 83.4843C64.5746 82.3258 62.1475 81.3682 60.4871 80.6731C59.6537 80.324 59.0119 80.0492 58.5713 79.8554L58.0796 79.6325L57.9136 79.5518L58.0861 79.6133L58.5874 79.8202L60.5034 80.6028C62.1735 81.2788 64.6039 82.2204 67.6156 83.3533C69.1198 83.9261 70.7678 84.554 72.5274 85.2559C73.4088 85.6053 74.3157 85.975 75.2481 86.3651C75.699 86.5911 76.1782 86.7557 76.6728 86.8544C76.9276 86.8831 77.1839 86.8971 77.4403 86.8962L78.2305 86.8997L92.0201 87.2386L117.063 87.8956L124.653 88.1177L126.716 88.1876L127.253 88.2091C127.394 88.2321 127.455 88.242 127.455 88.242Z" fill="#263238"/>
<path d="M123.556 51.6149C122.888 53.0195 122.156 55.0925 122.281 57.2492C122.307 57.9146 122.584 58.5453 123.057 59.0141C123.53 59.4828 124.163 59.7547 124.829 59.7749L131.153 59.8506C131.613 59.8586 132.06 59.6983 132.41 59.4C132.76 59.1017 132.989 58.6859 133.054 58.2307C133.099 57.8897 133.045 57.543 132.898 57.2319C132.249 55.8406 131.697 56.1037 131.697 56.1037C131.697 56.1037 129.796 52.0006 126.898 50.4331C126.602 50.2835 126.279 50.1953 125.949 50.174C125.618 50.1527 125.287 50.1987 124.974 50.3091C124.662 50.4196 124.375 50.5923 124.131 50.8167C123.888 51.0411 123.692 51.3127 123.556 51.6149Z" fill="#E0E0E0"/>
<path d="M130.065 59.8394C130.28 59.7989 130.479 59.6989 130.639 59.5508C131.081 59.2408 131.406 58.7917 131.563 58.2753C131.68 57.7563 131.726 57.2238 131.701 56.6923C131.715 56.4774 131.697 56.2616 131.646 56.0523C131.578 56.2584 131.543 56.4744 131.544 56.6916C131.525 57.2047 131.461 57.7151 131.352 58.2168C131.204 58.6926 130.924 59.1164 130.544 59.4384C130.261 59.6867 130.049 59.8074 130.065 59.8394Z" fill="#263238"/>
<path d="M130.556 55.2317C130.486 54.9318 130.368 54.645 130.208 54.3824C129.86 53.7314 129.423 53.1319 128.91 52.6012C128.403 52.0737 127.825 51.62 127.192 51.2533C126.941 51.0873 126.663 50.9649 126.371 50.8914C126.336 50.9584 127.591 51.5365 128.756 52.7605C129.921 53.9844 130.501 55.2698 130.556 55.2317Z" fill="white"/>
<path d="M81.845 38.1812C81.869 38.2464 81.8859 38.314 81.8953 38.3829L82.0111 38.9593C82.1049 39.4651 82.236 40.1919 82.3856 41.0947C82.6976 42.9035 83.0929 45.4005 83.4774 48.1694C83.8619 50.9383 84.1548 53.4572 84.3003 55.2845C84.3399 55.7421 84.3669 56.1549 84.3845 56.5197C84.402 56.8845 84.4263 57.1981 84.4251 57.454C84.424 57.7099 84.4232 57.8891 84.4225 58.0458C84.4306 58.1139 84.4303 58.1826 84.4216 58.2506C84.4043 58.1836 84.395 58.1148 84.3937 58.0457C84.3944 57.8889 84.3697 57.6969 84.3547 57.4569C84.3398 57.2169 84.3156 56.8905 84.2852 56.5289C84.2548 56.1672 84.2215 55.7544 84.1723 55.2967C83.9915 53.4757 83.6795 50.9662 83.2949 48.1974C82.9104 45.4285 82.5311 42.9284 82.2608 41.1197C82.1271 40.233 82.0215 39.5191 81.9503 38.9718C81.9193 38.7381 81.8914 38.5429 81.8729 38.3892C81.8536 38.3216 81.8442 38.2515 81.845 38.1812Z" fill="#455A64"/>
<g opacity="0.2">
<path d="M5.84581 59.1177L13.4735 54.4838L13.7005 53.0644C16.6486 53.3813 20.2302 53.6849 21.0764 54.0405C21.0754 54.2805 11.708 57.3104 5.84581 59.1177Z" fill="black"/>
</g>
<g opacity="0.2">
<path d="M180.017 70.5006L184.064 74.0949L188.488 74.8342L188.47 78.9129L181.971 75.5413C181.174 73.5992 180.449 71.7821 180.017 70.5006Z" fill="black"/>
</g>
<path d="M179.972 70.5003C179.936 70.4914 179.902 70.4784 179.869 70.4615L179.576 70.3354L178.452 69.8315L174.327 67.9803C172.58 67.2048 170.495 66.2839 168.164 65.3172C166.995 64.8482 165.769 64.3469 164.466 63.9445C163.811 63.7689 163.12 63.6603 162.427 63.5357L160.307 63.1777C154.575 62.2472 149.377 61.4566 145.602 60.8737L141.152 60.176L139.943 59.9755L139.624 59.9198C139.586 59.916 139.55 59.9072 139.515 59.8937L139.624 59.8942L139.943 59.9308L141.158 60.0928L145.618 60.7331C149.384 61.287 154.57 62.052 160.324 62.9858L162.443 63.3438C163.14 63.4716 163.831 63.5802 164.499 63.7591C165.824 64.1616 167.054 64.6757 168.216 65.1511C170.55 66.121 172.626 67.0611 174.366 67.8525C176.106 68.6439 177.51 69.3027 178.474 69.7644L179.585 70.3003L179.873 70.4455C179.943 70.4778 179.975 70.4972 179.972 70.5003Z" fill="#263238"/>
<path d="M35.249 101.945C43.1941 101.98 49.6642 95.3323 49.7004 87.0975C49.7366 78.8626 43.3251 72.1587 35.38 72.1237C27.4349 72.0888 20.9648 78.7362 20.9286 86.9711C20.8925 95.2059 27.3039 101.91 35.249 101.945Z" fill="#263238"/>
<path d="M20.9361 86.7183C20.9361 86.7183 20.936 86.7439 20.9359 86.7567C20.7846 94.9872 27.1017 101.787 35.0443 101.941C42.9868 102.094 49.5481 95.5454 49.6994 87.3117L49.6996 87.2733L20.9361 86.7183Z" fill="#263238"/>
<path d="M25.2192 86.8396C25.1138 92.6198 29.5459 97.3931 35.1246 97.5008C40.7033 97.6085 45.3077 93.0092 45.4067 87.229C45.5057 81.4487 41.0767 76.6755 35.5013 76.5678C29.9258 76.4601 25.3245 81.0594 25.2192 86.8396Z" fill="#FAFAFA"/>
<path d="M35.5078 76.5678C29.9291 76.4601 25.3246 81.0593 25.2257 86.8396L45.4196 87.229C45.5186 81.4488 41.0833 76.6755 35.5078 76.5678Z" fill="#E0E0E0"/>
<path d="M29.1632 86.9145C29.0998 90.4332 31.803 93.3434 35.2129 93.4096C38.6228 93.4757 41.4183 90.6728 41.4817 87.1542C41.5452 83.6355 38.8452 80.7253 35.448 80.6592C32.0509 80.5931 29.2299 83.3926 29.1632 86.9145Z" fill="#263238"/>
<path d="M154.29 102.468C162.235 102.503 168.705 95.8553 168.741 87.6204C168.778 79.3856 162.366 72.6816 154.421 72.6467C146.476 72.6118 140.006 79.2592 139.97 87.494C139.933 95.7289 146.345 102.433 154.29 102.468Z" fill="#263238"/>
<path d="M139.977 87.2413C139.977 87.2413 139.977 87.2669 139.977 87.2797C139.826 95.5102 146.143 102.31 154.085 102.464C162.028 102.617 168.589 96.0685 168.74 87.8348L168.741 87.7964L139.977 87.2413Z" fill="#263238"/>
<path d="M144.26 87.3625C144.155 93.1428 148.587 97.916 154.166 98.0237C159.744 98.1314 164.349 93.5322 164.448 87.7519C164.547 81.9717 160.118 77.1984 154.542 77.0908C148.967 76.9831 144.366 81.5823 144.26 87.3625Z" fill="#FAFAFA"/>
<path d="M154.549 77.0908C148.97 76.9831 144.365 81.5823 144.266 87.3625L164.46 87.752C164.559 81.9717 160.124 77.1984 154.549 77.0908Z" fill="#E0E0E0"/>
<path d="M148.204 87.4375C148.141 90.9561 150.844 93.8664 154.238 93.9325C157.632 93.9985 160.443 91.1957 160.507 87.677C160.57 84.1584 157.87 81.2481 154.457 81.182C151.044 81.1158 148.271 83.9156 148.204 87.4375Z" fill="#263238"/>
<path d="M100.171 53.7547C100.149 53.7066 102.82 52.2756 106.135 50.5563C109.451 48.8369 112.163 47.4829 112.185 47.5309C112.207 47.579 109.54 49.0101 106.221 50.7294C102.902 52.4487 100.203 53.8028 100.171 53.7547Z" fill="white"/>
<path d="M96.4719 53.3609C96.4465 53.3128 98.9832 51.8972 102.135 50.1868C105.288 48.4763 107.865 47.1472 107.907 47.1954C107.948 47.2436 105.392 48.6591 102.24 50.3696C99.088 52.08 96.4941 53.409 96.4719 53.3609Z" fill="white"/>
<path d="M59.3886 52.5582C59.556 52.465 59.7308 52.3856 59.9111 52.3206L61.35 51.7319L66.1028 49.7854L70.8366 47.7876L72.2692 47.1828C72.4415 47.1012 72.6206 47.0345 72.8043 46.9836C72.6445 47.0896 72.4748 47.1799 72.2977 47.2533C71.9771 47.4151 71.4866 47.6401 70.8872 47.9157C69.6915 48.4639 68.0281 49.1828 66.1724 49.9648C64.3167 50.7468 62.6279 51.3984 61.3974 51.8633C60.7822 52.0941 60.2824 52.2742 59.9363 52.3943C59.7592 52.4656 59.5758 52.5205 59.3886 52.5582Z" fill="white"/>
<path d="M62.8357 48.4913C62.8135 48.4401 64.1953 47.7583 65.9199 46.9661C66.9485 46.4582 68.0046 46.0079 69.0833 45.6172C69.1054 45.6653 67.7236 46.3502 65.9959 47.1424C64.9677 47.649 63.9127 48.0993 62.8357 48.4913Z" fill="white"/>
<path d="M188.473 78.9128C188.445 78.719 188.433 78.5231 188.437 78.3273C188.439 77.9146 188.442 77.3676 188.416 76.7276C188.39 76.0877 188.422 75.2401 188.384 74.3634C188.347 73.4867 187.694 72.6905 187.087 71.8976C186.482 71.1721 185.803 70.5119 185.061 69.9277C184.385 69.3777 183.757 68.9047 183.228 68.5121L181.952 67.5947C181.792 67.4887 181.64 67.3715 181.496 67.244C181.671 67.3234 181.838 67.4195 181.994 67.5309C182.313 67.7275 182.75 68.0205 183.292 68.4004C183.834 68.7802 184.469 69.2405 185.154 69.7874C185.914 70.3721 186.606 71.0392 187.218 71.7766C187.533 72.1653 187.821 72.5748 188.08 73.0025C188.339 73.4082 188.498 73.8692 188.544 74.3481C188.572 75.2568 188.537 76.05 188.534 76.7282C188.531 77.4063 188.506 77.9181 188.498 78.3275C188.507 78.523 188.498 78.7188 188.473 78.9128Z" fill="#263238"/>
<path d="M38.5883 17.5906C38.5985 15.8233 38.2009 14.0774 37.4266 12.4887C36.6523 10.9 35.522 9.5112 34.1237 8.43035C32.7254 7.3495 31.0966 6.60567 29.364 6.25668C27.6315 5.90769 25.8417 5.96294 24.134 6.41814C22.4262 6.87334 20.8465 7.71622 19.5175 8.88127C18.1885 10.0463 17.146 11.5022 16.4712 13.1356C15.7963 14.7691 15.5073 16.5361 15.6264 18.2995C15.7456 20.0628 16.2698 21.775 17.1583 23.3028L17.1901 23.3477C17.6283 24.0918 18.1794 24.6317 18.7326 25.4083L25.3669 34.2764C25.5593 34.5336 25.8087 34.7427 26.0956 34.8872C26.3826 35.0317 26.6991 35.1076 27.0203 35.109C27.3415 35.1105 27.6587 35.0373 27.9469 34.8953C28.2351 34.7534 28.4864 34.5465 28.681 34.291L35.2835 25.6249C35.8844 24.9227 36.4451 24.1871 36.9631 23.4218L36.9857 23.3899C38.0283 21.6347 38.5817 19.6322 38.5883 17.5906ZM27.0499 22.5433C26.0489 22.5389 25.0716 22.2377 24.2417 21.6778C23.4118 21.1179 22.7666 20.3245 22.3878 19.3979C22.0089 18.4712 21.9133 17.4531 22.1132 16.4721C22.313 15.4912 22.7993 14.5916 23.5105 13.8871C24.2217 13.1825 25.1258 12.7048 26.1086 12.5142C27.0914 12.3236 28.1086 12.4287 29.0316 12.8163C29.9546 13.2039 30.7419 13.8565 31.294 14.6916C31.846 15.5267 32.138 16.5068 32.133 17.5079C32.13 18.1723 31.9962 18.8297 31.7392 19.4424C31.4821 20.0551 31.1068 20.6112 30.6348 21.0788C30.1627 21.5464 29.6032 21.9164 28.9881 22.1677C28.373 22.419 27.7144 22.5466 27.0499 22.5433Z" fill="#BF1523" fill-opacity="0.8"/>
<path d="M137.194 15.9448L139.227 16.3184C139.976 17.1755 140.951 17.8049 142.04 18.135C143.372 18.5472 144.804 18.4961 146.103 17.99C147.402 17.484 148.491 16.5529 149.193 15.3485C149.894 14.1442 150.168 12.7375 149.968 11.358C149.768 9.97843 149.106 8.70733 148.091 7.7519C147.076 6.79647 145.767 6.21307 144.378 6.09681C142.989 5.98055 141.601 6.33829 140.442 7.1117C139.282 7.88511 138.418 9.02858 137.992 10.3557C137.565 11.6828 137.601 13.1153 138.093 14.4196L137.194 15.9448Z" fill="white"/>
<path d="M137.194 15.9445L137.258 15.8456C137.3 15.7754 137.358 15.6765 137.436 15.552L138.106 14.4289L138.071 14.4288C138.073 14.4309 138.075 14.4326 138.078 14.4338C138.081 14.4349 138.084 14.4355 138.087 14.4356C138.09 14.4356 138.093 14.435 138.095 14.4338C138.098 14.4327 138.101 14.431 138.103 14.4289C138.105 14.425 138.106 14.4206 138.106 14.4161C138.106 14.4116 138.105 14.4072 138.103 14.4033C137.754 13.4546 137.641 12.4353 137.774 11.4331C137.816 11.1183 137.884 10.8073 137.976 10.5031C138.077 10.1745 138.204 9.85418 138.354 9.54505C138.682 8.87043 139.133 8.26275 139.684 7.75303C140.317 7.16716 141.066 6.72079 141.883 6.44279C142.7 6.16478 143.566 6.06134 144.425 6.13914C145.375 6.23722 146.29 6.55206 147.099 7.05942C147.948 7.59262 148.65 8.32908 149.143 9.20217C149.836 10.4188 150.09 11.8364 149.863 13.2179C149.635 14.5993 148.94 15.8608 147.894 16.7912C147.293 17.3273 146.592 17.7395 145.831 18.0043C145.07 18.2691 144.265 18.3812 143.461 18.3343C142.656 18.2874 141.869 18.0823 141.145 17.7309C140.42 17.3794 139.771 16.8885 139.237 16.2861L137.728 16.0268L137.338 15.9611L137.2 15.9381C137.241 15.9504 137.283 15.9602 137.325 15.9674L137.708 16.0427L139.227 16.3341C139.901 17.1112 140.759 17.7058 141.724 18.0629C142.919 18.5025 144.219 18.5644 145.45 18.2401C146.681 17.9158 147.783 17.2211 148.606 16.25C149.428 15.2789 149.933 14.0784 150.051 12.811C150.169 11.5436 149.895 10.2706 149.265 9.16431L149.068 8.84354C148.995 8.73445 148.919 8.63495 148.842 8.52265C148.69 8.3175 148.527 8.12132 148.352 7.93507C148.266 7.84192 148.167 7.76151 148.078 7.67474C147.988 7.58603 147.894 7.50231 147.795 7.42397C147.6 7.26595 147.396 7.12078 147.182 6.9894C146.359 6.47294 145.428 6.15355 144.461 6.05612C143.552 5.97397 142.636 6.09226 141.778 6.40263C140.255 6.95124 139.008 8.07463 138.303 9.53203C138.153 9.84115 138.026 10.1615 137.925 10.4901C137.548 11.7856 137.605 13.1686 138.087 14.4288L138.125 14.4066C138.123 14.4045 138.121 14.4028 138.118 14.4016C138.115 14.4004 138.112 14.3998 138.109 14.3998C138.106 14.3998 138.103 14.4004 138.101 14.4015C138.098 14.4027 138.095 14.4044 138.093 14.4065L137.448 15.5553L137.284 15.8489L137.194 15.9445Z" fill="#263238"/>
<path d="M144.026 14.7716L141.012 12.7365L141.723 11.684L143.742 13.0492L146.278 9.72376L147.288 10.4928L144.026 14.7716Z" fill="#BF1523" fill-opacity="0.8"/>
<path d="M114.847 35.2646C114.854 35.1562 114.888 35.0512 114.944 34.9581C115 34.8649 115.077 34.7863 115.169 34.7286C118.056 32.8378 120.237 28.6311 120.471 25.0587C120.471 24.8572 120.472 24.6493 120.492 24.4414C120.681 19.3238 121.46 13.1466 122.149 11.4989C123.41 8.45576 127.634 8.1864 127.634 8.1864C133.24 7.81115 134.223 12.1214 134.772 16.0459C135.113 18.4882 136.431 27.2083 136.431 27.2083L135.399 27.6036C134.799 29.3819 133.811 31.0049 132.508 32.3556C131.205 33.7063 129.619 34.7511 127.863 35.4146C126.828 35.8003 125.941 35.95 125.543 35.6155C123.897 37.272 121.866 38.4933 119.631 39.1693C118.73 39.4695 117.778 39.5914 116.83 39.5281C116.523 39.5195 116.221 39.4477 115.942 39.3172C115.664 39.1866 115.415 39.0001 115.212 38.7692C115.055 38.5539 114.963 38.2985 114.945 38.0327C114.928 37.7669 114.986 37.5017 115.113 37.2677C115.241 37.0338 115.432 36.8408 115.664 36.7111C115.897 36.5814 116.162 36.5204 116.428 36.5352C116.22 35.8433 114.821 36.0419 114.847 35.2646Z" fill="#263238"/>
<path d="M126.837 9.60965L127.191 9.2753L130.148 10.4847C130.695 10.5159 131.602 11.5724 131.615 12.1227L131.505 24.1603C131.501 24.9984 131.709 25.7607 131.201 26.3983L130.667 27.0997C130.387 27.4704 130.019 27.7656 129.597 27.9586C129.174 28.1516 128.71 28.2362 128.247 28.205C127.783 28.1737 127.335 28.0276 126.942 27.7796C126.55 27.5317 126.225 27.1898 125.997 26.7849C125.939 26.6842 125.895 26.5765 125.864 26.4644C125.84 26.3729 125.821 26.2798 125.808 26.1858C125.7 25.1937 125.582 24.4989 125.582 24.4989C125.582 24.4989 125.615 22.794 125.615 22.8036C125.615 22.8132 123.294 22.5247 122.68 19.5437C122.366 18.0611 122.442 16.0236 122.538 14.0151C122.671 11.2645 124.604 9.59664 126.837 9.60965Z" fill="#FFBF9D"/>
<path d="M127.209 16.1053C127.215 16.2027 127.258 16.294 127.329 16.3609C127.4 16.4278 127.493 16.4651 127.591 16.4653C127.64 16.4672 127.689 16.4593 127.735 16.442C127.781 16.4247 127.823 16.3983 127.859 16.3645C127.894 16.3306 127.923 16.29 127.943 16.245C127.962 16.1999 127.973 16.1514 127.973 16.1023C127.97 16.0018 127.927 15.9068 127.854 15.8372C127.782 15.7676 127.685 15.729 127.585 15.7295C127.535 15.7284 127.486 15.7374 127.439 15.7559C127.393 15.7743 127.352 15.802 127.316 15.8371C127.281 15.8722 127.254 15.9141 127.235 15.9602C127.217 16.0063 127.208 16.0557 127.209 16.1053Z" fill="#263238"/>
<path d="M123.341 16.0883C123.345 16.1882 123.388 16.2825 123.461 16.3513C123.533 16.4202 123.63 16.4584 123.73 16.4579C123.779 16.4598 123.828 16.4519 123.874 16.4346C123.92 16.4173 123.962 16.3909 123.997 16.3571C124.033 16.3233 124.061 16.2826 124.081 16.2376C124.101 16.1926 124.111 16.144 124.112 16.0949C124.108 15.9945 124.066 15.8994 123.993 15.8298C123.92 15.7603 123.824 15.7216 123.723 15.7221C123.674 15.7202 123.625 15.7282 123.578 15.7457C123.532 15.7632 123.49 15.7899 123.454 15.8241C123.419 15.8582 123.39 15.8992 123.371 15.9447C123.351 15.9901 123.341 16.0389 123.341 16.0883Z" fill="#263238"/>
<path d="M122.975 14.9959C123.026 15.0441 123.295 14.8149 123.721 14.7976C124.147 14.7803 124.45 14.9736 124.491 14.9194C124.533 14.8652 124.46 14.8073 124.323 14.7171C124.137 14.6016 123.921 14.546 123.703 14.5576C123.488 14.5665 123.281 14.6441 123.113 14.779C122.988 14.8808 122.949 14.9766 122.975 14.9959Z" fill="#263238"/>
<path d="M127.181 15.0591C127.235 15.101 127.502 14.843 127.902 14.784C128.302 14.725 128.644 14.8832 128.683 14.8258C128.721 14.7684 128.638 14.7168 128.495 14.6426C128.297 14.5434 128.073 14.5099 127.855 14.5471C127.641 14.5765 127.442 14.6744 127.288 14.8261C127.185 14.944 127.156 15.0398 127.181 15.0591Z" fill="#263238"/>
<path d="M125.719 18.0566C125.498 17.9975 125.27 17.9664 125.041 17.9641C124.936 17.9636 124.833 17.944 124.811 17.8703C124.797 17.7605 124.816 17.649 124.867 17.5506L125.146 16.7297C125.404 16.0334 125.606 15.3176 125.75 14.589C125.438 15.2642 125.178 15.9625 124.973 16.6778L124.71 17.502C124.649 17.6329 124.636 17.7812 124.673 17.9209C124.691 17.9571 124.716 17.9888 124.748 18.0139C124.779 18.039 124.816 18.0566 124.855 18.0656C124.916 18.0746 124.977 18.0749 125.037 18.0664C125.264 18.092 125.493 18.0887 125.719 18.0566Z" fill="#263238"/>
<path d="M125.615 22.8227C127.031 22.777 128.407 22.3401 129.59 21.5606C129.59 21.5606 128.621 23.6933 125.599 23.5489L125.615 22.8227Z" fill="#FF9A6C"/>
<path d="M125.942 19.0588C126.015 18.9538 126.114 18.8695 126.229 18.814C126.344 18.7584 126.471 18.7336 126.599 18.7418C126.691 18.7464 126.781 18.7693 126.864 18.8092C126.946 18.8491 127.02 18.9053 127.081 18.9742C127.139 19.041 127.176 19.1239 127.186 19.212C127.196 19.3001 127.178 19.3891 127.136 19.4671C127.073 19.5449 126.988 19.6017 126.892 19.6304C126.796 19.6591 126.694 19.6582 126.598 19.6279C126.399 19.5687 126.213 19.47 126.053 19.3376C126.005 19.3055 125.964 19.2653 125.931 19.2187C125.916 19.196 125.908 19.1692 125.908 19.1418C125.908 19.1145 125.917 19.0878 125.932 19.0652" fill="#FF9A6C"/>
<path d="M126.953 18.2987C126.885 18.2984 126.906 18.7496 126.533 19.087C126.161 19.4245 125.681 19.4032 125.681 19.4576C125.68 19.512 125.792 19.5413 126 19.5358C126.265 19.5282 126.518 19.4273 126.715 19.251C126.903 19.0814 127.019 18.8459 127.038 18.5934C127.039 18.4047 126.985 18.2957 126.953 18.2987Z" fill="#263238"/>
<path d="M126.792 13.4418C126.849 13.5444 127.249 13.4438 127.752 13.4172C128.254 13.3907 128.653 13.4788 128.712 13.3671C128.731 13.316 128.648 13.2228 128.476 13.1357C128.247 13.0327 127.997 12.9855 127.747 12.9982C127.496 13.0057 127.251 13.0714 127.03 13.1901C126.84 13.2885 126.766 13.3905 126.792 13.4418Z" fill="#263238"/>
<path d="M123.043 13.2142C123.12 13.3073 123.402 13.1966 123.744 13.1757C124.087 13.1548 124.384 13.2105 124.442 13.1084C124.471 13.0606 124.42 12.9676 124.289 12.8838C124.113 12.7852 123.912 12.7409 123.711 12.7565C123.51 12.7722 123.318 12.847 123.16 12.9716C123.044 13.0735 123.008 13.1725 123.043 13.2142Z" fill="#263238"/>
<path d="M131.912 17.2776C131.912 17.2776 129.785 17.9305 128.606 12.6852C128.204 10.892 126.55 9.43237 126.55 9.43237L127.223 9.23379C127.223 9.23379 131.405 10.4294 131.475 10.4841C131.545 10.5388 132.521 12.6545 132.521 12.6545L131.912 17.2776Z" fill="#263238"/>
<path d="M131.085 16.9798C131.086 16.759 131.309 16.2194 131.53 16.1724C132.116 16.0534 133.181 16.0548 133.258 17.5523C133.367 19.6002 131.289 19.284 131.283 19.2264C131.277 19.1688 131.12 17.7605 131.085 16.9798Z" fill="#FFBF9D"/>
<path d="M131.866 18.4036C131.866 18.4036 131.904 18.4261 131.965 18.452C132.051 18.4856 132.147 18.486 132.234 18.4532C132.361 18.3621 132.463 18.2387 132.527 18.0956C132.591 17.9525 132.616 17.7949 132.599 17.639C132.596 17.463 132.553 17.29 132.473 17.133C132.45 17.0703 132.413 17.014 132.363 16.9692C132.314 16.9244 132.254 16.8923 132.19 16.8758C132.148 16.8666 132.105 16.8723 132.067 16.8921C132.03 16.9118 132 16.9443 131.984 16.9837C131.962 17.0412 131.984 17.0829 131.965 17.086C131.945 17.0891 131.92 17.0538 131.93 16.9675C131.94 16.917 131.966 16.8712 132.004 16.8366C132.059 16.7917 132.129 16.7692 132.2 16.7735C132.285 16.7859 132.365 16.82 132.433 16.8724C132.501 16.9248 132.555 16.9937 132.589 17.0727C132.685 17.2453 132.738 17.4388 132.743 17.6364C132.762 17.8179 132.727 18.001 132.643 18.1628C132.558 18.3246 132.428 18.4579 132.269 18.5461C132.216 18.5639 132.16 18.5699 132.105 18.5636C132.049 18.5572 131.996 18.5388 131.949 18.5095C131.872 18.4676 131.86 18.4227 131.866 18.4036Z" fill="#FF9A6C"/>
<path d="M133.248 25.0156C133.259 24.9835 133.266 24.9503 133.27 24.9165L133.323 24.6257C133.369 24.3635 133.431 23.9863 133.513 23.5164L133.462 23.5162C133.462 23.5898 133.442 23.6729 133.429 23.756L133.384 23.8486L133.435 23.868C133.747 22.7903 133.966 21.6878 134.089 20.5726C134.173 19.8656 134.219 19.1546 134.227 18.4427C134.255 17.6579 134.19 16.8725 134.032 16.1033C133.952 15.7786 133.828 15.4661 133.665 15.174C133.504 14.8928 133.316 14.6283 133.102 14.3845C132.689 13.8996 132.243 13.485 131.829 13.0737L129.64 10.9015L128.172 9.42991L127.764 9.03464L127.656 8.93499C127.645 8.92203 127.632 8.91113 127.618 8.90283C127.628 8.9158 127.641 8.9267 127.656 8.93499L127.758 9.04421L128.153 9.44902L129.611 10.927L131.787 13.1151C132.191 13.5296 132.637 13.9474 133.045 14.4227C133.48 14.9033 133.792 15.4819 133.955 16.1094C134.11 16.8704 134.174 17.647 134.147 18.4231C134.141 19.1326 134.099 19.8414 134.022 20.5467C133.893 21.6579 133.675 22.7567 133.368 23.8325L133.419 23.8519C133.419 23.8199 133.448 23.7881 133.461 23.7593C133.461 23.6762 133.484 23.5931 133.494 23.5195L133.443 23.5193C133.374 23.9925 133.318 24.3697 133.278 24.6319L133.238 24.926C133.238 24.9561 133.241 24.9862 133.248 25.0156Z" fill="#455A64"/>
<path d="M134.644 15.0951C134.637 15.0649 134.625 15.0358 134.61 15.0086L134.489 14.7681C134.388 14.5597 134.226 14.2615 134.01 13.9055C133.794 13.5494 133.527 13.1292 133.206 12.6799C132.885 12.2306 132.506 11.7587 132.086 11.2834C131.666 10.8081 131.229 10.3807 130.812 9.99818C130.395 9.61566 130.022 9.31011 129.687 9.05911C129.352 8.80811 129.081 8.61178 128.886 8.48616L128.66 8.34121C128.609 8.30899 128.58 8.29287 128.577 8.29606C128.6 8.31732 128.624 8.33669 128.65 8.35396L128.864 8.51486C129.055 8.65006 129.323 8.83678 129.648 9.11012C129.973 9.38347 130.349 9.69223 130.751 10.0747C131.152 10.4571 131.579 10.8781 132.002 11.3598C132.426 11.8415 132.798 12.307 133.126 12.7467C133.453 13.1864 133.723 13.6003 133.942 13.9564C134.162 14.3124 134.333 14.5979 134.444 14.7999L134.578 15.034C134.622 15.0694 134.641 15.0983 134.644 15.0951Z" fill="#455A64"/>
<path d="M99.4717 30.9551L97.4535 32.3282C97.4907 32.4162 97.5465 32.4951 97.6171 32.5594C97.6878 32.6238 97.7715 32.6721 97.8625 32.7011C97.9536 32.7301 98.0498 32.739 98.1446 32.7273C98.2394 32.7155 98.3306 32.6834 98.4118 32.6331C99.0759 32.3114 99.7234 31.9566 100.352 31.57L101.31 31.9612L102.05 31.0784L99.6798 30.9176C99.6082 30.9032 99.5338 30.9166 99.4717 30.9551Z" fill="#FF9A6C"/>
<path d="M107.27 34.0765L102.261 31.0697C102.237 31.0566 102.211 31.0499 102.184 31.0502L101.637 31.0478L99.6077 31.314C99.5802 31.3157 99.5541 31.3269 99.534 31.3457L97.6399 32.8537C97.6191 32.8711 97.6033 32.8936 97.594 32.919C97.5847 32.9445 97.5824 32.9719 97.5871 32.9986C97.5919 33.0252 97.6036 33.0501 97.6211 33.0708C97.6386 33.0915 97.6612 33.1072 97.6867 33.1162C97.9937 33.2013 98.3148 33.2223 98.6302 33.178C99.1579 32.993 99.6463 32.7109 100.07 32.3461C100.086 32.3324 100.105 32.3227 100.126 32.3178C100.147 32.3129 100.168 32.3129 100.189 32.3179L101.525 32.5605C101.558 32.5674 101.588 32.585 101.61 32.6104C101.633 32.6359 101.646 32.668 101.649 32.7018L101.648 32.8649C101.65 32.8948 101.642 32.9244 101.627 32.95C101.611 32.9756 101.588 32.9959 101.561 33.0085C101.17 33.2041 100.732 33.2854 100.297 33.2429C99.9817 33.1729 99.6599 33.1393 99.3373 33.1427C98.9836 33.1608 98.6343 33.2292 98.2999 33.3461C98.2491 33.3876 98.2109 33.4425 98.1897 33.5046C98.1684 33.5666 98.1649 33.6334 98.1796 33.6974C98.1943 33.7613 98.2266 33.8199 98.2728 33.8664C98.319 33.913 98.3774 33.9457 98.4412 33.9609C99.042 34.1043 100.567 34.3189 100.896 34.4196C101.347 34.5591 101.533 35.0846 102.811 35.4933C103.45 35.7008 104.497 35.4079 104.757 35.3131L105.9 36.4697C105.917 36.4806 105.936 36.4878 105.956 36.491C105.976 36.4941 105.996 36.4932 106.016 36.4882C106.035 36.4832 106.053 36.4742 106.069 36.4618C106.085 36.4495 106.098 36.434 106.108 36.4163L107.317 34.2974C107.33 34.2803 107.339 34.2606 107.343 34.2397C107.348 34.2188 107.348 34.1972 107.344 34.1763C107.339 34.1554 107.33 34.1357 107.318 34.1185C107.305 34.1012 107.289 34.0869 107.27 34.0765Z" fill="#FFBF9D"/>
<path d="M97.8211 36.8387L98.5039 36.9953C98.807 37.0648 99.1091 36.8754 99.1785 36.5723L99.5231 35.0694C99.5926 34.7663 99.4032 34.4642 99.1001 34.3948L98.4172 34.2382C98.1141 34.1687 97.8121 34.3581 97.7426 34.6612L97.3981 36.1641C97.3286 36.4672 97.518 36.7693 97.8211 36.8387Z" fill="#455A64"/>
<path d="M98.9819 33.1699C98.982 33.1507 98.8925 33.1311 98.7452 33.1688C98.6459 33.1837 98.5509 33.2198 98.4668 33.2747C98.3826 33.3295 98.3113 33.4018 98.2575 33.4866C98.154 33.6594 98.121 33.8655 98.1654 34.062C98.2 34.2061 98.2572 34.28 98.2765 34.2736C98.2957 34.2673 98.2769 34.1777 98.2775 34.0465C98.2676 33.88 98.3073 33.7143 98.3915 33.5703C98.4857 33.4345 98.6205 33.332 98.7767 33.2777C98.8857 33.2142 98.9818 33.1955 98.9819 33.1699Z" fill="#263238"/>
<path d="M98.7551 34.5316C98.7549 34.5668 98.9527 34.6893 99.2347 34.5721C99.2922 34.5441 99.3419 34.5025 99.3795 34.4508C99.4171 34.399 99.4415 34.3389 99.4504 34.2756C99.4508 34.1828 99.451 34.1284 99.4222 34.1283C99.3934 34.1282 99.3509 34.3423 99.1649 34.4471C98.9789 34.5518 98.7616 34.4869 98.7551 34.5316Z" fill="#263238"/>
<path d="M97.83 36.8501C97.8013 36.8264 97.7766 36.7982 97.7568 36.7666C97.716 36.6758 97.7107 36.5731 97.7421 36.4786C97.8299 36.1591 97.9144 35.8396 98.0055 35.5009C98.0966 35.1622 98.1683 34.8618 98.2498 34.5134C98.2559 34.4653 98.2741 34.4196 98.3029 34.3805C98.3316 34.3414 98.3698 34.3104 98.4139 34.2902C98.4497 34.2816 98.487 34.2817 98.5227 34.2907C98.5227 34.2907 98.4877 34.2522 98.4076 34.2678C98.3572 34.2871 98.3124 34.3188 98.2776 34.3601C98.2427 34.4013 98.2189 34.4507 98.2082 34.5036C98.1367 34.7561 98.0425 35.1011 97.9448 35.4878C97.8471 35.8745 97.756 36.2196 97.6973 36.4752C97.6806 36.5283 97.6755 36.5844 97.6825 36.6396C97.6894 36.6949 97.7082 36.748 97.7375 36.7953C97.7821 36.8435 97.83 36.8533 97.83 36.8501Z" fill="#263238"/>
<path d="M98.0938 35.079C98.2993 35.1723 98.5132 35.246 98.7326 35.2993C98.9491 35.3718 99.1715 35.4252 99.3973 35.459C99.1917 35.3657 98.9778 35.2919 98.7584 35.2387C98.5418 35.1665 98.3195 35.1131 98.0938 35.079Z" fill="#263238"/>
<path d="M97.9016 35.8843C98.1006 35.9757 98.3082 36.0474 98.5213 36.0981C98.7289 36.1703 98.9429 36.2227 99.1604 36.2545C98.9606 36.1641 98.7533 36.0914 98.5407 36.0374C98.333 35.9664 98.119 35.9151 97.9016 35.8843Z" fill="#263238"/>
<path d="M97.6641 36.8078C97.6127 36.7604 97.5754 36.6997 97.5565 36.6324C97.5376 36.5651 97.5378 36.4939 97.557 36.4267C97.6093 36.1678 98.0162 34.57 98.0162 34.57L97.7894 34.4987L97.3689 36.2723C97.3689 36.2723 97.2997 36.7199 97.6641 36.8078Z" fill="#E0E0E0"/>
<path d="M127.854 100.64L127.853 100.922C127.853 100.922 122.908 102.938 122.859 103.881L132.703 103.777L132.535 100.504C131.811 100.862 131.017 101.059 130.21 101.082C129.402 101.106 128.599 100.955 127.854 100.64Z" fill="#263238"/>
<path d="M132.703 103.787L132.662 103L123.246 103.387C123.246 103.387 122.81 103.58 122.859 103.891L132.703 103.787Z" fill="#455A64"/>
<path d="M127.821 100.96C127.821 101.008 128.064 101.028 128.3 101.179C128.536 101.331 128.666 101.533 128.711 101.501C128.756 101.469 128.681 101.203 128.393 101.023C128.106 100.843 127.796 100.921 127.821 100.96Z" fill="white"/>
<path d="M126.792 101.397C126.792 101.445 126.99 101.522 127.156 101.718C127.321 101.914 127.371 102.135 127.419 102.132C127.467 102.129 127.494 101.857 127.284 101.61C127.074 101.363 126.793 101.352 126.792 101.397Z" fill="white"/>
<path d="M126.217 102.639C126.262 102.639 126.327 102.409 126.2 102.146C126.073 101.883 125.85 101.783 125.831 101.824C125.811 101.866 125.948 102.004 126.05 102.222C126.151 102.44 126.189 102.635 126.217 102.639Z" fill="white"/>
<path d="M134.905 97.7022L130.709 98.8579L131.745 101.236L130.631 107.245C130.599 107.411 130.629 107.583 130.716 107.727C130.802 107.872 130.94 107.979 131.101 108.028C131.226 108.063 131.358 108.064 131.483 108.029C131.608 107.994 131.721 107.925 131.809 107.83C132.738 106.797 136.136 102.98 136.058 102.509L135.929 101.261C135.902 101.002 135.655 100.383 135.655 100.326L134.905 97.7022Z" fill="#263238"/>
<path d="M131.226 108.051L136.019 102.074L136.043 102.349C136.061 102.463 136.053 102.58 136.02 102.691C135.986 102.802 135.927 102.903 135.848 102.988C135.471 103.588 134.4 104.956 131.828 107.839C131.754 107.923 131.66 107.987 131.555 108.026C131.45 108.065 131.337 108.078 131.226 108.064L131.226 108.051Z" fill="#455A64"/>
<path d="M132.496 105.101C132.313 104.912 132.097 104.76 131.858 104.65C131.606 104.579 131.343 104.553 131.081 104.573C131.081 104.573 131.155 104.503 131.309 104.465C131.51 104.425 131.718 104.443 131.91 104.516C132.102 104.586 132.269 104.71 132.392 104.873C132.493 104.998 132.512 105.101 132.496 105.101Z" fill="white"/>
<path d="M132.099 106.004C131.9 105.917 131.696 105.842 131.489 105.778C131.271 105.757 131.052 105.749 130.833 105.752C130.93 105.681 131.043 105.633 131.162 105.613C131.281 105.593 131.403 105.601 131.518 105.637C131.933 105.716 132.131 105.985 132.099 106.004Z" fill="white"/>
<path d="M133.278 103.914C132.983 103.753 132.675 103.615 132.359 103.501C132.029 103.431 131.695 103.385 131.358 103.365C131.696 103.244 132.065 103.245 132.401 103.37C132.749 103.441 133.06 103.634 133.278 103.914Z" fill="white"/>
<path d="M131.701 100.42C131.738 100.688 131.753 100.959 131.745 101.23C131.689 101.578 131.617 102.023 131.529 102.508C131.427 103.081 131.325 103.598 131.247 103.969C131.218 104.173 131.167 104.374 131.094 104.567C131.097 104.36 131.119 104.155 131.161 103.953C131.217 103.579 131.302 103.058 131.407 102.489C131.492 102.006 131.578 101.562 131.649 101.21C131.642 100.946 131.659 100.681 131.701 100.42Z" fill="#455A64"/>
<path d="M137.831 61.7417C138.158 60.1437 139.018 57.2683 138.694 55.9425C137.943 52.8649 136.611 51.0803 134.798 47.1695L133.438 47.1635L120.381 46.8791L119.302 49.2416C118.101 52.4354 117.284 54.3352 116.938 56.669C116.542 59.3577 117.2 63.257 118.676 67.2016C121.867 75.7123 123.641 82.5149 123.755 84.3452C123.868 86.1756 124.058 88.0671 125.728 93.8711C126.951 98.1056 127.855 100.64 127.855 100.64C129.131 101.372 130.503 101.573 131.747 100.875L135.541 99.4262C135.541 99.4262 134.424 89.4434 133.082 86.7919C132.115 84.8682 130.519 83.9687 131.275 81.4895C132.032 79.0104 136.795 66.6254 137.831 61.7417Z" fill="#263238"/>
<path d="M122.581 53.6163C122.581 53.6163 122.6 53.6356 122.635 53.6805L122.778 53.8827L123.325 54.6721C123.805 55.3684 124.504 56.3792 125.385 57.6595C125.278 58.7755 125.234 60.0709 125.16 61.4973C125.087 62.9238 125.003 64.5262 124.912 66.2309C124.821 67.9356 124.714 69.7489 124.604 71.6679C124.493 73.5868 124.375 75.5697 124.177 77.6227C123.923 79.275 123.839 80.949 123.925 82.6185C123.962 83.0217 124.008 83.4186 124.083 83.8092C124.147 84.1957 124.239 84.5768 124.36 84.9493C124.628 85.6735 124.939 86.3754 125.233 87.0581C126.427 89.7922 127.543 92.2347 128.474 94.2894L130.692 99.1489C130.952 99.7195 131.152 100.165 131.291 100.473C131.358 100.62 131.408 100.736 131.446 100.816L131.494 100.934C131.494 100.934 131.471 100.899 131.433 100.822L131.269 100.482C131.123 100.178 130.914 99.7353 130.635 99.1679C130.099 98.0203 129.332 96.3662 128.381 94.3242C127.431 92.2822 126.312 89.8364 125.115 87.1056C124.817 86.4197 124.507 85.7241 124.232 84.9871C124.11 84.609 124.015 84.2226 123.949 83.831C123.875 83.434 123.822 83.0333 123.791 82.6307C123.7 80.9529 123.783 79.2702 124.037 77.6092C124.238 75.5659 124.346 73.567 124.469 71.6609C124.593 69.7548 124.687 67.9318 124.787 66.2239C124.888 64.516 124.971 62.9329 125.051 61.4937C125.131 60.0544 125.182 58.7558 125.295 57.6559L125.295 57.6783L123.267 54.6718L122.733 53.8729L122.6 53.6644C122.593 53.6487 122.587 53.6326 122.581 53.6163Z" fill="#455A64"/>
<path d="M124.444 25.7287L125.563 23.7502L127.95 26.4511L131.584 23.5559L132.198 24.2976L133.42 47.7425C133.42 47.7425 128.787 48.653 126.475 48.3198C124.758 48.0144 123.073 47.5442 121.446 46.9157L121.505 33.5887L124.444 25.7287Z" fill="#F5F5F5"/>
<path d="M131.641 26.7201L131.605 26.7616L131.503 26.8763C131.409 26.975 131.271 27.1216 131.091 27.2968C130.598 27.7849 130.074 28.24 129.521 28.6591L129.498 28.6781L129.479 28.6557C128.966 28.087 128.489 27.4854 128.054 26.8547L127.914 26.6494L127.969 26.6496L126.813 28.1929C126.768 28.2529 126.715 28.3065 126.656 28.3522C126.591 28.3994 126.511 28.4208 126.432 28.412C126.359 28.3949 126.292 28.3568 126.24 28.3023C126.189 28.2509 126.151 28.1964 126.11 28.1482L125.658 27.5768L125.022 26.7518C124.949 26.6588 124.891 26.5849 124.85 26.5272C124.809 26.4694 124.79 26.4469 124.793 26.4437L124.86 26.5176L125.041 26.7359L125.706 27.5482L126.164 28.1101C126.247 28.2096 126.33 28.3315 126.451 28.3513C126.573 28.371 126.688 28.2627 126.772 28.1511L127.921 26.6078L127.95 26.5696L127.978 26.6081L128.118 26.8134C128.551 27.4431 129.024 28.0446 129.534 28.6143L129.489 28.6141C130.042 28.1976 130.57 27.7503 131.072 27.2743C131.255 27.1023 131.393 26.9558 131.496 26.8667L131.605 26.7584C131.618 26.72 131.641 26.7201 131.641 26.7201Z" fill="#263238"/>
<g opacity="0.3">
<path d="M126.167 28.174C126.167 28.174 126.771 28.9252 126.942 28.7372C127.112 28.5492 128.014 27.1648 128.123 27.1077C128.232 27.0506 129.308 29.0035 129.734 28.8678C130.16 28.7322 131.683 27.2225 131.683 27.2225L131.718 26.6276L129.495 28.6301L127.936 26.6238L126.608 28.3359C126.608 28.3359 126.325 28.5522 126.167 28.174Z" fill="black"/>
</g>
<path d="M127.092 48.4537C127.088 48.3812 127.088 48.3086 127.093 48.2361C127.094 48.0794 127.095 47.8682 127.115 47.5964C127.14 47.0367 127.175 46.2499 127.221 45.284C127.31 43.3297 127.434 40.6303 127.549 37.6493C127.664 34.6682 127.753 31.9686 127.816 30.0143C127.846 29.0547 127.872 28.2582 127.89 27.6985C127.891 27.4362 127.911 27.2283 127.915 27.0588C127.916 26.9848 127.923 26.911 127.936 26.8381C127.939 26.9117 127.939 26.9854 127.935 27.0589C127.934 27.2156 127.933 27.4236 127.932 27.6987C127.929 28.2585 127.926 29.0455 127.896 30.0146C127.859 31.9691 127.786 34.6688 127.671 37.653C127.555 40.6372 127.415 43.3334 127.317 45.2844C127.255 46.2438 127.207 47.037 127.169 47.5967C127.152 47.8589 127.135 48.0668 127.122 48.2363C127.121 48.3097 127.111 48.3827 127.092 48.4537Z" fill="#263238"/>
<g opacity="0.3">
<path d="M122.927 38.9854C122.065 44.4733 121.204 49.9655 120.343 55.462L120.531 57.2479C120.659 57.3517 120.823 57.4018 120.988 57.3876C121.152 57.3734 121.305 57.2961 121.414 57.1718C121.614 56.9015 121.735 56.5808 121.763 56.2456C122.745 50.5428 123.286 44.7485 122.927 38.9854Z" fill="black"/>
</g>
<path d="M119.45 25.7675C118.528 26.0514 118.109 26.6478 117.496 27.7424L112.98 36.4464C112.98 36.4464 106.771 33.3128 106.758 33.3831L104.449 36.8376L111.723 41.3834C112.534 41.8894 113.507 42.0673 114.444 41.8805C115.381 41.6938 116.211 41.1567 116.766 40.3786L119.077 37.1386L121.048 25.4547L119.45 25.7675Z" fill="#BF1523"/>
<path d="M122.908 25.1077L120.074 25.6487L119.04 36.2011L119.369 43.506C119.368 43.6947 119.387 43.7972 119.387 43.7972L114.444 54.729C115.527 56.6852 118.482 57.6259 120.568 58.1213C120.568 58.1213 122.746 43.1561 122.888 39.8585C123.03 36.5609 125.334 24.0371 125.334 24.0371L122.908 25.1077Z" fill="#BF1523"/>
<path d="M115.045 53.5192L115.064 53.4713L115.122 53.3276C115.181 53.1999 115.261 53.0083 115.365 52.7752L116.269 50.7286C117.042 48.9917 118.124 46.578 119.355 43.8034C119.336 43.058 119.31 42.2805 119.276 41.4901C119.203 39.7048 119.112 38.0025 119.055 36.4539C118.997 34.9053 118.962 33.5135 118.954 32.3394C118.947 31.1654 118.964 30.2217 118.966 29.5659C118.968 29.246 118.969 28.9869 118.989 28.811C118.989 28.7279 118.99 28.6639 118.99 28.6159C118.989 28.5935 118.989 28.5711 118.99 28.5487C118.991 28.5711 118.991 28.5935 118.99 28.6159L118.989 28.8142C118.988 28.987 118.987 29.2429 118.986 29.566C118.983 30.2058 118.979 31.1655 118.989 32.3396C119 33.5137 119.042 34.8991 119.106 36.4541C119.169 38.0091 119.251 39.7018 119.333 41.4872C119.368 42.2775 119.39 43.055 119.409 43.8005L119.409 43.8164L116.301 50.7319L115.381 52.7689L115.129 53.3148L115.061 53.4585L115.045 53.5192Z" fill="#263238"/>
<path d="M122.748 38.2297L122.748 38.1945C122.748 38.1689 122.732 38.1336 122.723 38.0888C122.701 37.9927 122.67 37.855 122.629 37.6821C122.557 37.3299 122.457 36.8144 122.363 36.1742C122.27 35.5339 122.178 34.7658 122.105 33.9145C122.032 33.0632 121.978 32.1193 121.938 31.1338C121.924 30.7648 121.91 30.4032 121.894 30.0491C121.895 29.8732 121.88 29.7004 121.871 29.5276L121.872 29.2716L121.873 29.0797C121.875 29.068 121.875 29.0562 121.873 29.0445C121.874 29.036 121.874 29.0274 121.873 29.0189C121.879 29.0164 121.885 29.0151 121.891 29.0151C121.897 29.0151 121.903 29.0165 121.909 29.0191C121.934 29.0192 121.928 29.0352 121.934 29.0416L121.886 29.0414L122.647 28.5169L122.646 28.5713L121.823 28.1806L121.8 28.1805L121.8 28.1581C121.927 27.6884 122.076 27.2731 122.209 26.9058C122.342 26.5385 122.465 26.2224 122.565 25.9477C122.666 25.673 122.753 25.4846 122.811 25.3473L122.876 25.1909C122.883 25.1734 122.892 25.1564 122.901 25.1398C122.901 25.1398 122.901 25.159 122.885 25.1941L122.827 25.3538L122.597 25.9606C122.5 26.2225 122.383 26.5419 122.254 26.9188C122.124 27.2957 121.978 27.7046 121.858 28.1679L121.858 28.1359L122.682 28.5202L122.733 28.5428L122.688 28.5746L121.927 29.1055L121.879 29.1053L121.902 29.1054L121.901 29.2014L121.901 29.3262C121.901 29.4093 121.9 29.4957 121.9 29.5821C121.899 29.7548 121.914 29.9276 121.92 30.1036C121.934 30.4588 121.949 30.8203 121.966 31.1883C122.007 32.1738 122.06 33.1081 122.127 33.9658C122.193 34.8234 122.283 35.582 122.37 36.2222C122.456 36.8624 122.55 37.3778 122.616 37.7364C122.647 37.9093 122.675 38.0566 122.694 38.143C122.694 38.1878 122.694 38.223 122.713 38.2519C122.732 38.2808 122.751 38.2297 122.748 38.2297Z" fill="#263238"/>
<path d="M136.972 45.2628L138.856 27.0365L133.785 25.1524C133.133 24.7916 132.514 24.3746 131.935 23.9062L131.735 26.3462C131.735 26.3462 130.996 38.0483 132.051 43.9424C133.107 49.8365 132.954 49.6439 133.727 53.483C134.291 56.275 134.376 58.7131 135.242 58.9632C136.108 59.2133 140.507 57.6267 140.507 57.6267L136.972 45.2628Z" fill="#BF1523"/>
<path d="M138.857 27.0301C138.857 27.0301 140.392 27.7918 140.613 29.9425C140.806 31.8372 141.088 43.4478 141.045 44.385C141.003 45.3221 140.179 47.9641 138.729 48.0505C136.438 48.1844 135.815 46.4158 135.815 46.4158L136.456 40.4972L138.857 27.0301Z" fill="#BF1523"/>
<path d="M132.984 37.6476C132.983 37.6358 132.983 37.6241 132.984 37.6124L133.001 37.5133L133.079 37.1265C133.145 36.7877 133.24 36.3019 133.329 35.6944C133.513 34.4828 133.661 32.7976 133.772 30.9298C133.796 30.4884 133.817 30.0599 133.838 29.6505C133.839 29.4372 133.85 29.2325 133.87 29.0364C133.87 28.9372 133.871 28.838 133.887 28.7389L133.888 28.595L133.888 28.5214C133.888 28.5214 133.888 28.499 133.888 28.4894L133.907 28.4895C133.907 28.4895 133.93 28.4896 133.927 28.4896L133.882 28.4894L133.126 27.955L133.085 27.9229L133.133 27.9007L133.96 27.5236L133.96 27.5556C133.887 27.2226 133.832 26.886 133.794 26.5472C133.757 26.2495 133.72 25.9934 133.683 25.7853C133.645 25.5772 133.598 25.4203 133.566 25.3113L133.528 25.1896C133.528 25.1758 133.528 25.1619 133.529 25.148C133.529 25.148 133.529 25.148 133.548 25.1897C133.567 25.2314 133.576 25.2538 133.595 25.3083C133.649 25.4621 133.692 25.6194 133.724 25.7791C133.768 25.9872 133.809 26.2465 133.852 26.5442C133.892 26.8799 133.949 27.2133 134.024 27.5431L134.024 27.5655L134.001 27.5654L133.177 27.9489L133.178 27.8945L133.937 28.4289L133.889 28.4286C133.897 28.4269 133.906 28.4269 133.914 28.4288C133.922 28.4256 133.932 28.4256 133.94 28.4289C133.941 28.4373 133.941 28.446 133.94 28.4545C133.941 28.4672 133.941 28.4801 133.939 28.4928L133.939 28.5664C133.939 28.6144 133.939 28.6656 133.938 28.7136C133.938 28.8127 133.938 28.9119 133.937 29.0111C133.936 29.2126 133.919 29.4173 133.909 29.6252C133.888 30.041 133.867 30.4695 133.842 30.9045C133.771 32.5019 133.615 34.0944 133.377 35.6755C133.281 36.2797 133.18 36.7687 133.108 37.1043C133.069 37.264 133.037 37.3951 133.017 37.4877L132.991 37.5868C132.991 37.638 132.987 37.6508 132.984 37.6476Z" fill="#263238"/>
<g opacity="0.3">
<path d="M125.473 47.167C125.473 47.167 125.122 47.6165 125.886 47.7575C126.65 47.8984 135.29 47.2965 135.29 47.2965L136.927 48.2634L136.716 47.5715L135.353 46.1035L125.473 47.167Z" fill="black"/>
</g>
<path d="M135.92 32.8363L125.041 33.3419C124.917 33.3476 124.8 33.3989 124.712 33.486C124.624 33.5731 124.572 33.6897 124.565 33.8133L123.785 46.7117C123.781 46.7818 123.791 46.852 123.816 46.9178C123.84 46.9837 123.879 47.0435 123.928 47.0936C123.977 47.1436 124.037 47.1827 124.102 47.2082C124.167 47.2338 124.238 47.2452 124.308 47.2418L134.867 46.7379C134.988 46.7318 135.102 46.6819 135.189 46.5976C135.276 46.5132 135.329 46.4001 135.339 46.2793L136.442 33.3792C136.448 33.3081 136.439 33.2364 136.416 33.169C136.392 33.1017 136.354 33.0402 136.304 32.9887C136.255 32.9372 136.195 32.897 136.129 32.8707C136.062 32.8444 135.991 32.8327 135.92 32.8363Z" fill="#263238"/>
<path d="M138.216 30.0184L138.197 30.1335C138.18 30.2166 138.161 30.3253 138.131 30.4531L137.889 31.6613C137.686 32.6841 137.418 34.0969 137.165 35.6665C136.911 37.2361 136.713 38.6589 136.584 39.6948C136.521 40.2064 136.468 40.622 136.431 40.9161C136.415 41.0568 136.398 41.1687 136.388 41.2359C136.386 41.2758 136.379 41.3154 136.369 41.3541C136.365 41.3148 136.365 41.2751 136.369 41.2358C136.369 41.1526 136.386 41.0407 136.396 40.916C136.423 40.625 136.466 40.2061 136.526 39.6881C136.646 38.6522 136.835 37.2262 137.088 35.6534C137.341 34.0806 137.619 32.671 137.835 31.6515C137.943 31.1433 138.031 30.731 138.099 30.4466L138.177 30.127C138.187 30.0898 138.2 30.0535 138.216 30.0184Z" fill="#263238"/>
<path d="M136.106 41.2857C136.106 41.2857 136.73 41.3236 137.283 42.2506L138.339 42.9302C138.339 42.9302 139.26 44.393 138.326 45.7485C137.393 47.104 136.278 45.9443 136.278 45.9443C136.278 45.9443 135.156 46.496 134.843 46.3954C133.894 45.9565 132.978 45.4512 132.101 44.883C132.009 44.8059 131.331 44.0191 131.331 44.0191C131.331 44.0191 130.372 43.8102 130.277 43.5922C130.182 43.3743 130.165 42.8783 130.802 42.9291C130.802 42.9291 130.182 42.7408 130.11 42.427C130.037 42.1132 130.113 41.704 131.216 41.8656C132.319 42.0272 134.411 42.6251 134.664 42.5654C134.69 42.5511 134.711 42.5298 134.725 42.5039C134.739 42.4781 134.745 42.4487 134.743 42.4194C134.741 42.3901 134.73 42.362 134.713 42.3385C134.695 42.315 134.671 42.2972 134.643 42.287C134.563 42.2514 132.088 41.2744 131.683 41.1607C131.277 41.047 131.195 40.0805 132.086 40.3147C132.978 40.549 135.876 41.2559 135.876 41.2559L136.106 41.2857Z" fill="#FFBF9D"/>
<path d="M134.44 44.967C134.284 44.929 134.13 44.8813 133.98 44.8242C133.699 44.7334 133.309 44.6069 132.874 44.4771C132.44 44.3472 132.047 44.2431 131.759 44.1683C131.602 44.1347 131.447 44.0902 131.296 44.0351C131.339 44.0348 131.382 44.0404 131.424 44.0516C131.507 44.052 131.625 44.0877 131.769 44.1203C132.06 44.1824 132.459 44.2801 132.894 44.41C133.328 44.5398 133.718 44.6727 133.999 44.7795L134.318 44.9089C134.362 44.9216 134.403 44.9413 134.44 44.967Z" fill="#FF9A6C"/>
<path d="M134.813 43.817C134.758 43.8217 134.704 43.8215 134.65 43.8162C134.544 43.8158 134.397 43.7863 134.212 43.7567C133.841 43.7007 133.329 43.6089 132.773 43.4881C132.217 43.3673 131.712 43.2339 131.351 43.1299C131.172 43.0812 131.032 43.0358 130.926 43.0033C130.873 42.9906 130.821 42.971 130.773 42.9451C130.827 42.9501 130.881 42.961 130.933 42.9778L131.364 43.082C131.728 43.1732 132.23 43.297 132.786 43.4082C133.342 43.5194 133.851 43.6304 134.218 43.6992L134.653 43.7811C134.708 43.7859 134.761 43.798 134.813 43.817Z" fill="#FF9A6C"/>
<path d="M137.83 43.5807C137.834 43.6189 137.834 43.6576 137.83 43.6958C137.825 43.8035 137.811 43.9105 137.787 44.0155C137.715 44.3517 137.58 44.6712 137.389 44.9575C137.199 45.2451 136.956 45.4937 136.673 45.6901C136.588 45.7499 136.499 45.803 136.406 45.8489C136.339 45.8806 136.304 45.8965 136.301 45.89C136.297 45.8836 136.439 45.8043 136.644 45.6484C136.912 45.4454 137.145 45.1988 137.332 44.9189C137.517 44.6388 137.654 44.3303 137.739 44.0057C137.804 43.7405 137.818 43.5806 137.83 43.5807Z" fill="#FF9A6C"/>
<path d="M138.168 46.1062C138.277 45.9708 138.378 45.8292 138.471 45.6821C138.69 45.3244 138.813 44.9161 138.828 44.4969C138.842 44.0777 138.748 43.6617 138.555 43.2896C138.409 43.001 138.275 42.8533 138.285 42.8437C138.323 42.8723 138.356 42.9071 138.383 42.9465C138.467 43.0454 138.539 43.1529 138.6 43.2674C138.81 43.6431 138.913 44.0695 138.898 44.4999C138.883 44.9303 138.749 45.3482 138.512 45.7079C138.443 45.8212 138.363 45.928 138.274 46.0267C138.242 46.0579 138.207 46.0846 138.168 46.1062Z" fill="#263238"/>
<path d="M140.639 41.4753C140.639 41.4753 140.463 41.3562 140.157 41.2045C139.977 41.1161 139.79 41.0435 139.598 40.9877C139.364 40.9201 139.125 40.8761 138.882 40.8566C138.638 40.839 138.393 40.8444 138.149 40.8726C137.952 40.899 137.757 40.941 137.567 40.998C137.246 41.0989 137.054 41.2037 137.048 41.1908C137.041 41.178 137.089 41.159 137.176 41.1114C137.262 41.0638 137.272 41.0607 137.333 41.0353C137.404 41.0033 137.477 40.9759 137.551 40.9531C137.743 40.8854 137.941 40.837 138.143 40.8086C138.637 40.739 139.141 40.7794 139.618 40.927C139.812 40.9863 140 41.0643 140.18 41.1598C140.249 41.1953 140.316 41.2352 140.381 41.2791C140.431 41.3078 140.479 41.3412 140.524 41.3789C140.601 41.4496 140.642 41.4753 140.639 41.4753Z" fill="#263238"/>
<g opacity="0.3">
<path d="M133.601 25.3787C133.601 25.3787 134.507 27.5229 134.378 27.7014C134.249 27.88 133.766 28.0027 133.766 28.0027C133.766 28.0027 134.554 28.3484 134.553 28.6459C134.55 29.2473 133.687 32.8201 133.687 32.8201L133.917 28.4544L133.161 27.92L133.988 27.5398L133.601 25.3787Z" fill="black"/>
</g>
<path d="M128.26 33.1929C128.217 33.3207 128.357 32.1152 128.357 32.1152L133.476 31.9138L133.325 32.956L128.26 33.1929Z" fill="#455A64"/>
<path d="M98.5993 38.6674C98.3734 39.1303 98.1925 39.5294 98.1634 39.5932L97.9249 37.8231C97.9249 37.8231 97.394 37.7824 97.3174 38.4603C97.2409 39.1381 97.117 39.675 97.117 39.675L96.8416 39.7282L96.1696 39.7796L94.3154 38.7606L94.8784 40.2154C94.8784 40.2154 95.9165 40.5847 95.9996 40.601C96.0827 40.6174 98.9831 40.1631 98.9831 40.1631C99.0342 40.1793 99.6316 38.1697 99.6316 38.1697C99.6316 38.1697 98.8447 38.1631 98.5993 38.6674Z" fill="#6F4439"/>
<path d="M61.5282 67.2065C61.5282 67.2065 62.3436 60.0218 64.0298 59.2198C65.716 58.4179 68.0535 57.9131 68.6854 58.9939C69.465 60.3618 69.9855 61.8618 70.2207 63.4186C70.3651 64.8633 70.3941 66.3172 70.3072 67.7665L68.3887 67.5437C68.3887 67.5437 68.513 60.3784 67.9354 59.317C67.3578 58.2555 64.3982 59.0935 64.0695 60.3685C63.7408 61.6434 63.0023 67.3665 63.0023 67.3665L61.5282 67.2065Z" fill="#455A64"/>
<path d="M54.8009 77.3147C54.9035 74.3496 55.2169 67.8121 55.3543 64.9368C55.3725 64.5595 55.5364 64.204 55.8114 63.9451C56.0864 63.6861 56.4511 63.544 56.8288 63.5485L74.4644 63.7315C74.8433 63.7355 75.2059 63.8865 75.4757 64.1527C75.7455 64.4189 75.9014 64.7794 75.9105 65.1583L76.1992 77.3415C76.2039 77.5361 76.1697 77.7296 76.0985 77.9106C76.0272 78.0917 75.9205 78.2567 75.7846 78.3959C75.6486 78.5351 75.4862 78.6457 75.3069 78.7212C75.1275 78.7967 74.9349 78.8356 74.7403 78.8355L56.2594 78.8311C56.063 78.8307 55.8687 78.7909 55.6881 78.7138C55.5075 78.6368 55.3443 78.5241 55.2081 78.3826C55.072 78.2411 54.9658 78.0736 54.8958 77.8901C54.8259 77.7066 54.7936 77.5109 54.8009 77.3147Z" fill="#455A64"/>
<path d="M54.8012 77.3146C54.8064 77.5507 54.8609 77.783 54.9613 77.9967C55.09 78.2509 55.2889 78.4627 55.5345 78.6071C55.6911 78.6947 55.8619 78.7539 56.0391 78.7821C56.2458 78.7945 56.453 78.7954 56.6598 78.7848L64.1456 78.7633L69.3122 78.754L72.1913 78.7666L73.698 78.7733L74.4689 78.7766C74.7206 78.7983 74.974 78.77 75.2147 78.6935C75.4523 78.607 75.662 78.4575 75.8212 78.2609C75.9804 78.0644 76.0832 77.8283 76.1185 77.5778C76.1356 77.3137 76.1368 77.0488 76.122 76.7845C76.1232 76.5126 76.1084 76.2406 76.1032 75.9687C76.076 74.8745 76.0489 73.7589 76.0219 72.6221C75.9647 70.3505 75.9079 67.9989 75.8513 65.5834C75.8685 65.2918 75.8352 64.9994 75.7527 64.7192C75.6535 64.4517 75.4748 64.221 75.2406 64.058C75.004 63.9002 74.7262 63.8156 74.4419 63.8145L73.559 63.8107L70.0914 63.773L63.5368 63.6994L57.6029 63.6318L56.9119 63.6288C56.6931 63.6186 56.4747 63.6558 56.2716 63.7379C56.0768 63.8213 55.9031 63.9474 55.7635 64.1067C55.6238 64.2661 55.5217 64.4548 55.4646 64.6589C55.4205 64.8638 55.3992 65.0729 55.4011 65.2824C55.4001 65.4936 55.3992 65.7015 55.3727 65.9221C55.3516 66.3379 55.3339 66.7409 55.3161 67.1343C55.1647 70.2879 55.0416 72.8402 54.9634 74.609C54.918 75.4885 54.883 76.1729 54.8585 76.6431C54.8447 76.8691 54.8343 77.045 54.8274 77.1708C54.8269 77.2892 54.8106 77.3499 54.8106 77.3499C54.8106 77.3499 54.8109 77.2891 54.8114 77.1707C54.8119 77.0524 54.8127 76.87 54.8137 76.6397C54.8318 76.1695 54.8572 75.485 54.8898 74.6086C54.9648 72.8367 55.072 70.2843 55.201 67.1306C55.2027 66.7339 55.2365 66.331 55.2543 65.9184C55.2552 65.7105 55.2561 65.5025 55.2827 65.2787C55.2794 65.0638 55.3008 64.8492 55.3463 64.6392C55.4062 64.4172 55.5158 64.2118 55.6667 64.0385C55.8177 63.8651 56.0061 63.7283 56.2176 63.6385C56.4347 63.5457 56.6702 63.504 56.906 63.5168L57.597 63.5198L63.5278 63.5746L70.0824 63.6386L73.55 63.6731L74.4361 63.677C74.7497 63.6773 75.0559 63.7723 75.3146 63.9495C75.5753 64.1277 75.7742 64.3823 75.8841 64.6782C75.941 64.8267 75.9727 64.9836 75.978 65.1425L75.976 65.5936C76.0326 68.0027 76.0895 70.3574 76.1434 72.6322C76.1704 73.768 76.1944 74.8718 76.2215 75.9788C76.2203 76.2507 76.2191 76.5226 76.2403 76.7946C76.2551 77.0664 76.2539 77.3387 76.2367 77.6104C76.1978 77.8862 76.0844 78.1463 75.9087 78.3625C75.733 78.5788 75.5017 78.743 75.2396 78.8376C74.9831 78.9175 74.7137 78.9478 74.4459 78.9269L72.1746 78.9169L69.2955 78.9043L64.1259 78.8816L56.6403 78.8487C56.4268 78.855 56.2131 78.8476 56.0006 78.8267C55.8169 78.7968 55.6404 78.7331 55.4799 78.6388C55.2267 78.4878 55.0248 78.2639 54.9005 77.9965C54.8244 77.8356 54.7795 77.6617 54.7684 77.484C54.7756 77.4269 54.7865 77.3703 54.8012 77.3146Z" fill="#263238"/>
<path d="M74.6687 68.2016C74.6687 68.2016 74.6685 68.2431 74.6681 68.3327L74.6664 68.723C74.6648 69.0781 74.6626 69.5899 74.6597 70.2457C74.6538 71.5797 74.6262 73.499 74.603 75.8726C74.6023 76.0198 74.6017 76.1701 74.601 76.3237C74.6107 76.4863 74.5734 76.6483 74.4934 76.7902C74.4076 76.9308 74.281 77.0418 74.1305 77.1086C73.9744 77.172 73.805 77.1955 73.6375 77.1768L71.6222 77.1679L67.1724 77.1484L62.2555 77.1268L59.6547 77.1153L57.9913 77.108C57.8735 77.1139 57.7554 77.1059 57.6395 77.0841C57.5201 77.0552 57.4088 76.9997 57.3138 76.9217C57.2189 76.8437 57.1428 76.7453 57.0912 76.6338C57.0471 76.5381 57.0215 76.4349 57.0158 76.3296C57.0162 76.224 57.0166 76.1312 57.0171 76.0353C57.0179 75.8401 57.0188 75.6482 57.0196 75.4563C57.0213 75.0724 57.039 74.6918 57.0502 74.3111C57.0706 73.552 57.0899 72.8056 57.1081 72.072C57.1465 70.6006 57.1848 69.174 57.2195 67.8146L57.2198 67.7506L57.2838 67.7509C62.3496 68.0931 66.6967 68.1857 69.7741 68.212C71.3096 68.2188 72.5316 68.2242 73.3698 68.2278L74.3295 68.2321L74.5726 68.2331C74.5991 68.2294 74.626 68.2295 74.6525 68.2335L74.5662 68.2331L74.3167 68.232L73.3568 68.2566C72.5186 68.2721 71.2997 68.2859 69.761 68.2824C66.6835 68.2688 62.3332 68.1889 57.2641 67.8692L57.3315 67.8087C57.2968 69.1681 57.2617 70.5948 57.2264 72.0662C57.2061 72.804 57.1869 73.5504 57.1686 74.3052C57.167 74.6827 57.1493 75.0665 57.138 75.4504L57.1355 76.0262C57.1087 76.2093 57.1277 76.3962 57.1907 76.5703C57.2349 76.6634 57.2994 76.7455 57.3793 76.8106C57.4593 76.8757 57.5527 76.9221 57.6529 76.9466C57.7584 76.9652 57.8657 76.9721 57.9727 76.9672L59.6362 76.9745L62.237 76.9859L67.1537 77.0267L71.6034 77.0655L73.6188 77.0743C73.772 77.0902 73.9269 77.0689 74.0701 77.0123C74.2047 76.9531 74.3171 76.8528 74.3913 76.7258C74.4612 76.5978 74.4939 76.4528 74.4859 76.3072C74.4866 76.1536 74.4872 76.0065 74.4879 75.8593C74.5334 73.4986 74.5706 71.5857 74.5957 70.2582C74.5986 69.596 74.6232 69.0811 74.6312 68.726C74.6319 68.5533 74.6325 68.4221 74.6329 68.3262C74.6334 68.2302 74.6687 68.2016 74.6687 68.2016Z" fill="#263238"/>
<path d="M69.5673 76.004C69.5673 76.004 69.676 76.0045 69.8873 75.9638C70.1763 75.8994 70.441 75.7541 70.6506 75.5449C70.8113 75.3761 70.9337 75.1745 71.0092 74.9539C71.0847 74.7334 71.1116 74.4991 71.088 74.2672C71.0905 73.7106 71.0932 73.0835 71.0963 72.3862C71.0978 72.0375 71.0994 71.6728 71.1011 71.2953C71.1341 70.9088 71.0217 70.5239 70.7859 70.2158C70.6609 70.0538 70.5029 69.92 70.3225 69.8233C70.1421 69.7266 69.9433 69.6691 69.7391 69.6546C69.3104 69.6527 68.8562 69.6507 68.3988 69.6327L62.4073 69.5584C62.0291 69.5539 61.6639 69.6965 61.3888 69.9562C61.1137 70.2158 60.9502 70.5721 60.9328 70.9499L60.9295 71.7049C60.9273 72.2071 60.9251 72.6998 60.923 73.1796C60.922 73.4228 60.9209 73.6595 60.9199 73.8962C60.9188 74.1329 60.9178 74.3697 60.9169 74.584C60.9455 74.7987 61.0217 75.0042 61.1399 75.1857C61.2581 75.3672 61.4153 75.5201 61.6 75.6331C61.7761 75.7418 61.9731 75.8124 62.1782 75.8404C62.3796 75.8604 62.594 75.8422 62.7955 75.8591L65.0731 75.8979L68.371 75.9635L69.2698 75.9899L69.5033 75.9909C69.5287 75.9862 69.5548 75.9863 69.5801 75.9912L69.5001 75.9909L68.3709 75.9859L65.0727 75.9714L62.795 75.9614C62.5871 75.9605 62.3856 75.9596 62.1553 75.9426C61.9287 75.9171 61.7106 75.8419 61.5165 75.7223C61.3165 75.6013 61.1463 75.4371 61.0181 75.2416C60.89 75.0462 60.8073 74.8246 60.7761 74.593C60.7628 74.3564 60.7638 74.1192 60.7792 73.8828C60.7802 73.6493 60.7813 73.4093 60.7823 73.1694C60.7844 72.6864 60.7866 72.1937 60.7888 71.6947L60.7921 70.9333C60.8012 70.6641 60.8807 70.4019 61.0226 70.173C61.1677 69.9394 61.3705 69.7473 61.6115 69.615C61.8524 69.4827 62.1234 69.4147 62.3983 69.4176L68.3866 69.5015C68.8504 69.5036 69.2919 69.5055 69.7365 69.5298C69.9563 69.5458 70.1701 69.6085 70.3638 69.7136C70.5575 69.8187 70.7266 69.9638 70.8599 70.1394C71.1033 70.4694 71.2155 70.878 71.1747 71.286C71.1731 71.6667 71.1714 72.0314 71.1539 72.38C71.1509 73.0742 71.1289 73.7043 71.1201 74.2577C71.1195 74.3953 71.1189 74.5296 71.1023 74.6607C71.0868 74.7868 71.055 74.9103 71.0079 75.0282C70.9132 75.2736 70.7567 75.4904 70.5536 75.6576C70.3506 75.8248 70.1079 75.9368 69.8489 75.9828C69.7562 76.0013 69.6616 76.0084 69.5673 76.004Z" fill="#263238"/>
<g opacity="0.3">
<path d="M57.5598 77.007C62.817 78.6171 68.4303 78.654 73.7082 77.1131L57.5598 77.007Z" fill="black"/>
</g>
<path d="M67.6804 70.2767L65.4412 70.2465C65.1586 70.2427 64.9264 70.4688 64.9225 70.7514L64.9204 70.9082C64.9166 71.1908 65.1427 71.423 65.4253 71.4269L67.6645 71.457C67.9471 71.4608 68.1793 71.2348 68.1831 70.9521L68.1853 70.7954C68.1891 70.5127 67.963 70.2805 67.6804 70.2767Z" fill="#E0E0E0"/>
<path d="M67.5554 56.2538C67.8562 56.5211 68.1243 56.823 68.3544 57.1531C68.5905 57.7898 68.7801 58.4428 68.9217 59.107C68.9217 59.107 68.6262 59.3712 68.1052 58.5308C67.8407 58.133 67.6144 57.711 67.4294 57.2706L67.5554 56.2538Z" fill="#FFBF9D"/>
<path d="M64.9844 53.0945L65.6796 54.3324L67.5904 56.2891L68.3039 59.1713C68.3825 59.4764 68.3457 59.7997 68.2008 60.0794C68.161 60.1713 68.0921 60.2474 68.0047 60.2961C67.7899 60.3847 67.1803 60.0685 67.1803 60.0685C67.1803 60.0685 66.7332 60.62 66.258 60.2916C66.258 60.2916 65.5719 60.6405 65.1927 60.2869C65.1927 60.2869 64.7562 60.6305 64.434 60.4148C64.1118 60.199 63.1901 58.8418 63.1901 58.8418L61.9652 54.3801L64.9844 53.0945Z" fill="#FFBF9D"/>
<path d="M92.0938 41.3293L96.5417 41.7871C96.5417 41.7871 100.243 40.4438 100.662 40.2697C100.708 40.2536 100.749 40.2275 100.783 40.1933C100.817 40.1591 100.843 40.1177 100.858 40.0722C100.88 40.0039 100.884 39.9312 100.869 39.8611C100.854 39.7909 100.822 39.7257 100.775 39.6716C100.728 39.6175 100.668 39.5763 100.601 39.552C100.534 39.5277 100.461 39.521 100.39 39.5327L96.2483 40.1191C96.1252 40.1327 96.0007 40.1201 95.8829 40.0821C95.765 40.0441 95.6566 39.9815 95.5647 39.8986L94.134 38.5967C94.134 38.5967 94.9264 38.0947 95.4464 37.6875C95.5911 37.5895 95.6993 37.4466 95.7544 37.2808C95.8095 37.1151 95.8084 36.9358 95.7512 36.7707C95.2107 36.7395 92.1589 38.1625 92.1589 38.1625L90.8765 38.7967L92.0938 41.3293Z" fill="#AE7461"/>
<path d="M76.9029 6.77657C77.2231 6.80697 77.5432 6.71745 77.8012 6.52536C78.0592 6.33327 78.2368 6.05227 78.2995 5.73678C78.3622 5.42128 78.3056 5.09375 78.1406 4.81759C77.9757 4.54143 77.7142 4.33631 77.4067 4.24193C77.5971 4.03475 77.718 3.77324 77.7525 3.49398C77.787 3.21471 77.7334 2.93163 77.5991 2.68433C77.4649 2.43703 77.2567 2.23786 77.0037 2.11467C76.7507 1.99147 76.4656 1.95042 76.1881 1.99724C76.1733 1.71732 76.086 1.44605 75.9347 1.21009C75.7834 0.974133 75.5733 0.781605 75.3251 0.651427C75.0768 0.521248 74.799 0.4579 74.5188 0.467611C74.2387 0.477321 73.9659 0.559751 73.7273 0.706806C73.4085 0.455847 73.015 0.31858 72.6093 0.316798C72.2036 0.315015 71.8089 0.44882 71.488 0.696968C71.2122 0.641636 70.9259 0.678716 70.6733 0.802468C70.4207 0.92622 70.2159 1.12975 70.0906 1.38158C69.9653 1.63341 69.9265 1.91951 69.9801 2.19562C70.0338 2.47174 70.1769 2.72249 70.3874 2.90908" fill="#263238"/>
<path d="M77.0938 6.96622C76.9587 5.58868 76.3099 4.31248 75.2766 3.39152C74.2433 2.47056 72.9012 1.97234 71.5172 1.99598L71.2325 1.99473C68.1604 2.22756 66.6416 4.96568 66.9609 8.02858L67.1878 18.9959L72.4443 24.723L74.6996 21.0859L74.6932 17.4486C74.6932 17.4486 77.6418 16.9369 77.626 13.9809C77.6067 12.5476 77.3541 9.60979 77.0938 6.96622Z" fill="#AE7461"/>
<path d="M74.703 17.4358C73.3312 17.4618 71.9811 17.0915 70.8145 16.3694C70.8145 16.3694 71.7167 18.5391 74.6452 18.2225L74.703 17.4358Z" fill="#6F4439"/>
<path d="M76.3719 9.65346C76.3749 9.76389 76.3345 9.8711 76.2594 9.95211C76.1843 10.0331 76.0805 10.0815 75.9701 10.0868C75.9165 10.0923 75.8624 10.0869 75.811 10.0709C75.7595 10.055 75.7118 10.0288 75.6707 9.99394C75.6297 9.9591 75.5961 9.91632 75.5719 9.86818C75.5478 9.82003 75.5336 9.7675 75.5303 9.71375C75.5272 9.60384 75.5672 9.49708 75.6416 9.41616C75.716 9.33525 75.8191 9.28655 75.9289 9.28043C75.9825 9.27539 76.0367 9.28108 76.0881 9.29717C76.1396 9.31326 76.1873 9.33942 76.2285 9.37414C76.2698 9.40886 76.3037 9.45144 76.3283 9.49939C76.3529 9.54735 76.3677 9.59972 76.3719 9.65346Z" fill="#263238"/>
<path d="M76.4828 8.40955C76.4314 8.46691 76.1093 8.23516 75.655 8.24276C75.2007 8.25036 74.8702 8.48564 74.8192 8.43103C74.7683 8.37643 74.8486 8.3064 74.9898 8.19825C75.1844 8.0593 75.417 7.98329 75.6561 7.98045C75.8923 7.97632 76.1237 8.04673 76.3175 8.18169C76.461 8.28789 76.5085 8.38407 76.4828 8.40955Z" fill="#263238"/>
<path d="M72.2315 9.82395C72.2337 9.93383 72.1929 10.0402 72.1179 10.1205C72.0429 10.2008 71.9395 10.2487 71.8297 10.2541C71.7762 10.2595 71.722 10.2541 71.6706 10.2382C71.6191 10.2222 71.5714 10.1961 71.5304 10.1612C71.4893 10.1264 71.4557 10.0836 71.4315 10.0355C71.4074 9.98732 71.3932 9.93479 71.3899 9.88104C71.3869 9.77113 71.4268 9.66437 71.5012 9.58345C71.5757 9.50254 71.6787 9.45384 71.7885 9.44772C71.8423 9.44313 71.8965 9.44924 71.948 9.4657C71.9994 9.48215 72.0471 9.50863 72.0883 9.5436C72.1295 9.57857 72.1634 9.62135 72.1879 9.66947C72.2125 9.71758 72.2273 9.77009 72.2315 9.82395Z" fill="#263238"/>
<path d="M72.0195 8.57223C71.9681 8.62639 71.646 8.39784 71.1917 8.40544C70.7374 8.41304 70.41 8.64833 70.3591 8.59372C70.3082 8.53912 70.3852 8.46908 70.5297 8.36094C70.7234 8.22008 70.9565 8.14387 71.196 8.14314C71.4315 8.13627 71.6628 8.20698 71.8541 8.34437C71.9977 8.44737 72.0452 8.54355 72.0195 8.57223Z" fill="#263238"/>
<path d="M73.726 11.9099C73.9645 11.8313 74.2119 11.783 74.4624 11.766C74.5776 11.7665 74.6866 11.7254 74.7061 11.6455C74.7141 11.5263 74.6844 11.4075 74.6212 11.3061C74.5073 11.0272 74.3902 10.7324 74.2636 10.4279C73.7668 9.17813 73.4034 8.14963 73.4547 8.13067C73.506 8.1117 73.9495 9.10855 74.4462 10.3584L74.791 11.2396C74.8651 11.3789 74.8892 11.5393 74.8594 11.6942C74.8426 11.7351 74.8169 11.7718 74.7841 11.8016C74.7513 11.8313 74.7123 11.8534 74.6699 11.8661C74.6067 11.8861 74.5409 11.8966 74.4747 11.8972C74.2267 11.9337 73.9751 11.938 73.726 11.9099Z" fill="#263238"/>
<path d="M72.1318 7.02444C72.0737 7.13935 71.684 7.02247 71.2041 7.02036C70.7243 7.01825 70.3208 7.09965 70.2766 6.98109C70.2576 6.92343 70.3381 6.81821 70.5112 6.723C70.7321 6.60726 70.9793 6.55101 71.2285 6.5598C71.4744 6.56451 71.7146 6.63398 71.925 6.7612C72.0846 6.85787 72.1577 6.96697 72.1318 7.02444Z" fill="#263238"/>
<path d="M76.5091 6.80047C76.4158 6.90563 76.0388 6.79841 75.5878 6.79643C75.1367 6.79444 74.7589 6.87915 74.6697 6.77319C74.6284 6.72183 74.6864 6.61651 74.8532 6.51488C75.0815 6.38967 75.3391 6.32784 75.5994 6.33581C75.8586 6.33261 76.1138 6.40009 76.3375 6.53099C76.497 6.64366 76.5509 6.74947 76.5091 6.80047Z" fill="#263238"/>
<path d="M67.4857 10.8909C67.4798 10.7826 67.4521 10.6766 67.4043 10.5792C67.3564 10.4819 67.2895 10.3952 67.2073 10.3243C67.1252 10.2535 67.0296 10.1999 66.9263 10.1669C66.823 10.1339 66.7141 10.122 66.6061 10.1321C66.0556 10.1936 65.4463 10.5172 65.5021 11.6564C65.602 13.6754 67.6069 13.1596 67.6103 13.102C67.6138 13.0444 67.5332 11.7229 67.4857 10.8909Z" fill="#AE7461"/>
<path d="M67.1341 12.3609C67.1341 12.3609 67.0988 12.3863 67.0411 12.4181C66.9588 12.4562 66.8654 12.4626 66.7787 12.4361C66.644 12.3595 66.5322 12.2484 66.4546 12.1142C66.3771 11.9801 66.3366 11.8277 66.3374 11.6728C66.323 11.5 66.3478 11.3263 66.41 11.1645C66.4256 11.1007 66.4566 11.0418 66.5003 10.9929C66.544 10.944 66.5991 10.9066 66.6607 10.884C66.7006 10.8714 66.7437 10.8728 66.7826 10.8881C66.8216 10.9034 66.8541 10.9317 66.8747 10.9682C66.9032 11.0227 66.8935 11.0642 66.9031 11.0675C66.9126 11.0707 66.9448 11.0324 66.926 10.9492C66.9119 10.9 66.8816 10.8571 66.8401 10.8272C66.8117 10.8071 66.7795 10.7929 66.7454 10.7856C66.7114 10.7783 66.6762 10.778 66.642 10.7848C66.5615 10.8039 66.4871 10.8432 66.4259 10.8988C66.3647 10.9545 66.3186 11.0248 66.2919 11.1032C66.2137 11.2821 66.1809 11.4775 66.1966 11.6722C66.1955 11.8524 66.2478 12.029 66.3467 12.1797C66.4456 12.3304 66.5869 12.4485 66.7527 12.5192C66.8079 12.532 66.8652 12.5325 66.9205 12.5205C66.9759 12.5086 67.0279 12.4846 67.0729 12.4502C67.1307 12.4121 67.1405 12.3609 67.1341 12.3609Z" fill="#6F4439"/>
<path d="M75.3431 2.78053C75.3239 2.72999 75.2995 2.68163 75.2701 2.63626C75.1548 2.47221 75.0033 2.33686 74.8273 2.24068C74.6513 2.1445 74.4556 2.09006 74.2553 2.08156C74.0249 1.9674 73.7857 1.8722 73.5399 1.7969C73.3886 1.53885 73.174 1.32365 72.9164 1.17162C72.6587 1.01959 72.3666 0.935757 72.0676 0.928039C71.7685 0.920322 71.4724 0.988973 71.2073 1.12751C70.9422 1.26605 70.7168 1.4699 70.5523 1.71979L70.3026 1.76668C70.0795 1.60788 69.823 1.50225 69.5527 1.45788C69.2825 1.41351 69.0056 1.43159 68.7434 1.51072C68.4813 1.58985 68.2406 1.72793 68.0401 1.9144C67.8395 2.10087 67.6842 2.33078 67.5862 2.5865C67.339 2.52752 67.0799 2.54202 66.8407 2.62822C66.6016 2.71441 66.3929 2.86856 66.2401 3.07173C66.0874 3.27489 65.9973 3.51824 65.9809 3.7719C65.9645 4.02555 66.0225 4.27848 66.1478 4.49962C65.9614 4.59576 65.8026 4.73794 65.6865 4.91266C65.5704 5.08739 65.5008 5.28887 65.4844 5.49801C65.4844 5.59446 65.5037 5.68993 65.5413 5.77876C65.5788 5.86759 65.6339 5.94797 65.7031 6.01511C65.7723 6.08226 65.8544 6.13481 65.9443 6.16964C66.0342 6.20447 66.1303 6.22086 66.2267 6.21786C66.2139 7.25629 66.2595 8.29463 66.3633 9.32794C66.4114 10.0351 67.3182 10.4422 67.3896 10.932C67.7467 13.3808 68.5269 12.0119 68.7476 6.92953C68.7957 6.89135 68.8471 6.84679 68.8985 6.79903C69.0045 6.70352 69.0274 6.58206 69.1174 6.48008C69.2075 6.37811 69.4378 6.38552 69.5977 6.39902C69.8951 6.41933 70.1903 6.33513 70.4323 6.16097C70.6743 5.98682 70.8479 5.73363 70.9231 5.44512C71.0148 5.54408 71.1403 5.60493 71.2748 5.6156C71.4093 5.62627 71.5428 5.58596 71.649 5.5027C71.8565 5.32965 72.0384 5.12795 72.1891 4.90365C72.2662 4.79313 72.3688 4.70284 72.4883 4.64044C72.6077 4.57803 72.7405 4.54535 72.8752 4.54517C73.0184 4.59217 73.1663 4.62286 73.3163 4.63668C73.582 4.60586 73.7081 4.2929 73.7412 4.03072C73.7467 3.80397 73.8141 3.58303 73.936 3.39177C74.0965 3.31072 74.27 3.25843 74.4485 3.23727C74.5477 3.23771 74.6499 3.26694 74.749 3.28017C74.7959 3.28361 74.8429 3.28382 74.8898 3.28079C74.9529 3.30085 75.0147 3.32462 75.075 3.35199C75.9753 3.76862 76.7863 5.59884 76.7863 5.59884C76.8298 4.43138 76.175 3.46239 75.3431 2.78053Z" fill="#263238"/>
<path d="M65.8885 4.62008C65.8885 4.62008 65.8885 4.62008 65.9046 4.58816C65.9207 4.55624 65.94 4.54353 65.9689 4.50847C66.0614 4.41284 66.1701 4.33427 66.2898 4.27635C66.474 4.18173 66.6784 4.13323 66.8855 4.135C67.1604 4.13384 67.4271 4.22895 67.6393 4.40384L67.588 4.4228C67.6451 4.20628 67.7471 4.00416 67.8873 3.82954C68.0275 3.65491 68.2028 3.51167 68.4018 3.40908C68.6251 3.28621 68.8697 3.20695 69.1226 3.17552C69.3897 3.14652 69.6597 3.16067 69.9222 3.21742C70.4105 3.33669 70.8726 3.54476 71.2855 3.83123L71.2247 3.85015C71.3901 3.42458 71.7105 3.0774 72.1215 2.87838C72.4432 2.72538 72.8043 2.67557 73.1554 2.73577C73.3829 2.77312 73.6003 2.85683 73.7941 2.9817C73.8462 3.01375 73.8952 3.05036 73.9408 3.09111L73.9886 3.13291C73.9173 3.09354 73.8481 3.05053 73.7812 3.00404C73.5837 2.89184 73.3671 2.81713 73.1424 2.7837C72.7555 2.72677 72.3608 2.80455 72.0245 3.00401C71.6881 3.20347 71.4305 3.51248 71.2949 3.87925L71.2755 3.92396L71.234 3.89818C70.8292 3.61748 70.3755 3.41477 69.8963 3.30048C69.6434 3.24436 69.3832 3.22918 69.1255 3.2555C68.8827 3.28542 68.6478 3.36148 68.4335 3.4796C68.2422 3.575 68.073 3.70935 67.9368 3.87403C67.8005 4.03872 67.7002 4.23009 67.6423 4.43584L67.6421 4.49022L67.6007 4.45485C67.4012 4.2865 67.1494 4.19267 66.8884 4.1894C66.7021 4.1822 66.5165 4.2172 66.3455 4.29179C66.1746 4.36637 66.0227 4.47862 65.9012 4.62014L65.8885 4.62008Z" fill="#455A64"/>
<path d="M73.9529 3.25753C73.9447 3.28405 73.9338 3.30972 73.9206 3.33416C73.8912 3.41116 73.8673 3.49017 73.8492 3.57058C73.8232 3.67283 73.8002 3.80389 73.7707 3.95732C73.7444 4.1354 73.6793 4.3055 73.5798 4.45553C73.5456 4.49938 73.5031 4.536 73.4546 4.56325C73.4062 4.59049 73.3528 4.60783 73.2976 4.61424C73.1837 4.62483 73.0691 4.62433 72.9553 4.61274C72.8404 4.59375 72.7226 4.60424 72.6128 4.64323C72.5012 4.70078 72.4019 4.77969 72.3207 4.87548C72.2339 4.97427 72.1502 5.08586 72.0634 5.19425C71.9827 5.31576 71.8828 5.42337 71.7677 5.51286C71.636 5.60144 71.4837 5.65474 71.3255 5.66767C71.2451 5.68162 71.1627 5.68126 71.0824 5.6666C71.0379 5.65836 70.9955 5.64129 70.9577 5.6164C70.9199 5.59151 70.8875 5.5593 70.8623 5.52168L70.9359 5.522C70.9114 5.64315 70.8677 5.7596 70.8064 5.86693C70.7416 5.9756 70.6602 6.07347 70.5652 6.15698C70.3651 6.32565 70.1221 6.43535 69.8632 6.4738C69.7574 6.49074 69.6502 6.4967 69.5432 6.49159C69.4463 6.47013 69.346 6.46969 69.2489 6.4903C69.1606 6.52316 69.086 6.58482 69.037 6.66532C68.9747 6.74723 68.907 6.82494 68.8344 6.89796C68.5646 7.18803 68.1968 7.36767 67.8021 7.40208C67.4455 7.39429 67.1043 7.25493 66.8441 7.01078C66.6185 6.80989 66.46 6.54454 66.39 6.25061L66.4251 6.26996C66.311 6.29563 66.1927 6.29607 66.0785 6.27126C65.9642 6.24644 65.8567 6.19697 65.7635 6.12629C65.6272 6.01661 65.532 5.86395 65.4935 5.69323C65.4722 5.58762 65.4727 5.47875 65.4949 5.37333C65.5012 5.34599 65.5099 5.31927 65.5209 5.29347L65.521 5.26788C65.4873 5.40655 65.4867 5.55118 65.5191 5.69015C65.5607 5.85077 65.6561 5.99231 65.7893 6.09121C65.8766 6.1562 65.977 6.20129 66.0836 6.22331C66.1902 6.24534 66.3003 6.24376 66.4062 6.21869L66.4349 6.21881L66.4348 6.2476C66.5083 6.5269 66.6631 6.77809 66.8795 6.96935C67.1275 7.19712 67.4498 7.32701 67.7864 7.33482C68.1612 7.2998 68.5097 7.12692 68.7643 6.84967C68.8336 6.77981 68.8981 6.70528 68.9572 6.62658C69.0161 6.53178 69.1056 6.45993 69.2108 6.42295C69.2652 6.40358 69.3229 6.39514 69.3805 6.39811L69.534 6.39878C69.6409 6.40432 69.7481 6.39943 69.854 6.38419C70.0975 6.34887 70.3268 6.24816 70.5175 6.09279C70.6934 5.93994 70.8145 5.73376 70.8624 5.50568L70.882 5.41299L70.936 5.49321C70.9843 5.54526 71.0454 5.58374 71.1133 5.60481C71.1811 5.62587 71.2533 5.6288 71.3226 5.61327C71.4668 5.6001 71.6056 5.55123 71.7263 5.47109C71.8365 5.38013 71.9319 5.27263 72.0092 5.15242C72.0992 5.04405 72.1797 4.93244 72.2729 4.83368C72.3617 4.7298 72.471 4.64534 72.5939 4.58556C72.7138 4.54248 72.843 4.53201 72.9683 4.55522C73.0739 4.57366 73.1811 4.58056 73.2881 4.57582C73.3366 4.57142 73.3837 4.55736 73.4267 4.53447C73.4696 4.51159 73.5076 4.48033 73.5383 4.44256C73.6347 4.29952 73.6988 4.13711 73.7259 3.96672C73.7617 3.81652 73.7879 3.68548 73.8171 3.58323C73.8387 3.50185 73.868 3.42271 73.9046 3.34689L73.9529 3.25753Z" fill="#455A64"/>
<path d="M72.3244 12.7291C72.2269 12.9712 72.2181 13.24 72.2996 13.4879C72.381 13.7359 72.5474 13.9471 72.7695 14.0843C72.8629 14.132 72.9649 14.1607 73.0694 14.1689C73.174 14.1771 73.2792 14.1646 73.3789 14.132C73.4786 14.0995 73.5709 14.0475 73.6505 13.9792C73.7301 13.9109 73.7954 13.8275 73.8427 13.7339C73.9412 13.5233 73.9861 13.2916 73.9737 13.0595C73.5102 12.955 72.7846 12.8367 72.3244 12.7291Z" fill="#6F4439"/>
<path d="M73.7748 13.8712C73.7447 13.9199 73.704 13.9613 73.6559 13.9922C73.5277 14.0835 73.377 14.1381 73.2201 14.1503C72.9884 14.1659 72.7595 14.0916 72.5812 13.9427C72.4709 13.8506 72.3807 13.7367 72.3163 13.6082C72.2519 13.4797 72.2147 13.3393 72.207 13.1957C72.196 13.0449 72.2118 12.8933 72.2538 12.748L72.2539 12.7129L72.2891 12.713C72.7621 12.8079 73.1776 12.8929 73.4749 12.9582C73.6342 12.9865 73.7913 13.0267 73.9446 13.0786C73.7834 13.068 73.6231 13.046 73.465 13.0125C73.1646 12.96 72.749 12.8846 72.2728 12.7929L72.3209 12.7643C72.2837 12.9007 72.269 13.0422 72.2774 13.1832C72.2845 13.3163 72.3185 13.4466 72.3773 13.5662C72.4362 13.6858 72.5187 13.7922 72.6199 13.8789C72.7868 14.0213 73.0012 14.0953 73.2204 14.0863C73.3685 14.0794 73.5126 14.0361 73.64 13.9602C73.7266 13.9094 73.7684 13.868 73.7748 13.8712Z" fill="#263238"/>
<path d="M70.8604 94.0555L70.5339 100.638C70.5339 100.638 77.1193 103.172 77.1779 104.394L64.3823 104.238L64.4563 93.9602L70.8604 94.0555Z" fill="#263238"/>
<path d="M64.4015 104.238L64.4444 103.202L76.6848 103.739C76.6848 103.739 77.2499 103.994 77.1811 104.381L64.4015 104.238Z" fill="#455A64"/>
<path d="M70.7515 100.575C70.7512 100.639 70.4312 100.663 70.1105 100.86C69.7897 101.057 69.6318 101.318 69.5775 101.293C69.5233 101.267 69.6176 100.906 69.9961 100.674C70.3746 100.442 70.7646 100.52 70.7515 100.575Z" fill="#263238"/>
<path d="M72.0864 101.147C72.0861 101.208 71.8266 101.312 71.6111 101.573C71.3956 101.835 71.3336 102.113 71.2696 102.109C71.2057 102.106 71.172 101.751 71.4453 101.432C71.7187 101.113 72.0835 101.089 72.0864 101.147Z" fill="#263238"/>
<path d="M72.8279 102.762C72.7703 102.762 72.6884 102.461 72.8531 102.123C73.0177 101.784 73.3094 101.648 73.3348 101.703C73.3601 101.757 73.1802 101.935 73.0478 102.216C72.9154 102.497 72.8887 102.756 72.8279 102.762Z" fill="#263238"/>
<path d="M70.6558 99.0708C70.63 99.1283 70.3361 99.0374 69.9905 99.0679C69.6448 99.0984 69.3501 99.1962 69.3279 99.1418C69.3058 99.0873 69.5659 98.8677 69.969 98.8503C70.3722 98.8328 70.6881 99.0198 70.6558 99.0708Z" fill="#263238"/>
<path d="M70.8192 98.9947C70.8632 99.5214 70.8673 100.051 70.8315 100.578L70.7806 100.501C71.5247 100.789 72.518 101.174 73.5714 101.678C74.57 102.121 75.517 102.672 76.3954 103.322C76.6665 103.521 76.9032 103.763 77.096 104.038C77.2263 104.244 77.2096 104.4 77.1872 104.394C77.1559 104.277 77.1009 104.168 77.0255 104.073C76.8167 103.826 76.5742 103.61 76.3053 103.43C75.4105 102.824 74.4644 102.298 73.4779 101.857C72.434 101.359 71.4536 100.955 70.7224 100.639L70.6682 100.616L70.6684 100.558C70.6805 100.034 70.7309 99.5115 70.8192 98.9947Z" fill="#263238"/>
<path d="M62.7925 48.1041L61.48 55.5938L64.5313 73.202C64.5313 73.202 64.246 82.0685 63.7632 87.1113C63.3473 91.4922 63.9632 99.1214 63.9632 99.1214L70.9434 99.1521L73.5504 73.7214L75.1716 57.858L78.0248 48.4718L62.7925 48.1041Z" fill="#263238"/>
<path d="M74.9696 92.9315L73.0992 99.2543C73.0992 99.2543 78.9038 103.266 78.6746 104.468L66.2857 101.31L68.7704 91.3368L74.9696 92.9315Z" fill="#263238"/>
<path d="M66.2983 101.31L66.5874 100.313L78.3578 103.714C78.3578 103.714 78.8488 104.094 78.6744 104.468L66.2983 101.31Z" fill="#455A64"/>
<path d="M73.3295 99.2425C73.3133 99.3032 73.0096 99.2411 72.654 99.3739C72.2983 99.5067 72.0831 99.6912 72.0353 99.6654C71.9874 99.6396 72.1648 99.3013 72.5877 99.1656C73.0106 99.0299 73.3554 99.1914 73.3295 99.2425Z" fill="#455A64"/>
<path d="M74.4934 100.111C74.4931 100.175 74.2018 100.209 73.9322 100.413C73.6626 100.616 73.5335 100.872 73.4728 100.855C73.4121 100.839 73.4744 100.484 73.7954 100.239C74.1164 99.9945 74.5064 100.047 74.4934 100.111Z" fill="#455A64"/>
<path d="M74.8343 101.856C74.7767 101.856 74.7685 101.536 75.0097 101.24C75.251 100.943 75.5647 100.887 75.5773 100.945C75.5898 101.002 75.3685 101.132 75.1755 101.378C74.9825 101.623 74.895 101.866 74.8343 101.856Z" fill="#455A64"/>
<path d="M73.5921 97.7561C73.5535 97.8039 73.2983 97.6492 72.953 97.5869C72.6078 97.5247 72.3133 97.5618 72.2912 97.5009C72.2691 97.44 72.5864 97.291 72.9924 97.3728C73.3983 97.4546 73.6339 97.7147 73.5921 97.7561Z" fill="#263238"/>
<path d="M80.7244 48.5891L81.03 51.8375L80.8023 74.5498C80.7925 75.3808 80.6606 76.2059 80.4108 76.9986L74.9316 94.3102L73.5742 98.8949L66.4495 97.5232L72.1606 48.5579L80.7244 48.5891Z" fill="#263238"/>
<path d="M80.3848 77.0848C80.3779 77.1203 80.3692 77.1555 80.3587 77.1902C80.336 77.2637 80.3068 77.3691 80.2645 77.5097C80.1833 77.7877 80.06 78.1902 79.901 78.711L78.512 83.2219C77.3146 87.0811 75.6207 92.5377 73.6444 98.9271L73.6282 98.9782L73.5738 98.978L66.4488 97.6671L66.3849 97.6668L66.3851 97.606C66.7546 95.7842 67.1437 93.8824 67.5393 91.9423L70.8082 76.0446L70.8082 76.0382L68.2163 60.1723L67.0353 58.1133C66.9019 57.8824 66.8036 57.7028 66.7177 57.5809C66.6319 57.4589 66.6193 57.3981 66.6193 57.3981L66.7305 57.5745L67.0481 58.1006L68.2516 60.15C68.7909 63.3707 69.7291 68.9763 70.9075 76.0066L70.9074 76.0386C69.9268 80.7753 68.8377 86.1961 67.6672 91.9397C67.2684 93.8798 66.8794 95.7751 66.5067 97.6033L66.4558 97.5295L73.5776 98.8404L73.507 98.8817L78.4289 83.1896L79.8531 78.6916C80.0185 78.1708 80.1482 77.7715 80.2358 77.4968C80.2812 77.3626 80.3136 77.2604 80.3364 77.1773L80.3848 77.0848Z" fill="#455A64"/>
<path d="M57.9592 33.4088C57.9592 33.4088 56.9483 39.233 57.5303 41.4557C58.1124 43.6784 62.8863 49.3074 62.8863 49.3074L69.4524 45.2766L65.1836 34.6466L57.9592 33.4088Z" fill="#BF1523"/>
<path d="M61.7222 21.5888C61.7222 21.5888 66.2354 21.7462 66.2613 26.0394C66.2872 30.3326 65.4142 36.0711 65.4142 36.0711L57.6559 35.49C57.6559 35.49 58.1679 27.4498 58.8021 25.0789C59.4363 22.708 61.7222 21.5888 61.7222 21.5888Z" fill="#BF1523"/>
<path d="M67.1117 17.4249L67.1376 16.6189C67.1376 16.6189 73.8472 18.5294 74.8458 19.1608C75.8443 19.7922 75.0753 20.8029 75.0753 20.8029L67.1117 17.4249Z" fill="white"/>
<path d="M80.115 39.4211L77.8281 21.8578L75.4545 20.3694C75.0194 19.6637 74.4511 19.4053 73.56 19.0815L67.1457 16.9355L66.726 18.5332L60.9878 21.9662L62.9101 40.9802L61.0134 56.916L64.4203 56.9309L65.6939 53.2192L66.0518 56.9381L81.6552 56.5716L80.115 39.4211Z" fill="#BF1523"/>
<path d="M76.8427 21.2074C76.8427 21.2074 79.1868 22.1198 79.921 25.3796C80.1626 26.4684 82.202 37.0086 82.202 37.0086L91.8304 37.9083L92.6148 42.8767L82.0551 43.5213C79.1329 43.8539 76.2992 42.9553 75.5467 38.7581C75.528 38.6556 75.4964 38.5563 75.4745 38.4571C74.7101 34.7556 73.6868 29.5878 73.5538 27.8213C73.3634 25.2709 73.9574 21.8729 76.8427 21.2074Z" fill="#BF1523"/>
<path d="M71.9681 42.1333C71.8632 42.1583 71.7558 42.1707 71.648 42.1703L70.7969 42.2146C70.077 42.2434 69.0819 42.271 67.9846 42.2854C66.8873 42.2998 65.8924 42.2922 65.1727 42.273L64.3186 42.2693C64.2112 42.2739 64.1038 42.2649 63.9988 42.2423C64.1036 42.2176 64.2111 42.2063 64.3188 42.2085C64.5204 42.2094 64.8116 42.1851 65.1699 42.1771C65.8898 42.1578 66.8847 42.1494 67.9821 42.135L70.7942 42.1058L71.6451 42.1095C71.7533 42.101 71.8623 42.109 71.9681 42.1333Z" fill="#263238"/>
<path d="M60.4684 28.1061L60.4873 28.1702C60.4871 28.2214 60.5124 28.2855 60.528 28.3623C60.5656 28.5416 60.6125 28.7882 60.6752 29.0956C60.7971 29.7359 60.9881 30.6709 61.1847 31.8042C61.6065 34.1062 62.1812 37.2662 62.8153 40.7527L62.934 41.3931L62.9339 41.4154C62.5225 44.7854 62.1573 47.8101 61.8885 50.0035L61.5573 52.5837C61.5176 52.8778 61.4846 53.108 61.4614 53.2807C61.4524 53.3625 61.4382 53.4436 61.4188 53.5236C61.412 53.4416 61.4124 53.3592 61.4199 53.2773C61.4356 53.1046 61.459 52.8712 61.4901 52.577C61.5568 51.9535 61.6535 51.0742 61.7734 49.9934C62.0294 47.7936 62.3786 44.7688 62.7709 41.3955L62.7708 41.4179L62.652 40.7776C62.0276 37.2847 61.472 34.1248 61.0663 31.8133C60.8697 30.6767 60.7139 29.7515 60.6016 29.0984C60.5518 28.7783 60.5112 28.5382 60.4833 28.3557C60.4708 28.2789 60.4615 28.2149 60.4553 28.1637C60.4651 28.1285 60.4652 28.1061 60.4684 28.1061Z" fill="#263238"/>
<path d="M75.56 20.4307C75.4411 20.421 75.324 20.3957 75.2116 20.3556L74.2754 20.1084C73.4829 19.9001 72.3868 19.6362 71.1659 19.3813C69.945 19.1264 68.8326 18.9264 68.027 18.7885L67.068 18.6243C66.9497 18.6094 66.833 18.5832 66.7197 18.546C66.8378 18.5345 66.9568 18.535 67.0748 18.5476C67.3018 18.571 67.6311 18.6108 68.034 18.667C68.8429 18.7761 69.9521 18.9633 71.1858 19.2182C72.4195 19.4732 73.506 19.7531 74.2919 19.9869C74.6849 20.1038 75.0011 20.2075 75.2184 20.2821C75.3371 20.3195 75.4516 20.3693 75.56 20.4307Z" fill="#263238"/>
<path d="M77.958 22.1687C77.6273 22.1556 77.296 22.1638 76.9662 22.1931C76.1761 22.3021 75.4432 22.6662 74.8791 23.2301C74.3261 23.8044 73.9556 24.5297 73.8142 25.3144C73.7667 25.6419 73.7364 25.9717 73.7235 26.3025C73.6927 26.2163 73.6779 26.1251 73.6799 26.0336C73.6626 25.787 73.6723 25.5392 73.7088 25.2947C73.8253 24.4767 74.1982 23.7167 74.774 23.124C75.3578 22.5352 76.1287 22.1687 76.9539 22.0875C77.1995 22.0596 77.4475 22.0606 77.6929 22.0908C77.7843 22.1048 77.8735 22.131 77.958 22.1687Z" fill="#263238"/>
<path d="M59.9219 23.641C60.0818 23.9904 60.1973 24.3585 60.2658 24.7366C60.382 25.1039 60.4492 25.485 60.4655 25.8699C60.3056 25.5205 60.1901 25.1524 60.1216 24.7743C60.0054 24.407 59.9382 24.0259 59.9219 23.641Z" fill="#263238"/>
<path d="M75.0398 31.8426C75.0398 31.8426 75.0396 31.8874 75.0392 31.9706C75.0389 32.0538 75.0383 32.1881 75.0568 32.3482C75.0777 32.6682 75.1172 33.161 75.1944 33.7819C75.3457 35.027 75.6513 36.8167 75.9551 39.0381L75.9862 39.2462L75.9859 39.3006L75.9858 39.323C75.9346 39.3228 76.101 39.3235 75.8705 39.3545C75.8706 39.3353 75.8705 39.3545 75.8706 39.3321C75.7681 39.3604 76.0147 39.3103 75.9859 39.3102L76.0046 39.4158C76.0328 39.5567 76.061 39.6976 76.0923 39.8385C76.1568 40.1283 76.2422 40.4131 76.3477 40.6906C76.5597 41.2869 76.8927 41.833 77.326 42.2944C77.8029 42.7681 78.3909 43.1149 79.0362 43.3032C79.7242 43.4962 80.4404 43.5686 81.1531 43.5173L90.7817 42.9198L92.596 42.8093L92.5188 42.9082C92.2512 41.1923 91.9898 39.5309 91.7377 37.9366L91.811 38.0041L82.1826 37.0853L82.1378 37.0851L82.138 37.0403C81.6628 34.5429 81.2782 32.5163 81.0093 31.1011C80.8812 30.4063 80.7812 29.8621 80.7124 29.5003C80.6812 29.321 80.6562 29.1801 80.6407 29.0777C80.6251 28.9752 80.6189 28.9336 80.6189 28.9336C80.6352 28.9795 80.6478 29.0266 80.6567 29.0745L80.7476 29.494C80.8259 29.8718 80.9355 30.413 81.0797 31.095C81.3582 32.5038 81.762 34.5274 82.2597 37.0184L82.2055 36.9702L91.834 37.8507L91.8948 37.8509L91.8945 37.9117C92.1498 39.5124 92.4113 41.1674 92.6853 42.8801L92.6849 42.9697L92.5953 42.9693L90.7777 43.0797L81.1493 43.6548C80.4178 43.7062 79.6831 43.6293 78.9781 43.4277C78.3115 43.2286 77.705 42.8664 77.2137 42.3739C76.7703 41.9014 76.4296 41.3422 76.2132 40.7316C76.109 40.4482 76.0238 40.1582 75.9579 39.8635L75.8734 39.4313L75.8547 39.3256C75.8259 39.3255 76.0756 39.269 75.9731 39.3037C75.9571 39.3037 76.0083 39.3039 75.9379 39.3036C75.9114 39.3068 75.8845 39.3067 75.8579 39.3032L75.858 39.284L75.8583 39.2329L75.8304 39.0216C75.5426 36.8002 75.253 35.0074 75.1209 33.7592C75.0501 33.1351 75.0235 32.6455 75.0153 32.316C75.016 32.1496 75.0166 32.0249 75.017 31.9385C75.0218 31.906 75.0294 31.8739 75.0398 31.8426Z" fill="#263238"/>
<path d="M202.968 18.0538V31.2842C202.968 31.8249 202.753 32.3435 202.371 32.7258C201.989 33.1081 201.47 33.3229 200.929 33.3229H189.345C189.223 33.3227 189.106 33.3662 189.014 33.4455C188.922 33.5249 188.861 33.6347 188.844 33.7549C188.438 36.4243 186.153 39.2621 182.058 39.707C182.74 38.8831 183.207 37.9033 183.418 36.8549C183.629 35.8065 183.577 34.7222 183.267 33.6987C183.237 33.5911 183.173 33.4961 183.084 33.4283C182.995 33.3605 182.887 33.3235 182.775 33.3229H170.922C170.655 33.3229 170.39 33.2702 170.143 33.1677C169.896 33.0651 169.671 32.9149 169.482 32.7255C169.293 32.5362 169.144 32.3114 169.042 32.064C168.94 31.8167 168.887 31.5517 168.888 31.2842V18.0538C168.887 17.7861 168.94 17.5209 169.041 17.2733C169.143 17.0257 169.293 16.8007 169.482 16.6109C169.671 16.4212 169.895 16.2706 170.143 16.1676C170.39 16.0646 170.655 16.0113 170.922 16.0107H200.929C201.197 16.0107 201.463 16.0636 201.711 16.1663C201.958 16.2691 202.183 16.4196 202.372 16.6094C202.562 16.7992 202.712 17.0244 202.814 17.2723C202.916 17.5201 202.969 17.7857 202.968 18.0538Z" fill="white"/>
<path d="M200.929 15H170.922C170.113 15.0012 169.338 15.3234 168.766 15.896C168.194 16.4686 167.873 17.2447 167.873 18.0539V19.5052H167.782H165.683C165.502 19.5052 165.328 19.5771 165.2 19.7051C165.072 19.8331 165 20.0066 165 20.1876V29.1763C165 29.3573 165.072 29.5309 165.2 29.6589C165.328 29.7869 165.502 29.8588 165.683 29.8588H167.782H167.873V31.3144C167.875 32.1221 168.197 32.896 168.769 33.4667C169.34 34.0374 170.115 34.3585 170.922 34.3596H182.403C182.651 35.3728 182.598 36.4359 182.252 37.4197C181.906 38.4036 181.282 39.2657 180.455 39.9014C180.375 39.969 180.318 40.0592 180.29 40.1602C180.262 40.2612 180.266 40.3683 180.3 40.4673C180.335 40.5646 180.399 40.6489 180.483 40.7091C180.567 40.7692 180.667 40.8024 180.771 40.8042H180.93C186.114 40.8042 189.09 37.556 189.785 34.3596H200.942C201.345 34.3596 201.744 34.28 202.117 34.1252C202.489 33.9704 202.827 33.7436 203.111 33.4578C203.395 33.172 203.62 32.8328 203.773 32.4598C203.925 32.0868 204.003 31.6873 204 31.2842V18.0539C204 17.6515 203.92 17.2533 203.765 16.8819C203.61 16.5105 203.384 16.1733 203.099 15.8896C202.813 15.6059 202.475 15.3813 202.103 15.2287C201.73 15.076 201.332 14.9983 200.929 15ZM202.968 31.2842C202.968 31.8249 202.753 32.3435 202.371 32.7258C201.989 33.1082 201.47 33.323 200.929 33.323H189.345C189.223 33.3227 189.106 33.3662 189.014 33.4456C188.922 33.5249 188.861 33.6347 188.844 33.7549C188.438 36.4243 186.153 39.2622 182.058 39.7071C182.74 38.8832 183.207 37.9033 183.418 36.855C183.629 35.8066 183.577 34.7223 183.267 33.6988C183.237 33.5911 183.173 33.4962 183.084 33.4284C182.995 33.3605 182.887 33.3235 182.775 33.323H170.922C170.655 33.323 170.39 33.2702 170.143 33.1677C169.896 33.0652 169.671 32.9149 169.482 32.7256C169.293 32.5362 169.144 32.3114 169.042 32.0641C168.94 31.8167 168.887 31.5517 168.888 31.2842V18.0539C168.887 17.7861 168.94 17.5209 169.041 17.2733C169.143 17.0257 169.293 16.8007 169.482 16.611C169.671 16.4212 169.895 16.2706 170.143 16.1676C170.39 16.0646 170.655 16.0113 170.922 16.0108H200.929C201.47 16.0119 201.989 16.2277 202.371 16.6107C202.753 16.9937 202.968 17.5127 202.968 18.0539V31.2842Z" fill="#3E4148"/>
<path d="M183.803 17.488V24.9693L172.167 22.0968L187.742 32.0876V24.6064L200.022 28.1354L183.807 17.488H183.803Z" fill="#BF1523"/>
</svg>
