<svg width="214" height="109" viewBox="0 0 214 109" fill="none" xmlns="http://www.w3.org/2000/svg">
<path d="M212.58 98.8209C212.58 98.8657 165.874 98.6989 108.315 98.446C50.7553 98.1932 4.02774 97.9495 4.02794 97.9047C4.02814 97.8599 50.7112 98.0234 108.293 98.2764C165.875 98.5294 212.58 98.7761 212.58 98.8209Z" fill="#263238"/>
<path d="M172.213 68.4957L11.1982 67.7884L11.1021 89.6663L172.117 90.3737L172.213 68.4957Z" fill="#E0E0E0"/>
<g opacity="0.4">
<path d="M172.213 68.4957L11.1982 67.7884L11.1021 89.6663L172.117 90.3737L172.213 68.4957Z" fill="black"/>
</g>
<path d="M181.509 67.2474C176.947 64.3962 165.095 59.9038 161.801 59.5118C159.806 59.2728 150.931 58.0117 150.931 58.0117L148.053 57.7687C148.053 57.7687 117.496 42.4518 112.642 40.5494C105.114 37.5988 89.188 35.008 72.2818 37.0067C72.2818 37.0067 49.6943 38.974 44.6687 40.4043C39.643 41.8346 15.3358 49.3 15.3358 49.3C15.3358 49.3 4.68782 50.3761 4.85232 50.7959C4.85232 50.7959 4.99645 51.4843 5.87888 52.3296L5.84906 59.1178C5.84906 59.1178 4.6616 60.7121 4.36391 61.4818C4.06621 62.2515 3.3743 68.2851 3.3743 68.2851C3.3743 68.2851 0.142042 75.843 0.133314 77.8296C0.124587 79.8162 5.84916 87.4935 7.25167 88.6481C8.65419 89.8027 19.9681 91.5223 19.9681 91.5223L19.9741 85.796C20.3099 77.0801 27.1288 70.1361 35.4621 70.1727C43.7955 70.2093 50.5532 77.2129 50.8156 85.9315L50.815 93.3501L139.162 93.7383L139.125 88.2325C139.095 87.7973 139.074 87.359 139.076 86.9143C139.116 77.9187 146.061 70.6586 154.583 70.696C163.105 70.7335 169.986 78.0543 169.947 87.0499C169.945 87.4946 169.924 87.9328 169.887 88.3677L170.206 88.3691L170.182 93.8746L180.365 93.9193C180.365 93.9193 188.659 87.6088 188.452 84.396L188.492 75.3557C188.5 74.1618 188.069 73.0066 187.281 72.1097C185.595 70.2255 183.652 68.5885 181.509 67.2474Z" fill="#E0E0E0"/>
<g opacity="0.2">
<path d="M188.474 77.9788L181.971 75.5414L181.181 79.2104L170.761 78.592C170.761 78.592 166.22 69.5027 156.857 68.6618C148.84 67.9452 142.446 72.0503 142.446 72.0503L96.6607 67.137C96.6607 67.137 73.4209 66.1167 64.4536 66.1925C55.4863 66.2683 47.5551 72.9866 47.5551 72.9866C47.5551 72.9866 44.927 68.9955 35.5512 68.8647C26.1753 68.7339 22.2379 74.4238 22.2379 74.4238C15.561 73.4659 9.26187 70.7399 3.99313 66.5283L3.53722 66.9038C3.43766 67.7191 3.37115 68.2947 3.37115 68.2947C3.37115 68.2947 0.138894 75.8526 0.130166 77.8392C0.121439 79.8258 5.84601 87.5031 7.24852 88.6577C8.65104 89.8123 19.9649 91.5319 19.9649 91.5319L19.9709 85.8056C20.3067 77.0897 27.1256 70.1457 35.459 70.1823C43.7924 70.2189 50.55 77.2226 50.8124 85.9411L50.8118 93.3597L139.162 93.7479L139.125 88.2421C139.095 87.8069 139.075 87.3686 139.076 86.9239C139.116 77.9283 146.061 70.6682 154.583 70.7056C163.105 70.7431 169.986 78.064 169.947 87.0595C169.945 87.5042 169.924 87.9424 169.887 88.3773L170.206 88.3787L170.182 93.8842L180.365 93.9289C180.365 93.9289 188.659 87.6184 188.452 84.4056L188.48 77.9789L188.474 77.9788Z" fill="black"/>
</g>
<path d="M31.4088 49.8665C31.2331 49.997 31.0996 50.1761 31.0247 50.3817C30.9497 50.5873 30.9367 50.8104 30.9871 51.0233C31.0376 51.2363 31.1493 51.4297 31.3086 51.5798C31.4678 51.73 31.6675 51.8301 31.8831 51.868L39.6423 52.9769L83.7375 58.2092L137.515 61.5389C137.944 61.5721 138.375 61.4907 138.762 61.303C139.15 61.1152 139.481 60.828 139.721 60.4705C140.181 59.7624 140.368 58.7747 139.234 57.6436C136.985 55.3944 127.024 49.5283 124.684 48.3728C122.344 47.2173 105.937 36.9146 81.3717 38.2047C73.9361 38.4375 59.6621 40.5758 41.2153 42.9996C40.8174 43.0524 40.4393 43.2047 40.1161 43.4426L31.4088 49.8665Z" fill="#263238"/>
<path d="M40.5798 52.1557C40.6932 51.8139 44.6973 44.0578 45.4703 43.6037C46.2433 43.1496 78.3638 39.0616 78.7995 39.6329C79.2353 40.2043 80.2671 56.5624 80.2671 56.5624L40.5798 52.1557Z" fill="#455A64"/>
<path d="M52.8556 42.4461L52.5272 53.8557L54.181 53.863L54.232 42.2634L52.8556 42.4461Z" fill="#263238"/>
<path d="M129.956 51.3455C129.956 51.3455 129.985 51.4032 130.035 51.5186C130.086 51.634 130.165 51.8103 130.263 52.0378C130.361 52.2654 130.491 52.5475 130.621 52.8935C130.751 53.2396 130.896 53.6401 131.064 54.0919C131.954 56.7467 132.573 59.4847 132.912 62.264C133.438 66.5808 133.551 70.9379 133.248 75.2761C133.093 77.7867 132.816 80.4471 132.394 83.2316C132.18 84.6222 131.937 86.0447 131.63 87.4894C131.564 87.8589 131.467 88.2222 131.341 88.5758C131.195 88.9232 131.026 89.2602 130.834 89.5845C130.451 90.2384 130.034 90.8719 129.585 91.4824L129.559 91.5175L129.517 91.5173L93.0517 90.6693L73.1592 90.1244C69.9956 90.0466 66.9185 89.9691 63.9467 89.9336C63.5756 89.932 63.2077 89.9304 62.8399 89.9288C62.472 89.9271 62.1073 89.9255 61.733 89.9239C60.9972 89.8587 60.2822 89.6455 59.6308 89.2972C58.9912 88.9546 58.4048 88.521 57.8898 88.01C57.3762 87.5094 56.9234 86.9502 56.5407 86.3437C53.1646 81.4791 50.1133 76.9838 47.4469 72.9733C46.1185 70.9649 44.876 69.0816 43.7576 67.3204C42.6393 65.5592 41.6196 63.9328 40.7592 62.4254C40.3405 61.7169 39.9635 60.9847 39.63 60.2323L39.418 59.6971C39.3484 59.5209 39.3108 59.3384 39.2572 59.1622C39.2036 58.986 39.1468 58.8162 39.1187 58.6433C39.0907 58.4705 39.0563 58.2976 39.0282 58.1279C38.8468 56.982 38.9274 55.8098 39.264 54.6995C39.4647 54.0166 39.7605 53.3653 40.1427 52.7648C40.2703 52.5579 40.4146 52.3616 40.5739 52.178L40.4645 52.3279C40.3937 52.4268 40.2907 52.5735 40.165 52.7777C39.1876 54.3752 38.8096 56.2682 39.0987 58.1186C39.1299 58.2819 39.1612 58.4388 39.1924 58.6245C39.2236 58.8101 39.2869 58.964 39.3309 59.1401C39.3749 59.3163 39.4253 59.4956 39.4949 59.6687L39.7069 60.1975C40.0423 60.9449 40.4215 61.6719 40.8426 62.3746C41.7062 63.8756 42.726 65.4988 43.8539 67.2536C44.9819 69.0084 46.2212 70.8885 47.556 72.8938C50.232 76.898 53.277 81.3869 56.6723 86.2451C57.418 87.4515 58.4598 88.4472 59.6987 89.1376C60.3303 89.474 61.0239 89.6785 61.737 89.7384C62.092 89.7591 62.4567 89.7607 62.8279 89.7432C63.199 89.7256 63.5668 89.7464 63.9411 89.748C66.9129 89.7803 69.9901 89.8546 73.1536 89.9325L93.0525 90.4838L129.518 91.3573L129.451 91.3922C129.896 90.7863 130.309 90.1582 130.69 89.5102C130.879 89.1932 131.046 88.8637 131.191 88.5239C131.312 88.1791 131.407 87.8256 131.474 87.4663C131.781 86.0281 132.027 84.6088 132.244 83.2181C132.669 80.4432 132.949 77.7828 133.111 75.2819C133.421 70.9513 133.321 66.6011 132.813 62.2892C132.485 59.5144 131.882 56.7791 131.012 54.1237C130.851 53.6687 130.696 53.2682 130.579 52.919C130.462 52.5697 130.326 52.294 130.234 52.0601L130.022 51.5377C129.978 51.4128 129.956 51.3455 129.956 51.3455Z" fill="#263238"/>
<path d="M84.4191 58.2505C84.4595 58.3542 84.49 58.4614 84.5105 58.5708C84.5575 58.7854 84.6201 59.1056 84.6822 59.5313C84.8097 60.3572 84.942 61.5638 85.025 63.0518C85.2038 66.0405 85.1089 70.1732 85.0313 74.7316C84.9537 79.2899 84.8268 83.4225 84.7305 86.41C84.6792 87.8877 84.6387 89.0936 84.6061 89.9476C84.5894 90.3506 84.5752 90.6704 84.5635 90.9071C84.5631 91.0063 84.5627 91.0895 84.5465 91.1566C84.5572 91.159 84.5667 91.1653 84.5731 91.1743C84.5795 91.1833 84.5824 91.1943 84.5812 91.2053C84.5799 91.2163 84.5747 91.2264 84.5664 91.2337C84.5582 91.2411 84.5475 91.2451 84.5365 91.2451C84.5254 91.245 84.5148 91.2409 84.5066 91.2335C84.4984 91.2261 84.4933 91.2159 84.4921 91.2049C84.491 91.1939 84.4939 91.1829 84.5004 91.174C84.5069 91.165 84.5165 91.1588 84.5273 91.1565C84.5275 91.0893 84.5279 91.0061 84.5283 90.907C84.5294 90.6702 84.5308 90.3471 84.5326 89.9473C84.5363 89.0931 84.5704 87.8904 84.5961 86.4094C84.6605 83.4058 84.7458 79.2826 84.8393 74.7307C84.9329 70.1789 85.0343 66.0429 84.8906 63.0608C84.8268 61.5697 84.7169 60.3664 84.6118 59.5406C84.5592 59.1277 84.5094 58.8076 84.472 58.5803C84.4565 58.481 84.4408 58.401 84.4283 58.3337C84.4212 58.3066 84.4181 58.2786 84.4191 58.2505Z" fill="#263238"/>
<path d="M84.8795 39.3365L88.0827 56.5999L123.18 59.3358L128.62 51.7587C128.62 51.7587 115.047 43.6822 103.106 41.2113C90.9989 38.698 84.8795 39.3365 84.8795 39.3365Z" fill="#455A64"/>
<g opacity="0.2">
<path d="M57.0939 79.0555C57.0939 79.0555 73.4574 86.2741 76.4359 86.959C79.4144 87.6439 127.455 88.242 127.455 88.242L128.46 86.0231L78.3171 85.4605C78.3171 85.4605 58.2073 77.5825 57.0939 79.0555Z" fill="black"/>
</g>
<path d="M47.5551 72.9866C47.524 72.9625 47.4952 72.9356 47.4691 72.9062C47.415 72.8484 47.3289 72.7713 47.2174 72.6652C46.8825 72.372 46.5313 72.0981 46.1653 71.8448C45.5822 71.4569 44.9723 71.1111 44.34 70.8099C43.5016 70.4232 42.6359 70.0986 41.7499 69.8388C40.6761 69.5358 39.5809 69.315 38.4737 69.1782C37.8791 69.0796 37.2586 69.0513 36.6223 68.9941C36.3025 68.9639 35.9826 68.9753 35.6627 68.9643C35.3428 68.9533 35.0006 68.939 34.6614 68.9599C31.7182 69.0814 28.8389 69.8555 26.2315 71.2262C25.0669 71.8208 23.9715 72.5423 22.9654 73.3776L22.8884 73.4444L22.8312 73.361C21.2767 71.1149 19.8304 68.9939 18.5786 67.0466C17.3267 65.0993 16.266 63.3223 15.4024 61.831C14.5388 60.3396 13.8724 59.1275 13.4121 58.3033C13.1932 57.8928 13.0186 57.5722 12.8949 57.3413L12.7616 57.0912C12.7449 57.0632 12.7321 57.033 12.7236 57.0014C12.7439 57.0266 12.7619 57.0534 12.7777 57.0816L12.9238 57.3222L13.4571 58.2651L15.4923 61.7706C16.3687 63.2556 17.4358 65.0198 18.6973 66.9575C19.9588 68.8953 21.3987 71.0226 22.9659 73.2688L22.8316 73.2683C23.8488 72.4213 24.9572 71.6901 26.1362 71.0882C28.7667 69.7057 31.6733 68.9293 34.6428 68.8159C34.9821 68.7854 35.321 68.8189 35.6505 68.8203C35.98 68.8217 36.3095 68.8232 36.6325 68.8566C37.272 68.917 37.8957 68.9485 38.4935 69.0503C39.6073 69.1975 40.7079 69.4312 41.7854 69.7494C42.6766 70.0147 43.5458 70.349 44.3851 70.7493C45.0184 71.0597 45.6274 71.4175 46.207 71.8194C46.5718 72.079 46.9179 72.3638 47.243 72.6717C47.3513 72.7809 47.4341 72.8645 47.4818 72.9255C47.5085 72.9429 47.5331 72.9634 47.5551 72.9866Z" fill="#263238"/>
<path d="M5.56045 81.8906C5.50002 81.7135 5.45585 81.5313 5.42849 81.3462C5.35647 80.9908 5.25635 80.4785 5.14398 79.8414C4.91608 78.5608 4.63586 76.8097 4.36612 74.8571C4.09638 72.9044 3.89304 71.1281 3.76753 69.8415C3.70317 69.2014 3.66068 68.6766 3.63667 68.3182C3.61234 68.1315 3.60567 67.943 3.61675 67.7551C3.66303 67.9367 3.69325 68.122 3.70709 68.3089L3.89876 69.8261C4.05949 71.1064 4.28204 72.8765 4.55178 74.8291C4.82152 76.7817 5.08251 78.5423 5.27524 79.8196C5.36533 80.431 5.44307 80.94 5.49893 81.3305C5.53645 81.515 5.55705 81.7024 5.56045 81.8906Z" fill="#263238"/>
<path d="M20.325 83.2383C20.2623 83.2457 20.1989 83.2454 20.1363 83.2375L19.5988 83.2351C19.1286 83.233 18.4504 83.2301 17.6156 83.1848C15.9428 83.1199 13.6305 82.9722 11.0885 82.6987C8.54644 82.4252 6.25424 82.0792 4.60161 81.7872C3.77689 81.6428 3.11205 81.5152 2.6518 81.4204L2.12447 81.3029C2.06194 81.2927 2.00081 81.2753 1.94235 81.2509C2.00496 81.2418 2.06857 81.2421 2.13109 81.2517L2.66499 81.3309L4.62465 81.6402C6.27743 81.897 8.56973 82.2205 11.1086 82.494C13.6474 82.7675 15.95 82.9344 17.6227 83.0345L19.5992 83.1487L20.1397 83.1831C20.2038 83.1925 20.2662 83.2111 20.325 83.2383Z" fill="#263238"/>
<path d="M181.971 75.5414C181.971 75.5414 179.965 70.6636 180.023 70.5007C180.347 69.6288 181.515 67.241 181.515 67.241C182.242 67.6738 182.945 68.1457 183.62 68.6547C185.038 69.7111 186.349 70.9041 187.533 72.2164C188.155 72.9459 188.492 73.8757 188.481 74.8342L188.464 78.9129L181.971 75.5414Z" fill="white"/>
<path d="M137.906 52.788C137.621 53.247 137.304 53.685 136.956 54.0986C136.66 54.5464 136.332 54.9726 135.975 55.374C136.178 54.8664 136.46 54.3937 136.81 53.9732C137.11 53.5227 137.48 53.1226 137.906 52.788Z" fill="#263238"/>
<path d="M5.87598 52.3199C5.87598 52.3199 21.2446 53.6927 21.0735 54.0406C20.9025 54.3885 5.84611 59.1178 5.84611 59.1178L5.87598 52.3199Z" fill="#FF725E"/>
<path d="M5.7973 59.3223C5.70977 58.1621 5.68391 56.998 5.71985 55.835C5.72828 53.9156 5.77356 52.3483 5.82794 52.3485C5.91547 53.5088 5.94133 54.6728 5.90539 55.8358C5.93111 56.9991 5.89503 58.1629 5.7973 59.3223Z" fill="#263238"/>
<path d="M170.761 78.592L170.679 78.4541C170.625 78.3643 170.552 78.2264 170.444 78.05C170.234 77.694 169.9 77.1838 169.443 76.5356C168.875 75.7478 168.257 74.9971 167.594 74.2882C166.712 73.3349 165.736 72.4732 164.681 71.7161C163.399 70.7741 161.982 70.0303 160.478 69.5095C158.723 68.9328 156.89 68.6333 155.043 68.6219C152.948 68.5655 150.855 68.7876 148.818 69.2823C147.721 69.5443 146.649 69.9025 145.614 70.3527C144.52 70.8063 143.486 71.3938 142.536 72.1019L142.504 72.1241L142.472 72.124L119.081 69.6251L97.3381 67.2903L96.7146 67.2236L96.0941 67.1888L94.8596 67.1226L92.4448 67.0001L87.8198 66.807C84.8356 66.7011 82.0623 66.6313 79.5033 66.5817C74.4268 66.4826 70.3161 66.455 67.4755 66.4265L64.2093 66.4122L67.4788 66.4073C70.3195 66.4198 74.4303 66.4187 79.51 66.5018C82.0467 66.5417 84.8296 66.6051 87.8267 66.7047C89.3193 66.756 90.8621 66.8172 92.4549 66.8881L94.8729 67.0043L96.1074 67.0673L96.7311 67.1053L97.3546 67.172L119.098 69.5069L142.488 72.0249L142.427 72.0438C143.391 71.3274 144.44 70.7335 145.551 70.2757C146.598 69.8236 147.683 69.4654 148.793 69.2054C150.843 68.7091 152.951 68.4903 155.06 68.5548C156.915 68.5478 158.761 68.8312 160.529 69.3946C162.042 69.9311 163.466 70.6922 164.752 71.6524C165.809 72.4153 166.784 73.2858 167.661 74.2501C168.323 74.9581 168.937 75.7089 169.5 76.4975C169.952 77.1393 170.279 77.6686 170.479 78.0309C170.679 78.3933 170.761 78.592 170.761 78.592Z" fill="#263238"/>
<path d="M127.455 88.242L127.273 88.2412L126.736 88.2389L124.672 88.2042L117.078 88.0461L92.0261 87.4466L78.2365 87.0949L77.4465 87.0722C77.1836 87.0725 76.921 87.0585 76.6597 87.0304C76.1511 86.9263 75.6582 86.7563 75.1935 86.5249C74.2675 86.1273 73.3606 85.7586 72.4824 85.4061C70.7261 84.701 69.0813 84.0635 67.5771 83.4843C64.5751 82.3258 62.148 81.3683 60.4876 80.6732C59.6542 80.324 59.0124 80.0493 58.5717 79.8554L58.0801 79.6325L57.9141 79.5518L58.0865 79.6133L58.5879 79.8203L60.5039 80.6029C62.174 81.2788 64.6044 82.2204 67.6161 83.3533C69.1203 83.9261 70.7683 84.554 72.5279 85.2559C73.4093 85.6053 74.3162 85.975 75.2486 86.3652C75.6995 86.5911 76.1786 86.7557 76.6732 86.8545C76.9281 86.8831 77.1844 86.8971 77.4408 86.8962L78.231 86.8997L92.0206 87.2386L117.063 87.8957L124.654 88.1177L126.717 88.1876L127.254 88.2091C127.395 88.2322 127.455 88.242 127.455 88.242Z" fill="#263238"/>
<path d="M123.557 51.6149C122.888 53.0196 122.156 55.0925 122.281 57.2493C122.307 57.9146 122.584 58.5454 123.057 59.0141C123.53 59.4829 124.164 59.7548 124.829 59.7749L131.153 59.8507C131.613 59.8586 132.06 59.6984 132.41 59.4001C132.76 59.1018 132.989 58.686 133.054 58.2307C133.099 57.8898 133.045 57.543 132.899 57.2319C132.249 55.8407 131.698 56.1038 131.698 56.1038C131.698 56.1038 129.796 52.0006 126.898 50.4332C126.603 50.2835 126.28 50.1954 125.949 50.1741C125.619 50.1528 125.287 50.1987 124.975 50.3092C124.662 50.4197 124.376 50.5923 124.132 50.8168C123.888 51.0412 123.692 51.3127 123.557 51.6149Z" fill="#E0E0E0"/>
<path d="M130.065 59.8395C130.28 59.799 130.479 59.699 130.639 59.5509C131.081 59.2409 131.406 58.7918 131.563 58.2753C131.68 57.7563 131.726 57.2239 131.701 56.6924C131.715 56.4775 131.697 56.2617 131.646 56.0523C131.578 56.2585 131.543 56.4745 131.544 56.6917C131.525 57.2048 131.461 57.7151 131.352 58.2168C131.204 58.6926 130.924 59.1164 130.544 59.4385C130.261 59.6868 130.049 59.8074 130.065 59.8395Z" fill="#263238"/>
<path d="M130.556 55.2318C130.486 54.9319 130.369 54.6451 130.208 54.3825C129.86 53.7314 129.424 53.132 128.911 52.6013C128.404 52.0738 127.825 51.6201 127.192 51.2533C126.941 51.0874 126.664 50.965 126.372 50.8915C126.336 50.9585 127.591 51.5366 128.757 52.7606C129.922 53.9845 130.502 55.2699 130.556 55.2318Z" fill="white"/>
<path d="M81.8457 38.1812C81.8697 38.2464 81.8866 38.314 81.896 38.3829L82.0119 38.9593C82.1056 39.4651 82.2368 40.1919 82.3864 41.0947C82.6983 42.9035 83.0936 45.4005 83.4781 48.1694C83.8627 50.9383 84.1555 53.4572 84.301 55.2845C84.3406 55.7421 84.3676 56.1549 84.3852 56.5197C84.4028 56.8845 84.427 57.1981 84.4259 57.454C84.4247 57.7099 84.4239 57.8891 84.4233 58.0458C84.4313 58.1138 84.431 58.1826 84.4224 58.2506C84.4051 58.1836 84.3957 58.1148 84.3945 58.0457C84.3952 57.8889 84.3704 57.6969 84.3555 57.4569C84.3405 57.2169 84.3164 56.8905 84.286 56.5289C84.2556 56.1672 84.2222 55.7544 84.173 55.2967C83.9923 53.4757 83.6802 50.9662 83.2957 48.1974C82.9112 45.4285 82.5319 42.9284 82.2615 41.1197C82.1278 40.233 82.0222 39.5191 81.951 38.9718C81.92 38.7381 81.8921 38.5429 81.8736 38.3892C81.8543 38.3216 81.8449 38.2515 81.8457 38.1812Z" fill="#455A64"/>
<g opacity="0.2">
<path d="M5.8463 59.1178L13.474 54.4839L13.701 53.0645C16.6491 53.3814 20.2307 53.685 21.0769 54.0406C21.0759 54.2806 11.7085 57.3105 5.8463 59.1178Z" fill="black"/>
</g>
<g opacity="0.2">
<path d="M180.017 70.5007L184.064 74.095L188.488 74.8342L188.47 78.9129L181.971 75.5414C181.174 73.5992 180.449 71.7822 180.017 70.5007Z" fill="black"/>
</g>
<path d="M179.972 70.5004C179.937 70.4915 179.902 70.4785 179.87 70.4616L179.576 70.3355L178.452 69.8315L174.327 67.9804C172.581 67.2049 170.496 66.284 168.165 65.3173C166.996 64.8483 165.77 64.347 164.466 63.9446C163.811 63.769 163.121 63.6604 162.427 63.5358L160.308 63.1778C154.576 62.2473 149.378 61.4567 145.602 60.8738L141.152 60.1761L139.944 59.9756L139.624 59.9198C139.587 59.916 139.551 59.9073 139.516 59.8938L139.624 59.8942L139.944 59.9308L141.159 60.0929L145.619 60.7331C149.385 61.2871 154.57 62.0521 160.325 62.9859L162.444 63.3439C163.141 63.4717 163.831 63.5803 164.499 63.7592C165.825 64.1617 167.054 64.6758 168.217 65.1511C170.551 66.1211 172.626 67.0612 174.366 67.8526C176.106 68.644 177.511 69.3028 178.475 69.7645L179.586 70.3004L179.873 70.4456C179.944 70.4779 179.975 70.4972 179.972 70.5004Z" fill="#263238"/>
<path d="M35.249 101.945C43.1941 101.98 49.6642 95.3323 49.7004 87.0975C49.7366 78.8626 43.3251 72.1587 35.38 72.1237C27.4349 72.0888 20.9648 78.7362 20.9286 86.9711C20.8925 95.2059 27.3039 101.91 35.249 101.945Z" fill="#263238"/>
<path d="M20.9361 86.7184C20.9361 86.7184 20.936 86.744 20.9359 86.7567C20.7846 94.9873 27.1017 101.787 35.0443 101.941C42.9868 102.094 49.5481 95.5455 49.6994 87.3118L49.6996 87.2734L20.9361 86.7184Z" fill="#263238"/>
<path d="M25.2194 86.8396C25.114 92.6198 29.5462 97.3931 35.1248 97.5007C40.7035 97.6084 45.308 93.0092 45.4069 87.229C45.5059 81.4487 41.077 76.6755 35.5015 76.5678C29.926 76.4601 25.3248 81.0593 25.2194 86.8396Z" fill="#FAFAFA"/>
<path d="M35.5083 76.5678C29.9296 76.4601 25.3251 81.0593 25.2262 86.8396L45.4201 87.229C45.5191 81.4487 41.0837 76.6754 35.5083 76.5678Z" fill="#E0E0E0"/>
<path d="M29.1635 86.9145C29.1 90.4332 31.8032 93.3434 35.2131 93.4095C38.623 93.4757 41.4185 90.6728 41.482 87.1541C41.5454 83.6354 38.8454 80.7252 35.4483 80.6591C32.0512 80.593 29.2301 83.3926 29.1635 86.9145Z" fill="#263238"/>
<path d="M154.29 102.468C162.235 102.503 168.705 95.8553 168.741 87.6204C168.778 79.3856 162.366 72.6816 154.421 72.6467C146.476 72.6118 140.006 79.2592 139.97 87.494C139.933 95.7289 146.345 102.433 154.29 102.468Z" fill="#263238"/>
<path d="M139.977 87.2414C139.977 87.2414 139.977 87.267 139.977 87.2798C139.826 95.5103 146.143 102.31 154.085 102.464C162.028 102.617 168.589 96.0685 168.74 87.8348L168.741 87.7964L139.977 87.2414Z" fill="#263238"/>
<path d="M144.26 87.3625C144.155 93.1428 148.587 97.916 154.166 98.0237C159.745 98.1314 164.349 93.5322 164.448 87.7519C164.547 81.9717 160.118 77.1984 154.543 77.0908C148.967 76.9831 144.366 81.5823 144.26 87.3625Z" fill="#FAFAFA"/>
<path d="M154.548 77.0908C148.97 76.9831 144.365 81.5823 144.266 87.3626L164.46 87.752C164.559 81.9717 160.124 77.1985 154.548 77.0908Z" fill="#E0E0E0"/>
<path d="M148.204 87.4375C148.141 90.9562 150.844 93.8664 154.238 93.9325C157.632 93.9986 160.444 91.1958 160.507 87.6771C160.57 84.1584 157.87 81.2482 154.457 81.182C151.044 81.1158 148.271 83.9156 148.204 87.4375Z" fill="#263238"/>
<path d="M100.172 53.7547C100.15 53.7066 102.821 52.2755 106.136 50.5562C109.451 48.8369 112.164 47.4828 112.186 47.5309C112.208 47.579 109.54 49.01 106.222 50.7293C102.903 52.4487 100.204 53.8028 100.172 53.7547Z" fill="white"/>
<path d="M96.4719 53.361C96.4465 53.3129 98.9832 51.8972 102.135 50.1868C105.288 48.4764 107.865 47.1473 107.907 47.1954C107.948 47.2436 105.392 48.6592 102.24 50.3696C99.088 52.08 96.4941 53.4091 96.4719 53.361Z" fill="white"/>
<path d="M59.3883 52.5583C59.5558 52.4651 59.7305 52.3856 59.9108 52.3206L61.3498 51.7319L66.1025 49.7854L70.8363 47.7876L72.269 47.1829C72.4413 47.1012 72.6203 47.0346 72.8041 46.9837C72.6442 47.0896 72.4746 47.1799 72.2974 47.2534C71.9768 47.4151 71.4864 47.6401 70.8869 47.9158C69.6913 48.464 68.0278 49.1828 66.1721 49.9648C64.3164 50.7469 62.6277 51.3984 61.3972 51.8633C60.782 52.0941 60.2821 52.2743 59.9361 52.3943C59.7589 52.4656 59.5756 52.5205 59.3883 52.5583Z" fill="white"/>
<path d="M62.8362 48.4914C62.814 48.4401 64.1958 47.7584 65.9203 46.9662C66.949 46.4583 68.0051 46.0079 69.0837 45.6173C69.1059 45.6654 67.7241 46.3503 65.9964 47.1425C64.9682 47.6491 63.9132 48.0994 62.8362 48.4914Z" fill="white"/>
<path d="M188.473 78.9129C188.445 78.719 188.433 78.5232 188.437 78.3273C188.439 77.9146 188.442 77.3676 188.416 76.7277C188.39 76.0878 188.422 75.2402 188.384 74.3635C188.347 73.4867 187.694 72.6905 187.087 71.8977C186.482 71.1722 185.803 70.5119 185.061 69.9278C184.385 69.3777 183.757 68.9047 183.228 68.5121L181.952 67.5948C181.792 67.4888 181.64 67.3716 181.496 67.2441C181.671 67.3234 181.838 67.4195 181.994 67.531C182.313 67.7275 182.75 68.0206 183.292 68.4004C183.834 68.7803 184.469 69.2406 185.154 69.7874C185.914 70.3721 186.606 71.0393 187.218 71.7767C187.533 72.1653 187.821 72.5749 188.08 73.0025C188.339 73.4082 188.498 73.8693 188.544 74.3482C188.572 75.2568 188.537 76.05 188.534 76.7282C188.531 77.4064 188.506 77.9181 188.498 78.3276C188.507 78.523 188.498 78.7189 188.473 78.9129Z" fill="#263238"/>
<path d="M38.5878 17.5907C38.598 15.8233 38.2004 14.0774 37.4261 12.4887C36.6518 10.9 35.5215 9.51123 34.1232 8.43038C32.7249 7.34953 31.0961 6.6057 29.3635 6.25671C27.631 5.90772 25.8412 5.96297 24.1335 6.41817C22.4258 6.87337 20.846 7.71625 19.517 8.8813C18.188 10.0463 17.1455 11.5022 16.4707 13.1356C15.7958 14.7691 15.5068 16.5362 15.6259 18.2995C15.7451 20.0629 16.2693 21.775 17.1578 23.3028L17.1896 23.3477C17.6278 24.0918 18.1789 24.6317 18.7321 25.4083L25.3664 34.2764C25.5588 34.5337 25.8082 34.7428 26.0952 34.8872C26.3821 35.0317 26.6986 35.1077 27.0198 35.1091C27.3411 35.1105 27.6582 35.0373 27.9464 34.8954C28.2346 34.7534 28.4859 34.5465 28.6805 34.291L35.2831 25.625C35.8839 24.9227 36.4446 24.1872 36.9626 23.4218L36.9852 23.3899C38.0278 21.6347 38.5812 19.6322 38.5878 17.5907ZM27.0494 22.5433C26.0484 22.5389 25.0711 22.2377 24.2412 21.6778C23.4113 21.1179 22.7662 20.3245 22.3873 19.3979C22.0084 18.4713 21.9128 17.4531 22.1127 16.4722C22.3125 15.4913 22.7988 14.5916 23.51 13.8871C24.2212 13.1826 25.1254 12.7048 26.1081 12.5142C27.0909 12.3236 28.1081 12.4287 29.0311 12.8163C29.9541 13.2039 30.7414 13.8566 31.2935 14.6917C31.8455 15.5268 32.1375 16.5068 32.1325 17.5079C32.1295 18.1724 31.9957 18.8297 31.7387 19.4424C31.4816 20.0551 31.1063 20.6112 30.6343 21.0788C30.1622 21.5464 29.6027 21.9164 28.9876 22.1677C28.3725 22.419 27.7139 22.5466 27.0494 22.5433Z" fill="#BF1523" fill-opacity="0.8"/>
<path d="M137.194 15.9448L139.227 16.3184C139.976 17.1755 140.951 17.8049 142.04 18.135C143.372 18.5472 144.804 18.4961 146.103 17.9901C147.402 17.4841 148.491 16.553 149.193 15.3486C149.895 14.1442 150.168 12.7376 149.968 11.358C149.768 9.97846 149.106 8.70736 148.091 7.75193C147.076 6.7965 145.768 6.2131 144.378 6.09684C142.989 5.98058 141.602 6.33832 140.442 7.11173C139.282 7.88514 138.419 9.02861 137.992 10.3557C137.566 11.6828 137.601 13.1153 138.093 14.4196L137.194 15.9448Z" fill="white"/>
<path d="M137.194 15.9445L137.258 15.8456C137.3 15.7754 137.358 15.6765 137.435 15.5521L138.106 14.429L138.07 14.4288C138.073 14.431 138.075 14.4327 138.078 14.4338C138.08 14.435 138.083 14.4356 138.086 14.4356C138.089 14.4356 138.092 14.435 138.095 14.4339C138.098 14.4328 138.1 14.4311 138.102 14.429C138.105 14.4251 138.106 14.4207 138.106 14.4162C138.106 14.4117 138.105 14.4073 138.103 14.4034C137.753 13.4547 137.64 12.4353 137.773 11.4332C137.816 11.1183 137.884 10.8073 137.976 10.5032C138.077 10.1745 138.204 9.85424 138.354 9.54512C138.682 8.8705 139.133 8.26281 139.683 7.75309C140.317 7.16722 141.066 6.72085 141.883 6.44285C142.7 6.16484 143.566 6.0614 144.425 6.1392C145.375 6.23728 146.29 6.55213 147.099 7.05948C147.948 7.59268 148.65 8.32914 149.143 9.20223C149.836 10.4188 150.09 11.8365 149.862 13.2179C149.635 14.5994 148.94 15.8609 147.894 16.7913C147.293 17.3274 146.592 17.7396 145.831 18.0043C145.07 18.2691 144.265 18.3813 143.46 18.3343C142.656 18.2874 141.869 18.0824 141.144 17.7309C140.42 17.3795 139.771 16.8885 139.236 16.2862L137.728 16.0269L137.338 15.9612L137.2 15.9382C137.241 15.9505 137.283 15.9603 137.325 15.9675L137.708 16.0428L139.227 16.3341C139.9 17.1112 140.759 17.7059 141.724 18.063C142.918 18.5026 144.219 18.5644 145.45 18.2402C146.681 17.9159 147.782 17.2212 148.605 16.2501C149.428 15.279 149.933 14.0785 150.051 12.8111C150.169 11.5437 149.894 10.2706 149.265 9.16438L149.068 8.8436C148.995 8.73452 148.918 8.63501 148.842 8.52271C148.69 8.31757 148.526 8.12138 148.352 7.93513C148.266 7.84198 148.167 7.76157 148.078 7.6748C147.988 7.58609 147.893 7.50237 147.794 7.42403C147.6 7.26601 147.395 7.12084 147.182 6.98946C146.359 6.473 145.427 6.15361 144.461 6.05618C143.552 5.97403 142.636 6.09232 141.778 6.40269C140.255 6.9513 139.008 8.07469 138.303 9.53209C138.152 9.84121 138.026 10.1615 137.925 10.4901C137.548 11.7856 137.605 13.1687 138.086 14.4289L138.125 14.4067C138.123 14.4045 138.12 14.4028 138.118 14.4017C138.115 14.4005 138.112 14.3999 138.109 14.3999C138.106 14.3999 138.103 14.4004 138.1 14.4016C138.098 14.4027 138.095 14.4044 138.093 14.4065L137.448 15.5554L137.284 15.849L137.194 15.9445Z" fill="#263238"/>
<path d="M144.025 14.7716L141.011 12.7366L141.723 11.684L143.742 13.0493L146.277 9.72382L147.288 10.4928L144.025 14.7716Z" fill="#BF1523" fill-opacity="0.8"/>
<path d="M114.847 35.2646C114.855 35.1562 114.888 35.0512 114.944 34.958C115 34.8649 115.077 34.7863 115.169 34.7286C118.056 32.8378 120.238 28.631 120.471 25.0587C120.472 24.8572 120.473 24.6492 120.493 24.4414C120.681 19.3237 121.46 13.1466 122.149 11.4989C123.41 8.45573 127.634 8.18637 127.634 8.18637C133.24 7.81112 134.223 12.1214 134.772 16.0458C135.113 18.4882 136.431 27.2082 136.431 27.2082L135.399 27.6036C134.799 29.3819 133.812 31.0049 132.509 32.3556C131.205 33.7063 129.619 34.7511 127.863 35.4145C126.828 35.8003 125.941 35.9499 125.543 35.6155C123.898 37.272 121.866 38.4933 119.631 39.1693C118.73 39.4695 117.779 39.5914 116.831 39.5281C116.523 39.5195 116.221 39.4477 115.942 39.3171C115.664 39.1866 115.415 39 115.212 38.7692C115.055 38.5539 114.963 38.2985 114.945 38.0327C114.928 37.7669 114.986 37.5016 115.114 37.2677C115.241 37.0338 115.432 36.8407 115.665 36.7111C115.897 36.5814 116.162 36.5204 116.428 36.5352C116.22 35.8433 114.821 36.0419 114.847 35.2646Z" fill="#263238"/>
<path d="M126.838 9.60968L127.191 9.27533L130.148 10.4848C130.695 10.516 131.602 11.5724 131.616 12.1227L131.505 24.1603C131.501 24.9984 131.709 25.7607 131.201 26.3983L130.667 27.0997C130.387 27.4705 130.019 27.7656 129.597 27.9586C129.174 28.1516 128.71 28.2363 128.247 28.205C127.784 28.1738 127.335 28.0276 126.943 27.7797C126.55 27.5317 126.225 27.1898 125.998 26.7849C125.94 26.6842 125.895 26.5765 125.865 26.4644C125.84 26.3729 125.821 26.2799 125.808 26.1859C125.701 25.1937 125.582 24.499 125.582 24.499C125.582 24.499 125.615 22.794 125.615 22.8036C125.615 22.8132 123.294 22.5247 122.68 19.5437C122.367 18.0611 122.443 16.0237 122.538 14.0151C122.672 11.2645 124.605 9.59667 126.838 9.60968Z" fill="#FFBF9D"/>
<path d="M127.208 16.1053C127.215 16.2027 127.257 16.294 127.328 16.3609C127.399 16.4278 127.493 16.4651 127.591 16.4653C127.64 16.4672 127.689 16.4593 127.735 16.442C127.781 16.4247 127.823 16.3983 127.858 16.3645C127.894 16.3306 127.923 16.29 127.942 16.245C127.962 16.1999 127.972 16.1514 127.973 16.1023C127.969 16.0018 127.927 15.9068 127.854 15.8372C127.782 15.7676 127.685 15.729 127.584 15.7295C127.535 15.7284 127.485 15.7374 127.439 15.7559C127.393 15.7743 127.351 15.802 127.316 15.8371C127.281 15.8722 127.253 15.9141 127.235 15.9602C127.216 16.0063 127.207 16.0557 127.208 16.1053Z" fill="#263238"/>
<path d="M123.341 16.0884C123.346 16.1883 123.389 16.2825 123.461 16.3514C123.534 16.4203 123.63 16.4585 123.73 16.458C123.779 16.4599 123.828 16.452 123.874 16.4347C123.92 16.4173 123.962 16.391 123.998 16.3572C124.033 16.3233 124.062 16.2827 124.081 16.2376C124.101 16.1926 124.111 16.1441 124.112 16.095C124.108 15.9945 124.066 15.8995 123.993 15.8299C123.921 15.7603 123.824 15.7217 123.723 15.7222C123.674 15.7202 123.625 15.7283 123.579 15.7458C123.532 15.7633 123.49 15.7899 123.455 15.8241C123.419 15.8583 123.39 15.8993 123.371 15.9447C123.351 15.9901 123.341 16.039 123.341 16.0884Z" fill="#263238"/>
<path d="M122.974 14.9959C123.025 15.0441 123.295 14.8149 123.721 14.7976C124.146 14.7803 124.449 14.9736 124.491 14.9194C124.533 14.8652 124.459 14.8073 124.322 14.7171C124.137 14.6016 123.921 14.546 123.702 14.5576C123.487 14.5665 123.281 14.6441 123.113 14.779C122.988 14.8808 122.949 14.9766 122.974 14.9959Z" fill="#263238"/>
<path d="M127.181 15.0592C127.235 15.101 127.502 14.843 127.902 14.784C128.302 14.725 128.644 14.8833 128.683 14.8258C128.721 14.7684 128.638 14.7169 128.495 14.6427C128.297 14.5435 128.073 14.51 127.855 14.5471C127.641 14.5766 127.442 14.6744 127.288 14.8261C127.185 14.944 127.156 15.0399 127.181 15.0592Z" fill="#263238"/>
<path d="M125.719 18.0567C125.498 17.9976 125.27 17.9665 125.042 17.9641C124.936 17.9636 124.834 17.944 124.812 17.8703C124.797 17.7606 124.817 17.649 124.867 17.5507L125.146 16.7297C125.405 16.0335 125.607 15.3176 125.751 14.589C125.438 15.2642 125.178 15.9625 124.974 16.6778L124.711 17.502C124.65 17.6329 124.637 17.7813 124.674 17.9209C124.691 17.9571 124.717 17.9889 124.748 18.0139C124.78 18.039 124.816 18.0567 124.856 18.0657C124.916 18.0746 124.977 18.0749 125.038 18.0665C125.265 18.092 125.494 18.0887 125.719 18.0567Z" fill="#263238"/>
<path d="M125.615 22.8227C127.031 22.777 128.407 22.3401 129.59 21.5606C129.59 21.5606 128.621 23.6933 125.599 23.5489L125.615 22.8227Z" fill="#FF9A6C"/>
<path d="M125.942 19.0589C126.015 18.9539 126.114 18.8696 126.229 18.814C126.344 18.7585 126.471 18.7336 126.599 18.7419C126.691 18.7465 126.781 18.7694 126.864 18.8093C126.946 18.8492 127.02 18.9053 127.081 18.9743C127.139 19.0411 127.176 19.124 127.186 19.2121C127.196 19.3002 127.178 19.3892 127.136 19.4672C127.073 19.5449 126.988 19.6018 126.892 19.6305C126.796 19.6592 126.694 19.6583 126.598 19.628C126.399 19.5688 126.213 19.4701 126.053 19.3377C126.005 19.3056 125.964 19.2654 125.931 19.2188C125.916 19.196 125.908 19.1693 125.908 19.1419C125.908 19.1146 125.917 19.0879 125.932 19.0653" fill="#FF9A6C"/>
<path d="M126.952 18.2988C126.885 18.2985 126.906 18.7496 126.533 19.0871C126.16 19.4245 125.681 19.4032 125.68 19.4576C125.68 19.512 125.792 19.5413 126 19.5358C126.264 19.5283 126.518 19.4274 126.715 19.251C126.903 19.0815 127.018 18.846 127.037 18.5934C127.038 18.4047 126.984 18.2957 126.952 18.2988Z" fill="#263238"/>
<path d="M126.792 13.4419C126.849 13.5445 127.249 13.4439 127.752 13.4173C128.254 13.3908 128.654 13.4789 128.712 13.3672C128.731 13.3161 128.648 13.2229 128.476 13.1358C128.247 13.0328 127.998 12.9856 127.747 12.9982C127.496 13.0058 127.251 13.0715 127.03 13.1902C126.841 13.2886 126.767 13.3906 126.792 13.4419Z" fill="#263238"/>
<path d="M123.043 13.2143C123.12 13.3074 123.402 13.1967 123.744 13.1758C124.086 13.1549 124.384 13.2106 124.442 13.1085C124.471 13.0606 124.42 12.9676 124.289 12.8839C124.113 12.7853 123.912 12.741 123.711 12.7566C123.51 12.7722 123.318 12.8471 123.159 12.9717C123.044 13.0735 123.008 13.1726 123.043 13.2143Z" fill="#263238"/>
<path d="M131.912 17.2777C131.912 17.2777 129.785 17.9305 128.605 12.6853C128.204 10.8921 126.55 9.43243 126.55 9.43243L127.223 9.23385C127.223 9.23385 131.405 10.4295 131.475 10.4842C131.545 10.5389 132.521 12.6545 132.521 12.6545L131.912 17.2777Z" fill="#263238"/>
<path d="M131.085 16.9798C131.086 16.759 131.309 16.2194 131.53 16.1724C132.116 16.0534 133.181 16.0548 133.258 17.5523C133.367 19.6002 131.289 19.284 131.283 19.2264C131.277 19.1688 131.12 17.7605 131.085 16.9798Z" fill="#FFBF9D"/>
<path d="M131.866 18.4035C131.866 18.4035 131.905 18.4261 131.965 18.4519C132.052 18.4856 132.147 18.486 132.234 18.4531C132.362 18.3621 132.463 18.2386 132.527 18.0956C132.591 17.9525 132.616 17.7949 132.599 17.639C132.596 17.463 132.553 17.29 132.473 17.133C132.451 17.0702 132.413 17.014 132.363 16.9692C132.314 16.9244 132.254 16.8923 132.19 16.8758C132.148 16.8665 132.105 16.8723 132.067 16.8921C132.03 16.9118 132 16.9443 131.985 16.9837C131.962 17.0411 131.984 17.0828 131.965 17.0859C131.946 17.0891 131.92 17.0538 131.93 16.9674C131.94 16.917 131.966 16.8711 132.004 16.8366C132.059 16.7917 132.129 16.7691 132.2 16.7735C132.285 16.7859 132.365 16.82 132.433 16.8723C132.501 16.9247 132.555 16.9937 132.589 17.0727C132.685 17.2453 132.738 17.4388 132.743 17.6364C132.762 17.8179 132.727 18.0009 132.643 18.1627C132.559 18.3245 132.429 18.4579 132.269 18.546C132.216 18.5639 132.16 18.5699 132.105 18.5635C132.05 18.5572 131.996 18.5387 131.949 18.5095C131.872 18.4675 131.86 18.4227 131.866 18.4035Z" fill="#FF9A6C"/>
<path d="M133.248 25.0156C133.259 24.9835 133.267 24.9503 133.271 24.9166L133.323 24.6257C133.369 24.3636 133.432 23.9864 133.514 23.5165L133.463 23.5162C133.462 23.5898 133.443 23.6729 133.43 23.756L133.384 23.8486L133.435 23.868C133.748 22.7903 133.967 21.6878 134.09 20.5727C134.173 19.8656 134.219 19.1546 134.227 18.4427C134.256 17.6579 134.19 16.8726 134.033 16.1033C133.952 15.7787 133.829 15.4661 133.666 15.174C133.505 14.8928 133.316 14.6284 133.103 14.3845C132.689 13.8997 132.243 13.485 131.829 13.0737L129.641 10.9016L128.172 9.42994L127.765 9.03467L127.656 8.93502C127.646 8.92206 127.633 8.91116 127.618 8.90286C127.629 8.91583 127.642 8.92673 127.656 8.93502L127.758 9.04424L128.153 9.44905L129.612 10.927L131.787 13.1151C132.192 13.5296 132.638 13.9474 133.045 14.4227C133.48 14.9033 133.793 15.482 133.956 16.1094C134.11 16.8704 134.175 17.6471 134.147 18.4231C134.141 19.1327 134.1 19.8414 134.023 20.5468C133.894 21.6579 133.675 22.7568 133.368 23.8325L133.42 23.8519C133.42 23.82 133.449 23.7881 133.462 23.7594C133.462 23.6762 133.485 23.5931 133.495 23.5196L133.443 23.5194C133.374 23.9925 133.318 24.3697 133.279 24.6319L133.239 24.926C133.238 24.9562 133.242 24.9862 133.248 25.0156Z" fill="#455A64"/>
<path d="M134.645 15.0951C134.637 15.0648 134.625 15.0358 134.61 15.0086L134.489 14.7681C134.388 14.5597 134.226 14.2615 134.01 13.9054C133.794 13.5494 133.527 13.1292 133.206 12.6799C132.885 12.2306 132.506 11.7587 132.086 11.2834C131.666 10.8081 131.23 10.3807 130.812 9.99815C130.395 9.61563 130.022 9.31008 129.687 9.05908C129.352 8.80808 129.081 8.61175 128.887 8.48613L128.66 8.34118C128.609 8.30896 128.58 8.29284 128.577 8.29603C128.6 8.31729 128.624 8.33666 128.65 8.35393L128.864 8.51482C129.055 8.65003 129.323 8.83674 129.648 9.11009C129.974 9.38344 130.35 9.6922 130.751 10.0747C131.152 10.4571 131.579 10.8781 132.003 11.3598C132.426 11.8415 132.798 12.307 133.126 12.7467C133.453 13.1864 133.724 13.6003 133.943 13.9563C134.162 14.3124 134.333 14.5979 134.444 14.7999L134.578 15.034C134.622 15.0694 134.641 15.0983 134.645 15.0951Z" fill="#455A64"/>
<path d="M99.4719 30.9551L97.4537 32.3282C97.4909 32.4162 97.5468 32.4951 97.6174 32.5595C97.688 32.6238 97.7717 32.6722 97.8627 32.7011C97.9538 32.7301 98.05 32.739 98.1449 32.7273C98.2397 32.7156 98.3308 32.6834 98.4121 32.6331C99.0762 32.3115 99.7237 31.9566 100.352 31.57L101.31 31.9613L102.05 31.0784L99.68 30.9176C99.6084 30.9033 99.534 30.9167 99.4719 30.9551Z" fill="#FF9A6C"/>
<path d="M107.27 34.0765L102.26 31.0697C102.237 31.0566 102.21 31.0499 102.184 31.0502L101.637 31.0478L99.6072 31.314C99.5797 31.3157 99.5536 31.3269 99.5335 31.3457L97.6394 32.8537C97.6186 32.8711 97.6028 32.8936 97.5935 32.919C97.5843 32.9445 97.5819 32.9719 97.5866 32.9986C97.5914 33.0252 97.6031 33.0501 97.6206 33.0708C97.6381 33.0915 97.6607 33.1072 97.6862 33.1162C97.9932 33.2013 98.3143 33.2223 98.6297 33.178C99.1574 32.993 99.6459 32.7109 100.07 32.3461C100.086 32.3324 100.105 32.3227 100.126 32.3178C100.146 32.3129 100.168 32.3129 100.188 32.3179L101.524 32.5605C101.558 32.5674 101.588 32.585 101.61 32.6104C101.632 32.6359 101.646 32.668 101.648 32.7018L101.648 32.8649C101.649 32.8948 101.642 32.9244 101.626 32.95C101.611 32.9756 101.588 32.9959 101.561 33.0085C101.17 33.2041 100.731 33.2854 100.296 33.2429C99.9812 33.1729 99.6594 33.1393 99.3368 33.1427C98.9831 33.1608 98.6338 33.2292 98.2994 33.3461C98.2486 33.3876 98.2104 33.4425 98.1892 33.5046C98.1679 33.5666 98.1645 33.6334 98.1791 33.6974C98.1938 33.7613 98.2261 33.8199 98.2723 33.8664C98.3186 33.913 98.3769 33.9457 98.4407 33.9609C99.0415 34.1043 100.567 34.3189 100.896 34.4196C101.346 34.5591 101.532 35.0846 102.81 35.4933C103.449 35.7008 104.497 35.4079 104.756 35.3131L105.899 36.4697C105.916 36.4806 105.936 36.4878 105.955 36.491C105.975 36.4941 105.996 36.4932 106.015 36.4882C106.035 36.4832 106.053 36.4742 106.069 36.4618C106.085 36.4495 106.098 36.434 106.108 36.4163L107.317 34.2974C107.329 34.2803 107.338 34.2606 107.343 34.2397C107.347 34.2188 107.348 34.1972 107.343 34.1763C107.339 34.1554 107.33 34.1357 107.317 34.1185C107.304 34.1012 107.288 34.0869 107.27 34.0765Z" fill="#FFBF9D"/>
<path d="M97.8211 36.8387L98.5039 36.9953C98.807 37.0648 99.1091 36.8754 99.1785 36.5723L99.5231 35.0694C99.5926 34.7663 99.4032 34.4642 99.1001 34.3948L98.4172 34.2382C98.1141 34.1687 97.8121 34.3581 97.7426 34.6612L97.3981 36.1641C97.3286 36.4672 97.518 36.7693 97.8211 36.8387Z" fill="#455A64"/>
<path d="M98.9819 33.1699C98.982 33.1507 98.8925 33.1311 98.7452 33.1688C98.6459 33.1837 98.5509 33.2198 98.4668 33.2747C98.3826 33.3295 98.3113 33.4018 98.2575 33.4866C98.154 33.6594 98.121 33.8655 98.1654 34.062C98.2 34.2061 98.2572 34.28 98.2765 34.2736C98.2957 34.2673 98.2769 34.1777 98.2775 34.0465C98.2676 33.88 98.3073 33.7143 98.3915 33.5703C98.4857 33.4345 98.6205 33.332 98.7767 33.2777C98.8857 33.2142 98.9818 33.1955 98.9819 33.1699Z" fill="#263238"/>
<path d="M98.7551 34.5317C98.7549 34.5669 98.9527 34.6893 99.2347 34.5722C99.2922 34.5442 99.3419 34.5025 99.3795 34.4508C99.4171 34.3991 99.4415 34.3389 99.4504 34.2756C99.4508 34.1828 99.451 34.1284 99.4222 34.1283C99.3934 34.1282 99.3509 34.3423 99.1649 34.4471C98.9789 34.5518 98.7616 34.4869 98.7551 34.5317Z" fill="#263238"/>
<path d="M97.8298 36.8501C97.801 36.8264 97.7763 36.7982 97.7566 36.7666C97.7157 36.6758 97.7105 36.5731 97.7418 36.4786C97.8296 36.1591 97.9142 35.8396 98.0053 35.5009C98.0963 35.1622 98.168 34.8618 98.2495 34.5134C98.2556 34.4653 98.2739 34.4196 98.3026 34.3805C98.3313 34.3414 98.3696 34.3104 98.4137 34.2902C98.4494 34.2816 98.4867 34.2817 98.5224 34.2907C98.5224 34.2907 98.4874 34.2522 98.4074 34.2678C98.3569 34.2871 98.3122 34.3188 98.2773 34.3601C98.2425 34.4013 98.2186 34.4507 98.208 34.5036C98.1365 34.7561 98.0422 35.1011 97.9445 35.4878C97.8469 35.8745 97.7558 36.2196 97.6971 36.4752C97.6804 36.5283 97.6753 36.5844 97.6822 36.6396C97.6892 36.6949 97.7079 36.748 97.7373 36.7953C97.7818 36.8435 97.8298 36.8533 97.8298 36.8501Z" fill="#263238"/>
<path d="M98.0938 35.079C98.2993 35.1723 98.5132 35.2461 98.7326 35.2994C98.9491 35.3718 99.1715 35.4253 99.3973 35.459C99.1917 35.3657 98.9778 35.292 98.7584 35.2387C98.5418 35.1666 98.3195 35.1131 98.0938 35.079Z" fill="#263238"/>
<path d="M97.9014 35.8843C98.1004 35.9758 98.308 36.0474 98.521 36.0982C98.7287 36.1704 98.9427 36.2227 99.1602 36.2546C98.9604 36.1641 98.753 36.0915 98.5405 36.0375C98.3328 35.9665 98.1188 35.9152 97.9014 35.8843Z" fill="#263238"/>
<path d="M97.6643 36.8078C97.6129 36.7604 97.5757 36.6997 97.5568 36.6324C97.5379 36.5651 97.538 36.4939 97.5572 36.4267C97.6095 36.1678 98.0164 34.57 98.0164 34.57L97.7896 34.4987L97.3691 36.2723C97.3691 36.2723 97.3 36.7199 97.6643 36.8078Z" fill="#E0E0E0"/>
<path d="M127.854 100.64L127.853 100.922C127.853 100.922 122.908 102.938 122.859 103.881L132.703 103.777L132.535 100.504C131.81 100.861 131.017 101.059 130.209 101.082C129.402 101.106 128.598 100.955 127.854 100.64Z" fill="#263238"/>
<path d="M132.703 103.787L132.662 103L123.246 103.387C123.246 103.387 122.81 103.58 122.859 103.891L132.703 103.787Z" fill="#455A64"/>
<path d="M127.822 100.96C127.821 101.008 128.064 101.028 128.3 101.179C128.537 101.331 128.667 101.533 128.712 101.501C128.757 101.469 128.681 101.203 128.394 101.023C128.107 100.843 127.796 100.921 127.822 100.96Z" fill="white"/>
<path d="M126.793 101.397C126.793 101.445 126.991 101.522 127.156 101.718C127.322 101.914 127.372 102.135 127.42 102.132C127.468 102.129 127.495 101.857 127.285 101.61C127.075 101.363 126.793 101.352 126.793 101.397Z" fill="white"/>
<path d="M126.218 102.639C126.262 102.639 126.327 102.409 126.201 102.146C126.074 101.883 125.85 101.783 125.831 101.824C125.811 101.866 125.948 102.004 126.05 102.222C126.151 102.44 126.189 102.635 126.218 102.639Z" fill="white"/>
<path d="M134.906 97.7023L130.71 98.8579L131.745 101.236L130.631 107.246C130.599 107.411 130.629 107.583 130.716 107.727C130.803 107.872 130.94 107.979 131.101 108.028C131.226 108.064 131.358 108.064 131.483 108.029C131.608 107.994 131.721 107.925 131.809 107.83C132.738 106.797 136.136 102.98 136.058 102.509L135.93 101.261C135.902 101.002 135.655 100.383 135.655 100.326L134.906 97.7023Z" fill="#263238"/>
<path d="M131.226 108.051L136.018 102.074L136.043 102.349C136.061 102.463 136.053 102.58 136.019 102.691C135.986 102.802 135.927 102.903 135.848 102.988C135.471 103.588 134.4 104.956 131.828 107.839C131.753 107.923 131.66 107.987 131.555 108.026C131.45 108.066 131.337 108.078 131.226 108.064L131.226 108.051Z" fill="#455A64"/>
<path d="M132.496 105.101C132.313 104.912 132.097 104.76 131.858 104.65C131.606 104.579 131.343 104.553 131.081 104.573C131.081 104.573 131.155 104.503 131.309 104.465C131.51 104.425 131.719 104.443 131.91 104.516C132.102 104.586 132.269 104.71 132.392 104.873C132.494 104.998 132.512 105.101 132.496 105.101Z" fill="white"/>
<path d="M132.099 106.004C131.9 105.917 131.696 105.842 131.489 105.778C131.271 105.757 131.052 105.749 130.833 105.752C130.93 105.681 131.043 105.633 131.162 105.613C131.281 105.593 131.403 105.601 131.518 105.637C131.934 105.716 132.131 105.985 132.099 106.004Z" fill="white"/>
<path d="M133.278 103.914C132.983 103.753 132.675 103.615 132.359 103.501C132.029 103.431 131.694 103.385 131.358 103.365C131.695 103.244 132.065 103.245 132.401 103.37C132.749 103.441 133.06 103.634 133.278 103.914Z" fill="white"/>
<path d="M131.701 100.42C131.738 100.688 131.753 100.959 131.745 101.23C131.689 101.578 131.617 102.023 131.529 102.508C131.427 103.081 131.325 103.598 131.247 103.969C131.218 104.173 131.167 104.374 131.094 104.567C131.097 104.36 131.119 104.155 131.161 103.953C131.217 103.579 131.302 103.058 131.407 102.489C131.492 102.006 131.578 101.562 131.649 101.21C131.642 100.946 131.659 100.681 131.701 100.42Z" fill="#455A64"/>
<path d="M137.831 61.7418C138.158 60.1437 139.018 57.2683 138.695 55.9425C137.944 52.8649 136.611 51.0804 134.798 47.1695L133.439 47.1636L120.381 46.8791L119.303 49.2416C118.102 52.4354 117.284 54.3353 116.938 56.6691C116.542 59.3577 117.2 63.2571 118.677 67.2016C121.867 75.7123 123.641 82.5149 123.755 84.3452C123.868 86.1756 124.058 88.0671 125.728 93.8711C126.951 98.1056 127.855 100.64 127.855 100.64C129.131 101.372 130.503 101.573 131.747 100.875L135.541 99.4262C135.541 99.4262 134.424 89.4434 133.082 86.7919C132.115 84.8682 130.519 83.9687 131.276 81.4895C132.032 79.0104 136.795 66.6254 137.831 61.7418Z" fill="#263238"/>
<path d="M122.581 53.6164C122.581 53.6164 122.6 53.6356 122.635 53.6806L122.778 53.8827L123.325 54.6721C123.805 55.3684 124.504 56.3792 125.385 57.6595C125.278 58.7755 125.234 60.0709 125.16 61.4974C125.087 62.9238 125.003 64.5262 124.912 66.2309C124.821 67.9356 124.714 69.749 124.604 71.6679C124.493 73.5869 124.375 75.5698 124.177 77.6227C123.923 79.275 123.839 80.949 123.925 82.6185C123.962 83.0218 124.008 83.4186 124.083 83.8093C124.147 84.1957 124.239 84.5768 124.36 84.9493C124.628 85.6735 124.939 86.3755 125.233 87.0582C126.427 89.7922 127.543 92.2348 128.474 94.2895L130.692 99.149C130.952 99.7196 131.152 100.165 131.291 100.473C131.358 100.62 131.408 100.736 131.446 100.816L131.494 100.934C131.494 100.934 131.471 100.899 131.433 100.822L131.269 100.482C131.123 100.178 130.914 99.7354 130.635 99.1679C130.099 98.0203 129.332 96.3662 128.381 94.3242C127.431 92.2823 126.312 89.8365 125.115 87.1056C124.817 86.4197 124.507 85.7242 124.232 84.9872C124.11 84.609 124.015 84.2227 123.949 83.8311C123.875 83.434 123.822 83.0333 123.791 82.6307C123.7 80.9529 123.783 79.2702 124.037 77.6093C124.238 75.566 124.346 73.567 124.469 71.6609C124.593 69.7548 124.687 67.9318 124.787 66.2239C124.888 64.5161 124.971 62.9329 125.051 61.4937C125.131 60.0545 125.182 58.7559 125.295 57.6559L125.295 57.6783L123.267 54.6719L122.733 53.873L122.6 53.6644C122.593 53.6487 122.587 53.6327 122.581 53.6164Z" fill="#455A64"/>
<path d="M124.444 25.7287L125.563 23.7502L127.95 26.4511L131.584 23.556L132.198 24.2976L133.42 47.7425C133.42 47.7425 128.787 48.6531 126.475 48.3198C124.758 48.0144 123.073 47.5442 121.446 46.9157L121.505 33.5887L124.444 25.7287Z" fill="#F5F5F5"/>
<path d="M131.64 26.7201L131.605 26.7616L131.502 26.8763C131.409 26.975 131.271 27.1216 131.091 27.2968C130.598 27.7849 130.073 28.24 129.52 28.6591L129.498 28.6781L129.479 28.6557C128.965 28.087 128.489 27.4854 128.054 26.8547L127.914 26.6494L127.968 26.6496L126.813 28.1929C126.768 28.2529 126.715 28.3065 126.655 28.3522C126.591 28.3994 126.511 28.4208 126.431 28.412C126.358 28.3949 126.291 28.3568 126.24 28.3023C126.189 28.2509 126.151 28.1964 126.109 28.1482L125.658 27.5768L125.021 26.7518C124.948 26.6588 124.891 26.5849 124.85 26.5272C124.808 26.4694 124.789 26.4469 124.792 26.4437L124.859 26.5176L125.041 26.7359L125.706 27.5482L126.164 28.1101C126.247 28.2096 126.329 28.3315 126.451 28.3513C126.572 28.371 126.688 28.2627 126.771 28.1511L127.92 26.6078L127.949 26.5696L127.978 26.6081L128.118 26.8134C128.551 27.4431 129.024 28.0446 129.533 28.6143L129.489 28.6141C130.041 28.1976 130.57 27.7503 131.072 27.2743C131.255 27.1023 131.393 26.9558 131.496 26.8667L131.605 26.7584C131.618 26.72 131.64 26.7201 131.64 26.7201Z" fill="#263238"/>
<g opacity="0.3">
<path d="M126.167 28.174C126.167 28.174 126.771 28.9253 126.942 28.7373C127.112 28.5493 128.014 27.1648 128.123 27.1077C128.232 27.0506 129.308 29.0036 129.734 28.8679C130.16 28.7322 131.683 27.2226 131.683 27.2226L131.718 26.6277L129.495 28.6301L127.936 26.6239L126.608 28.3359C126.608 28.3359 126.325 28.5522 126.167 28.174Z" fill="black"/>
</g>
<path d="M127.092 48.4537C127.088 48.3812 127.088 48.3086 127.093 48.2362C127.093 48.0794 127.094 47.8683 127.115 47.5964C127.14 47.0367 127.175 46.2499 127.221 45.284C127.309 43.3298 127.433 40.6303 127.549 37.6493C127.664 34.6683 127.753 31.9687 127.816 30.0143C127.846 29.0547 127.872 28.2583 127.89 27.6985C127.891 27.4362 127.911 27.2284 127.915 27.0588C127.916 26.9848 127.923 26.911 127.935 26.8382C127.939 26.9117 127.939 26.9854 127.934 27.0589C127.934 27.2157 127.933 27.4236 127.932 27.6987C127.929 28.2585 127.926 29.0455 127.896 30.0147C127.858 31.9691 127.786 34.6688 127.67 37.653C127.555 40.6372 127.415 43.3334 127.317 45.2844C127.255 46.2439 127.207 47.037 127.169 47.5967C127.152 47.8589 127.135 48.0668 127.122 48.2363C127.121 48.3097 127.111 48.3827 127.092 48.4537Z" fill="#263238"/>
<g opacity="0.3">
<path d="M122.927 38.9854C122.065 44.4733 121.204 49.9655 120.344 55.462L120.531 57.2479C120.659 57.3517 120.823 57.4018 120.988 57.3876C121.152 57.3734 121.305 57.2961 121.414 57.1718C121.614 56.9015 121.736 56.5808 121.764 56.2456C122.745 50.5428 123.286 44.7485 122.927 38.9854Z" fill="black"/>
</g>
<path d="M119.45 25.7676C118.527 26.0515 118.109 26.6479 117.496 27.7424L112.979 36.4464C112.979 36.4464 106.771 33.3129 106.758 33.3832L104.449 36.8376L111.723 41.3834C112.533 41.8895 113.506 42.0673 114.443 41.8806C115.38 41.6939 116.211 41.1567 116.765 40.3787L119.077 37.1386L121.047 25.4547L119.45 25.7676Z" fill="#BF1523"/>
<path d="M122.908 25.1078L120.074 25.6488L119.039 36.2011L119.369 43.506C119.368 43.6947 119.387 43.7972 119.387 43.7972L114.444 54.729C115.526 56.6852 118.481 57.6259 120.568 58.1214C120.568 58.1214 122.745 43.1561 122.888 39.8585C123.03 36.5609 125.334 24.0371 125.334 24.0371L122.908 25.1078Z" fill="#BF1523"/>
<path d="M115.045 53.5193L115.064 53.4714L115.122 53.3277C115.18 53.2 115.261 53.0084 115.365 52.7753L116.269 50.7287C117.041 48.9918 118.124 46.5781 119.355 43.8035C119.336 43.058 119.31 42.2805 119.275 41.4902C119.203 39.7048 119.112 38.0025 119.054 36.4539C118.997 34.9053 118.962 33.5136 118.954 32.3395C118.946 31.1654 118.963 30.2218 118.966 29.566C118.968 29.2461 118.969 28.987 118.989 28.8111C118.989 28.7279 118.989 28.6639 118.99 28.616C118.988 28.5936 118.988 28.5711 118.99 28.5488C118.991 28.5711 118.991 28.5936 118.99 28.616L118.989 28.8143C118.988 28.987 118.987 29.243 118.985 29.5661C118.983 30.2059 118.978 31.1656 118.989 32.3397C119 33.5138 119.042 34.8991 119.106 36.4542C119.169 38.0092 119.251 39.7018 119.333 41.4873C119.368 42.2776 119.39 43.0551 119.409 43.8005L119.409 43.8165L116.301 50.732L115.381 52.769L115.129 53.3149L115.061 53.4586L115.045 53.5193Z" fill="#263238"/>
<path d="M122.748 38.2296L122.748 38.1944C122.748 38.1688 122.732 38.1336 122.723 38.0888C122.701 37.9927 122.669 37.855 122.628 37.6821C122.556 37.3299 122.456 36.8144 122.363 36.1741C122.27 35.5339 122.177 34.7657 122.104 33.9145C122.031 33.0632 121.978 32.1192 121.937 31.1338C121.924 30.7647 121.91 30.4032 121.894 30.0491C121.895 29.8731 121.88 29.7003 121.871 29.5275L121.872 29.2716L121.873 29.0797C121.875 29.068 121.875 29.0562 121.873 29.0445C121.874 29.036 121.874 29.0274 121.873 29.0189C121.879 29.0164 121.885 29.015 121.891 29.0151C121.897 29.0151 121.903 29.0165 121.908 29.0191C121.934 29.0192 121.928 29.0351 121.934 29.0416L121.886 29.0413L122.646 28.5168L122.646 28.5712L121.822 28.1805L121.8 28.1804L121.8 28.158C121.927 27.6883 122.076 27.2731 122.209 26.9058C122.342 26.5385 122.465 26.2223 122.565 25.9476C122.665 25.673 122.752 25.4846 122.811 25.3473L122.875 25.1908C122.883 25.1734 122.892 25.1563 122.901 25.1398C122.901 25.1398 122.901 25.159 122.885 25.1941L122.827 25.3538L122.597 25.9606C122.5 26.2225 122.383 26.5419 122.254 26.9188C122.124 27.2957 121.978 27.7045 121.858 28.1679L121.858 28.1359L122.682 28.5202L122.733 28.5428L122.688 28.5746L121.927 29.1055L121.879 29.1053L121.902 29.1054L121.901 29.2014L121.901 29.3261C121.9 29.4093 121.9 29.4957 121.9 29.582C121.899 29.7548 121.914 29.9276 121.92 30.1036C121.934 30.4587 121.948 30.8203 121.966 31.1883C122.006 32.1738 122.06 33.1081 122.127 33.9658C122.193 34.8234 122.283 35.582 122.369 36.2222C122.456 36.8623 122.55 37.3778 122.615 37.7364C122.647 37.9093 122.675 38.0566 122.694 38.143C122.693 38.1878 122.693 38.223 122.712 38.2519C122.731 38.2807 122.751 38.2296 122.748 38.2296Z" fill="#263238"/>
<path d="M136.972 45.2629L138.856 27.0365L133.785 25.1524C133.133 24.7916 132.514 24.3747 131.935 23.9062L131.735 26.3462C131.735 26.3462 130.996 38.0483 132.051 43.9424C133.107 49.8365 132.954 49.6439 133.727 53.483C134.291 56.275 134.376 58.7131 135.242 58.9632C136.108 59.2133 140.507 57.6268 140.507 57.6268L136.972 45.2629Z" fill="#BF1523"/>
<path d="M138.856 27.0301C138.856 27.0301 140.392 27.7919 140.613 29.9426C140.806 31.8373 141.087 43.4479 141.045 44.385C141.002 45.3222 140.178 47.9642 138.729 48.0506C136.438 48.1845 135.815 46.4159 135.815 46.4159L136.455 40.4972L138.856 27.0301Z" fill="#BF1523"/>
<path d="M132.984 37.6476C132.983 37.6358 132.983 37.6241 132.984 37.6124L133.001 37.5133L133.079 37.1265C133.145 36.7877 133.239 36.3019 133.329 35.6944C133.513 34.4828 133.661 32.7976 133.772 30.9298C133.796 30.4884 133.817 30.0599 133.838 29.6505C133.839 29.4372 133.85 29.2325 133.87 29.0364C133.87 28.9372 133.871 28.838 133.887 28.7389L133.888 28.595L133.888 28.5214C133.888 28.5214 133.888 28.499 133.888 28.4894L133.907 28.4895C133.907 28.4895 133.93 28.4896 133.926 28.4896L133.882 28.4894L133.126 27.955L133.084 27.9229L133.132 27.9007L133.959 27.5236L133.959 27.5556C133.887 27.2226 133.832 26.886 133.794 26.5472C133.757 26.2495 133.72 25.9934 133.682 25.7853C133.645 25.5772 133.598 25.4203 133.566 25.3113L133.528 25.1896C133.527 25.1758 133.527 25.1619 133.528 25.148C133.528 25.148 133.528 25.148 133.547 25.1897C133.566 25.2314 133.576 25.2538 133.595 25.3083C133.648 25.4621 133.692 25.6194 133.724 25.7791C133.768 25.9872 133.808 26.2465 133.852 26.5442C133.892 26.8799 133.949 27.2133 134.023 27.5431L134.023 27.5655L134.001 27.5654L133.177 27.9489L133.177 27.8945L133.936 28.4289L133.888 28.4286C133.897 28.4269 133.905 28.4269 133.914 28.4288C133.922 28.4256 133.931 28.4256 133.939 28.4289C133.941 28.4373 133.941 28.446 133.939 28.4545C133.941 28.4672 133.941 28.4801 133.939 28.4928L133.939 28.5664C133.939 28.6144 133.938 28.6656 133.938 28.7136C133.938 28.8127 133.937 28.9119 133.937 29.0111C133.936 29.2126 133.919 29.4173 133.909 29.6252C133.888 30.041 133.867 30.4695 133.842 30.9045C133.771 32.5019 133.615 34.0944 133.377 35.6755C133.281 36.2797 133.18 36.7687 133.108 37.1043C133.069 37.264 133.036 37.3951 133.017 37.4877L132.991 37.5868C132.99 37.638 132.987 37.6508 132.984 37.6476Z" fill="#263238"/>
<g opacity="0.3">
<path d="M125.473 47.167C125.473 47.167 125.122 47.6165 125.886 47.7574C126.65 47.8983 135.29 47.2965 135.29 47.2965L136.927 48.2634L136.716 47.5715L135.353 46.1035L125.473 47.167Z" fill="black"/>
</g>
<path d="M135.92 32.8363L125.041 33.342C124.917 33.3476 124.8 33.399 124.712 33.4861C124.624 33.5732 124.572 33.6898 124.565 33.8133L123.785 46.7117C123.781 46.7818 123.791 46.8521 123.816 46.9179C123.84 46.9837 123.879 47.0436 123.928 47.0936C123.977 47.1437 124.037 47.1827 124.102 47.2083C124.167 47.2338 124.238 47.2453 124.308 47.2418L134.867 46.738C134.988 46.7319 135.102 46.682 135.189 46.5976C135.276 46.5132 135.329 46.4001 135.339 46.2794L136.442 33.3793C136.448 33.3081 136.439 33.2365 136.416 33.1691C136.392 33.1017 136.354 33.0402 136.304 32.9888C136.255 32.9373 136.195 32.8971 136.129 32.8708C136.062 32.8445 135.991 32.8327 135.92 32.8363Z" fill="#263238"/>
<path d="M138.217 30.0184L138.197 30.1335C138.18 30.2166 138.161 30.3253 138.131 30.4531L137.889 31.6613C137.687 32.6841 137.418 34.0969 137.165 35.6665C136.912 37.2362 136.713 38.6589 136.584 39.6948C136.521 40.2064 136.468 40.622 136.432 40.9162C136.415 41.0569 136.398 41.1688 136.389 41.2359C136.386 41.2759 136.379 41.3155 136.369 41.3542C136.365 41.3148 136.366 41.2752 136.369 41.2358C136.37 41.1526 136.386 41.0407 136.396 40.916C136.423 40.625 136.467 40.2061 136.527 39.6882C136.646 38.6522 136.835 37.2262 137.088 35.6534C137.341 34.0806 137.619 32.671 137.835 31.6515C137.943 31.1433 138.031 30.731 138.099 30.4466L138.178 30.127C138.188 30.0898 138.201 30.0535 138.217 30.0184Z" fill="#263238"/>
<path d="M136.106 41.2858C136.106 41.2858 136.73 41.3237 137.283 42.2507L138.339 42.9303C138.339 42.9303 139.26 44.3931 138.326 45.7486C137.393 47.1041 136.278 45.9444 136.278 45.9444C136.278 45.9444 135.156 46.4961 134.843 46.3955C133.894 45.9566 132.978 45.4512 132.101 44.8831C132.009 44.8059 131.331 44.0192 131.331 44.0192C131.331 44.0192 130.372 43.8102 130.277 43.5923C130.182 43.3743 130.165 42.8784 130.802 42.9292C130.802 42.9292 130.182 42.7409 130.11 42.4271C130.037 42.1133 130.113 41.7041 131.216 41.8657C132.319 42.0273 134.411 42.6251 134.664 42.5655C134.69 42.5512 134.711 42.5299 134.725 42.504C134.739 42.4781 134.745 42.4488 134.743 42.4195C134.741 42.3902 134.73 42.3621 134.713 42.3386C134.695 42.3151 134.671 42.2972 134.643 42.2871C134.563 42.2515 132.088 41.2745 131.683 41.1608C131.277 41.047 131.195 40.0806 132.086 40.3148C132.978 40.5491 135.876 41.256 135.876 41.256L136.106 41.2858Z" fill="#FFBF9D"/>
<path d="M134.44 44.967C134.284 44.929 134.13 44.8813 133.98 44.8242C133.699 44.7334 133.309 44.607 132.874 44.4771C132.44 44.3472 132.047 44.2431 131.759 44.1683C131.602 44.1347 131.447 44.0902 131.296 44.0351C131.339 44.0349 131.382 44.0404 131.424 44.0516C131.507 44.052 131.625 44.0877 131.769 44.1203C132.06 44.1824 132.459 44.2801 132.894 44.41C133.328 44.5399 133.718 44.6727 133.999 44.7795L134.318 44.9089C134.362 44.9217 134.403 44.9413 134.44 44.967Z" fill="#FF9A6C"/>
<path d="M134.813 43.817C134.759 43.8218 134.704 43.8215 134.65 43.8163C134.545 43.8158 134.397 43.7864 134.212 43.7568C133.841 43.7008 133.33 43.6089 132.774 43.4881C132.218 43.3673 131.713 43.2339 131.352 43.13C131.173 43.0812 131.032 43.0358 130.927 43.0034C130.873 42.9906 130.822 42.971 130.773 42.9451C130.828 42.9501 130.881 42.9611 130.933 42.9778L131.365 43.0821C131.729 43.1732 132.231 43.297 132.787 43.4082C133.343 43.5194 133.851 43.6304 134.219 43.6992L134.653 43.7811C134.708 43.786 134.762 43.798 134.813 43.817Z" fill="#FF9A6C"/>
<path d="M137.83 43.5807C137.834 43.619 137.834 43.6577 137.83 43.6959C137.825 43.8036 137.811 43.9106 137.787 44.0156C137.714 44.3518 137.579 44.6713 137.389 44.9576C137.199 45.2452 136.956 45.4938 136.672 45.6902C136.588 45.75 136.499 45.8031 136.406 45.849C136.339 45.8807 136.304 45.8965 136.3 45.8901C136.297 45.8837 136.438 45.8044 136.644 45.6485C136.912 45.4455 137.145 45.1988 137.332 44.919C137.516 44.6389 137.654 44.3304 137.739 44.0058C137.804 43.7406 137.817 43.5807 137.83 43.5807Z" fill="#FF9A6C"/>
<path d="M138.168 46.1063C138.277 45.9709 138.378 45.8293 138.471 45.6821C138.69 45.3245 138.813 44.9162 138.828 44.4969C138.843 44.0777 138.749 43.6618 138.555 43.2896C138.409 43.001 138.275 42.8533 138.285 42.8437C138.323 42.8724 138.357 42.9071 138.384 42.9465C138.467 43.0454 138.54 43.153 138.6 43.2674C138.81 43.6431 138.914 44.0695 138.898 44.4999C138.883 44.9304 138.749 45.3483 138.512 45.7079C138.443 45.8213 138.363 45.928 138.274 46.0268C138.243 46.0579 138.207 46.0847 138.168 46.1063Z" fill="#263238"/>
<path d="M140.639 41.4753C140.639 41.4753 140.463 41.3562 140.157 41.2045C139.977 41.116 139.79 41.0435 139.598 40.9877C139.364 40.92 139.125 40.8761 138.882 40.8566C138.638 40.839 138.393 40.8444 138.149 40.8725C137.952 40.899 137.757 40.9409 137.567 40.9979C137.246 41.0989 137.054 41.2036 137.048 41.1908C137.041 41.178 137.089 41.159 137.176 41.1114C137.262 41.0638 137.272 41.0606 137.333 41.0353C137.404 41.0033 137.477 40.9758 137.551 40.9531C137.743 40.8854 137.941 40.8369 138.143 40.8085C138.637 40.739 139.141 40.7794 139.618 40.927C139.812 40.9863 140 41.0642 140.18 41.1598C140.249 41.1953 140.316 41.2351 140.381 41.279C140.431 41.3077 140.479 41.3411 140.524 41.3788C140.601 41.4495 140.642 41.4753 140.639 41.4753Z" fill="#263238"/>
<g opacity="0.3">
<path d="M133.602 25.3787C133.602 25.3787 134.507 27.5229 134.378 27.7014C134.25 27.88 133.766 28.0027 133.766 28.0027C133.766 28.0027 134.555 28.3484 134.553 28.6459C134.551 29.2473 133.687 32.8201 133.687 32.8201L133.918 28.4544L133.162 27.92L133.989 27.5398L133.602 25.3787Z" fill="black"/>
</g>
<path d="M128.26 33.193C128.218 33.3207 128.358 32.1153 128.358 32.1153L133.477 31.9139L133.325 32.9561L128.26 33.193Z" fill="#455A64"/>
<path d="M98.5991 38.6674C98.3731 39.1302 98.1922 39.5293 98.1632 39.5932L97.9246 37.8231C97.9246 37.8231 97.3937 37.7823 97.3172 38.4602C97.2406 39.1381 97.1167 39.675 97.1167 39.675L96.8414 39.7281L96.1693 39.7796L94.3151 38.7605L94.8782 40.2154C94.8782 40.2154 95.9163 40.5846 95.9994 40.601C96.0825 40.6173 98.9828 40.163 98.9828 40.163C99.0339 40.1792 99.6314 38.1697 99.6314 38.1697C99.6314 38.1697 98.8444 38.163 98.5991 38.6674Z" fill="#6F4439"/>
<path d="M61.5285 67.2065C61.5285 67.2065 62.3438 60.0218 64.03 59.2198C65.7163 58.4179 68.0538 57.9131 68.6857 58.994C69.4653 60.3618 69.9858 61.8618 70.221 63.4186C70.3654 64.8633 70.3943 66.3172 70.3074 67.7665L68.389 67.5438C68.389 67.5438 68.5132 60.3784 67.9357 59.317C67.3581 58.2556 64.3985 59.0935 64.0698 60.3685C63.7411 61.6435 63.0025 67.3665 63.0025 67.3665L61.5285 67.2065Z" fill="#455A64"/>
<path d="M54.8006 77.3147C54.9032 74.3496 55.2167 67.8121 55.3541 64.9368C55.3723 64.5595 55.5361 64.204 55.8111 63.945C56.0861 63.6861 56.4508 63.5439 56.8285 63.5485L74.4641 63.7315C74.8431 63.7355 75.2057 63.8865 75.4755 64.1527C75.7452 64.4188 75.9011 64.7794 75.9102 65.1582L76.199 77.3415C76.2037 77.536 76.1694 77.7295 76.0982 77.9106C76.027 78.0917 75.9203 78.2567 75.7843 78.3959C75.6484 78.5351 75.4859 78.6457 75.3066 78.7212C75.1273 78.7967 74.9346 78.8355 74.7401 78.8355L56.2591 78.831C56.0628 78.8307 55.8685 78.7908 55.6879 78.7138C55.5073 78.6367 55.344 78.5241 55.2079 78.3826C55.0718 78.241 54.9656 78.0735 54.8956 77.8901C54.8256 77.7066 54.7933 77.5109 54.8006 77.3147Z" fill="#455A64"/>
<path d="M54.8014 77.3147C54.8066 77.5508 54.8612 77.7831 54.9616 77.9968C55.0902 78.2509 55.2892 78.4628 55.5347 78.6071C55.6913 78.6947 55.8622 78.754 56.0394 78.7821C56.246 78.7945 56.4532 78.7954 56.66 78.7848L64.1459 78.7633L69.3124 78.7541L72.1915 78.7667L73.6982 78.7733L74.4692 78.7767C74.7208 78.7983 74.9742 78.7701 75.2149 78.6936C75.4526 78.6071 75.6622 78.4575 75.8214 78.261C75.9806 78.0645 76.0834 77.8283 76.1188 77.5779C76.1359 77.3138 76.1371 77.0488 76.1222 76.7846C76.1234 76.5126 76.1086 76.2407 76.1034 75.9687C76.0763 74.8745 76.0492 73.759 76.0222 72.6221C75.965 70.3506 75.9081 67.999 75.8516 65.5835C75.8688 65.2919 75.8354 64.9995 75.753 64.7193C75.6537 64.4518 75.475 64.221 75.2408 64.058C75.0042 63.9003 74.7265 63.8156 74.4421 63.8146L73.5592 63.8107L70.0916 63.7731L63.5371 63.6995L57.6031 63.6318L56.9121 63.6288C56.6933 63.6186 56.4749 63.6559 56.2718 63.738C56.077 63.8214 55.9034 63.9474 55.7637 64.1068C55.6241 64.2662 55.5219 64.4549 55.4648 64.659C55.4208 64.8638 55.3995 65.0729 55.4013 65.2825C55.4004 65.4936 55.3995 65.7016 55.3729 65.9222C55.3519 66.338 55.3341 66.741 55.3164 67.1344C55.165 70.288 55.0418 72.8403 54.9636 74.609C54.9182 75.4886 54.8832 76.173 54.8587 76.6432C54.8449 76.8692 54.8346 77.0451 54.8276 77.1709C54.8271 77.2892 54.8108 77.3499 54.8108 77.3499C54.8108 77.3499 54.8111 77.2892 54.8116 77.1708C54.8122 77.0524 54.813 76.8701 54.814 76.6398C54.832 76.1696 54.8574 75.4851 54.8901 74.6087C54.965 72.8367 55.0722 70.2844 55.2012 67.1307C55.203 66.734 55.2367 66.3311 55.2546 65.9185C55.2555 65.7105 55.2564 65.5026 55.283 65.2788C55.2797 65.0639 55.301 64.8493 55.3465 64.6392C55.4064 64.4173 55.516 64.2119 55.667 64.0385C55.8179 63.8652 56.0063 63.7284 56.2179 63.6386C56.435 63.5457 56.6705 63.5041 56.9062 63.5168L57.5972 63.5199L63.528 63.5747L70.0826 63.6387L73.5502 63.6731L74.4363 63.677C74.75 63.6774 75.0561 63.7724 75.3149 63.9496C75.5755 64.1277 75.7745 64.3823 75.8843 64.6783C75.9412 64.8267 75.973 64.9836 75.9782 65.1426L75.9763 65.5936C76.0329 68.0028 76.0897 70.3575 76.1437 72.6323C76.1707 73.7681 76.1946 74.8718 76.2218 75.9788C76.2206 76.2507 76.2194 76.5227 76.2406 76.7947C76.2554 77.0664 76.2542 77.3388 76.237 77.6104C76.1981 77.8863 76.0847 78.1463 75.909 78.3626C75.7333 78.5788 75.502 78.7431 75.2399 78.8377C74.9834 78.9175 74.714 78.9478 74.4461 78.927L72.1748 78.917L69.2957 78.9043L64.1262 78.8816L56.6405 78.8487C56.427 78.855 56.2134 78.8477 56.0008 78.8267C55.8171 78.7969 55.6406 78.7332 55.4802 78.6389C55.2269 78.4878 55.025 78.264 54.9008 77.9965C54.8246 77.8357 54.7798 77.6618 54.7687 77.4841C54.7758 77.427 54.7868 77.3704 54.8014 77.3147Z" fill="#263238"/>
<path d="M74.6689 68.2015C74.6689 68.2015 74.6687 68.2431 74.6684 68.3327L74.6666 68.723C74.6651 69.078 74.6628 69.5899 74.66 70.2457C74.6541 71.5797 74.6265 73.499 74.6032 75.8726C74.6026 76.0197 74.6019 76.1701 74.6013 76.3236C74.611 76.4863 74.5736 76.6483 74.4936 76.7902C74.4079 76.9308 74.2813 77.0418 74.1307 77.1085C73.9747 77.172 73.8052 77.1954 73.6378 77.1767L71.6224 77.1679L67.1726 77.1483L62.2558 77.1267L59.655 77.1153L57.9915 77.108C57.8737 77.1139 57.7556 77.1059 57.6397 77.0841C57.5203 77.0551 57.409 76.9996 57.3141 76.9217C57.2191 76.8437 57.143 76.7453 57.0915 76.6338C57.0473 76.538 57.0217 76.4348 57.016 76.3296C57.0165 76.224 57.0169 76.1312 57.0173 76.0352C57.0182 75.8401 57.019 75.6482 57.0199 75.4562C57.0215 75.0723 57.0392 74.6917 57.0505 74.3111C57.0709 73.5519 57.0901 72.8056 57.1083 72.072C57.1468 70.6006 57.185 69.174 57.2198 67.8146L57.2201 67.7506L57.284 67.7509C62.3498 68.093 66.6969 68.1857 69.7743 68.212C71.3098 68.2188 72.5319 68.2241 73.37 68.2278L74.3297 68.232L74.5728 68.2331C74.5994 68.2294 74.6263 68.2295 74.6528 68.2334L74.5664 68.2331L74.3169 68.232L73.3571 68.2565C72.5189 68.2721 71.3 68.2859 69.7612 68.2823C66.6838 68.2688 62.3334 68.1889 57.2643 67.8691L57.3318 67.8086C57.297 69.1681 57.2619 70.5947 57.2267 72.0661C57.2064 72.804 57.1871 73.5503 57.1689 74.3052C57.1672 74.6827 57.1495 75.0665 57.1382 75.4504L57.1357 76.0262C57.109 76.2093 57.128 76.3962 57.1909 76.5703C57.2352 76.6634 57.2996 76.7454 57.3796 76.8105C57.4595 76.8756 57.553 76.9221 57.6531 76.9466C57.7586 76.9652 57.8659 76.9721 57.9729 76.9672L59.6364 76.9745L62.2372 76.9859L67.154 77.0267L71.6037 77.0654L73.619 77.0743C73.7723 77.0902 73.9271 77.0689 74.0704 77.0123C74.205 76.953 74.3174 76.8528 74.3916 76.7258C74.4614 76.5978 74.4942 76.4528 74.4862 76.3071C74.4868 76.1536 74.4875 76.0064 74.4881 75.8593C74.5337 73.4986 74.5709 71.5857 74.5959 70.2582C74.5988 69.596 74.6235 69.0811 74.6314 68.726C74.6322 68.5533 74.6328 68.4221 74.6332 68.3261C74.6336 68.2302 74.6689 68.2015 74.6689 68.2015Z" fill="#263238"/>
<path d="M69.5673 76.004C69.5673 76.004 69.676 76.0045 69.8873 75.9638C70.1763 75.8994 70.441 75.7541 70.6506 75.5449C70.8113 75.3761 70.9337 75.1745 71.0092 74.954C71.0847 74.7334 71.1116 74.4991 71.088 74.2672C71.0905 73.7106 71.0932 73.0836 71.0963 72.3862C71.0978 72.0375 71.0994 71.6728 71.1011 71.2953C71.1341 70.9088 71.0217 70.5239 70.7859 70.2159C70.6609 70.0538 70.5029 69.9201 70.3225 69.8234C70.1421 69.7266 69.9433 69.6691 69.7391 69.6546C69.3104 69.6528 68.8562 69.6508 68.3988 69.6328L62.4073 69.5584C62.0291 69.554 61.6639 69.6966 61.3888 69.9562C61.1137 70.2158 60.9502 70.5721 60.9328 70.95L60.9295 71.7049C60.9273 72.2072 60.9251 72.6998 60.923 73.1797C60.922 73.4228 60.9209 73.6595 60.9199 73.8962C60.9188 74.133 60.9178 74.3697 60.9169 74.584C60.9455 74.7987 61.0217 75.0043 61.1399 75.1858C61.2581 75.3673 61.4153 75.5201 61.6 75.6331C61.7761 75.7418 61.9731 75.8124 62.1782 75.8404C62.3796 75.8605 62.594 75.8422 62.7955 75.8591L65.0731 75.8979L68.371 75.9636L69.2698 75.9899L69.5033 75.9909C69.5287 75.9862 69.5548 75.9863 69.5801 75.9913L69.5001 75.9909L68.3709 75.986L65.0727 75.9715L62.795 75.9615C62.5871 75.9606 62.3856 75.9597 62.1553 75.9427C61.9287 75.9172 61.7106 75.8419 61.5165 75.7223C61.3165 75.6013 61.1463 75.4371 61.0181 75.2417C60.89 75.0462 60.8073 74.8246 60.7761 74.593C60.7628 74.3564 60.7638 74.1193 60.7792 73.8828C60.7802 73.6493 60.7813 73.4094 60.7823 73.1695C60.7844 72.6864 60.7866 72.1938 60.7888 71.6947L60.7921 70.9333C60.8012 70.6641 60.8807 70.402 61.0226 70.173C61.1677 69.9395 61.3705 69.7473 61.6115 69.615C61.8524 69.4827 62.1234 69.4147 62.3983 69.4177L68.3866 69.5015C68.8504 69.5036 69.2919 69.5055 69.7365 69.5299C69.9563 69.5459 70.1701 69.6085 70.3638 69.7136C70.5575 69.8187 70.7266 69.9639 70.8599 70.1394C71.1033 70.4694 71.2155 70.878 71.1747 71.2861C71.1731 71.6668 71.1714 72.0314 71.1539 72.3801C71.1509 73.0742 71.1289 73.7044 71.1201 74.2578C71.1195 74.3953 71.1189 74.5297 71.1023 74.6608C71.0868 74.7868 71.055 74.9103 71.0079 75.0282C70.9132 75.2736 70.7567 75.4904 70.5536 75.6576C70.3506 75.8248 70.1079 75.9369 69.8489 75.9829C69.7562 76.0013 69.6616 76.0084 69.5673 76.004Z" fill="#263238"/>
<g opacity="0.3">
<path d="M57.5596 77.0069C62.8167 78.6171 68.4301 78.654 73.7079 77.1131L57.5596 77.0069Z" fill="black"/>
</g>
<path d="M67.6806 70.2767L65.4415 70.2466C65.1588 70.2428 64.9266 70.4688 64.9228 70.7515L64.9207 70.9082C64.9169 71.1909 65.1429 71.4231 65.4256 71.4269L67.6647 71.4571C67.9474 71.4609 68.1796 71.2348 68.1834 70.9522L68.1855 70.7954C68.1893 70.5128 67.9633 70.2805 67.6806 70.2767Z" fill="#E0E0E0"/>
<path d="M67.5552 56.2538C67.8559 56.5211 68.1241 56.8229 68.3542 57.153C68.5903 57.7898 68.7799 58.4428 68.9214 59.107C68.9214 59.107 68.6259 59.3712 68.105 58.5307C67.8404 58.133 67.6141 57.711 67.4291 57.2705L67.5552 56.2538Z" fill="#FFBF9D"/>
<path d="M64.9842 53.0946L65.6793 54.3325L67.5901 56.2891L68.3037 59.1714C68.3822 59.4765 68.3455 59.7998 68.2005 60.0795C68.1608 60.1713 68.0919 60.2475 68.0044 60.2961C67.7897 60.3848 67.1801 60.0686 67.1801 60.0686C67.1801 60.0686 66.733 60.6201 66.2578 60.2917C66.2578 60.2917 65.5716 60.6406 65.1925 60.287C65.1925 60.287 64.7559 60.6306 64.4338 60.4148C64.1116 60.1991 63.1898 58.8418 63.1898 58.8418L61.965 54.3802L64.9842 53.0946Z" fill="#FFBF9D"/>
<path d="M92.0941 41.3292L96.5419 41.787C96.5419 41.787 100.243 40.4437 100.663 40.2696C100.708 40.2536 100.749 40.2275 100.783 40.1933C100.817 40.1591 100.843 40.1177 100.859 40.0721C100.88 40.0038 100.884 39.9311 100.869 39.861C100.855 39.7909 100.822 39.7256 100.776 39.6715C100.729 39.6174 100.669 39.5762 100.601 39.5519C100.534 39.5276 100.461 39.521 100.391 39.5326L96.2485 40.119C96.1255 40.1326 96.0009 40.12 95.8831 40.082C95.7653 40.044 95.6568 39.9815 95.5649 39.8985L94.1343 38.5966C94.1343 38.5966 94.9266 38.0946 95.4467 37.6874C95.5913 37.5895 95.6996 37.4465 95.7547 37.2808C95.8098 37.115 95.8086 36.9357 95.7514 36.7706C95.2109 36.7395 92.1592 38.1624 92.1592 38.1624L90.8767 38.7966L92.0941 41.3292Z" fill="#AE7461"/>
<path d="M76.9029 6.77663C77.2231 6.80703 77.5432 6.71751 77.8012 6.52542C78.0592 6.33333 78.2368 6.05233 78.2995 5.73684C78.3622 5.42135 78.3056 5.09381 78.1406 4.81765C77.9757 4.54149 77.7142 4.33637 77.4067 4.24199C77.5971 4.03481 77.718 3.77331 77.7525 3.49404C77.787 3.21477 77.7334 2.93169 77.5991 2.68439C77.4649 2.43709 77.2567 2.23792 77.0037 2.11473C76.7507 1.99154 76.4656 1.95048 76.1881 1.9973C76.1733 1.71738 76.086 1.44611 75.9347 1.21015C75.7834 0.974194 75.5733 0.781666 75.3251 0.651488C75.0768 0.521309 74.799 0.457961 74.5188 0.467672C74.2387 0.477382 73.9659 0.559812 73.7273 0.706867C73.4085 0.455908 73.015 0.318641 72.6093 0.316859C72.2036 0.315077 71.8089 0.448881 71.488 0.697029C71.2122 0.641697 70.9259 0.678777 70.6733 0.802529C70.4207 0.926281 70.2159 1.12981 70.0906 1.38164C69.9653 1.63347 69.9265 1.91957 69.9801 2.19568C70.0338 2.4718 70.1769 2.72255 70.3874 2.90914" fill="#263238"/>
<path d="M77.094 6.96628C76.9589 5.58874 76.3102 4.31254 75.2769 3.39158C74.2436 2.47062 72.9014 1.9724 71.5175 1.99604L71.2328 1.99479C68.1607 2.22762 66.6419 4.96574 66.9611 8.02864L67.1881 18.996L72.4445 24.723L74.6999 21.086L74.6934 17.4486C74.6934 17.4486 77.642 16.937 77.6262 13.981C77.6069 12.5477 77.3543 9.60985 77.094 6.96628Z" fill="#AE7461"/>
<path d="M74.703 17.4358C73.3312 17.4619 71.9811 17.0916 70.8145 16.3694C70.8145 16.3694 71.7167 18.5392 74.6452 18.2225L74.703 17.4358Z" fill="#6F4439"/>
<path d="M76.3721 9.65349C76.3752 9.76392 76.3348 9.87113 76.2597 9.95214C76.1846 10.0331 76.0807 10.0815 75.9704 10.0868C75.9168 10.0923 75.8626 10.0869 75.8112 10.0709C75.7598 10.055 75.7121 10.0288 75.671 9.99397C75.6299 9.95913 75.5963 9.91635 75.5722 9.86821C75.548 9.82006 75.5339 9.76753 75.5305 9.71378C75.5275 9.60387 75.5674 9.49711 75.6418 9.4162C75.7163 9.33528 75.8193 9.28658 75.9291 9.28046C75.9828 9.27542 76.0369 9.28111 76.0884 9.2972C76.1398 9.31329 76.1875 9.33945 76.2288 9.37417C76.27 9.40889 76.3039 9.45147 76.3285 9.49942C76.3531 9.54738 76.368 9.59975 76.3721 9.65349Z" fill="#263238"/>
<path d="M76.4828 8.40952C76.4314 8.46688 76.1093 8.23513 75.655 8.24273C75.2007 8.25033 74.8702 8.48561 74.8192 8.431C74.7683 8.3764 74.8486 8.30637 74.9898 8.19822C75.1844 8.05927 75.417 7.98325 75.6561 7.98042C75.8923 7.97629 76.1237 8.0467 76.3175 8.18166C76.461 8.28786 76.5085 8.38404 76.4828 8.40952Z" fill="#263238"/>
<path d="M72.2315 9.82401C72.2337 9.93389 72.1929 10.0403 72.1179 10.1206C72.0429 10.2009 71.9395 10.2488 71.8297 10.2541C71.7762 10.2596 71.722 10.2542 71.6706 10.2383C71.6191 10.2223 71.5714 10.1961 71.5304 10.1613C71.4893 10.1265 71.4557 10.0837 71.4315 10.0355C71.4074 9.98738 71.3932 9.93485 71.3899 9.8811C71.3869 9.77119 71.4268 9.66443 71.5012 9.58351C71.5757 9.5026 71.6787 9.4539 71.7885 9.44778C71.8423 9.44319 71.8965 9.4493 71.948 9.46576C71.9994 9.48221 72.0471 9.50869 72.0883 9.54366C72.1295 9.57863 72.1634 9.62141 72.1879 9.66953C72.2125 9.71765 72.2273 9.77015 72.2315 9.82401Z" fill="#263238"/>
<path d="M72.02 8.57229C71.9686 8.62645 71.6465 8.3979 71.1922 8.4055C70.7379 8.4131 70.4105 8.64839 70.3596 8.59379C70.3086 8.53918 70.3857 8.46914 70.5302 8.36101C70.7238 8.22014 70.957 8.14393 71.1965 8.1432C71.432 8.13634 71.6632 8.20704 71.8546 8.34443C71.9981 8.44743 72.0457 8.54361 72.02 8.57229Z" fill="#263238"/>
<path d="M73.7263 11.91C73.9648 11.8314 74.2122 11.783 74.4627 11.766C74.5778 11.7666 74.6868 11.7254 74.7063 11.6456C74.7144 11.5263 74.6847 11.4075 74.6215 11.3061C74.5075 11.0273 74.3904 10.7324 74.2638 10.428C73.7671 9.17816 73.4037 8.14966 73.4549 8.1307C73.5062 8.11173 73.9497 9.10858 74.4465 10.3584L74.7913 11.2397C74.8653 11.3789 74.8894 11.5393 74.8597 11.6942C74.8429 11.7352 74.8171 11.7718 74.7844 11.8016C74.7516 11.8313 74.7126 11.8534 74.6702 11.8661C74.607 11.8861 74.5412 11.8966 74.4749 11.8973C74.227 11.9338 73.9753 11.9381 73.7263 11.91Z" fill="#263238"/>
<path d="M72.1316 7.02444C72.0735 7.13935 71.6837 7.02247 71.2039 7.02036C70.724 7.01825 70.3206 7.09965 70.2763 6.98109C70.2574 6.92343 70.3378 6.81821 70.511 6.723C70.7319 6.60726 70.9791 6.55101 71.2283 6.5598C71.4741 6.56451 71.7144 6.63398 71.9248 6.7612C72.0843 6.85787 72.1574 6.96697 72.1316 7.02444Z" fill="#263238"/>
<path d="M76.5096 6.8005C76.4163 6.90566 76.0393 6.79844 75.5883 6.79646C75.1372 6.79447 74.7593 6.87918 74.6702 6.77322C74.6289 6.72186 74.6869 6.61654 74.8537 6.51491C75.082 6.3897 75.3396 6.32787 75.5999 6.33584C75.8591 6.33264 76.1143 6.40012 76.338 6.53102C76.4975 6.64369 76.5514 6.7495 76.5096 6.8005Z" fill="#263238"/>
<path d="M67.4859 10.8909C67.48 10.7826 67.4523 10.6766 67.4045 10.5792C67.3567 10.4819 67.2897 10.3952 67.2076 10.3243C67.1254 10.2535 67.0299 10.1999 66.9266 10.1669C66.8233 10.1338 66.7143 10.122 66.6063 10.132C66.0558 10.1936 65.4466 10.5172 65.5024 11.6563C65.6023 13.6754 67.6071 13.1595 67.6106 13.102C67.614 13.0444 67.5335 11.7228 67.4859 10.8909Z" fill="#AE7461"/>
<path d="M67.1341 12.3609C67.1341 12.3609 67.0988 12.3864 67.0411 12.4181C66.9588 12.4562 66.8654 12.4627 66.7787 12.4361C66.644 12.3595 66.5322 12.2484 66.4546 12.1143C66.3771 11.9801 66.3366 11.8278 66.3374 11.6728C66.323 11.5001 66.3478 11.3263 66.41 11.1645C66.4256 11.1008 66.4566 11.0419 66.5003 10.9929C66.544 10.944 66.5991 10.9067 66.6607 10.8841C66.7006 10.8714 66.7437 10.8728 66.7826 10.8882C66.8216 10.9035 66.8541 10.9317 66.8747 10.9682C66.9032 11.0227 66.8935 11.0642 66.9031 11.0675C66.9126 11.0707 66.9448 11.0325 66.926 10.9492C66.9119 10.9001 66.8816 10.8571 66.8401 10.8273C66.8117 10.8071 66.7795 10.7929 66.7454 10.7856C66.7114 10.7783 66.6762 10.778 66.642 10.7848C66.5615 10.804 66.4871 10.8432 66.4259 10.8989C66.3647 10.9546 66.3186 11.0249 66.2919 11.1032C66.2137 11.2821 66.1809 11.4776 66.1966 11.6722C66.1955 11.8525 66.2478 12.029 66.3467 12.1797C66.4456 12.3304 66.5869 12.4485 66.7527 12.5192C66.8079 12.532 66.8652 12.5325 66.9205 12.5206C66.9759 12.5087 67.0279 12.4846 67.0729 12.4502C67.1307 12.4121 67.1405 12.3609 67.1341 12.3609Z" fill="#6F4439"/>
<path d="M75.3433 2.7806C75.3242 2.73005 75.2997 2.68169 75.2704 2.63632C75.155 2.47227 75.0035 2.33692 74.8276 2.24074C74.6516 2.14456 74.4559 2.09012 74.2555 2.08162C74.0252 1.96746 73.786 1.87226 73.5402 1.79696C73.3888 1.53892 73.1742 1.32371 72.9166 1.17168C72.659 1.01965 72.3668 0.935818 72.0678 0.9281C71.7688 0.920383 71.4727 0.989034 71.2076 1.12757C70.9424 1.26611 70.717 1.46996 70.5526 1.71986L70.3029 1.76674C70.0797 1.60794 69.8232 1.50231 69.553 1.45794C69.2827 1.41358 69.0059 1.43165 68.7437 1.51078C68.4815 1.58991 68.2409 1.72799 68.0403 1.91446C67.8397 2.10093 67.6845 2.33084 67.5865 2.58657C67.3392 2.52758 67.0801 2.54208 66.841 2.62828C66.6019 2.71447 66.3931 2.86862 66.2404 3.07179C66.0876 3.27495 65.9975 3.5183 65.9811 3.77196C65.9647 4.02562 66.0227 4.27854 66.1481 4.49968C65.9616 4.59582 65.8028 4.738 65.6867 4.91272C65.5706 5.08745 65.5011 5.28893 65.4847 5.49807C65.4846 5.59452 65.5039 5.68999 65.5415 5.77882C65.5791 5.86765 65.6341 5.94803 65.7033 6.01517C65.7726 6.08232 65.8546 6.13487 65.9445 6.1697C66.0345 6.20453 66.1305 6.22092 66.2269 6.21792C66.2141 7.25636 66.2598 8.29469 66.3636 9.328C66.4117 10.0352 67.3184 10.4423 67.3898 10.932C67.747 13.3809 68.5272 12.0119 68.7478 6.92959C68.796 6.89141 68.8474 6.84685 68.8988 6.79909C69.0047 6.70358 69.0277 6.58212 69.1177 6.48014C69.2077 6.37817 69.438 6.38558 69.5979 6.39908C69.8954 6.41939 70.1906 6.33519 70.4325 6.16104C70.6745 5.98688 70.8481 5.73369 70.9233 5.44519C71.015 5.54414 71.1405 5.605 71.275 5.61566C71.4095 5.62633 71.5431 5.58602 71.6492 5.50276C71.8568 5.32972 72.0386 5.12801 72.1893 4.90371C72.2664 4.79319 72.3691 4.7029 72.4885 4.6405C72.608 4.5781 72.7407 4.54542 72.8755 4.54523C73.0186 4.59223 73.1666 4.62292 73.3166 4.63674C73.5822 4.60592 73.7084 4.29296 73.7415 4.03079C73.747 3.80403 73.8143 3.58309 73.9362 3.39183C74.0967 3.31078 74.2702 3.25849 74.4488 3.23733C74.5479 3.23777 74.6502 3.267 74.7493 3.28024C74.7961 3.28367 74.8432 3.28388 74.89 3.28085C74.9531 3.30091 75.015 3.32468 75.0753 3.35205C75.9756 3.76868 76.7865 5.5989 76.7865 5.5989C76.83 4.43144 76.1753 3.46245 75.3433 2.7806Z" fill="#263238"/>
<path d="M65.8889 4.62005C65.8889 4.62005 65.8889 4.62005 65.9051 4.58813C65.9212 4.55621 65.9405 4.5435 65.9694 4.50844C66.0619 4.41281 66.1706 4.33424 66.2903 4.27632C66.4745 4.1817 66.6789 4.1332 66.886 4.13497C67.1609 4.13381 67.4276 4.22892 67.6398 4.4038L67.5885 4.42277C67.6456 4.20625 67.7476 4.00413 67.8878 3.82951C68.028 3.65488 68.2033 3.51164 68.4023 3.40905C68.6256 3.28618 68.8702 3.20691 69.1231 3.17549C69.3902 3.14649 69.6602 3.16064 69.9227 3.21739C70.4109 3.33666 70.8731 3.54473 71.286 3.8312L71.2251 3.85012C71.3906 3.42455 71.711 3.07737 72.122 2.87835C72.4436 2.72535 72.8048 2.67554 73.1559 2.73574C73.3834 2.77309 73.6008 2.8568 73.7946 2.98167C73.8466 3.01372 73.8957 3.05033 73.9413 3.09108L73.9891 3.13288C73.9178 3.09351 73.8486 3.0505 73.7817 3.00401C73.5842 2.89181 73.3676 2.8171 73.1429 2.78367C72.756 2.72674 72.3613 2.80452 72.0249 3.00398C71.6886 3.20344 71.431 3.51245 71.2954 3.87922L71.276 3.92393L71.2345 3.89815C70.8297 3.61745 70.376 3.41474 69.8968 3.30045C69.6439 3.24433 69.3837 3.22915 69.126 3.25547C68.8831 3.28539 68.6483 3.36145 68.434 3.47957C68.2427 3.57496 68.0735 3.70932 67.9373 3.874C67.801 4.03869 67.7007 4.23006 67.6428 4.43581L67.6426 4.49019L67.6012 4.45482C67.4017 4.28647 67.1499 4.19264 66.8889 4.18937C66.7026 4.18217 66.517 4.21717 66.346 4.29176C66.1751 4.36634 66.0232 4.47859 65.9017 4.62011L65.8889 4.62005Z" fill="#455A64"/>
<path d="M73.9532 3.25753C73.9449 3.28405 73.9341 3.30972 73.9209 3.33416C73.8914 3.41116 73.8676 3.49017 73.8494 3.57058C73.8234 3.67283 73.8004 3.80389 73.771 3.95732C73.7447 4.1354 73.6795 4.3055 73.58 4.45553C73.5459 4.49938 73.5033 4.536 73.4549 4.56325C73.4064 4.59049 73.353 4.60783 73.2978 4.61424C73.1839 4.62483 73.0693 4.62433 72.9555 4.61274C72.8406 4.59375 72.7228 4.60424 72.6131 4.64323C72.5014 4.70078 72.4022 4.77969 72.321 4.87548C72.2341 4.97427 72.1505 5.08586 72.0636 5.19425C71.983 5.31576 71.8831 5.42337 71.7679 5.51286C71.6362 5.60144 71.484 5.65474 71.3258 5.66767C71.2453 5.68162 71.163 5.68126 71.0826 5.6666C71.0381 5.65836 70.9957 5.64129 70.9579 5.6164C70.9201 5.59151 70.8877 5.5593 70.8625 5.52168L70.9361 5.522C70.9117 5.64315 70.8679 5.7596 70.8066 5.86693C70.7419 5.9756 70.6605 6.07347 70.5654 6.15698C70.3654 6.32565 70.1223 6.43535 69.8635 6.4738C69.7577 6.49074 69.6505 6.4967 69.5435 6.49159C69.4466 6.47013 69.3462 6.46969 69.2492 6.4903C69.1609 6.52316 69.0862 6.58482 69.0373 6.66532C68.9749 6.74723 68.9072 6.82494 68.8347 6.89796C68.5649 7.18803 68.197 7.36767 67.8024 7.40208C67.4457 7.39429 67.1045 7.25493 66.8444 7.01078C66.6187 6.80989 66.4602 6.54454 66.3903 6.25061L66.4254 6.26996C66.3113 6.29563 66.193 6.29607 66.0787 6.27126C65.9644 6.24644 65.857 6.19697 65.7638 6.12629C65.6274 6.01661 65.5322 5.86395 65.4938 5.69323C65.4724 5.58762 65.4729 5.47875 65.4952 5.37333C65.5014 5.34599 65.5101 5.31927 65.5211 5.29347L65.5212 5.26788C65.4876 5.40655 65.4869 5.55118 65.5194 5.69015C65.561 5.85077 65.6563 5.99231 65.7895 6.09121C65.8768 6.1562 65.9773 6.20129 66.0838 6.22331C66.1904 6.24534 66.3005 6.24376 66.4064 6.21869L66.4352 6.21881L66.4351 6.2476C66.5086 6.5269 66.6633 6.77809 66.8798 6.96935C67.1277 7.19712 67.4501 7.32701 67.7867 7.33482C68.1615 7.2998 68.5099 7.12692 68.7645 6.84967C68.8339 6.77981 68.8983 6.70528 68.9575 6.62658C69.0163 6.53178 69.1058 6.45993 69.2111 6.42295C69.2654 6.40358 69.3231 6.39514 69.3807 6.39811L69.5343 6.39878C69.6412 6.40432 69.7483 6.39943 69.8543 6.38419C70.0977 6.34887 70.327 6.24816 70.5177 6.09279C70.6936 5.93994 70.8148 5.73376 70.8626 5.50568L70.8822 5.41299L70.9363 5.49321C70.9846 5.54526 71.0457 5.58374 71.1135 5.60481C71.1813 5.62587 71.2535 5.6288 71.3228 5.61327C71.4671 5.6001 71.6058 5.55123 71.7265 5.47109C71.8367 5.38013 71.9322 5.27263 72.0094 5.15242C72.0995 5.04405 72.1799 4.93244 72.2732 4.83368C72.362 4.7298 72.4712 4.64534 72.5941 4.58556C72.7141 4.54248 72.8433 4.53201 72.9686 4.55522C73.0741 4.57366 73.1814 4.58056 73.2884 4.57582C73.3369 4.57142 73.384 4.55736 73.4269 4.53447C73.4699 4.51159 73.5078 4.48033 73.5385 4.44256C73.635 4.29952 73.699 4.13711 73.7261 3.96672C73.762 3.81652 73.7881 3.68547 73.8174 3.58323C73.8389 3.50185 73.8682 3.42271 73.9048 3.34689L73.9532 3.25753Z" fill="#455A64"/>
<path d="M72.3244 12.7292C72.2269 12.9713 72.2181 13.24 72.2996 13.488C72.381 13.736 72.5474 13.9472 72.7695 14.0843C72.8629 14.132 72.9649 14.1608 73.0694 14.169C73.174 14.1772 73.2792 14.1646 73.3789 14.1321C73.4786 14.0995 73.5709 14.0476 73.6505 13.9793C73.7301 13.911 73.7954 13.8276 73.8427 13.7339C73.9412 13.5233 73.9861 13.2917 73.9737 13.0595C73.5102 12.9551 72.7846 12.8368 72.3244 12.7292Z" fill="#6F4439"/>
<path d="M73.7745 13.8713C73.7444 13.92 73.7038 13.9613 73.6556 13.9923C73.5274 14.0836 73.3768 14.1382 73.2199 14.1503C72.9881 14.166 72.7593 14.0916 72.581 13.9428C72.4706 13.8507 72.3804 13.7368 72.316 13.6083C72.2517 13.4797 72.2145 13.3393 72.2068 13.1958C72.1958 13.045 72.2116 12.8934 72.2535 12.7481L72.2537 12.7129L72.2889 12.7131C72.7619 12.8079 73.1774 12.8929 73.4746 12.9582C73.634 12.9865 73.791 13.0268 73.9444 13.0786C73.7831 13.0681 73.6229 13.046 73.4648 13.0126C73.1643 12.96 72.7488 12.8846 72.2725 12.793L72.3206 12.7644C72.2835 12.9007 72.2688 13.0422 72.2772 13.1833C72.2843 13.3164 72.3182 13.4467 72.3771 13.5662C72.436 13.6858 72.5185 13.7922 72.6196 13.879C72.7865 14.0213 73.001 14.0954 73.2201 14.0864C73.3683 14.0794 73.5124 14.0361 73.6398 13.9602C73.7264 13.9094 73.7681 13.868 73.7745 13.8713Z" fill="#263238"/>
<path d="M70.8606 94.0556L70.5342 100.638C70.5342 100.638 77.1195 103.172 77.1781 104.394L64.3826 104.238L64.4565 93.9602L70.8606 94.0556Z" fill="#263238"/>
<path d="M64.4017 104.239L64.4446 103.202L76.6851 103.739C76.6851 103.739 77.2502 103.994 77.1813 104.381L64.4017 104.239Z" fill="#455A64"/>
<path d="M70.7513 100.575C70.751 100.639 70.431 100.663 70.1102 100.86C69.7895 101.057 69.6316 101.318 69.5773 101.293C69.523 101.267 69.6174 100.906 69.9959 100.674C70.3744 100.442 70.7643 100.52 70.7513 100.575Z" fill="#263238"/>
<path d="M72.0862 101.147C72.0859 101.208 71.8263 101.312 71.6108 101.573C71.3953 101.835 71.3333 102.113 71.2694 102.109C71.2054 102.106 71.1718 101.751 71.4451 101.432C71.7184 101.113 72.0832 101.089 72.0862 101.147Z" fill="#263238"/>
<path d="M72.8281 102.762C72.7705 102.762 72.6887 102.461 72.8533 102.123C73.018 101.784 73.3097 101.648 73.335 101.703C73.3604 101.757 73.1804 101.935 73.0481 102.216C72.9157 102.497 72.8889 102.756 72.8281 102.762Z" fill="#263238"/>
<path d="M70.6561 99.0708C70.6302 99.1283 70.3363 99.0374 69.9907 99.0679C69.6451 99.0983 69.3503 99.1962 69.3282 99.1417C69.306 99.0873 69.5661 98.8677 69.9693 98.8502C70.3724 98.8328 70.6883 99.0197 70.6561 99.0708Z" fill="#263238"/>
<path d="M70.8197 98.9947C70.8637 99.5215 70.8678 100.051 70.832 100.578L70.7811 100.501C71.5252 100.789 72.5185 101.174 73.5719 101.678C74.5705 102.121 75.5175 102.672 76.3959 103.322C76.667 103.521 76.9037 103.763 77.0965 104.038C77.2268 104.244 77.2101 104.4 77.1877 104.394C77.1564 104.277 77.1014 104.168 77.026 104.073C76.8171 103.826 76.5747 103.61 76.3058 103.43C75.411 102.824 74.4649 102.298 73.4784 101.857C72.4345 101.36 71.4541 100.955 70.7229 100.639L70.6687 100.616L70.6689 100.558C70.681 100.034 70.7314 99.5116 70.8197 98.9947Z" fill="#263238"/>
<path d="M62.7923 48.1041L61.4798 55.5937L64.5311 73.2019C64.5311 73.2019 64.2458 82.0685 63.763 87.1113C63.3471 91.4921 63.963 99.1214 63.963 99.1214L70.9432 99.1521L73.5501 73.7214L75.1714 57.858L78.0246 48.4717L62.7923 48.1041Z" fill="#263238"/>
<path d="M74.9701 92.9315L73.0996 99.2543C73.0996 99.2543 78.9043 103.266 78.6751 104.468L66.2862 101.31L68.7709 91.3368L74.9701 92.9315Z" fill="#263238"/>
<path d="M66.2983 101.31L66.5874 100.313L78.3578 103.714C78.3578 103.714 78.8488 104.094 78.6744 104.468L66.2983 101.31Z" fill="#455A64"/>
<path d="M73.3298 99.2425C73.3135 99.3032 73.0099 99.2411 72.6542 99.3739C72.2985 99.5067 72.0834 99.6913 72.0355 99.6655C71.9876 99.6397 72.1651 99.3014 72.5879 99.1656C73.0108 99.0299 73.3556 99.1914 73.3298 99.2425Z" fill="#455A64"/>
<path d="M74.4931 100.111C74.4928 100.175 74.2016 100.209 73.932 100.413C73.6624 100.616 73.5333 100.872 73.4726 100.855C73.4118 100.839 73.4742 100.484 73.7952 100.239C74.1162 99.9945 74.5062 100.047 74.4931 100.111Z" fill="#455A64"/>
<path d="M74.8348 101.856C74.7772 101.856 74.769 101.536 75.0102 101.24C75.2515 100.943 75.5652 100.887 75.5778 100.945C75.5903 101.002 75.369 101.133 75.176 101.378C74.9829 101.623 74.8955 101.866 74.8348 101.856Z" fill="#455A64"/>
<path d="M73.5923 97.7561C73.5537 97.8039 73.2985 97.6492 72.9533 97.5869C72.6081 97.5247 72.3136 97.5618 72.2915 97.5009C72.2693 97.44 72.5867 97.291 72.9926 97.3728C73.3985 97.4546 73.6341 97.7147 73.5923 97.7561Z" fill="#263238"/>
<path d="M80.7246 48.5891L81.0303 51.8375L80.8025 74.5498C80.7927 75.3808 80.6608 76.2059 80.4111 76.9986L74.9318 94.3102L73.5745 98.8949L66.4498 97.5232L72.1609 48.5579L80.7246 48.5891Z" fill="#263238"/>
<path d="M80.3845 77.0848C80.3776 77.1204 80.3689 77.1556 80.3585 77.1903C80.3358 77.2637 80.3065 77.3692 80.2643 77.5097C80.1831 77.7877 80.0598 78.1902 79.9007 78.711L78.5117 83.222C77.3143 87.0812 75.6204 92.5377 73.6441 98.9271L73.6279 98.9783L73.5735 98.978L66.4486 97.6671L66.3846 97.6668L66.3849 97.606C66.7544 95.7842 67.1434 93.8825 67.539 91.9424L70.8079 76.0446L70.808 76.0382L68.216 60.1723L67.035 58.1133C66.9017 57.8824 66.8033 57.7028 66.7175 57.5809C66.6316 57.4589 66.6191 57.3981 66.6191 57.3981L66.7303 57.5745L67.0479 58.1006L68.2513 60.1501C68.7906 63.3707 69.7289 68.9764 70.9073 76.0067L70.9071 76.0387C69.9266 80.7754 68.8375 86.1962 67.667 91.9397C67.2682 93.8798 66.8792 95.7751 66.5065 97.6034L66.4556 97.5296L73.5773 98.8405L73.5068 98.8817L78.4287 83.1896L79.8528 78.6916C80.0183 78.1709 80.148 77.7716 80.2356 77.4968C80.2809 77.3627 80.3134 77.2604 80.3361 77.1774L80.3845 77.0848Z" fill="#455A64"/>
<path d="M57.9597 33.4088C57.9597 33.4088 56.9488 39.233 57.5308 41.4557C58.1129 43.6784 62.8868 49.3073 62.8868 49.3073L69.4529 45.2766L65.1841 34.6466L57.9597 33.4088Z" fill="#BF1523"/>
<path d="M61.7219 21.5888C61.7219 21.5888 66.2351 21.7462 66.261 26.0394C66.287 30.3327 65.414 36.0711 65.414 36.0711L57.6556 35.49C57.6556 35.49 58.1676 27.4498 58.8019 25.0789C59.4361 22.708 61.7219 21.5888 61.7219 21.5888Z" fill="#BF1523"/>
<path d="M67.1117 17.4249L67.1376 16.6188C67.1376 16.6188 73.8472 18.5294 74.8458 19.1608C75.8443 19.7922 75.0753 20.8029 75.0753 20.8029L67.1117 17.4249Z" fill="white"/>
<path d="M80.1148 39.4211L77.8279 21.8579L75.4543 20.3695C75.0191 19.6638 74.4508 19.4054 73.5597 19.0815L67.1454 16.9356L66.7257 18.5333L60.9875 21.9662L62.9098 40.9803L61.0132 56.916L64.4201 56.931L65.6936 53.2193L66.0516 56.9382L81.655 56.5717L80.1148 39.4211Z" fill="#BF1523"/>
<path d="M76.8429 21.2073C76.8429 21.2073 79.187 22.1198 79.9213 25.3796C80.1628 26.4684 82.2023 37.0086 82.2023 37.0086L91.8307 37.9083L92.615 42.8766L82.0553 43.5212C79.1331 43.8539 76.2995 42.9553 75.547 38.758C75.5282 38.6556 75.4967 38.5563 75.4747 38.457C74.7104 34.7556 73.687 29.5878 73.554 27.8213C73.3637 25.2708 73.9576 21.8728 76.8429 21.2073Z" fill="#BF1523"/>
<path d="M71.9686 42.1333C71.8637 42.1583 71.7563 42.1707 71.6485 42.1703L70.7974 42.2146C70.0775 42.2434 69.0824 42.271 67.9851 42.2854C66.8877 42.2998 65.8929 42.2922 65.1732 42.273L64.319 42.2693C64.2117 42.2739 64.1043 42.2649 63.9993 42.2423C64.1041 42.2176 64.2116 42.2063 64.3193 42.2085C64.5208 42.2094 64.8121 42.1851 65.1704 42.1771C65.8903 42.1578 66.8852 42.1494 67.9825 42.135L70.7947 42.1058L71.6456 42.1095C71.7538 42.101 71.8627 42.109 71.9686 42.1333Z" fill="#263238"/>
<path d="M60.4688 28.1061L60.4878 28.1702C60.4875 28.2214 60.5128 28.2855 60.5285 28.3623C60.5661 28.5416 60.613 28.7882 60.6756 29.0956C60.7976 29.7359 60.9886 30.6709 61.1852 31.8042C61.6069 34.1062 62.1817 37.2662 62.8158 40.7527L62.9345 41.3931L62.9344 41.4154C62.5229 44.7854 62.1578 47.8101 61.889 50.0035L61.5578 52.5837C61.5181 52.8778 61.4851 53.108 61.4619 53.2807C61.4529 53.3625 61.4387 53.4436 61.4193 53.5236C61.4125 53.4416 61.4129 53.3592 61.4204 53.2773C61.436 53.1046 61.4595 52.8712 61.4906 52.577C61.5573 51.9535 61.654 51.0742 61.7739 49.9934C62.0299 47.7936 62.3791 44.7688 62.7714 41.3955L62.7713 41.4179L62.6525 40.7776C62.0281 37.2847 61.4725 34.1248 61.0668 31.8133C60.8702 30.6767 60.7143 29.7515 60.6021 29.0984C60.5523 28.7783 60.5117 28.5382 60.4837 28.3557C60.4713 28.2789 60.462 28.2149 60.4558 28.1637C60.4656 28.1285 60.4656 28.1061 60.4688 28.1061Z" fill="#263238"/>
<path d="M75.56 20.4307C75.4411 20.4209 75.324 20.3957 75.2116 20.3556L74.2754 20.1083C73.4829 19.9001 72.3868 19.6362 71.1659 19.3813C69.945 19.1264 68.8326 18.9264 68.027 18.7885L67.068 18.6243C66.9497 18.6094 66.833 18.5832 66.7197 18.546C66.8378 18.5345 66.9568 18.535 67.0748 18.5475C67.3018 18.5709 67.6311 18.6108 68.034 18.6669C68.8429 18.776 69.9521 18.9633 71.1858 19.2182C72.4195 19.4732 73.506 19.7531 74.2919 19.9868C74.6849 20.1037 75.0011 20.2075 75.2184 20.282C75.3371 20.3195 75.4516 20.3693 75.56 20.4307Z" fill="#263238"/>
<path d="M77.9585 22.1687C77.6277 22.1556 77.2964 22.1638 76.9667 22.1932C76.1766 22.3021 75.4437 22.6663 74.8796 23.2301C74.3266 23.8045 73.9561 24.5297 73.8147 25.3144C73.7672 25.642 73.7369 25.9718 73.724 26.3025C73.6932 26.2163 73.6784 26.1251 73.6804 26.0336C73.6631 25.787 73.6728 25.5392 73.7092 25.2947C73.8258 24.4767 74.1987 23.7167 74.7745 23.1241C75.3583 22.5353 76.1292 22.1687 76.9544 22.0876C77.2 22.0596 77.448 22.0607 77.6933 22.0908C77.7848 22.1048 77.874 22.131 77.9585 22.1687Z" fill="#263238"/>
<path d="M59.9219 23.6411C60.0818 23.9905 60.1973 24.3585 60.2658 24.7366C60.382 25.104 60.4492 25.4851 60.4655 25.87C60.3056 25.5206 60.1901 25.1525 60.1216 24.7744C60.0054 24.4071 59.9382 24.026 59.9219 23.6411Z" fill="#263238"/>
<path d="M75.0398 31.8427C75.0398 31.8427 75.0396 31.8875 75.0392 31.9706C75.0389 32.0538 75.0383 32.1882 75.0568 32.3482C75.0777 32.6682 75.1172 33.161 75.1944 33.782C75.3457 35.0271 75.6513 36.8167 75.9551 39.0382L75.9862 39.2462L75.9859 39.3006L75.9858 39.323C75.9346 39.3228 76.101 39.3235 75.8705 39.3545C75.8706 39.3353 75.8705 39.3545 75.8706 39.3321C75.7681 39.3605 76.0147 39.3103 75.9859 39.3102L76.0046 39.4159C76.0328 39.5568 76.061 39.6976 76.0923 39.8385C76.1568 40.1283 76.2422 40.4131 76.3477 40.6906C76.5597 41.287 76.8927 41.833 77.326 42.2944C77.8029 42.7682 78.3909 43.115 79.0362 43.3032C79.7242 43.4962 80.4404 43.5687 81.1531 43.5173L90.7817 42.9198L92.596 42.8094L92.5188 42.9082C92.2512 41.1923 91.9898 39.5309 91.7377 37.9366L91.8109 38.0042L82.1826 37.0853L82.1378 37.0851L82.138 37.0403C81.6628 34.543 81.2782 32.5163 81.0093 31.1011C80.8812 30.4064 80.7812 29.8621 80.7124 29.5003C80.6812 29.321 80.6562 29.1801 80.6407 29.0777C80.6251 28.9753 80.6189 28.9336 80.6189 28.9336C80.6352 28.9795 80.6478 29.0267 80.6567 29.0746L80.7476 29.494C80.8259 29.8719 80.9355 30.413 81.0797 31.095C81.3582 32.5038 81.762 34.5274 82.2597 37.0185L82.2055 36.9702L91.834 37.8507L91.8948 37.851L91.8945 37.9117C92.1498 39.5124 92.4113 41.1675 92.6853 42.8802L92.6849 42.9697L92.5953 42.9693L90.7777 43.0797L81.1493 43.6548C80.4178 43.7062 79.6831 43.6294 78.9781 43.4278C78.3115 43.2286 77.705 42.8664 77.2137 42.3739C76.7703 41.9015 76.4296 41.3423 76.2132 40.7316C76.109 40.4482 76.0238 40.1582 75.9579 39.8635L75.8734 39.4313L75.8547 39.3256C75.8259 39.3255 76.0756 39.269 75.9731 39.3038C75.9571 39.3037 76.0083 39.3039 75.9379 39.3036C75.9114 39.3068 75.8845 39.3067 75.8579 39.3033L75.858 39.2841L75.8583 39.2329L75.8304 39.0216C75.5426 36.8002 75.253 35.0075 75.1209 33.7593C75.0501 33.1351 75.0235 32.6456 75.0153 32.316C75.016 32.1497 75.0166 32.0249 75.017 31.9385C75.0218 31.906 75.0294 31.8739 75.0398 31.8427Z" fill="#263238"/>
</svg>
