<svg width="194" height="26" viewBox="0 0 194 26" fill="none" xmlns="http://www.w3.org/2000/svg">
<path d="M54.6662 0.020874C53.1172 0.020874 52.8772 1.73687 52.8772 1.73687L51.3492 9.06187H46.6712C45.7398 9.08725 44.8234 9.3038 43.9792 9.69808C43.1349 10.0924 42.3806 10.6559 41.7632 11.3539L43.6572 0.020874H38.4272C36.9272 0.020874 36.6382 1.72087 36.6382 1.72087L32.1572 25.8369H37.4572C38.9852 25.8369 39.2362 24.1099 39.2362 24.1099L40.5962 16.7219H50.0872L48.4442 25.8469H53.7082C55.1942 25.8469 55.4662 24.0989 55.4662 24.0989L59.8982 0.030874C59.9092 0.020874 56.2152 0.020874 54.6662 0.020874Z" fill="white"/>
<path d="M14.4517 0.020874C14.4517 0.020874 13.6457 4.19587 13.3317 5.95387C13.0177 7.71187 14.5037 7.68087 14.5037 7.68087H21.9037C20.621 8.37207 19.6375 9.51112 19.1407 10.8809C18.6067 13.7689 16.2947 25.7509 16.2947 25.7509H21.6197C22.0769 25.7429 22.516 25.5702 22.8562 25.2645C23.1964 24.9588 23.4149 24.5407 23.4717 24.0869C24.4657 18.5409 25.9207 10.8389 26.1817 9.38687C26.219 8.93499 26.4207 8.51246 26.7485 8.1992C27.0763 7.88594 27.5075 7.70368 27.9607 7.68687H31.7607C33.2467 7.68687 33.5607 5.98087 33.5607 5.98087L34.6477 0.020874H14.4477H14.4517Z" fill="white"/>
<path d="M137.555 2.69992C136.017 11.6049 133.223 25.8789 133.223 25.8789H138.978C139.452 25.8777 139.909 25.6931 140.25 25.3637C140.592 25.0342 140.794 24.5854 140.813 24.1109C141.001 22.9599 143.67 9.57592 145.239 0.0109179H140.593C139.834 -0.0318349 139.089 0.226704 138.52 0.730286C137.951 1.23387 137.604 1.94175 137.555 2.69992Z" fill="white"/>
<path d="M4.332 2.69996C2.8 11.606 0 25.879 0 25.879H5.755C6.22932 25.877 6.68458 25.6921 7.02589 25.3627C7.36719 25.0333 7.5682 24.5849 7.587 24.111C7.787 22.96 10.454 9.58596 12.024 0.0109627H7.377C6.61795 -0.0307909 5.87296 0.227903 5.30314 0.731105C4.73332 1.23431 4.38446 1.94157 4.332 2.69996Z" fill="white"/>
<path d="M129.502 0.0109268H114.402C114.004 -0.0355247 113.603 0.0671671 113.277 0.299153C112.95 0.531139 112.721 0.875946 112.634 1.26693L108.202 25.8159L124.432 25.8579C128.283 25.8579 130.899 24.2459 131.977 21.1489C132.113 20.7929 132.856 16.8059 132.856 16.4819C132.919 14.4729 132.186 13.3949 130.756 12.8509C132.756 12.0659 133.948 10.6639 134.45 7.93293L134.827 5.80893C135.556 1.77893 133.882 0.0109268 129.502 0.0109268ZM125.682 17.5279L125.504 18.8569C125.295 19.7879 124.804 20.1859 123.641 20.2909H117.551C116.034 20.2909 116.274 19.0669 116.274 19.0669L116.802 16.0109H124.274C125.437 16.1679 125.835 16.5969 125.678 17.5279H125.682ZM127.764 6.97993L127.544 8.22493C127.418 9.05193 126.801 9.51193 125.734 9.62493H122.752C121.381 9.70893 118.974 10.1169 117.614 11.9379L118.535 6.80993C118.625 6.42576 118.852 6.08783 119.174 5.8602C119.497 5.63257 119.891 5.53106 120.283 5.57493H126.415C126.702 5.57604 126.983 5.65187 127.231 5.79493C127.434 5.9099 127.596 6.08704 127.691 6.30032C127.786 6.51361 127.81 6.7518 127.76 6.97993H127.764Z" fill="white"/>
<path d="M103.588 0.0108839H88.9372C88.5454 -0.0191295 88.1552 0.0859707 87.8315 0.308682C87.5078 0.531393 87.2702 0.858272 87.1582 1.23488L82.5752 25.8689H88.4872C88.8737 25.9124 89.2627 25.8129 89.5808 25.5893C89.899 25.3656 90.1243 25.0333 90.2142 24.6549L91.7652 15.6869L97.3012 24.6339C97.5618 25.0028 97.9044 25.3064 98.3021 25.5207C98.6998 25.7349 99.1417 25.8541 99.5932 25.8689H104.647C106.217 25.8689 105.463 24.6339 105.463 24.6339L100.074 15.6239L101.152 15.6659C101.552 15.6659 101.958 15.6239 102.352 15.5929C103.618 15.5161 104.837 15.0889 105.874 14.3591C106.911 13.6292 107.724 12.6254 108.223 11.4599C108.365 11.1258 108.46 10.7738 108.506 10.4139L109.375 5.24488C109.434 4.92416 109.452 4.5971 109.427 4.27188C109.365 1.45488 107.438 0.0108839 103.588 0.0108839ZM102.143 7.12688L101.955 8.16288C101.755 9.20889 101.149 9.62788 99.8552 9.62788H97.5082C96.1582 9.69088 93.6572 10.0779 92.2552 11.9509L93.1652 6.82288C93.2617 6.43567 93.4948 6.09639 93.8218 5.86758C94.1487 5.63878 94.5474 5.53589 94.9442 5.57788C96.4932 5.57788 100.563 5.58788 100.71 5.58788C101.882 5.73488 102.3 6.22688 102.143 7.12688Z" fill="white"/>
<path d="M79.8962 0.0108958C79.5084 -0.0258199 79.1201 0.0759453 78.8001 0.298156C78.4802 0.520368 78.2492 0.848675 78.1482 1.2249L74.9982 17.4109C74.7782 18.0489 74.1192 18.3839 72.4552 18.3839H70.2372C68.8872 18.4469 66.3862 18.8339 64.9942 20.6969L68.9292 0.0108958H63.5502C63.1529 -0.033485 62.7532 0.0684571 62.4257 0.297631C62.0982 0.526806 61.8655 0.867494 61.7712 1.2559L58.4542 19.4429C57.6172 23.8279 59.6992 25.8789 64.4542 25.8789H73.3592C76.6242 25.8789 78.7172 25.0519 80.3492 23.0329C81.0612 22.1749 81.3492 21.4629 81.7302 19.4119L85.3062 0.0108958H79.8962Z" fill="white"/>
<path d="M163.862 0.0109863H147.391L142.491 25.869H159.37C163.263 25.869 165.743 24.257 166.821 21.129C166.905 20.805 169.709 5.72899 169.709 5.72899C170.465 1.81099 168.561 0.0109863 163.862 0.0109863ZM160.524 17.611C160.095 19.118 159.603 19.442 157.772 19.442H154.465C152.848 19.6154 151.36 20.4064 150.311 21.65L153.224 6.32099H160.884C162.184 6.46799 162.496 6.77099 162.548 7.48299C162.533 7.48299 160.566 17.466 160.524 17.611Z" fill="white"/>
<path d="M179.643 0.0109863C175.928 0.0109863 173.396 1.51799 172.224 4.42699C172.087 4.81397 171.989 5.2136 171.931 5.61999L169.179 20.49C168.551 23.975 170.728 25.879 175.918 25.879H187.659C188.054 25.9208 188.45 25.8189 188.775 25.592C189.1 25.3651 189.332 25.0284 189.428 24.644L190.297 19.684H178.004C176.748 19.584 176.298 19.14 176.504 17.926L176.996 15.676H187.46C187.847 15.7073 188.233 15.602 188.55 15.3783C188.868 15.1547 189.097 14.8269 189.197 14.452L189.971 10.109H182.437C181.518 10.1399 180.614 10.3592 179.783 10.7535C178.952 11.1477 178.21 11.7085 177.604 12.401L178.431 7.71299C178.531 7.2721 178.769 6.87472 179.111 6.57906C179.453 6.2834 179.881 6.105 180.331 6.06999H191.308C191.715 6.11646 192.125 6.00872 192.456 5.76803C192.787 5.52735 193.016 5.17123 193.097 4.76999L194.004 0.0109863H179.643Z" fill="white"/>
</svg>
