<svg width="120" height="89" viewBox="0 0 120 89" fill="none" xmlns="http://www.w3.org/2000/svg">
<path d="M119.444 78.2119H0V78.2716H119.444V78.2119Z" fill="#EBEBEB"/>
<path d="M107.475 82.0557H99.5635V82.1154H107.475V82.0557Z" fill="#EBEBEB"/>
<path d="M96.5563 82.0557H79.6406V82.1154H96.5563V82.0557Z" fill="#EBEBEB"/>
<path d="M70.3118 79.8389H65.7275V79.8986H70.3118V79.8389Z" fill="#EBEBEB"/>
<path d="M20.7237 80.2402H12.5322V80.3H20.7237V80.2402Z" fill="#EBEBEB"/>
<path d="M37.7443 80.2402H22.8496V80.3H37.7443V80.2402Z" fill="#EBEBEB"/>
<path d="M53.7827 81.248H44.9893V81.3078H53.7827V81.248Z" fill="#EBEBEB"/>
<path d="M56.6164 67.5575H10.4896C10.1282 67.5569 9.7819 67.4129 9.52661 67.1572C9.27131 66.9014 9.12793 66.5548 9.12793 66.1935V1.35211C9.13108 0.992825 9.27585 0.649293 9.5308 0.396129C9.78575 0.142965 10.1303 0.000615468 10.4896 0H56.6164C56.9782 0 57.3251 0.143712 57.581 0.399521C57.8368 0.65533 57.9805 1.00228 57.9805 1.36405V66.1935C57.9805 66.5553 57.8368 66.9022 57.581 67.158C57.3251 67.4138 56.9782 67.5575 56.6164 67.5575ZM10.4896 0.0477778C10.1441 0.0484106 9.81293 0.186109 9.56884 0.43065C9.32474 0.67519 9.18765 1.00659 9.18765 1.35211V66.1935C9.18765 66.539 9.32474 66.8704 9.56884 67.1149C9.81293 67.3595 10.1441 67.4972 10.4896 67.4978H56.6164C56.9622 67.4972 57.2936 67.3596 57.538 67.1151C57.7825 66.8706 57.9201 66.5392 57.9208 66.1935V1.35211C57.9201 1.00637 57.7825 0.674976 57.538 0.430504C57.2936 0.186032 56.9622 0.0484093 56.6164 0.0477778H10.4896Z" fill="#EBEBEB"/>
<path d="M108.29 67.5575H62.1609C61.7993 67.5569 61.4528 67.413 61.1971 67.1573C60.9414 66.9016 60.7975 66.5551 60.7969 66.1935V1.35211C60.8006 0.992607 60.9459 0.649077 61.2013 0.395979C61.4566 0.142881 61.8014 0.000608756 62.1609 0H108.29C108.649 0.00124329 108.993 0.14387 109.247 0.396967C109.502 0.650064 109.646 0.993237 109.649 1.35211V66.1935C109.649 66.5544 109.506 66.9007 109.252 67.1563C108.997 67.412 108.651 67.5563 108.29 67.5575ZM62.1609 0.0477778C61.8152 0.0484093 61.4838 0.186032 61.2393 0.430504C60.9948 0.674976 60.8572 1.00637 60.8566 1.35211V66.1935C60.8572 66.5392 60.9948 66.8706 61.2393 67.1151C61.4838 67.3596 61.8152 67.4972 62.1609 67.4978H108.29C108.636 67.4972 108.967 67.3596 109.212 67.1151C109.456 66.8706 109.594 66.5392 109.594 66.1935V1.35211C109.594 1.00637 109.456 0.674976 109.212 0.430504C108.967 0.186032 108.636 0.0484093 108.29 0.0477778H62.1609Z" fill="#EBEBEB"/>
<path d="M18.1171 33.0195L50.5342 33.0195V4.93346L18.1171 4.93346V33.0195Z" fill="#E6E6E6"/>
<path d="M17.3935 33.0195L49.8105 33.0195V4.93346L17.3935 4.93346V33.0195Z" fill="#F5F5F5"/>
<path d="M48.5186 32.0159V5.93652L18.6886 5.93652V32.0159H48.5186Z" fill="#FAFAFA"/>
<path d="M36.5546 32.0159L41.9606 5.93652H30.6517L25.248 32.0159H36.5546Z" fill="white"/>
<path d="M19.2324 32.0179V5.93848H18.6878V32.0179H19.2324Z" fill="#E6E6E6"/>
<path d="M17.9285 27.3408L49.2754 27.3408V25.9935L17.9285 25.9935V27.3408Z" fill="#F5F5F5"/>
<path d="M49.0294 76.791H54.2061V54.3427H49.0294V76.791Z" fill="#F0F0F0"/>
<path d="M15.2245 78.2119H53.2148V76.7905H15.2245V78.2119Z" fill="#F0F0F0"/>
<path d="M49.0297 54.3398H14.2285V76.7882H49.0297V54.3398Z" fill="#F5F5F5"/>
<path d="M46.9966 57.1035H16.2637V64.466H46.9966V57.1035Z" fill="#F0F0F0"/>
<path d="M46.9966 66.6641H16.2637V74.0266H46.9966V66.6641Z" fill="#F0F0F0"/>
<path d="M23.3468 61.2888H39.9137C40.0472 61.2882 40.175 61.2349 40.2694 61.1405C40.3638 61.0461 40.4171 60.9183 40.4177 60.7848C40.4171 60.6511 40.3639 60.523 40.2696 60.4282C40.1752 60.3334 40.0474 60.2796 39.9137 60.2783H23.3468C23.2131 60.2796 23.0853 60.3334 22.991 60.4282C22.8966 60.523 22.8434 60.6511 22.8428 60.7848C22.8434 60.9183 22.8967 61.0461 22.9911 61.1405C23.0855 61.2349 23.2133 61.2882 23.3468 61.2888Z" fill="#F5F5F5"/>
<path d="M23.3468 70.8494H39.9137C40.0472 70.8487 40.175 70.7954 40.2694 70.701C40.3638 70.6066 40.4171 70.4788 40.4177 70.3453C40.4177 70.2114 40.3647 70.0829 40.2703 69.988C40.1758 69.8931 40.0476 69.8395 39.9137 69.8389H23.3468C23.2129 69.8395 23.0847 69.8931 22.9903 69.988C22.8958 70.0829 22.8428 70.2114 22.8428 70.3453C22.8434 70.4788 22.8967 70.6066 22.9911 70.701C23.0855 70.7954 23.2133 70.8487 23.3468 70.8494Z" fill="#F5F5F5"/>
<path d="M103.109 19.6129C106.057 18.8007 107.065 13.452 99.6162 11.2686C101.26 16.6483 97.9703 21.0224 103.109 19.6129Z" fill="#EBEBEB"/>
<path d="M103.761 21.935C106.085 19.4243 103.887 13.7435 95.5166 16.0655C100.251 20.2078 99.7115 26.3138 103.761 21.935Z" fill="#E0E0E0"/>
<path d="M101.468 22.5798C99.5233 20.6544 102.309 13.9536 108.73 17.0591C105.092 20.5445 104.872 25.9362 101.468 22.5798Z" fill="#FAFAFA"/>
<path d="M99.5278 26.3304H105.187L105.615 22.501H99.1025L99.5278 26.3304Z" fill="#E6E6E6"/>
<path d="M99.0381 23.1865H105.679C105.791 23.1865 105.899 23.1419 105.978 23.0626C106.057 22.9833 106.102 22.8758 106.102 22.7636C106.102 22.6515 106.057 22.544 105.978 22.4647C105.899 22.3854 105.791 22.3408 105.679 22.3408H99.0381C98.9259 22.3408 98.8184 22.3854 98.7391 22.4647C98.6598 22.544 98.6152 22.6515 98.6152 22.7636C98.6152 22.8758 98.6598 22.9833 98.7391 23.0626C98.8184 23.1419 98.9259 23.1865 99.0381 23.1865Z" fill="#E6E6E6"/>
<path d="M51.9124 71.726V65.2402H57.3137V58.7567H62.7173V52.2709H68.1186V45.7851H73.5222V39.3017H78.9235V32.8159H84.3271V26.3301H89.7308H119.444V78.2118H51.9124H46.5088V71.726H51.9124Z" fill="#FAFAFA"/>
<path d="M81.6259 71.726V65.2402H87.0295V58.7567H92.4308V52.2709H97.8344V45.7851H103.236V39.3017H108.639V32.8159H114.041V26.3301H119.444V32.8159V78.2118H81.6259H76.2246V71.726H81.6259Z" fill="#E0E0E0"/>
<path d="M76.2244 71.7266H46.1914V73.6711H76.2244V71.7266Z" fill="#EBEBEB"/>
<path d="M81.6277 65.2402H51.5947V67.1848H81.6277V65.2402Z" fill="#EBEBEB"/>
<path d="M87.0291 58.7568H56.9961V60.7014H87.0291V58.7568Z" fill="#EBEBEB"/>
<path d="M92.4324 52.2715H62.3994V54.216H92.4324V52.2715Z" fill="#EBEBEB"/>
<path d="M97.8337 45.7852H67.8008V47.7297H97.8337V45.7852Z" fill="#EBEBEB"/>
<path d="M103.238 39.3018H73.2051V41.2463H103.238V39.3018Z" fill="#EBEBEB"/>
<path d="M108.639 32.8164H78.6064V34.761H108.639V32.8164Z" fill="#EBEBEB"/>
<path d="M114.043 26.3301H84.0098V28.2746H114.043V26.3301Z" fill="#EBEBEB"/>
<path d="M59.7222 89.0002C85.3029 89.0002 106.04 87.7895 106.04 86.296C106.04 84.8025 85.3029 83.5918 59.7222 83.5918C34.1415 83.5918 13.4043 84.8025 13.4043 86.296C13.4043 87.7895 34.1415 89.0002 59.7222 89.0002Z" fill="#F5F5F5"/>
<path d="M79.9558 24.7557C79.9128 25.4724 79.8292 26.1293 79.736 26.8102C79.6428 27.491 79.5162 28.1575 79.3729 28.8264C79.0934 30.1802 78.6896 31.5053 78.1665 32.7848L77.9491 33.2625L77.8966 33.382L77.8774 33.4441L77.8392 33.5205C77.7662 33.6705 77.6738 33.8102 77.5645 33.9362C77.4342 34.0827 77.2789 34.2049 77.1058 34.2969C76.9359 34.3861 76.7515 34.4443 76.5612 34.4689C76.2689 34.5002 75.9734 34.4692 75.694 34.3782C75.2982 34.243 74.9246 34.0498 74.5856 33.8048C74.289 33.5957 74.0058 33.3683 73.7375 33.124C72.7321 32.1917 71.8273 31.1564 71.0381 30.0352L71.8288 29.3639C72.3066 29.8058 72.7844 30.2526 73.2621 30.6754C73.7371 31.0981 74.2331 31.4968 74.748 31.8698C74.9904 32.0432 75.2424 32.2027 75.5029 32.3476C75.7128 32.475 75.9396 32.5723 76.1766 32.6367C76.2578 32.6534 76.3151 32.6367 76.2888 32.6367C76.2325 32.6429 76.1797 32.6672 76.1383 32.7059C76.124 32.7059 76.124 32.7059 76.1383 32.7059L76.2148 32.5077L76.382 32.0729C76.7964 30.8759 77.1198 29.6493 77.3495 28.4036C77.4761 27.7777 77.5645 27.1398 77.6601 26.5068C77.7556 25.8737 77.8225 25.2216 77.8774 24.6172L79.9558 24.7557Z" fill="#FFC3BD"/>
<path d="M78.5077 22.1258C77.6167 22.3528 76.9932 26.0173 76.9932 26.0173L79.4465 27.6895C79.4465 27.6895 81.7996 23.9939 81.1188 23.0145C80.4021 21.9896 79.8073 21.7961 78.5077 22.1258Z" fill="#B77E7E"/>
<path d="M78.5077 22.1258C77.6167 22.3528 76.9932 26.0173 76.9932 26.0173L79.4465 27.6895C79.4465 27.6895 81.7996 23.9939 81.1188 23.0145C80.4021 21.9896 79.8073 21.7961 78.5077 22.1258Z" fill="#B77E7E"/>
<path opacity="0.4" d="M78.5077 22.1258C77.6167 22.3528 76.9932 26.0173 76.9932 26.0173L79.4465 27.6895C79.4465 27.6895 81.7996 23.9939 81.1188 23.0145C80.4021 21.9896 79.8073 21.7961 78.5077 22.1258Z" fill="black"/>
<path opacity="0.3" d="M78.5865 22.9453L77.9033 26.6361L79.2817 27.5726L78.5865 22.9453Z" fill="black"/>
<path d="M71.8692 29.2134L70.7105 27.3691L70.0488 29.4642C70.0488 29.4642 71.0044 30.4675 71.8715 30.2286L71.8692 29.2134Z" fill="#FFC3BD"/>
<path d="M68.9909 26.7598L68.5322 28.5419L70.0396 29.464L70.7013 27.3689L68.9909 26.7598Z" fill="#FFC3BD"/>
<path d="M83.3238 83.7894H81.1643L81.0186 78.7871H83.1805L83.3238 83.7894Z" fill="#FFC3BD"/>
<path d="M102.385 73.7567L100.739 75.1565L96.9717 71.793L98.6176 70.3955L102.385 73.7567Z" fill="#FFC3BD"/>
<path d="M100.287 74.9889L101.885 73.159C101.913 73.1275 101.951 73.1069 101.992 73.1012C102.033 73.0955 102.075 73.105 102.11 73.1279L103.737 74.1814C103.777 74.2093 103.811 74.2454 103.836 74.2872C103.861 74.3291 103.877 74.3758 103.883 74.4243C103.889 74.4728 103.884 74.522 103.87 74.5687C103.855 74.6153 103.831 74.6584 103.799 74.695C103.23 75.3233 102.925 75.598 102.222 76.4007C101.792 76.8952 101.212 77.6644 100.614 78.3452C100.017 79.0261 99.3102 78.4766 99.4989 78.1374C100.337 76.6229 100.137 76.0925 100.151 75.3472C100.153 75.2155 100.201 75.0887 100.287 74.9889Z" fill="#263238"/>
<path d="M81.0905 83.541H83.5176C83.5594 83.5406 83.5999 83.5554 83.6315 83.5827C83.6632 83.6099 83.6838 83.6478 83.6896 83.6891L83.9667 85.6002C83.9745 85.6507 83.9711 85.7023 83.9566 85.7514C83.9421 85.8004 83.9169 85.8455 83.8829 85.8837C83.8489 85.9218 83.8068 85.9519 83.7598 85.9719C83.7127 85.9919 83.6619 86.0012 83.6108 85.9992C82.7651 85.9849 82.3566 85.9347 81.2888 85.9347C80.6319 85.9347 79.275 86.004 78.3672 86.004C77.4594 86.004 77.4117 85.1057 77.7915 85.0269C79.4828 84.6614 80.1493 84.1597 80.7203 83.6796C80.8229 83.5902 80.9544 83.541 81.0905 83.541Z" fill="#263238"/>
<path opacity="0.2" d="M81.0215 78.79L81.0955 81.3676H83.2551L83.181 78.79H81.0215Z" fill="black"/>
<path opacity="0.2" d="M98.62 70.3955L96.9717 71.793L98.9162 73.5273L100.562 72.1274L98.62 70.3955Z" fill="black"/>
<path d="M78.5081 22.1251C78.5081 22.1251 77.4785 22.4882 79.5401 35.1636H88.312C88.1663 31.5922 88.1615 29.3897 89.8672 22.063C88.6392 21.8098 87.3946 21.6453 86.1429 21.5709C84.8164 21.4764 83.4848 21.4764 82.1583 21.5709C80.4479 21.7381 78.5081 22.1251 78.5081 22.1251Z" fill="#B77E7E"/>
<path opacity="0.4" d="M78.5081 22.1251C78.5081 22.1251 77.4785 22.4882 79.5401 35.1636H88.312C88.1663 31.5922 88.1615 29.3897 89.8672 22.063C88.6392 21.8098 87.3946 21.6453 86.1429 21.5709C84.8164 21.4764 83.4848 21.4764 82.1583 21.5709C80.4479 21.7381 78.5081 22.1251 78.5081 22.1251Z" fill="black"/>
<path d="M86.1427 21.5709C84.8162 21.4764 83.4846 21.4764 82.1581 21.5709C81.9431 21.59 81.7233 21.6139 81.5059 21.6402C81.416 21.7759 81.3584 21.9306 81.3377 22.0921C81.317 22.2536 81.3337 22.4178 81.3865 22.5718C81.666 23.267 82.6741 23.3482 83.4099 23.3482C86.126 23.3482 86.5847 21.762 86.6038 21.6951L86.6301 21.5996C86.4772 21.59 86.3052 21.5781 86.1427 21.5709Z" fill="white"/>
<path d="M85.7611 17.0869C85.5079 18.3674 85.2594 20.7156 86.1553 21.5708C86.1553 21.5708 85.8041 22.8728 83.4224 22.8728C80.7946 22.8728 82.1706 21.5732 82.1706 21.5732C83.6039 21.2316 83.5633 20.171 83.3149 19.1844L85.7611 17.0869Z" fill="#FFC3BD"/>
<path opacity="0.2" d="M84.7504 17.9375L83.3027 19.1726C83.3651 19.4073 83.4066 19.6471 83.427 19.8892C83.9716 19.8104 84.7217 19.2108 84.7815 18.6398C84.815 18.4058 84.8044 18.1676 84.7504 17.9375Z" fill="black"/>
<path d="M84.2581 10.1164C84.036 9.36394 83.8497 8.17906 85.1874 7.64395C84.6643 7.00373 84.5376 5.79973 85.1874 5.08546C85.8372 4.37118 86.8119 4.63396 86.8119 4.63396C86.8119 4.63396 87.0985 2.88769 89.2222 3.20063C91.3459 3.51357 90.4 4.91107 90.4 4.91107C90.4 4.91107 93.2977 4.33774 93.4912 7.06106C93.6847 9.78438 92.022 9.44994 92.022 9.44994C92.022 9.44994 93.3144 10.5345 92.5977 11.7265C91.8811 12.9186 90.2256 12.5077 90.2256 12.5077C90.2256 12.5077 89.4468 14.6147 87.6121 13.4155C85.7775 12.2163 84.2581 10.1164 84.2581 10.1164Z" fill="#263238"/>
<path d="M79.9558 11.7054C79.2391 12.6323 79.5545 13.681 80.1947 14.0943C81.7355 15.0785 83.9643 10.9505 83.3838 10.456C82.8033 9.96155 80.6725 10.7762 79.9558 11.7054Z" fill="#263238"/>
<path d="M86.4267 9.4977C85.4138 9.08921 84.3866 9.51681 84.0665 10.1331C83.2853 11.6358 86.8328 14.3424 87.86 12.4647C88.4692 11.3491 87.4706 9.91815 86.4267 9.4977Z" fill="#B77E7E"/>
<path d="M85.9996 14.0935C86.0736 16.2435 86.1501 17.1417 85.1778 18.3386C83.7182 20.1374 81.0689 19.76 80.3571 17.6816C79.7168 15.8111 79.7049 12.622 81.7092 11.5757C82.1498 11.3426 82.6426 11.226 83.1409 11.237C83.6392 11.248 84.1264 11.3862 84.5563 11.6385C84.9862 11.8908 85.3444 12.2488 85.597 12.6784C85.8496 13.1081 85.9882 13.5952 85.9996 14.0935Z" fill="#FFC3BD"/>
<path d="M85.677 15.219C84.7215 14.8631 84.4826 13.7475 84.6355 13.3079C84.1577 13.2888 83.1138 13.1168 82.7244 12.5244C81.979 13.0021 80.4048 13.4799 80.2352 12.6844C80.0656 11.8889 82.4401 9.84404 84.2365 9.68637C86.3722 9.50004 88.4792 11.5975 87.9369 13.6065C87.3946 15.6156 85.677 15.219 85.677 15.219Z" fill="#263238"/>
<path d="M79.5491 35.1641C79.5491 35.1641 77.8459 51.8026 77.9868 58.3911C78.1349 65.2425 80.6456 80.8681 80.6456 80.8681H83.5648C83.5648 80.8681 83.1038 65.6414 83.3618 58.9143C83.6437 51.5781 85.9728 35.1641 85.9728 35.1641H79.5491Z" fill="#263238"/>
<path d="M83.8088 80.9735H80.3831L80.1299 79.8818L83.9688 79.748L83.8088 80.9735Z" fill="#B77E7E"/>
<path opacity="0.2" d="M83.3236 39.3036C81.1736 43.637 82.8912 51.5442 83.6533 54.4873C84.0427 50.0679 84.702 44.6666 85.2156 40.7011C84.8907 38.4603 84.3269 37.3041 83.3236 39.3036Z" fill="black"/>
<path d="M81.8574 35.164C81.8574 35.164 83.845 52.4618 85.3452 58.016C87.1273 64.6093 98.195 73.484 98.195 73.484L100.441 71.5729C100.441 71.5729 92.4186 61.9314 91.0546 58.4579C88.1473 51.0524 90.6365 39.9967 88.3122 35.1592L81.8574 35.164Z" fill="#263238"/>
<path d="M100.799 71.4748L98.0132 73.8398L96.9717 73.2163L100.123 70.2852L100.799 71.4748Z" fill="#B77E7E"/>
<path d="M82.8204 14.9926C82.8371 15.167 82.7583 15.3151 82.646 15.327C82.5337 15.339 82.4262 15.2052 82.4071 15.0332C82.388 14.8612 82.4692 14.7083 82.5839 14.6988C82.6985 14.6892 82.8036 14.811 82.8204 14.9926Z" fill="#263238"/>
<path d="M80.8614 15.181C80.8782 15.353 80.7993 15.5035 80.6847 15.5155C80.57 15.5274 80.4673 15.3937 80.4458 15.2193C80.4243 15.0449 80.5079 14.8968 80.6202 14.8872C80.7324 14.8777 80.8447 15.0067 80.8614 15.181Z" fill="#263238"/>
<path d="M80.6747 14.8918L80.2471 14.8105C80.2471 14.8105 80.5051 15.1163 80.6747 14.8918Z" fill="#263238"/>
<path d="M81.4057 15.4297C81.2895 15.8398 81.1175 16.2321 80.8945 16.5955C80.9893 16.65 81.0947 16.6833 81.2036 16.6932C81.3124 16.7031 81.4222 16.6893 81.5252 16.6528L81.4057 15.4297Z" fill="#ED847E"/>
<path d="M82.4878 17.2236C82.3932 17.2495 82.2965 17.267 82.1988 17.2761C82.1922 17.2768 82.1855 17.2761 82.1792 17.2742C82.1728 17.2723 82.1669 17.2691 82.1618 17.2649C82.1567 17.2606 82.1525 17.2555 82.1494 17.2496C82.1463 17.2437 82.1444 17.2373 82.1438 17.2307C82.1425 17.2171 82.1464 17.2036 82.1549 17.1929C82.1634 17.1822 82.1757 17.1752 82.1892 17.1734C82.4054 17.1575 82.6149 17.091 82.8008 16.9794C82.9867 16.8678 83.1438 16.7142 83.2594 16.5308C83.2622 16.5245 83.2662 16.5188 83.2714 16.5142C83.2765 16.5096 83.2825 16.5061 83.2891 16.5041C83.2957 16.5021 83.3026 16.5015 83.3095 16.5024C83.3163 16.5033 83.3229 16.5056 83.3287 16.5093C83.3405 16.5158 83.3493 16.5267 83.3533 16.5396C83.3573 16.5525 83.3562 16.5665 83.3502 16.5786C83.1575 16.8975 82.8482 17.1288 82.4878 17.2236Z" fill="#263238"/>
<path d="M86.5007 15.5775C86.4484 15.9886 86.2353 16.3622 85.9082 16.6167C85.4711 16.9511 85.0506 16.6167 85.0005 16.0935C84.9575 15.6157 85.1295 14.8991 85.6502 14.7605C85.7639 14.7374 85.8814 14.7421 85.9928 14.7744C86.1042 14.8067 86.2061 14.8656 86.2898 14.9459C86.3734 15.0263 86.4363 15.1257 86.473 15.2357C86.5098 15.3457 86.5192 15.463 86.5007 15.5775Z" fill="#FFC3BD"/>
<path d="M83.0304 13.7644C83.0171 13.7677 83.0033 13.7684 82.9898 13.7664C82.9762 13.7643 82.9632 13.7596 82.9516 13.7524C82.8433 13.6833 82.7201 13.6408 82.5923 13.6283C82.4644 13.6159 82.3354 13.6338 82.2158 13.6807C82.1909 13.6918 82.1628 13.693 82.1371 13.6841C82.1114 13.6753 82.09 13.657 82.0772 13.633C82.0657 13.6086 82.0642 13.5806 82.0732 13.5551C82.0821 13.5296 82.1007 13.5087 82.125 13.4968C82.2754 13.4347 82.4386 13.4096 82.6007 13.4238C82.7629 13.4379 82.9193 13.4908 83.0567 13.578C83.068 13.5849 83.0779 13.5939 83.0857 13.6046C83.0935 13.6153 83.0992 13.6275 83.1023 13.6403C83.1054 13.6532 83.1059 13.6666 83.1038 13.6797C83.1017 13.6928 83.0971 13.7053 83.0901 13.7166C83.0769 13.7394 83.0556 13.7565 83.0304 13.7644Z" fill="#263238"/>
<path d="M79.901 14.3589C79.8764 14.3683 79.8492 14.3683 79.8246 14.3589C79.8014 14.3454 79.7843 14.3235 79.7767 14.2977C79.7692 14.272 79.7718 14.2443 79.784 14.2204C79.8568 14.075 79.9637 13.9493 80.0956 13.8541C80.2274 13.7589 80.3803 13.6968 80.5412 13.6733C80.5546 13.672 80.5681 13.6734 80.5809 13.6774C80.5938 13.6814 80.6056 13.688 80.6159 13.6967C80.6261 13.7053 80.6345 13.716 80.6406 13.728C80.6466 13.74 80.6502 13.7531 80.6511 13.7665C80.6531 13.7934 80.6445 13.82 80.627 13.8405C80.6096 13.8611 80.5848 13.874 80.558 13.8764C80.4312 13.8977 80.3113 13.9486 80.2079 14.025C80.1046 14.1014 80.0207 14.2011 79.9631 14.3159C79.9563 14.327 79.9473 14.3366 79.9366 14.344C79.9259 14.3514 79.9138 14.3565 79.901 14.3589Z" fill="#263238"/>
<path d="M90.7629 24.3926C91.25 25.5842 91.6703 26.802 92.0218 28.0404C92.3945 29.2896 92.6598 30.5683 92.8149 31.8626C92.8556 32.1923 92.8675 32.5387 92.8818 32.8803V33.0738C92.8818 33.143 92.8699 33.2147 92.8603 33.2768C92.8404 33.3962 92.8133 33.5143 92.7791 33.6304C92.7169 33.829 92.6369 34.0217 92.5402 34.2061C92.209 34.8186 91.803 35.3875 91.3315 35.8998C90.4595 36.8577 89.4997 37.7319 88.4648 38.5109L87.7744 37.744C88.5699 36.8148 89.3726 35.8616 90.0534 34.8774C90.3823 34.4307 90.6626 33.9502 90.8895 33.444C90.9284 33.3461 90.9604 33.2455 90.9851 33.143C90.9916 33.1083 90.9956 33.0732 90.997 33.0379C90.9983 33.0276 90.9983 33.0172 90.997 33.0069V32.9734C90.966 32.6915 90.9445 32.4097 90.8919 32.1206C90.6864 30.9405 90.3998 29.776 90.0343 28.6352C89.6688 27.479 89.2603 26.3061 88.8399 25.1881L90.7629 24.3926Z" fill="#FFC3BD"/>
<path d="M89.8672 22.0632C90.7463 22.3308 91.8022 25.3575 91.8022 25.3575L88.3885 27.7941C88.3885 27.7941 87.1439 25.2691 87.5141 24.132C87.9107 22.9495 88.8662 21.7574 89.8672 22.0632Z" fill="#B77E7E"/>
<path opacity="0.4" d="M89.8672 22.0632C90.7463 22.3308 91.8022 25.3575 91.8022 25.3575L88.3885 27.7941C88.3885 27.7941 87.1439 25.2691 87.5141 24.132C87.9107 22.9495 88.8662 21.7574 89.8672 22.0632Z" fill="black"/>
<path d="M99.6977 76.0307C99.6535 76.0295 99.6102 76.0184 99.5709 75.9981C99.5316 75.9778 99.4974 75.949 99.4708 75.9136C99.4491 75.8913 99.4337 75.8636 99.4262 75.8334C99.4186 75.8032 99.4192 75.7716 99.4278 75.7416C99.509 75.4789 100.259 75.2639 100.345 75.24C100.355 75.2366 100.365 75.2364 100.374 75.2394C100.384 75.2425 100.392 75.2485 100.398 75.2567C100.403 75.2649 100.406 75.2744 100.406 75.2842C100.406 75.2939 100.403 75.3035 100.398 75.3116C100.264 75.5673 99.9987 75.9973 99.7264 76.0283L99.6977 76.0307ZM100.252 75.3738C99.9557 75.4693 99.5687 75.6341 99.5353 75.7727C99.5317 75.7858 99.5319 75.7997 99.5356 75.8127C99.5394 75.8258 99.5468 75.8376 99.5568 75.8468C99.5759 75.8741 99.6018 75.896 99.632 75.9103C99.6622 75.9245 99.6955 75.9306 99.7288 75.928C99.8674 75.9113 100.061 75.7058 100.252 75.3738Z" fill="#B77E7E"/>
<path d="M100.015 75.3832C99.7916 75.406 99.5678 75.3428 99.3892 75.2064C99.3642 75.1748 99.3506 75.1357 99.3506 75.0954C99.3506 75.0551 99.3642 75.0159 99.3892 74.9843C99.4104 74.9512 99.4388 74.9232 99.4723 74.9025C99.5058 74.8819 99.5435 74.869 99.5827 74.8648C99.8932 74.8266 100.364 75.2327 100.383 75.2494C100.39 75.255 100.395 75.2625 100.398 75.2709C100.401 75.2794 100.402 75.2885 100.4 75.2972C100.399 75.3065 100.395 75.3153 100.389 75.3225C100.383 75.3298 100.375 75.3351 100.366 75.3378C100.252 75.3703 100.134 75.3856 100.015 75.3832ZM99.6352 74.9652H99.6018C99.5773 74.9679 99.5538 74.976 99.5327 74.9888C99.5117 75.0016 99.4937 75.0188 99.48 75.0392C99.4441 75.0942 99.4561 75.1228 99.48 75.1419C99.5731 75.2638 99.9983 75.3092 100.256 75.2614C100.08 75.1085 99.8652 75.0062 99.6352 74.9652Z" fill="#B77E7E"/>
<path d="M80.2786 83.9182C80.094 83.9349 79.9093 83.8877 79.7554 83.7844C79.7225 83.7544 79.697 83.7173 79.6809 83.6758C79.6647 83.6344 79.6583 83.5898 79.6622 83.5455C79.6642 83.5172 79.6733 83.4898 79.6888 83.466C79.7043 83.4422 79.7255 83.4227 79.7506 83.4093C80.0158 83.2636 80.8758 83.7032 80.9737 83.7557C80.9829 83.7609 80.9902 83.7686 80.9949 83.778C80.9996 83.7874 81.0014 83.7979 81 83.8083C80.9987 83.8188 80.994 83.8287 80.9867 83.8364C80.9794 83.8441 80.9699 83.8493 80.9594 83.8513C80.735 83.8943 80.5071 83.9167 80.2786 83.9182ZM79.894 83.4715C79.861 83.4693 79.828 83.4759 79.7984 83.4906C79.7882 83.4956 79.7796 83.5034 79.7737 83.5131C79.7677 83.5229 79.7647 83.5341 79.765 83.5455C79.761 83.5754 79.7644 83.6058 79.7748 83.6341C79.7852 83.6624 79.8023 83.6877 79.8247 83.708C79.9561 83.8274 80.3025 83.8465 80.7802 83.7677C80.5039 83.6191 80.2041 83.5189 79.894 83.4715Z" fill="#B77E7E"/>
<path d="M80.9496 83.8493H80.9281C80.6701 83.7323 80.1613 83.2664 80.2115 83.0228C80.2115 82.9654 80.2616 82.8914 80.4026 82.877C80.4535 82.8717 80.5049 82.8768 80.5538 82.892C80.6027 82.9072 80.6479 82.9322 80.6869 82.9654C80.9568 83.1924 81.007 83.7729 81.0093 83.7991C81.0101 83.8079 81.0085 83.8168 81.0047 83.8247C81.0009 83.8327 80.9951 83.8395 80.9878 83.8445C80.9822 83.8481 80.9759 83.8504 80.9693 83.8512C80.9627 83.852 80.956 83.8514 80.9496 83.8493ZM80.4336 82.9726H80.405C80.3094 82.9726 80.3046 83.0204 80.3022 83.0323C80.2784 83.178 80.6247 83.5459 80.8875 83.7036C80.8661 83.4582 80.7693 83.2254 80.6104 83.0371C80.562 82.9927 80.4993 82.9672 80.4336 82.9654V82.9726Z" fill="#B77E7E"/>
<path d="M88.4433 34.6383L88.6678 35.4242C88.6989 35.484 88.6272 35.5461 88.5245 35.5461H79.4969C79.4181 35.5461 79.3512 35.5079 79.3464 35.4577L79.2676 34.6741C79.2676 34.6192 79.3297 34.5738 79.4181 34.5738H88.3023C88.3294 34.5715 88.3566 34.5762 88.3813 34.5875C88.4059 34.5988 88.4273 34.6163 88.4433 34.6383Z" fill="#B77E7E"/>
<path opacity="0.3" d="M88.4433 34.6383L88.6678 35.4242C88.6989 35.484 88.6272 35.5461 88.5245 35.5461H79.4969C79.4181 35.5461 79.3512 35.5079 79.3464 35.4577L79.2676 34.6741C79.2676 34.6192 79.3297 34.5738 79.4181 34.5738H88.3023C88.3294 34.5715 88.3566 34.5762 88.3813 34.5875C88.4059 34.5988 88.4273 34.6163 88.4433 34.6383Z" fill="white"/>
<path d="M87.2513 35.6417H87.4902C87.5356 35.6417 87.5714 35.6178 87.5691 35.5867L87.4568 34.5667C87.4568 34.538 87.4138 34.5117 87.366 34.5117H87.1271C87.0793 34.5117 87.0435 34.538 87.0483 34.5667L87.1582 35.5867C87.1629 35.6178 87.194 35.6417 87.2513 35.6417Z" fill="#263238"/>
<path d="M80.1661 35.6417H80.4049C80.4527 35.6417 80.4886 35.6178 80.4862 35.5867L80.3739 34.5667C80.3739 34.538 80.3285 34.5117 80.2831 34.5117H80.0442C79.9964 34.5117 79.9606 34.538 79.963 34.5667L80.0753 35.5867C80.0777 35.6178 80.1183 35.6417 80.1661 35.6417Z" fill="#263238"/>
<path d="M83.7089 35.6417H83.9478C83.9956 35.6417 84.0314 35.6178 84.029 35.5867L83.9167 34.5667C83.9167 34.538 83.8737 34.5117 83.826 34.5117H83.5871C83.5393 34.5117 83.5035 34.538 83.5082 34.5667L83.611 35.5939C83.611 35.6178 83.6611 35.6417 83.7089 35.6417Z" fill="#263238"/>
<path d="M82.6356 14.7033L82.208 14.6221C82.208 14.6221 82.4517 14.9278 82.6356 14.7033Z" fill="#263238"/>
<path opacity="0.2" d="M74.7291 45.1236C70.6818 46.696 66.2592 47.0329 62.0204 46.0918C57.7817 45.1506 53.9172 42.9737 50.9157 39.8363C47.9141 36.6989 45.9103 32.7419 45.1576 28.4657C44.4049 24.1894 44.9371 19.786 46.687 15.8123C48.4368 11.8385 51.3257 8.47289 54.9883 6.14096C58.651 3.80903 62.9228 2.61554 67.2637 2.71141C71.6046 2.80727 75.8196 4.18819 79.3757 6.67954C82.9318 9.17089 85.6693 12.6608 87.242 16.7079C88.2867 19.3953 88.7917 22.2621 88.7282 25.1447C88.6647 28.0273 88.0339 30.8691 86.8719 33.5079C85.7099 36.1466 84.0395 38.5306 81.956 40.5237C79.8725 42.5167 77.4168 44.0798 74.7291 45.1236Z" fill="#B77E7E"/>
<path opacity="0.1" d="M70.7561 3.06934L53.5371 42.1753C53.2719 41.9746 53.0092 41.7668 52.7512 41.5566C51.0869 40.1798 49.6376 38.5622 48.4512 36.7573L63.3243 2.97856C65.7884 2.58169 68.3025 2.6124 70.7561 3.06934Z" fill="white"/>
<path opacity="0.1" d="M82.9967 9.85368L66.8072 46.6209C63.4445 46.6245 60.126 45.8546 57.1084 44.3706L74.7861 4.2207C77.9179 5.4455 80.7268 7.37261 82.9967 9.85368Z" fill="white"/>
<path d="M48.7047 9.87054C51.6301 6.29607 55.5496 3.66934 59.9678 2.3225C64.386 0.975666 69.1043 0.969214 73.5262 2.30396C77.948 3.63872 81.8748 6.25472 84.8099 9.82117C87.745 13.3876 89.5566 17.7443 90.0156 22.3404C90.4747 26.9364 89.5605 31.5654 87.3888 35.6419C85.217 39.7184 81.8852 43.0593 77.8147 45.2423C73.7442 47.4252 69.1178 48.3521 64.5205 47.9057C59.9232 47.4593 55.5616 45.6596 51.9871 42.7344C47.1943 38.8113 44.156 33.1451 43.5405 26.9821C42.925 20.8192 44.7826 14.664 48.7047 9.87054ZM83.3721 38.2409C86.0574 34.9585 87.709 30.9536 88.1182 26.7326C88.5273 22.5116 87.6757 18.264 85.6709 14.527C83.6662 10.79 80.5983 7.73137 76.8553 5.73787C73.1122 3.74438 68.8621 2.90555 64.6424 3.32746C60.4226 3.74937 56.4227 5.41307 53.1485 8.10818C49.8742 10.8033 47.4726 14.4088 46.2474 18.4687C45.0223 22.5287 45.0284 26.8608 46.2652 30.9172C47.502 34.9737 49.9139 38.5723 53.1958 41.258C55.3752 43.0415 57.8846 44.3783 60.5807 45.1919C63.2768 46.0055 66.1067 46.2801 68.9089 45.9999C71.7111 45.7197 74.4307 44.8903 76.9123 43.559C79.3939 42.2277 81.589 40.4206 83.3721 38.2409Z" fill="#B77E7E"/>
<path d="M85.433 38.1601C87.7335 39.5337 89.9217 41.0434 92.0717 42.601C94.2217 44.1585 96.3167 45.7806 98.3783 47.4456C100.44 49.1107 102.463 50.8235 104.415 52.6223C105.393 53.5205 106.348 54.4427 107.282 55.3887C108.218 56.3442 109.138 57.2998 110.005 58.3365C110.205 58.5766 110.316 58.8789 110.317 59.1916C110.319 59.5042 110.211 59.8077 110.014 60.0497C109.816 60.2918 109.54 60.4573 109.233 60.5178C108.926 60.5784 108.608 60.5301 108.333 60.3814C107.138 59.7364 106.02 59.0245 104.905 58.2959C103.789 57.5673 102.7 56.8076 101.625 56.0265C99.4748 54.4689 97.3941 52.8278 95.3564 51.1341C93.3187 49.4403 91.312 47.7084 89.3603 45.9072C87.4086 44.106 85.4951 42.2618 83.6939 40.279C83.469 40.0337 83.34 39.7156 83.3306 39.383C83.3213 39.0504 83.4321 38.7255 83.6429 38.468C83.8537 38.2105 84.1502 38.0376 84.4781 37.9811C84.806 37.9245 85.1433 37.988 85.4282 38.1601H85.433Z" fill="#B77E7E"/>
<path d="M88.0039 37.5049L85.6963 37.856L87.347 39.3037C87.347 39.3037 88.6513 38.8259 88.7803 37.942L88.0039 37.5049Z" fill="#FFC3BD"/>
<path d="M84.4492 39.1824L85.8993 40.3195L87.6694 39.1633L85.6962 37.8613L84.4492 39.1824Z" fill="#FFC3BD"/>
<path d="M73.5391 41.6976C73.7499 41.1222 74.1299 40.6241 74.6293 40.2689C75.1286 39.9137 75.7238 39.718 76.3365 39.7076H95.4594C95.7899 39.6953 96.119 39.7556 96.4236 39.8843C96.7282 40.013 97.0008 40.207 97.2222 40.4526C97.4437 40.6982 97.6085 40.9894 97.7051 41.3056C97.8018 41.6219 97.8278 41.9554 97.7814 42.2828L92.8412 83.7323C92.7364 84.4379 92.3839 85.0833 91.8469 85.5529C91.3099 86.0225 90.6234 86.2857 89.9101 86.2956H29.2326C28.9033 86.3081 28.5752 86.2484 28.2715 86.1204C27.9677 85.9925 27.6957 85.7996 27.4746 85.5553C27.2535 85.3109 27.0886 85.021 26.9916 84.7061C26.8945 84.3911 26.8677 84.0588 26.913 83.7323L31.0553 48.9072C31.1601 48.2016 31.5126 47.5563 32.0496 47.0866C32.5866 46.617 33.2731 46.3538 33.9864 46.3439H67.0055C68.4363 46.3195 69.8262 45.8626 70.9924 45.0333C72.1586 44.204 73.0464 43.0411 73.5391 41.6976Z" fill="#B77E7E"/>
<path d="M28.0049 84.3872H91.4081L95.0201 41.7266H31.6193L28.0049 84.3872Z" fill="#F0F0F0"/>
<path d="M28.0049 84.3872H91.4081L94.0215 41.7266H31.6193L28.0049 84.3872Z" fill="#E0E0E0"/>
<path d="M28.0049 84.3872H91.4081L93.5867 40.3721H30.1859L28.0049 84.3872Z" fill="#F0F0F0"/>
<path d="M28.0049 84.3872H91.4081L92.2705 40.3721H30.1859L28.0049 84.3872Z" fill="#E0E0E0"/>
<path d="M28.0049 84.3873H91.4081L91.7855 39.1777H28.3847L28.0049 84.3873Z" fill="#F0F0F0"/>
<path d="M28.0043 84.3875H91.4075L90.1056 40.0332H27.1133L28.0043 84.3875Z" fill="#E0E0E0"/>
<path d="M28.005 84.3872H91.4083L89.5258 40.3721H26.125L28.005 84.3872Z" fill="#F0F0F0"/>
<path d="M28.0044 84.3871H91.4076L88.4096 41.0361H25.0088L28.0044 84.3871Z" fill="#E0E0E0"/>
<path d="M28.0047 84.387H91.4079L87.9321 41.4062H24.5312L28.0047 84.387Z" fill="#F0F0F0"/>
<path d="M59.7549 44.3905C59.7585 44.1134 59.8177 43.8397 59.9292 43.5859C60.0407 43.3321 60.2021 43.1034 60.4038 42.9133C60.6055 42.7231 60.8434 42.5755 61.1034 42.4793C61.3633 42.383 61.64 42.34 61.9169 42.3528H81.0398C81.7802 42.3812 82.4902 42.6547 83.0583 43.1303C83.6265 43.6059 84.0206 44.2567 84.1788 44.9806L91.7348 83.6804C92.0167 85.1305 91.0707 86.3082 89.6207 86.3082H28.9432C27.4907 86.3082 26.0765 85.1305 25.8018 83.6804L19.5692 51.7769C19.2873 50.3269 20.2333 49.1492 21.6834 49.1492H54.7048C57.5715 49.1492 59.657 47.176 59.7549 44.3905Z" fill="#B77E7E"/>
<path opacity="0.2" d="M59.7549 44.3905C59.7585 44.1134 59.8177 43.8397 59.9292 43.5859C60.0407 43.3321 60.2021 43.1034 60.4038 42.9133C60.6055 42.7231 60.8434 42.5755 61.1034 42.4793C61.3633 42.383 61.64 42.34 61.9169 42.3528H81.0398C81.7802 42.3812 82.4902 42.6547 83.0583 43.1303C83.6265 43.6059 84.0206 44.2567 84.1788 44.9806L91.7348 83.6804C92.0167 85.1305 91.0707 86.3082 89.6207 86.3082H28.9432C27.4907 86.3082 26.0765 85.1305 25.8018 83.6804L19.5692 51.7769C19.2873 50.3269 20.2333 49.1492 21.6834 49.1492H54.7048C57.5715 49.1492 59.657 47.176 59.7549 44.3905Z" fill="#BF1523"/>
</svg>
