<svg width="305" height="295" viewBox="0 0 305 295" fill="none" xmlns="http://www.w3.org/2000/svg">
<path d="M11.7111 173.885C11.7111 173.885 17.6984 171.889 20.5723 185.74C23.4462 199.591 23.8986 207.208 23.8986 207.208C23.8986 207.208 24.8432 210.195 27.0386 209.011C29.2339 207.826 32.9194 203.762 35.6869 205.425C38.4544 207.088 38.6007 210.86 36.6316 215.75C34.6624 220.639 30.6975 231.529 30.3515 232.487C30.0056 233.445 30.1719 235.062 31.8018 234.483C33.4317 233.904 43.7165 227.285 46.5705 232.354C49.4244 237.424 41.7141 250.15 40.8958 251.554C40.0776 252.957 40.2306 253.689 40.816 254.261C41.4014 254.833 44.6811 252.265 47.6881 250.516C50.6951 248.766 54.4804 247.223 55.884 250.29C57.2877 253.356 55.1257 263.887 40.6763 278.011L33.5514 284.125L24.617 281.138C5.87015 273.587 -0.143759 264.672 0.00259694 261.306C0.148953 257.94 4.22031 257.9 7.66634 258.392C11.1124 258.885 15.0972 260.002 15.4498 259.237C15.8024 258.472 15.6361 257.754 14.3389 256.763C13.0416 255.771 1.03374 246.957 1.77218 241.182C2.51061 235.408 14.5185 237.61 16.2348 237.517C17.9512 237.424 17.4988 235.867 16.8136 235.108C16.1284 234.35 8.35155 225.795 4.66604 222.003C0.980523 218.211 -0.35664 214.772 1.60586 212.097C3.56837 209.423 8.45799 211.871 10.9194 212.131C13.3809 212.39 13.1347 209.263 13.1347 209.263C13.1347 209.263 10.6267 202.032 8.00562 188.161C5.38451 174.291 11.8375 173.838 11.8375 173.838" fill="#F5F5F5"/>
<path d="M33.6044 282.164C31.6086 271.979 28.8145 257.935 25.6213 242.428C22.4281 226.921 19.5941 212.904 17.5784 202.726C16.5805 197.65 15.7622 193.539 15.2034 190.678C14.924 189.268 14.7044 188.163 14.5381 187.405C14.4583 187.039 14.4051 186.74 14.3585 186.553C14.3119 186.367 14.292 186.261 14.292 186.261C14.292 186.261 14.292 186.367 14.3253 186.56C14.3585 186.753 14.4117 187.046 14.4716 187.412C14.6113 188.177 14.8109 189.288 15.0637 190.698C15.5826 193.552 16.3609 197.677 17.3455 202.766C19.3014 212.951 22.1354 226.994 25.3286 242.495C28.5218 257.995 31.3691 272.039 33.3848 282.211" fill="#E0E0E0"/>
<path d="M30.7106 211.313C30.5583 211.48 30.4245 211.663 30.3115 211.859C30.072 212.225 29.7394 212.764 29.3336 213.429C28.522 214.76 27.4575 216.636 26.32 218.718L23.4328 224.073L22.5679 225.696C22.4465 225.887 22.3461 226.09 22.2686 226.302C22.4293 226.14 22.566 225.957 22.6744 225.756C22.9139 225.397 23.2531 224.858 23.6456 224.186C24.4439 222.856 25.4817 220.96 26.6193 218.864L29.5464 213.542C29.899 212.91 30.2117 212.371 30.4379 211.926C30.5535 211.733 30.6451 211.528 30.7106 211.313Z" fill="#E0E0E0"/>
<path d="M21.3775 226.208C21.4241 226.135 17.6587 223.766 12.982 220.886C8.30526 218.005 4.46008 215.79 4.41351 215.863C4.36695 215.936 8.12564 218.311 12.809 221.185C17.4924 224.059 21.331 226.314 21.3775 226.208Z" fill="#E0E0E0"/>
<path d="M27.3249 249.826C27.1132 249.725 26.8897 249.651 26.6597 249.606L24.8435 249.114C23.3134 248.695 21.1979 248.109 18.8562 247.378C16.5145 246.646 14.4722 245.934 12.982 245.382L11.259 244.763C11.0456 244.671 10.8224 244.604 10.5938 244.563C10.7865 244.692 10.9943 244.797 11.2124 244.876C11.6182 245.062 12.2103 245.315 12.9488 245.608C14.4323 246.2 16.4946 246.938 18.8163 247.69C21.138 248.442 23.2669 248.967 24.8036 249.333C25.582 249.513 26.2073 249.646 26.6464 249.726C26.8678 249.786 27.0956 249.819 27.3249 249.826Z" fill="#E0E0E0"/>
<path d="M38.7478 238.183C38.5654 238.297 38.3978 238.433 38.2489 238.588C37.9428 238.868 37.5104 239.254 36.9782 239.779C35.9138 240.797 34.4636 242.214 32.8736 243.771C31.2836 245.327 29.8866 246.831 28.8289 247.875C28.3233 248.401 27.9108 248.833 27.6314 249.139C27.4748 249.285 27.3383 249.45 27.2256 249.632C27.4086 249.518 27.5763 249.382 27.7245 249.226C28.0239 248.953 28.463 248.561 28.9885 248.035C30.0529 247.024 31.5098 245.6 33.0998 244.044C34.6898 242.487 36.1134 241.017 37.1379 239.959C37.6501 239.433 38.0559 239.001 38.3353 238.695C38.4935 238.542 38.632 238.37 38.7478 238.183Z" fill="#E0E0E0"/>
<path d="M46.6442 258.341C46.4042 258.492 46.1812 258.668 45.979 258.866L44.3491 260.383C42.9787 261.68 41.1026 263.483 39.027 265.492C36.9514 267.501 35.1153 269.324 33.7915 270.661L32.2281 272.258C32.0275 272.444 31.8448 272.649 31.6826 272.87C31.9221 272.719 32.1451 272.542 32.3479 272.344L33.9844 270.821C35.3149 269.53 37.2242 267.728 39.3064 265.719C41.3887 263.709 43.1915 261.887 44.522 260.549L46.0854 258.953C46.29 258.766 46.4771 258.562 46.6442 258.341Z" fill="#E0E0E0"/>
<path d="M31.9954 272.425C31.7305 272.299 31.4543 272.199 31.1705 272.125L28.8887 271.447C26.9661 270.848 24.305 270.01 21.3979 269.005C18.4907 268.001 15.8829 267.009 13.9936 266.344L11.7583 265.459C11.4899 265.344 11.2116 265.252 10.9268 265.187C11.1758 265.341 11.4386 265.473 11.7118 265.579C12.224 265.812 12.9757 266.131 13.9138 266.517C15.7765 267.289 18.3776 268.293 21.2981 269.298C24.2186 270.302 26.8796 271.107 28.8221 271.646C29.8001 271.919 30.5851 272.125 31.1372 272.258C31.4179 272.338 31.7051 272.394 31.9954 272.425Z" fill="#E0E0E0"/>
<path d="M284.233 14.4258H221.945V104.708H284.233V14.4258Z" fill="#E0E0E0"/>
<path d="M281.113 14.4258H218.825V104.708H281.113V14.4258Z" fill="#F5F5F5"/>
<path d="M273.377 24.2041H226.569V94.9274H273.377V24.2041Z" fill="white"/>
<path d="M273.369 94.9265C273.369 94.9265 273.369 94.8067 273.369 94.5805C273.369 94.3544 273.369 94.0151 273.369 93.576C273.369 92.6846 273.369 91.3873 273.369 89.6976C273.369 86.3048 273.369 81.3686 273.329 75.1285C273.329 62.6549 273.283 44.9991 273.249 24.2032L273.409 24.3562H226.602L226.768 24.1899C226.768 50.8666 226.768 75.4678 226.768 94.9132L226.635 94.7801L260.703 94.8466L270.116 94.8799H272.584C273.143 94.8799 273.442 94.8799 273.442 94.8799H272.617H270.169L260.789 94.9132L226.635 94.9863H226.495V94.8533C226.495 75.4079 226.495 50.8067 226.462 24.13V23.957H226.635H273.442H273.595V24.1167C273.562 44.9525 273.535 62.6483 273.522 75.1418C273.522 81.3686 273.489 86.2981 273.476 89.6776C273.476 91.354 273.476 92.6446 273.476 93.5228C273.476 93.9552 273.476 94.2812 273.476 94.514C273.476 94.7468 273.369 94.9265 273.369 94.9265Z" fill="#E0E0E0"/>
<path d="M281.286 14.4258C280.967 14.9962 280.595 15.5353 280.175 16.0357C279.456 17.007 278.425 18.3242 277.254 19.7412C276.083 21.1582 274.986 22.4022 274.174 23.3202C273.761 23.8287 273.302 24.2985 272.804 24.7239C273.157 24.1734 273.556 23.6527 273.995 23.1672L276.995 19.5283L279.988 15.8893C280.378 15.3655 280.812 14.8759 281.286 14.4258Z" fill="#E0E0E0"/>
<path d="M273.616 94.7012C275.944 98.3996 278.682 101.823 281.779 104.906L273.616 94.7012Z" fill="white"/>
<path d="M281.779 104.906C281.259 104.529 280.781 104.096 280.355 103.616C279.269 102.513 278.24 101.354 277.275 100.143C276.307 98.9321 275.402 97.6732 274.561 96.371C274.188 95.8491 273.871 95.2895 273.616 94.7012C274.035 95.1845 274.417 95.6981 274.76 96.2379C275.426 97.2025 276.417 98.5197 277.541 99.9301C278.665 101.34 279.743 102.591 280.528 103.449C280.979 103.905 281.397 104.392 281.779 104.906Z" fill="#E0E0E0"/>
<path d="M218.818 104.633L226.974 94.5674L218.818 104.633Z" fill="white"/>
<path d="M226.974 94.5674C225.753 96.349 224.436 98.0634 223.029 99.7032C221.712 101.418 220.306 103.063 218.818 104.633C220.043 102.851 221.36 101.135 222.763 99.4903C224.082 97.7783 225.487 96.1351 226.974 94.5674Z" fill="#E0E0E0"/>
<path d="M218.818 14.4258C220.235 15.9281 221.567 17.5071 222.81 19.1557C224.129 20.7374 225.362 22.3897 226.502 24.1052C225.097 22.5998 223.776 21.0186 222.544 19.3686C221.213 17.7901 219.969 16.14 218.818 14.4258Z" fill="#E0E0E0"/>
<path d="M258.794 38.5605H243.12V83.0595H258.794V38.5605Z" fill="#E0E0E0"/>
<path d="M88.7077 0.00195312V49.7431H17.2593L14.6914 0.347886L88.7077 0.00195312Z" fill="#E0E0E0"/>
<path d="M14.6914 0.347954L14.6914 49.6367L86.1398 49.6367V0.347954L14.6914 0.347954Z" fill="white"/>
<path d="M86.4729 49.9755H14.3525V0.0214844H86.4729V49.9755ZM15.0244 49.3103H85.7677V0.68674H15.0244V49.3103Z" fill="#E0E0E0"/>
<path d="M78.3966 6.47559H22.4287V43.517H78.3966V6.47559Z" fill="white"/>
<path d="M78.3968 6.47491H77.3257H74.2522L62.7167 6.52148L22.4288 6.60131L22.5685 6.47491C22.5685 17.7842 22.5685 30.331 22.5685 43.5097L22.3956 43.3301L78.3635 43.37L78.2238 43.5097C78.2238 32.2336 78.277 22.9932 78.297 16.5535C78.297 13.3403 78.297 10.8257 78.3302 9.10267C78.3302 8.25114 78.3302 7.59919 78.3302 7.14681C78.3302 6.70109 78.3302 6.48156 78.3302 6.48156C78.3302 6.48156 78.3302 6.69444 78.3302 7.14681C78.3302 7.59919 78.3302 8.24449 78.3302 9.08271C78.3302 10.7991 78.3302 13.3004 78.3635 16.5003C78.3635 22.9599 78.4034 32.2336 78.4367 43.5429V43.6826H78.297H22.329H22.1494V43.5097C22.1494 30.331 22.1494 17.7909 22.1494 6.47491V6.30859H22.3157L62.71 6.38842L74.2056 6.43499H77.2459H78.0242L78.3968 6.47491Z" fill="#E0E0E0"/>
<path d="M14.6846 0.208984C15.1257 0.424157 15.539 0.692231 15.9153 1.00729C16.6471 1.53284 17.645 2.28458 18.716 3.14276C19.7871 4.00094 20.7118 4.8192 21.377 5.42459C21.7606 5.73131 22.1047 6.08437 22.4015 6.47569C22.335 6.54887 20.612 5.14518 18.4699 3.41551C17.142 2.42728 15.8777 1.35631 14.6846 0.208984Z" fill="#E0E0E0"/>
<path d="M86.133 0.347656C84.9588 1.50337 83.7026 2.57278 82.3743 3.54753C81.1134 4.61469 79.7796 5.59276 78.3828 6.47466C79.5579 5.3178 80.814 4.24623 82.1415 3.26813C83.4014 2.20167 84.7353 1.22575 86.133 0.347656Z" fill="#E0E0E0"/>
<path d="M86.0797 49.6501L78.0967 43.1904L86.0797 49.6501Z" fill="white"/>
<path d="M78.1104 43.1904C79.5441 44.1286 80.9131 45.1621 82.2083 46.2839C83.5742 47.3162 84.8679 48.4409 86.0801 49.6501C84.645 48.7138 83.2758 47.6802 81.9821 46.5566C80.6181 45.5219 79.3246 44.3974 78.1104 43.1904Z" fill="#E0E0E0"/>
<path d="M14.6846 49.6359C15.8517 48.4955 17.0965 47.4374 18.41 46.4692C19.6513 45.4129 20.9675 44.448 22.3483 43.582C21.1864 44.7255 19.9436 45.7838 18.6295 46.7486C17.3881 47.8077 16.0695 48.7728 14.6846 49.6359Z" fill="#E0E0E0"/>
<path d="M33.791 18.0166V30.417L69.0096 30.417V18.0166H33.791Z" fill="#E0E0E0"/>
<path d="M231.818 156.356L229.463 158.691L227.387 156.562L229.702 154.3C227.78 152.065 226.463 149.397 226.236 147.335L229.975 145.971C230.315 148.027 231.184 149.96 232.496 151.579L236.049 148.107C234.319 145.186 232.53 141.773 235.577 138.793C237.838 136.591 241.371 136.345 245.036 139.332L247.405 137.023L249.48 139.159L247.159 141.421C248.567 143.036 249.57 144.963 250.086 147.042L246.427 148.539C246.028 146.969 245.325 145.494 244.358 144.195L240.699 147.707C242.455 150.615 244.198 153.981 241.198 156.908C238.983 159.063 235.483 159.316 231.818 156.356ZM239.136 145.046L242.163 142.093C240.832 141.215 239.748 141.374 239.049 142.093C238.351 142.811 238.537 143.829 239.156 145.046H239.136ZM237.579 153.695C238.324 152.97 238.124 151.958 237.579 150.728L234.639 153.595C235.902 154.46 236.914 154.36 237.599 153.695H237.579Z" fill="#E0E0E0"/>
<path d="M138.695 214.141L139.886 217.427L136.952 218.491L135.788 215.291C132.821 216.17 129.701 216.269 127.626 215.591L127.945 211.426C130.06 211.983 132.283 211.983 134.398 211.426L132.615 206.517C129.069 206.909 125.031 207.142 123.508 202.944C122.383 199.831 123.674 196.338 128.125 194.13L126.94 190.87L129.874 189.799L131.038 193.005C133.179 192.356 135.444 192.229 137.644 192.633L137.491 196.777C135.818 196.478 134.102 196.512 132.442 196.877L134.252 201.873C137.791 201.454 141.769 201.241 143.266 205.379C144.377 208.453 143.106 211.905 138.695 214.141ZM131.052 202.219L129.535 198.055C128.111 198.966 127.805 200.05 128.151 201.015C128.497 201.98 129.608 202.259 131.052 202.219ZM138.669 207.468C138.296 206.437 137.245 206.191 135.822 206.211L137.292 210.262C138.642 209.404 138.988 208.406 138.669 207.468Z" fill="#E0E0E0"/>
<path d="M37.3167 140.152L37.3965 143.086L34.7754 143.159L34.6956 140.298C32.1011 140.212 29.5864 139.467 28.1162 138.382L29.4467 135.142C30.9802 136.153 32.7501 136.746 34.5825 136.865L34.4694 132.488C31.5356 131.863 28.2626 130.978 28.1628 127.233C28.0896 124.452 30.0388 122.01 34.1501 121.432L34.0702 118.518L36.6914 118.451L36.7712 121.305C38.6484 121.361 40.4858 121.86 42.1331 122.762L40.9091 126.022C39.6569 125.34 38.2823 124.913 36.8643 124.764L36.9841 129.222C39.9112 129.827 43.131 130.712 43.2308 134.404C43.3439 137.132 41.4147 139.54 37.3167 140.152ZM34.3829 128.636L34.2831 124.917C32.8994 125.263 32.3738 126.042 32.3938 126.913C32.4138 127.785 33.2121 128.304 34.3829 128.636ZM39.0397 134.83C39.0397 133.912 38.2414 133.439 37.1038 133.073L37.2036 136.692C38.5341 136.4 39.0863 135.668 39.0597 134.83H39.0397Z" fill="#E0E0E0"/>
<path d="M162.172 34.5347C163.79 31.623 164.638 28.3461 164.633 25.0149C164.648 22.4808 164.164 19.9686 163.208 17.6218C162.251 15.275 160.842 13.1396 159.061 11.3375C157.279 9.53548 155.16 8.10208 152.824 7.11923C150.488 6.13638 147.982 5.62333 145.447 5.6094C143.714 5.60682 141.988 5.84184 140.318 6.30791C144.377 7.47771 147.945 9.93541 150.484 13.3104C153.024 16.6853 154.397 20.7945 154.397 25.0182C154.397 29.2419 153.024 33.3511 150.484 36.7261C147.945 40.101 144.377 42.5587 140.318 43.7285C142.884 44.4475 145.572 44.6189 148.208 44.2315C150.844 43.8441 153.369 42.9066 155.619 41.48L164.64 44.9659L162.172 34.5347Z" fill="#EBEBEB"/>
<path d="M286.921 284.137C286.921 284.23 223.662 284.31 145.647 284.31C67.6328 284.31 4.36035 284.23 4.36035 284.137C4.36035 284.044 67.6062 283.957 145.647 283.957C223.688 283.957 286.921 284.037 286.921 284.137Z" fill="#263238"/>
<path d="M80.505 262.796L81.0439 279.347L85.2483 292.32C85.3201 292.541 85.3457 292.774 85.3236 293.005C85.3016 293.236 85.2322 293.461 85.12 293.664C85.0077 293.867 84.8549 294.045 84.671 294.187C84.4871 294.329 84.276 294.432 84.0509 294.489C83.7883 294.556 83.5134 294.559 83.2494 294.498C82.9854 294.436 82.7401 294.312 82.5341 294.136C79.8731 291.854 70.1404 283.419 70.167 282.208C70.167 280.798 68.4307 264.778 68.4307 264.778L80.505 262.796Z" fill="#FF725E"/>
<path d="M84.0504 294.469L70.0801 281.07L70.12 281.736C70.1523 282.343 70.4 282.918 70.8185 283.359C71.9361 284.53 75.0961 287.71 82.4671 294.083C82.6782 294.266 82.9315 294.395 83.2043 294.456C83.4772 294.518 83.7611 294.511 84.0305 294.435L84.0504 294.469Z" fill="#E0E0E0"/>
<path d="M73.2007 275.542C73.4142 275.681 73.5686 275.894 73.6337 276.14C73.6989 276.386 73.6702 276.647 73.5533 276.873C73.425 277.097 73.2129 277.262 72.9636 277.33C72.7142 277.399 72.4479 277.366 72.2228 277.239C71.9969 277.093 71.8335 276.869 71.7646 276.609C71.6957 276.349 71.7262 276.073 71.8503 275.835C72.0095 275.623 72.2447 275.481 72.5065 275.439C72.7682 275.397 73.0362 275.458 73.2539 275.609" fill="white"/>
<path d="M79.8656 287.457C79.9588 287.497 80.2847 286.606 81.2427 286.087C81.8352 285.813 82.4738 285.653 83.1254 285.615C83.1254 285.575 82.9258 285.462 82.5333 285.428C82.0206 285.395 81.5093 285.513 81.0631 285.768C80.6163 286.018 80.2513 286.392 80.012 286.845C79.8324 287.198 79.8257 287.444 79.8656 287.457Z" fill="#263238"/>
<path d="M81.1699 289.607C81.6264 289.31 82.102 289.043 82.5935 288.809C83.1214 288.678 83.6569 288.581 84.1968 288.516C83.934 288.369 83.6391 288.287 83.3377 288.279C83.0364 288.271 82.7375 288.336 82.4671 288.47C81.5092 288.809 81.11 289.567 81.1699 289.607Z" fill="#263238"/>
<path d="M77.5107 284.75C78.1849 284.243 78.8941 283.785 79.6329 283.379C80.4214 283.083 81.2308 282.845 82.0544 282.667C81.1775 282.547 80.2843 282.679 79.4796 283.047C78.6748 283.416 77.9919 284.007 77.5107 284.75Z" fill="#263238"/>
<path d="M76.9258 279.72C76.979 279.814 77.8704 279.381 79.0546 279.275C80.2388 279.168 81.2034 279.394 81.23 279.275C80.5621 278.89 79.78 278.753 79.0213 278.889C78.2473 278.914 77.5062 279.208 76.9258 279.72Z" fill="#263238"/>
<path d="M76.6461 274.864C77.3527 274.589 78.0935 274.412 78.8481 274.338C79.6053 274.377 80.3533 274.523 81.07 274.77C81.07 274.731 80.9037 274.538 80.5112 274.338C79.9912 274.087 79.4187 273.964 78.8414 273.979C78.2635 273.989 77.696 274.134 77.1849 274.405C76.8057 274.624 76.6194 274.83 76.6461 274.864Z" fill="#263238"/>
<path d="M78.768 273.44C78.8193 273.221 78.8193 272.994 78.768 272.775C78.6795 272.205 78.4806 271.658 78.1826 271.165C77.9896 270.789 77.6821 270.484 77.3045 270.293C77.1739 270.241 77.0302 270.232 76.8939 270.267C76.7577 270.301 76.6359 270.378 76.5461 270.486C76.378 270.704 76.2994 270.978 76.3265 271.251C76.3951 271.805 76.6545 272.317 77.0601 272.699C77.4657 273.082 77.9921 273.311 78.5485 273.347C79.1012 273.375 79.6497 273.237 80.1238 272.952C80.5978 272.666 80.9759 272.245 81.2095 271.744C81.2671 271.617 81.2968 271.48 81.2968 271.341C81.2968 271.202 81.2671 271.065 81.2095 270.939C81.1383 270.817 81.0303 270.722 80.9012 270.665C80.7721 270.609 80.6285 270.595 80.491 270.626C80.0892 270.737 79.7241 270.953 79.4333 271.251C79.0046 271.629 78.6465 272.079 78.3755 272.582C78.261 272.759 78.1862 272.959 78.156 273.167C78.5505 272.522 79.0368 271.937 79.5996 271.431C79.8656 271.183 80.1873 271.003 80.5376 270.906C80.6129 270.888 80.6918 270.896 80.7625 270.927C80.8332 270.958 80.892 271.011 80.9301 271.078C80.9606 271.164 80.9734 271.254 80.9677 271.345C80.962 271.435 80.9379 271.523 80.8968 271.604C80.6823 272.03 80.3502 272.385 79.9399 272.628C79.5296 272.871 79.0583 272.991 78.5818 272.974C78.1121 272.94 77.668 272.747 77.3214 272.429C76.9749 272.11 76.7462 271.683 76.6725 271.218C76.6491 271.028 76.6965 270.836 76.8055 270.679C76.8531 270.619 76.9188 270.575 76.9931 270.555C77.0674 270.534 77.1462 270.538 77.218 270.566C77.5395 270.724 77.8044 270.977 77.9764 271.291C78.3661 271.955 78.6342 272.682 78.768 273.44Z" fill="#263238"/>
<path d="M112.73 265.231L111.872 277.611C111.872 277.611 124.172 282.641 124.232 284.929L100.17 284.131L100.715 264.785L112.73 265.231Z" fill="#FF725E"/>
<path d="M104.468 276.321C104.228 276.381 104.02 276.528 103.883 276.733C103.747 276.939 103.692 277.188 103.729 277.432C103.783 277.668 103.926 277.874 104.127 278.009C104.329 278.144 104.574 278.197 104.813 278.157C105.062 278.089 105.276 277.932 105.415 277.716C105.554 277.5 105.607 277.239 105.565 276.986C105.484 276.746 105.314 276.547 105.089 276.43C104.865 276.314 104.604 276.289 104.361 276.36" fill="#E0E0E0"/>
<path d="M100.17 284.145L100.303 282.195L123.327 283.692C123.327 283.692 124.379 284.198 124.232 284.943L100.17 284.145Z" fill="#E0E0E0"/>
<path d="M112.271 277.506C112.271 277.619 111.672 277.652 111.08 278.011C110.488 278.37 110.169 278.856 110.062 278.803C109.956 278.75 110.149 278.084 110.874 277.659C111.599 277.233 112.298 277.432 112.271 277.506Z" fill="#263238"/>
<path d="M114.759 278.629C114.759 278.742 114.266 278.928 113.847 279.414C113.428 279.899 113.302 280.418 113.182 280.405C113.062 280.392 113.016 279.74 113.541 279.141C114.067 278.542 114.759 278.516 114.759 278.629Z" fill="#263238"/>
<path d="M116.09 281.697C115.983 281.697 115.837 281.132 116.163 280.493C116.489 279.854 117.041 279.622 117.087 279.721C117.134 279.821 116.788 280.154 116.529 280.679C116.269 281.205 116.209 281.691 116.09 281.697Z" fill="#263238"/>
<path d="M112.151 274.658C112.097 274.764 111.565 274.584 110.9 274.611C110.235 274.638 109.709 274.824 109.649 274.717C109.589 274.611 110.102 274.212 110.887 274.199C111.672 274.185 112.211 274.571 112.151 274.658Z" fill="#263238"/>
<path d="M112.277 272.156C111.871 272.258 111.444 272.242 111.047 272.109C110.614 272.021 110.193 271.877 109.796 271.683C109.565 271.568 109.343 271.437 109.131 271.291C108.997 271.215 108.878 271.115 108.778 270.998C108.703 270.913 108.659 270.805 108.653 270.691C108.647 270.578 108.679 270.466 108.745 270.373C108.808 270.294 108.887 270.23 108.978 270.186C109.07 270.142 109.169 270.12 109.27 270.12C109.422 270.124 109.572 270.149 109.716 270.193C109.972 270.267 110.222 270.363 110.461 270.479C110.861 270.675 111.227 270.934 111.546 271.244C112.084 271.783 112.264 272.222 112.211 272.249C112.158 272.276 111.892 271.91 111.339 271.464C111.021 271.196 110.667 270.972 110.288 270.799C110.073 270.703 109.851 270.625 109.623 270.566C109.37 270.486 109.151 270.479 109.084 270.566C109.018 270.652 109.051 270.626 109.084 270.699C109.161 270.783 109.248 270.857 109.344 270.918C109.545 271.055 109.754 271.182 109.969 271.298C110.336 271.497 110.721 271.66 111.12 271.783C111.513 271.883 111.9 272.007 112.277 272.156Z" fill="#263238"/>
<path d="M112.118 272.322C111.905 271.968 111.808 271.557 111.839 271.145C111.837 270.431 112.022 269.729 112.377 269.109C112.448 268.952 112.558 268.816 112.697 268.715C112.836 268.613 112.998 268.55 113.169 268.53C113.276 268.536 113.379 268.573 113.466 268.635C113.554 268.698 113.621 268.783 113.661 268.883C113.719 269.025 113.755 269.176 113.768 269.329C113.811 269.597 113.811 269.871 113.768 270.14C113.689 270.588 113.499 271.009 113.216 271.364C112.723 271.976 112.231 272.103 112.218 272.03C112.205 271.956 112.597 271.757 112.983 271.171C113.2 270.833 113.343 270.452 113.402 270.054C113.432 269.822 113.432 269.587 113.402 269.355C113.369 269.096 113.282 268.89 113.182 268.909C113.083 268.929 112.856 269.089 112.75 269.295C112.622 269.506 112.515 269.729 112.431 269.961C112.282 270.344 112.19 270.748 112.158 271.158C112.071 271.863 112.185 272.309 112.118 272.322Z" fill="#263238"/>
<path d="M63.2617 143.063L66.8142 276.141L85.8006 275.576L90.3243 138.526L63.2617 143.063Z" fill="#263238"/>
<path d="M102.718 138.301C102.718 138.301 116.808 194.714 117.241 204.334C117.673 213.954 114.227 274.106 114.227 274.106H95.6399L97.1965 205.585L83.1064 147.668L86.5192 138.6L102.718 138.301Z" fill="#263238"/>
<path d="M91.2488 145.227C91.2559 145.288 91.2559 145.351 91.2488 145.413V145.938C91.2488 146.431 91.2089 147.103 91.1756 147.967C91.0958 149.75 90.976 152.292 90.8363 155.418C90.5104 161.732 90.0646 170.413 89.5723 180.033C89.0801 189.652 88.5612 198.294 88.2418 204.607C88.0556 207.734 87.8959 210.269 87.7895 212.058C87.7296 212.916 87.683 213.595 87.6498 214.054C87.6498 214.267 87.6165 214.446 87.6032 214.579C87.6103 214.639 87.6103 214.699 87.6032 214.759C87.5958 214.699 87.5958 214.639 87.6032 214.579C87.6032 214.44 87.6032 214.267 87.6032 214.054C87.6032 213.562 87.6498 212.883 87.683 212.025C87.7629 210.242 87.8826 207.701 88.0223 204.574C88.3483 198.261 88.794 189.579 89.2796 179.96C89.7653 170.34 90.2908 161.698 90.6434 155.385C90.8297 152.258 90.9827 149.724 91.0958 147.941C91.1557 147.083 91.2022 146.404 91.2355 145.912C91.2355 145.699 91.2687 145.526 91.282 145.386C91.2619 145.335 91.2507 145.281 91.2488 145.227Z" fill="#455A64"/>
<path d="M89.1598 65.9607C89.1598 65.9607 96.0585 100.181 96.1583 109.821C96.2581 119.461 99.6443 138.301 99.6443 138.301H69.8009L69.1357 86.1645L67.0068 70.6175L71.4907 64.2178L89.1598 65.9607Z" fill="#F5F5F5"/>
<path d="M89.5254 66.9648C89.5254 66.9648 96.6503 69.0604 98.533 71.6948C100.016 73.7771 102.026 113.134 102.026 113.134L105.059 147.807L102.072 147.527L97.8544 134.548L89.5254 66.9648Z" fill="#FF725E"/>
<path d="M98.5332 71.6943L118.651 90.1552L143.405 82.1322L148.341 92.5301L121.924 104.505C118.152 106.115 115.783 105.23 113.162 103.128L99.3049 92.0312L98.5332 71.6943Z" fill="#FF725E"/>
<path d="M138.802 85.4458C138.868 85.574 138.882 85.7231 138.839 85.8611C138.797 85.9992 138.702 86.1151 138.576 86.1842C138.513 86.2178 138.444 86.2386 138.373 86.2454C138.302 86.2522 138.231 86.2448 138.163 86.2238C138.095 86.2028 138.031 86.1684 137.977 86.1228C137.922 86.0772 137.877 86.0212 137.844 85.958C137.809 85.8958 137.787 85.8273 137.78 85.7564C137.772 85.6856 137.778 85.614 137.799 85.5457C137.819 85.4775 137.853 85.414 137.899 85.3592C137.944 85.3043 138 85.2591 138.063 85.2263C138.191 85.1594 138.339 85.145 138.477 85.186C138.615 85.227 138.732 85.3202 138.802 85.4458Z" fill="#263238"/>
<path d="M138.322 86.2643C138.267 86.2744 138.211 86.2744 138.156 86.2643C138.085 86.2431 138.02 86.208 137.963 86.1612C137.905 86.1144 137.858 86.0567 137.824 85.9915C137.757 85.8597 137.743 85.7077 137.784 85.5658C137.83 85.4256 137.928 85.3086 138.058 85.2392C138.188 85.1698 138.34 85.1533 138.482 85.1932C138.625 85.2368 138.744 85.3348 138.815 85.466C138.884 85.597 138.898 85.7502 138.855 85.8918C138.834 85.9628 138.799 86.0289 138.752 86.0861C138.706 86.1433 138.648 86.1903 138.582 86.2244C138.5 86.2597 138.411 86.2734 138.322 86.2643ZM138.322 85.1799C138.237 85.1808 138.153 85.2013 138.076 85.2398C137.955 85.3075 137.864 85.4195 137.824 85.5525C137.784 85.6856 137.798 85.8291 137.863 85.9516C137.93 86.0742 138.042 86.1655 138.175 86.2054C138.309 86.2453 138.453 86.2306 138.575 86.1645C138.636 86.1332 138.69 86.0899 138.733 86.0373C138.776 85.9847 138.809 85.9239 138.828 85.8585C138.868 85.7232 138.854 85.5775 138.788 85.4527C138.743 85.3681 138.676 85.2974 138.594 85.2482C138.512 85.1989 138.418 85.173 138.322 85.1733V85.1799Z" fill="#263238"/>
<path d="M140.877 84.9534C140.943 85.0817 140.957 85.2307 140.915 85.3688C140.872 85.5068 140.778 85.6228 140.651 85.6919C140.588 85.7254 140.519 85.7462 140.448 85.753C140.377 85.7598 140.306 85.7525 140.238 85.7314C140.17 85.7104 140.107 85.6761 140.052 85.6305C139.997 85.5849 139.952 85.5288 139.919 85.4657C139.884 85.4035 139.862 85.3349 139.855 85.2641C139.847 85.1933 139.854 85.1216 139.874 85.0533C139.894 84.9851 139.928 84.9217 139.974 84.8668C140.019 84.8119 140.075 84.7667 140.139 84.7339C140.201 84.699 140.27 84.677 140.342 84.6692C140.413 84.6614 140.485 84.6679 140.554 84.6884C140.623 84.7088 140.687 84.7428 140.742 84.7883C140.798 84.8338 140.844 84.89 140.877 84.9534Z" fill="#263238"/>
<path d="M140.398 85.7707C140.343 85.7808 140.286 85.7808 140.231 85.7707C140.161 85.7495 140.095 85.7145 140.038 85.6676C139.981 85.6208 139.933 85.5632 139.899 85.498C139.83 85.3663 139.816 85.213 139.86 85.0711C139.903 84.9292 140.001 84.8101 140.132 84.7396C140.263 84.6711 140.417 84.6571 140.558 84.7007C140.7 84.7442 140.819 84.8418 140.89 84.9724C140.959 85.1034 140.974 85.2566 140.93 85.3982C140.886 85.5407 140.788 85.6602 140.657 85.7308C140.575 85.7631 140.486 85.7768 140.398 85.7707ZM140.398 84.6797C140.312 84.6831 140.228 84.7058 140.152 84.7462C140.029 84.8124 139.938 84.9246 139.898 85.0581C139.858 85.1916 139.873 85.3354 139.939 85.458C139.97 85.5196 140.015 85.5738 140.068 85.6173C140.122 85.6609 140.185 85.6927 140.251 85.7108C140.319 85.7366 140.391 85.7481 140.463 85.7447C140.536 85.7413 140.606 85.723 140.671 85.691C140.736 85.659 140.793 85.6139 140.84 85.5587C140.887 85.5034 140.921 85.4391 140.942 85.3698C140.963 85.3005 140.969 85.2277 140.96 85.156C140.951 85.0842 140.928 85.015 140.891 84.9527C140.854 84.8904 140.805 84.8364 140.747 84.794C140.688 84.7516 140.621 84.7218 140.551 84.7063C140.499 84.6898 140.445 84.6809 140.391 84.6797H140.398Z" fill="#263238"/>
<path d="M142.846 84.5546C142.881 84.6173 142.903 84.6864 142.91 84.7577C142.918 84.829 142.912 84.9012 142.891 84.97C142.871 85.0388 142.837 85.1028 142.791 85.1583C142.746 85.2137 142.69 85.2596 142.626 85.293C142.498 85.3593 142.349 85.3728 142.211 85.3305C142.073 85.2883 141.957 85.1936 141.888 85.0669C141.854 85.004 141.833 84.9352 141.827 84.8643C141.82 84.7934 141.827 84.7218 141.848 84.6538C141.869 84.5857 141.904 84.5225 141.949 84.4678C141.995 84.4131 142.051 84.368 142.114 84.3351C142.176 84.3004 142.245 84.2785 142.316 84.2707C142.386 84.263 142.458 84.2696 142.526 84.29C142.595 84.3105 142.658 84.3445 142.713 84.3899C142.768 84.4354 142.813 84.4914 142.846 84.5546Z" fill="#263238"/>
<path d="M142.373 85.3716C142.318 85.3817 142.262 85.3817 142.207 85.3716C142.072 85.3285 141.959 85.2359 141.89 85.1124C141.82 84.9889 141.801 84.8438 141.834 84.7063C141.855 84.6362 141.89 84.571 141.937 84.515C141.984 84.4589 142.042 84.4131 142.107 84.3804C142.172 84.3453 142.243 84.3234 142.316 84.3158C142.389 84.3082 142.463 84.3151 142.533 84.3361C142.604 84.3571 142.669 84.3918 142.726 84.4382C142.783 84.4846 142.831 84.5418 142.866 84.6066C142.934 84.7382 142.948 84.8916 142.904 85.0334C142.861 85.1753 142.763 85.2944 142.633 85.3649C142.548 85.3861 142.459 85.3884 142.373 85.3716ZM142.373 84.2872C142.288 84.2881 142.204 84.3086 142.127 84.3471C142.005 84.4133 141.913 84.5255 141.873 84.659C141.833 84.7924 141.848 84.9363 141.914 85.0589C141.945 85.1198 141.988 85.1736 142.041 85.2171C142.094 85.2606 142.155 85.2928 142.22 85.3117C142.356 85.3521 142.501 85.3378 142.626 85.2718C142.749 85.2056 142.84 85.0934 142.88 84.96C142.92 84.8265 142.905 84.6826 142.839 84.56C142.793 84.4757 142.724 84.4056 142.641 84.3575C142.558 84.3094 142.463 84.2851 142.367 84.2872H142.373Z" fill="#263238"/>
<path d="M143.651 82.6516L145.567 81.9531L149.965 91.2135L148.095 92.0118L143.651 82.6516Z" fill="#E0E0E0"/>
<path d="M99.1791 78.9932C99.2465 79.333 99.2844 79.678 99.2922 80.0243C99.3654 80.7561 99.4651 81.7007 99.5849 82.845C99.8576 85.2865 100.25 88.5396 100.636 92.1586C101.022 95.7776 101.361 99.0839 101.507 101.472C101.587 102.67 101.621 103.641 101.627 104.313C101.652 104.659 101.641 105.007 101.594 105.351C101.532 105.01 101.498 104.665 101.494 104.319C101.448 103.654 101.374 102.683 101.261 101.492C101.048 99.1105 100.696 95.8175 100.29 92.1785C99.8843 88.5396 99.5383 85.2599 99.3387 82.8649C99.2389 81.6675 99.1857 80.6962 99.1591 80.0243C99.1317 79.6808 99.1384 79.3354 99.1791 78.9932Z" fill="#263238"/>
<path d="M103.577 83.6104C103.265 85.2907 102.843 86.9486 102.313 88.5732C101.89 90.2272 101.358 91.8517 100.723 93.4362C101.029 91.7555 101.45 90.0974 101.98 88.4734C102.402 86.8183 102.935 85.1935 103.577 83.6104Z" fill="#263238"/>
<path d="M118.438 96.3903C118.222 96.137 118.07 95.836 117.993 95.5122C117.497 93.9788 117.602 92.3147 118.285 90.8554C118.406 90.5446 118.594 90.2649 118.838 90.0371C118.435 91.0489 118.167 92.109 118.039 93.1904C118.033 94.2699 118.167 95.3456 118.438 96.3903Z" fill="#263238"/>
<path d="M116.136 117.777L118.711 117.977L117.693 128.714L115.205 128.435L116.136 117.777Z" fill="#E0E0E0"/>
<path d="M71.4905 64.9619L57.6066 73.8165C56.0265 74.9367 54.8496 76.5363 54.2504 78.3782C53.6513 80.2201 53.6617 82.206 54.2803 84.0414L64.9244 117.497L61.0859 147.899L91.5147 146.609L90.7696 133.304L88.1884 109.461C87.7106 105.04 86.611 100.708 84.922 96.5948L71.4905 64.9619Z" fill="#FF725E"/>
<path d="M56.9877 85.8725L70.8716 114.931C71.4253 116.089 72.2313 117.108 73.2306 117.914C74.2298 118.72 75.3969 119.292 76.646 119.588L115.178 128.715L116.162 117.499L86.7513 106.462L71.956 78.0691C71.4224 77.0463 70.685 76.1437 69.7893 75.4168C68.8936 74.6899 67.8585 74.1541 66.7478 73.8425C65.6371 73.5308 64.4744 73.4499 63.3313 73.6048C62.1882 73.7596 61.0889 74.1469 60.1011 74.7428C58.2642 75.8542 56.9198 77.6238 56.3414 79.6914C55.763 81.759 55.9941 83.9693 56.9877 85.8725Z" fill="#FF725E"/>
<path d="M116.163 117.498C116.108 117.493 116.054 117.48 116.003 117.458L115.551 117.305L113.808 116.68L107.355 114.305L85.6076 106.176H85.5477V106.109L82.9865 101.04C80.5782 96.3431 78.1767 91.9191 75.9281 87.9276C74.8038 85.9318 73.7195 84.0491 72.695 82.2929L71.2048 79.7516C70.9653 79.3391 70.7258 78.9466 70.473 78.5807C70.2351 78.2133 69.9728 77.8621 69.688 77.5296C68.6963 76.348 67.4248 75.4332 65.9892 74.8686C64.907 74.428 63.7443 74.2195 62.5764 74.2566C61.5742 74.2706 60.5912 74.5335 59.7158 75.0216C59.7642 74.9775 59.8178 74.9395 59.8755 74.9085C60.0362 74.7962 60.2078 74.7004 60.3877 74.6225C61.078 74.3228 61.8179 74.1537 62.5698 74.1235C63.7581 74.0622 64.946 74.2527 66.0557 74.6823C67.5353 75.2507 68.8483 76.1818 69.8743 77.3899C70.1683 77.7262 70.4395 78.0818 70.6859 78.4543C70.952 78.8335 71.1981 79.226 71.431 79.6385L72.9411 82.1665C73.9789 83.9405 75.0677 85.8165 76.2075 87.7945C78.4694 91.7861 80.8643 96.1967 83.2991 100.9C84.1839 102.636 85.0487 104.346 85.8537 105.983L85.7606 105.896L107.468 114.132L113.881 116.6L115.604 117.265L116.05 117.445L116.163 117.498Z" fill="#263238"/>
<path d="M109.616 124.49C109.616 124.635 109.559 124.773 109.457 124.876C109.354 124.978 109.216 125.035 109.071 125.035C108.926 125.035 108.787 124.978 108.685 124.876C108.583 124.773 108.525 124.635 108.525 124.49C108.525 124.345 108.583 124.206 108.685 124.104C108.787 124.002 108.926 123.944 109.071 123.944C109.216 123.944 109.354 124.002 109.457 124.104C109.559 124.206 109.616 124.345 109.616 124.49Z" fill="#263238"/>
<path d="M109.051 125.048C108.94 125.048 108.832 125.016 108.741 124.954C108.649 124.893 108.577 124.805 108.535 124.703C108.492 124.601 108.481 124.489 108.503 124.38C108.524 124.272 108.578 124.172 108.656 124.094C108.734 124.016 108.834 123.963 108.942 123.941C109.05 123.92 109.163 123.931 109.265 123.973C109.367 124.015 109.454 124.087 109.516 124.179C109.577 124.271 109.61 124.379 109.61 124.489C109.61 124.638 109.551 124.78 109.446 124.885C109.341 124.989 109.199 125.048 109.051 125.048ZM109.051 123.964C108.947 123.964 108.845 123.995 108.759 124.053C108.673 124.11 108.605 124.192 108.565 124.288C108.526 124.384 108.515 124.49 108.536 124.592C108.556 124.694 108.606 124.788 108.679 124.861C108.753 124.935 108.847 124.985 108.948 125.005C109.05 125.025 109.156 125.015 109.252 124.975C109.348 124.935 109.43 124.868 109.488 124.781C109.546 124.695 109.577 124.593 109.577 124.489C109.577 124.35 109.521 124.216 109.423 124.118C109.324 124.019 109.19 123.964 109.051 123.964Z" fill="#263238"/>
<path d="M111.712 125.035C111.712 125.143 111.68 125.248 111.62 125.338C111.56 125.428 111.475 125.497 111.375 125.539C111.276 125.58 111.166 125.591 111.06 125.57C110.954 125.549 110.857 125.497 110.781 125.42C110.705 125.344 110.653 125.247 110.632 125.141C110.611 125.035 110.621 124.926 110.663 124.826C110.704 124.726 110.774 124.641 110.864 124.581C110.953 124.521 111.059 124.489 111.167 124.489C111.311 124.489 111.45 124.547 111.552 124.649C111.655 124.751 111.712 124.89 111.712 125.035Z" fill="#263238"/>
<path d="M111.133 125.594C111.023 125.594 110.914 125.561 110.823 125.5C110.731 125.439 110.659 125.351 110.617 125.249C110.574 125.147 110.563 125.035 110.585 124.926C110.607 124.818 110.66 124.718 110.738 124.64C110.816 124.562 110.916 124.509 111.024 124.487C111.132 124.466 111.245 124.477 111.347 124.519C111.449 124.561 111.536 124.633 111.598 124.725C111.659 124.817 111.692 124.925 111.692 125.035C111.69 125.183 111.631 125.324 111.526 125.429C111.422 125.533 111.281 125.592 111.133 125.594ZM111.133 124.51C111.029 124.51 110.927 124.541 110.841 124.598C110.755 124.656 110.687 124.738 110.647 124.834C110.608 124.93 110.597 125.036 110.618 125.138C110.638 125.24 110.688 125.333 110.761 125.407C110.835 125.48 110.929 125.531 111.031 125.551C111.132 125.571 111.238 125.561 111.334 125.521C111.43 125.481 111.512 125.414 111.57 125.327C111.628 125.241 111.659 125.139 111.659 125.035C111.659 124.896 111.603 124.762 111.505 124.664C111.406 124.565 111.272 124.51 111.133 124.51Z" fill="#263238"/>
<path d="M113.062 126.159C113.363 126.159 113.608 125.915 113.608 125.614C113.608 125.313 113.363 125.068 113.062 125.068C112.761 125.068 112.517 125.313 112.517 125.614C112.517 125.915 112.761 126.159 113.062 126.159Z" fill="#263238"/>
<path d="M113.042 126.173C112.932 126.173 112.824 126.141 112.732 126.079C112.64 126.018 112.568 125.93 112.526 125.828C112.484 125.726 112.473 125.614 112.494 125.505C112.516 125.397 112.569 125.297 112.647 125.219C112.725 125.141 112.825 125.088 112.933 125.066C113.042 125.045 113.154 125.056 113.256 125.098C113.358 125.14 113.445 125.212 113.507 125.304C113.568 125.396 113.601 125.504 113.601 125.614C113.599 125.762 113.54 125.903 113.435 126.008C113.331 126.112 113.19 126.172 113.042 126.173ZM113.042 125.089C112.938 125.089 112.837 125.12 112.75 125.177C112.664 125.235 112.596 125.317 112.557 125.413C112.517 125.509 112.506 125.615 112.527 125.717C112.547 125.819 112.597 125.913 112.671 125.986C112.744 126.06 112.838 126.11 112.94 126.13C113.042 126.15 113.147 126.14 113.243 126.1C113.339 126.06 113.421 125.993 113.479 125.906C113.537 125.82 113.568 125.718 113.568 125.614C113.568 125.475 113.512 125.341 113.414 125.243C113.315 125.144 113.182 125.089 113.042 125.089Z" fill="#263238"/>
<path d="M115.178 128.714C115.117 128.724 115.054 128.724 114.992 128.714L114.453 128.594L112.378 128.095L104.754 126.219C98.3208 124.643 89.453 122.407 79.5939 120.125C78.3632 119.833 77.1457 119.6 75.9416 119.274C74.7329 118.985 73.6064 118.423 72.6486 117.631C71.8085 116.787 71.1318 115.794 70.6529 114.704L69.2026 111.67L64.1932 101.139L60.867 94.0342C60.4944 93.2093 60.2017 92.564 59.9822 92.0983L59.756 91.586C59.7282 91.5307 59.7059 91.4728 59.6895 91.4131C59.6895 91.4131 59.7294 91.4663 59.7892 91.5727C59.8491 91.6792 59.9356 91.8655 60.042 92.065L60.9934 93.981C61.8116 95.6707 62.9891 98.0723 64.4261 101.033C65.863 103.993 67.5727 107.579 69.4754 111.524C69.9477 112.508 70.44 113.52 70.9323 114.551C71.4067 115.601 72.0671 116.556 72.8815 117.371C73.8008 118.128 74.8821 118.663 76.0414 118.935C77.2189 119.254 78.4497 119.487 79.6804 119.78C89.5328 122.068 98.4007 124.337 104.82 125.973C108.007 126.811 110.595 127.483 112.418 127.969L114.473 128.534L115.005 128.687L115.178 128.714Z" fill="#263238"/>
<path d="M84.058 126.897C84.058 126.897 83.9117 127.05 83.599 127.283C83.2863 127.516 82.8406 127.835 82.2685 128.221C80.782 129.247 79.1728 130.083 77.4786 130.709C75.7634 131.33 73.921 131.515 72.1167 131.248C71.5732 131.156 71.042 131.002 70.5334 130.789C70.3417 130.728 70.1634 130.631 70.0078 130.503C70.7106 130.715 71.4261 130.881 72.1499 131.002C73.9129 131.196 75.6969 130.984 77.3655 130.383C79.0324 129.759 80.6307 128.966 82.1354 128.015C82.7498 127.599 83.3922 127.225 84.058 126.897Z" fill="#263238"/>
<path d="M85.7671 130.756C85.8091 130.833 85.8404 130.916 85.8602 131.002C85.9355 131.246 85.9954 131.495 86.0399 131.747C86.2002 132.683 86.2002 133.639 86.0399 134.574C85.7808 135.964 85.1871 137.27 84.3102 138.38C83.2045 139.731 81.7112 140.71 80.0315 141.186C78.3519 141.662 76.5667 141.611 74.9168 141.041C73.59 140.548 72.4044 139.737 71.4641 138.679C70.8344 137.969 70.3305 137.157 69.9739 136.277C69.883 136.038 69.8053 135.794 69.7411 135.546C69.7012 135.379 69.6812 135.286 69.6945 135.286C70.1363 136.474 70.7975 137.569 71.6437 138.513C72.5771 139.512 73.7358 140.274 75.0232 140.735C76.6079 141.272 78.3179 141.319 79.9297 140.869C81.5415 140.419 82.9801 139.494 84.0574 138.213C84.9188 137.152 85.5141 135.899 85.7937 134.561C86.0254 133.302 86.0164 132.011 85.7671 130.756Z" fill="#263238"/>
<path d="M72.9877 38.4785L73.0742 63.266C73.08 64.2634 73.2882 65.2492 73.6861 66.1639C74.084 67.0785 74.6634 67.9028 75.3893 68.587C76.1151 69.2711 76.9722 69.8009 77.9087 70.1441C78.8453 70.4873 79.8417 70.6369 80.8377 70.5838C82.7228 70.4817 84.4971 69.6616 85.7962 68.292C87.0953 66.9223 87.8206 65.1071 87.8229 63.2194C87.8229 61.35 87.8229 59.7933 87.8229 59.6004C87.8229 59.6004 94.1296 58.9884 94.562 52.7416C94.7748 49.7214 94.695 43.468 94.562 37.8066C94.4963 34.8748 93.3278 32.0754 91.2896 29.9669C89.2514 27.8584 86.4932 26.5957 83.5653 26.4308H82.9599C76.4537 26.4041 72.7948 31.9524 72.9877 38.4785Z" fill="#B78876"/>
<path d="M87.8357 59.5015C84.9469 59.39 82.1566 58.4221 79.8193 56.7207C79.8193 56.7207 81.4891 61.3309 87.7558 61.118L87.8357 59.5015Z" fill="#AA6550"/>
<path d="M93.0181 41.4717C93.006 41.7052 92.9034 41.9248 92.7319 42.0838C92.5605 42.2428 92.3338 42.3287 92.1 42.3232C91.986 42.3259 91.8725 42.3056 91.7665 42.2636C91.6604 42.2216 91.5639 42.1587 91.4826 42.0787C91.4013 41.9986 91.3369 41.903 91.2933 41.7976C91.2496 41.6922 91.2276 41.5791 91.2285 41.465C91.2406 41.2327 91.3423 41.0141 91.5123 40.8553C91.6823 40.6964 91.9073 40.6098 92.1399 40.6135C92.2543 40.6109 92.3681 40.6311 92.4745 40.673C92.5809 40.715 92.6779 40.7777 92.7597 40.8577C92.8415 40.9377 92.9065 41.0332 92.9509 41.1386C92.9953 41.2441 93.0181 41.3573 93.0181 41.4717Z" fill="#263238"/>
<path d="M93.1916 40.4143C93.0785 40.5274 92.4266 39.9885 91.4686 39.9353C90.5106 39.8821 89.7722 40.3212 89.679 40.2014C89.5859 40.0817 89.7522 39.942 90.0715 39.7357C90.5049 39.4716 91.0086 39.3462 91.5151 39.3765C92.0151 39.4027 92.4934 39.5893 92.8789 39.9087C93.165 40.1482 93.2515 40.3677 93.1916 40.4143Z" fill="#263238"/>
<path d="M83.6774 41.4004C83.6671 41.6333 83.5658 41.8529 83.3955 42.0121C83.2251 42.1713 82.9992 42.2574 82.7661 42.2519C82.652 42.2546 82.5386 42.2343 82.4325 42.1923C82.3264 42.1503 82.2299 42.0874 82.1486 42.0074C82.0673 41.9273 82.0029 41.8318 81.9593 41.7264C81.9157 41.6209 81.8936 41.5078 81.8946 41.3938C81.9049 41.1608 82.0062 40.9412 82.1765 40.7821C82.3469 40.6229 82.5729 40.5368 82.806 40.5422C82.92 40.5396 83.0334 40.5598 83.1395 40.6018C83.2456 40.6438 83.3421 40.7067 83.4234 40.7868C83.5047 40.8668 83.5691 40.9624 83.6127 41.0678C83.6564 41.1732 83.6784 41.2863 83.6774 41.4004Z" fill="#263238"/>
<path d="M83.6317 40.2022C83.512 40.3086 82.8667 39.7698 81.9021 39.7165C80.9375 39.6633 80.2123 40.109 80.1125 39.9826C80.0128 39.8562 80.1924 39.7232 80.5117 39.517C80.9418 39.2516 81.4445 39.1282 81.9486 39.1644C82.4496 39.19 82.9295 39.374 83.3191 39.6899C83.5985 39.9361 83.685 40.149 83.6317 40.2022Z" fill="#263238"/>
<path d="M86.6719 47.7527C87.1874 47.623 87.717 47.5582 88.2485 47.5597C88.4947 47.5597 88.7342 47.5132 88.7807 47.3469C88.8153 47.0964 88.7736 46.8414 88.661 46.6151C88.4614 46.003 88.2552 45.3711 88.0423 44.6991C87.1841 41.9849 86.5787 39.7563 86.7118 39.723C86.8448 39.6898 87.6032 41.8652 88.4614 44.5794C88.661 45.2447 88.8606 45.9099 89.0468 46.502C89.1864 46.8066 89.2123 47.1511 89.12 47.4733C89.0788 47.5573 89.0191 47.6309 88.9454 47.6885C88.8716 47.7461 88.7858 47.7863 88.6942 47.8059C88.5551 47.8242 88.4142 47.8242 88.2751 47.8059C87.7407 47.8573 87.2018 47.8394 86.6719 47.7527Z" fill="#263238"/>
<path d="M84.0173 38.205C83.9042 38.4644 82.9529 38.2848 81.822 38.358C80.6911 38.4311 79.7531 38.6839 79.62 38.4378C79.5601 38.3247 79.7331 38.0852 80.1123 37.8524C80.6185 37.5641 81.1867 37.4021 81.7688 37.38C82.35 37.3442 82.9314 37.4468 83.4652 37.6794C83.871 37.8657 84.0639 38.0852 84.0173 38.205Z" fill="#263238"/>
<path d="M93.0846 38.1264C92.905 38.3326 92.2531 38.0665 91.4614 38.0133C90.6698 37.9601 89.9845 38.0732 89.8382 37.8403C89.7783 37.7272 89.8981 37.5144 90.2041 37.3214C90.6143 37.0981 91.0813 37.0011 91.5465 37.0425C92.0117 37.084 92.4543 37.262 92.8185 37.5543C93.0846 37.7938 93.1911 38.02 93.0846 38.1264Z" fill="#263238"/>
<path d="M73.2341 43.1359C73.1277 43.0827 69.0097 41.6191 68.9033 45.9034C68.7969 50.1876 73.1144 49.4093 73.1277 49.2895C73.141 49.1698 73.2341 43.1359 73.2341 43.1359Z" fill="#B78876"/>
<path d="M71.8563 47.633C71.8563 47.633 71.7832 47.6796 71.6568 47.7395C71.4778 47.8134 71.2769 47.8134 71.0979 47.7395C70.826 47.5573 70.6074 47.306 70.4648 47.0113C70.3221 46.7167 70.2605 46.3894 70.2863 46.063C70.2839 45.6953 70.3635 45.3317 70.5192 44.9986C70.5641 44.8661 70.6401 44.7462 70.7408 44.649C70.8415 44.5518 70.9639 44.4801 71.0979 44.4398C71.1844 44.4188 71.2755 44.4293 71.3548 44.4696C71.4341 44.5099 71.4964 44.5772 71.5304 44.6593C71.5836 44.7791 71.5304 44.8656 71.5769 44.8722C71.6235 44.8789 71.6701 44.7991 71.6435 44.6261C71.619 44.5196 71.5606 44.4239 71.4772 44.3533C71.4207 44.3077 71.3558 44.2736 71.2862 44.253C71.2165 44.2325 71.1435 44.2259 71.0713 44.2336C70.892 44.2658 70.7242 44.344 70.5842 44.4607C70.4443 44.5773 70.337 44.7283 70.273 44.8988C70.0821 45.2641 69.9838 45.6708 69.987 46.083C69.9556 46.464 70.0381 46.8457 70.2241 47.1797C70.4101 47.5137 70.6911 47.785 71.0314 47.959C71.1426 47.9914 71.2594 47.9999 71.3741 47.9839C71.4887 47.9678 71.5987 47.9276 71.6967 47.8659C71.8497 47.7328 71.8763 47.6397 71.8563 47.633Z" fill="#AA6550"/>
<path d="M70.8657 42.8555C71.2731 42.8522 71.6738 42.9593 72.0252 43.1655C72.3766 43.3716 72.6656 43.6691 72.8615 44.0264C73.101 44.6517 73.1276 45.3569 73.3671 45.9756C73.4598 46.2985 73.6571 46.5814 73.928 46.7801C74.1989 46.9788 74.5281 47.0819 74.8639 47.0732C75.0895 47.0158 75.2961 46.9002 75.463 46.7379C75.63 46.5757 75.7514 46.3724 75.8152 46.1485C75.9305 45.699 75.9598 45.2318 75.9017 44.7715C75.7687 42.7757 75.456 40.7799 75.4959 38.7376C75.4592 36.7078 76.0239 34.7125 77.1191 33.0031C77.673 32.1567 78.4448 31.4752 79.3533 31.0304C80.2617 30.5855 81.2733 30.3937 82.2815 30.4751C83.612 30.6614 84.7829 31.4198 86.0868 31.6792C86.8667 31.8277 87.6702 31.797 88.4365 31.5896C89.2029 31.3821 89.9121 31.0033 90.5107 30.4818C90.5771 30.4247 90.6483 30.3735 90.7236 30.3288C90.9413 30.1929 91.1073 29.9881 91.1953 29.7471C91.2833 29.506 91.2882 29.2424 91.2092 28.9983C91.1653 28.8417 91.0882 28.6965 90.983 28.5725C88.5016 26.0046 83.8183 25.0599 80.339 25.7319C78.5559 26.0653 76.8667 26.7824 75.3884 27.8334C73.91 28.8845 72.6778 30.2444 71.7771 31.8189C70.1073 34.9789 70.287 39.5093 70.9256 42.8356" fill="#263238"/>
<path d="M84.4365 48.5031C84.5961 48.5031 84.5961 49.5342 85.4876 50.2726C86.379 51.0111 87.4833 50.898 87.4833 51.0443C87.4833 51.1907 87.2372 51.2506 86.7649 51.2572C86.1549 51.2701 85.5605 51.0649 85.0884 50.6784C84.6362 50.3075 84.3454 49.7758 84.2768 49.1949C84.2169 48.7559 84.3367 48.4964 84.4365 48.5031Z" fill="#263238"/>
<path d="M144.184 83.7089C144.184 83.7089 148.874 79.591 149.758 79.285C150.643 78.979 157.708 78.8526 158.181 79.2052C158.653 79.5578 165.804 83.4761 164.62 84.0815C163.436 84.6869 158.48 81.8462 158.48 81.8462L157.648 81.9593C157.648 81.9593 161.973 84.2678 162.738 85.1526C163.503 86.0373 162.771 86.9554 161.966 86.5762C161.161 86.197 157.449 84.0615 157.156 84.1414C156.863 84.2212 161.108 86.7026 161.5 87.1683C162.026 87.7803 161.686 88.9778 160.868 88.6318C160.389 88.4323 156.478 85.8378 156.478 85.8378C157.585 86.7438 158.642 87.7098 159.644 88.7316C159.99 89.3969 159.325 90.0023 158.64 89.5832C158.174 89.2971 156.158 87.3146 155.533 86.9221C155.533 86.9221 154.868 86.8689 153.823 87.9599C152.779 89.0509 148.781 90.5345 148.781 90.5345L144.184 83.7089Z" fill="#B78876"/>
<path d="M164.6 84.0948C164.093 84.1671 163.577 84.1354 163.083 84.0016C162.539 83.8922 162.007 83.7319 161.493 83.5226C160.941 83.2565 160.335 82.9505 159.697 82.6245L158.366 81.9593H158.459C157.248 82.0227 156.033 81.9893 154.827 81.8595C156.026 81.6685 157.239 81.5817 158.453 81.6001H158.493H158.539L159.87 82.2653L161.606 83.1767C162.095 83.3925 162.6 83.5704 163.116 83.7089C164.028 83.975 164.606 84.0349 164.6 84.0948Z" fill="#AA6550"/>
<path d="M145.926 84.8996C146.119 85.1732 146.393 85.379 146.709 85.4877C147.026 85.5964 147.369 85.6024 147.689 85.505C148.354 85.3653 148.933 85.0127 149.571 84.8397C151.494 84.2876 153.629 85.312 155.519 84.6667C155.785 84.5736 156.078 84.3807 156.051 84.1079C156.024 83.8352 155.732 83.7221 155.485 83.6423L149.179 81.6465" fill="#B78876"/>
<path d="M149.179 81.6211C149.42 81.6353 149.657 81.6846 149.884 81.7675C150.33 81.8872 150.968 82.0735 151.76 82.3063L154.528 83.1445L155.326 83.3907C155.579 83.4905 155.945 83.5104 156.184 83.9029C156.231 84.0032 156.246 84.1151 156.228 84.2243C156.21 84.3334 156.16 84.4346 156.084 84.5149C155.96 84.6496 155.804 84.7522 155.632 84.8143C155.322 84.922 155 84.9935 154.674 85.0272C153.484 85.0457 152.295 84.9813 151.115 84.8343C150.616 84.8075 150.116 84.8546 149.631 84.974C149.186 85.0937 148.773 85.2933 148.381 85.433C148.069 85.5809 147.728 85.6577 147.383 85.6577C147.038 85.6577 146.697 85.5809 146.385 85.433C145.959 85.1869 145.893 84.8808 145.906 84.8875C146.062 85.0577 146.247 85.1995 146.451 85.3066C146.752 85.4159 147.072 85.4606 147.39 85.4377C147.709 85.4147 148.019 85.3247 148.301 85.1736C148.713 84.9815 149.135 84.8105 149.565 84.6613C150.079 84.5165 150.614 84.4537 151.148 84.475C152.312 84.5994 153.483 84.6549 154.654 84.6413C154.946 84.6061 155.233 84.5415 155.512 84.4484C155.772 84.3553 155.951 84.169 155.871 84.0493C155.792 83.9295 155.512 83.8031 155.206 83.7233L154.408 83.4638L151.667 82.5458C150.889 82.2797 150.257 82.0602 149.824 81.8805C149.598 81.8242 149.381 81.7369 149.179 81.6211Z" fill="#AA6550"/>
<path d="M117.554 118.037L125.33 117.266C125.33 117.266 135.615 124.311 134.644 125.861C133.673 127.411 131.983 125.861 131.983 125.861C131.983 125.861 133.812 128.116 130.852 128.821C130.852 128.821 130.147 130.371 129.023 130.231H128.317C128.317 130.231 127.652 132.194 126.727 131.768C125.803 131.342 122.909 128.814 122.909 128.814L114.926 128.109L117.554 118.037Z" fill="#B78876"/>
<path d="M122.39 126.053C122.39 126.053 120.394 126.818 119.988 127.623C119.583 128.428 119.323 130.284 120.614 130.65C121.37 130.698 122.13 130.674 122.882 130.576L122.39 128.481C122.761 128.051 123.156 127.642 123.574 127.257C124 126.904 123.534 125.527 122.39 126.053Z" fill="#FFBE9D"/>
<path d="M124.631 127.117C124.631 127.117 122.636 127.882 122.23 128.681C122.112 128.916 122.049 129.174 122.045 129.437C122.041 129.7 122.096 129.96 122.206 130.199C122.315 130.438 122.477 130.649 122.68 130.817C122.882 130.985 123.119 131.105 123.374 131.169C124.06 131.223 124.749 131.201 125.43 131.102L125.217 130.696C124.818 129.911 124.645 129.273 125.35 128.747C125.39 128.747 125.789 128.348 125.816 128.321C125.916 128.156 125.958 127.961 125.935 127.769C125.913 127.577 125.827 127.397 125.691 127.259C125.555 127.121 125.378 127.032 125.186 127.007C124.994 126.981 124.799 127.02 124.631 127.117Z" fill="#FFBE9D"/>
<path d="M125.11 131.03C124.942 130.848 124.835 130.617 124.807 130.37C124.778 130.124 124.828 129.875 124.95 129.659C125.212 129.232 125.633 128.925 126.121 128.808C126.271 128.744 126.437 128.724 126.598 128.75C126.759 128.776 126.909 128.847 127.032 128.954C127.092 129.04 127.135 129.138 127.156 129.241C127.178 129.343 127.179 129.45 127.159 129.553C127.024 130.102 126.743 130.605 126.347 131.01C126.161 131.243 125.935 131.495 125.635 131.489C125.336 131.482 125.116 131.203 124.97 130.95" fill="#FFBE9D"/>
<path d="M83.0788 68.3217L84.8284 67.6631L86.3386 70.3707L85.4937 73.2645L83.7108 73.7036L81.9346 71.4617L83.0788 68.3217Z" fill="#FF725E"/>
<path d="M83.7119 73.7037C83.7119 73.7037 85.9804 86.1506 87.8631 94.9054C87.8631 94.9054 89.4131 102.223 90.0385 103.873C90.737 105.756 92.8924 108.53 92.8924 108.53L95.0811 109.381L93.7506 97.0808L85.5015 73.2646L83.7119 73.7037Z" fill="#FF725E"/>
<g opacity="0.4">
<path d="M83.0788 68.3207L84.8284 67.6621L86.3386 70.3697L85.4937 73.2636L83.7108 73.7026L81.9346 71.4607L83.0788 68.3207Z" fill="black"/>
</g>
<g opacity="0.4">
<path d="M83.7119 73.7047C83.7119 73.7047 85.9804 86.1516 87.8631 94.9064C87.8631 94.9064 89.6393 102.131 90.0385 103.874C90.2713 104.905 92.8924 108.531 92.8924 108.531L95.0811 109.382L93.7506 97.0818L85.5015 73.2656L83.7119 73.7047Z" fill="black"/>
</g>
<path d="M72.5817 60.7578L83.0794 68.3218L80.8109 74.5619L71.2578 64.7294L72.5817 60.7578Z" fill="#F5F5F5"/>
<path d="M84.8291 67.6643L87.7562 61.1182L89.4194 66.52L87.1109 72.188L84.8291 67.6643Z" fill="#F5F5F5"/>
<path d="M83.1061 68.3224C83.0862 68.4864 83.046 68.6473 82.9864 68.8014L82.5606 70.1319C82.1881 71.2429 81.6426 72.7929 80.984 74.6423L80.8975 74.8951L80.7112 74.6955L78.2697 71.9946C76.3671 69.8858 74.6574 67.9632 73.44 66.5595L72.003 64.883C71.8152 64.6799 71.6501 64.4568 71.5107 64.2178C71.7266 64.3834 71.925 64.5706 72.1028 64.7766L73.6196 66.3732C74.8902 67.7037 76.6266 69.6329 78.5225 71.7418C79.3807 72.6998 80.199 73.6178 80.9574 74.4561L80.6846 74.5093C81.3499 72.6865 81.9486 71.1364 82.3744 70.0388L82.8866 68.7681C82.9381 68.6098 83.012 68.4597 83.1061 68.3224Z" fill="#263238"/>
<path d="M89.4191 66.5459C89.3076 67.0714 89.1426 67.5841 88.9268 68.076C88.5875 69.0007 88.0886 70.278 87.5165 71.675L87.2703 72.2804L87.0974 72.6995L86.951 72.2737C86.3722 70.7859 85.6713 69.3485 84.8555 67.9762C85.2053 68.2899 85.5019 68.6584 85.7336 69.0672C86.37 70.0329 86.8881 71.0715 87.277 72.1607H86.951C87.0308 71.9611 87.1173 71.7615 87.1972 71.5553C87.7693 70.1516 88.3015 68.8942 88.7006 67.9895C88.8832 67.482 89.1243 66.9975 89.4191 66.5459Z" fill="#263238"/>
<path d="M222.81 263.509L226.855 279.568L233.72 291.35C233.838 291.551 233.912 291.773 233.94 292.004C233.967 292.235 233.947 292.469 233.88 292.692C233.813 292.914 233.702 293.121 233.552 293.299C233.402 293.476 233.217 293.621 233.009 293.725C232.769 293.849 232.503 293.915 232.234 293.915C231.964 293.915 231.698 293.849 231.459 293.725C228.372 292.062 217.062 285.881 216.823 284.691C216.557 283.313 211.428 268.059 211.428 268.059L222.81 263.509Z" fill="#FF725E"/>
<g opacity="0.6">
<path d="M233.034 293.724L216.562 283.592L216.749 284.257C216.909 284.843 217.272 285.352 217.773 285.694C219.104 286.605 222.882 289.02 231.431 293.677C231.678 293.808 231.953 293.877 232.233 293.877C232.512 293.877 232.787 293.808 233.034 293.677V293.724Z" fill="white"/>
</g>
<g opacity="0.6">
<path d="M218.412 277.539C218.649 277.628 218.845 277.801 218.962 278.026C219.079 278.251 219.108 278.511 219.044 278.756C218.963 278.996 218.793 279.196 218.569 279.313C218.345 279.431 218.084 279.458 217.84 279.388C217.588 279.295 217.381 279.11 217.257 278.872C217.134 278.633 217.105 278.357 217.175 278.098C217.284 277.854 217.485 277.663 217.734 277.566C217.983 277.469 218.26 277.473 218.505 277.579" fill="white"/>
</g>
<path d="M227.466 287.757C227.709 287.152 228.066 286.599 228.517 286.127C229.04 285.737 229.631 285.446 230.26 285.269C230.26 285.229 230.027 285.163 229.641 285.209C229.136 285.294 228.664 285.519 228.28 285.859C227.897 286.199 227.617 286.64 227.472 287.132C227.373 287.518 227.413 287.757 227.466 287.757Z" fill="#263238"/>
<path d="M229.183 289.579C229.282 289.632 229.648 288.967 230.407 288.501C230.896 288.263 231.398 288.053 231.91 287.869C231.622 287.784 231.318 287.769 231.022 287.826C230.727 287.883 230.45 288.009 230.214 288.195C229.356 288.74 229.09 289.559 229.183 289.579Z" fill="#263238"/>
<path d="M224.586 285.601C225.595 284.234 226.983 283.194 228.577 282.607C227.697 282.676 226.854 282.994 226.147 283.525C225.44 284.055 224.899 284.775 224.586 285.601Z" fill="#263238"/>
<path d="M222.942 280.825C223.016 280.905 223.794 280.293 224.938 279.94C226.082 279.588 227.06 279.601 227.067 279.495C226.332 279.259 225.538 279.292 224.825 279.588C224.073 279.769 223.407 280.206 222.942 280.825Z" fill="#263238"/>
<path d="M221.639 276.142C222.27 275.721 222.957 275.392 223.681 275.164C224.429 275.041 225.19 275.021 225.943 275.104C225.943 275.064 225.73 274.918 225.278 274.805C224.716 274.67 224.13 274.67 223.568 274.805C223.006 274.937 222.484 275.202 222.045 275.577C221.739 275.869 221.606 276.102 221.639 276.142Z" fill="#263238"/>
<path d="M223.403 274.279C223.402 274.067 223.355 273.858 223.263 273.667C223.055 273.128 222.743 272.635 222.345 272.217C222.078 271.888 221.711 271.654 221.3 271.552C221.162 271.529 221.019 271.551 220.894 271.614C220.768 271.678 220.666 271.779 220.602 271.904C220.485 272.15 220.466 272.43 220.549 272.689C220.732 273.216 221.093 273.663 221.57 273.952C222.048 274.241 222.611 274.355 223.163 274.272C223.707 274.178 224.211 273.925 224.611 273.545C225.011 273.165 225.29 272.675 225.412 272.137C225.44 272.001 225.439 271.861 225.41 271.726C225.38 271.591 225.321 271.463 225.239 271.352C225.143 271.249 225.018 271.179 224.881 271.152C224.744 271.124 224.601 271.141 224.474 271.199C224.103 271.394 223.791 271.683 223.569 272.037C223.23 272.503 222.978 273.026 222.824 273.581C222.749 273.778 222.718 273.989 222.731 274.199C222.979 273.486 223.331 272.814 223.775 272.204C223.982 271.904 224.258 271.66 224.58 271.492C224.65 271.459 224.728 271.45 224.804 271.466C224.879 271.481 224.948 271.521 224.999 271.578C225.047 271.655 225.079 271.74 225.092 271.829C225.106 271.919 225.102 272.01 225.079 272.097C224.958 272.562 224.706 272.982 224.352 273.307C223.998 273.632 223.557 273.847 223.083 273.927C222.614 273.993 222.136 273.897 221.728 273.656C221.321 273.414 221.008 273.04 220.841 272.596C220.777 272.418 220.777 272.222 220.841 272.044C220.876 271.974 220.932 271.917 221.001 271.881C221.071 271.845 221.15 271.832 221.227 271.844C221.573 271.932 221.883 272.122 222.119 272.39C222.656 272.938 223.091 273.578 223.403 274.279Z" fill="#263238"/>
<path d="M172.669 266.502L173.527 278.882C173.527 278.882 161.234 283.911 161.167 286.2L185.229 285.415L184.69 266.069L172.669 266.502Z" fill="#FF725E"/>
<path d="M180.931 277.592C181.166 277.655 181.37 277.803 181.503 278.007C181.635 278.211 181.688 278.456 181.65 278.697C181.597 278.934 181.455 279.142 181.253 279.278C181.052 279.415 180.806 279.468 180.565 279.428C180.317 279.361 180.103 279.204 179.964 278.988C179.825 278.771 179.772 278.511 179.814 278.258C179.896 278.017 180.068 277.818 180.293 277.702C180.519 277.585 180.781 277.56 181.024 277.632" fill="#E0E0E0"/>
<path d="M185.23 285.415L185.103 283.466L162.079 284.963C162.079 284.963 161.021 285.468 161.167 286.22L185.23 285.415Z" fill="#E0E0E0"/>
<path d="M173.135 278.763C173.135 278.876 173.734 278.916 174.32 279.268C174.905 279.621 175.238 280.113 175.344 280.067C175.451 280.02 175.251 279.342 174.533 278.916C173.814 278.49 173.109 278.67 173.135 278.763Z" fill="#263238"/>
<path d="M170.647 279.9C170.647 280.019 171.14 280.199 171.552 280.685C171.965 281.17 172.104 281.689 172.217 281.682C172.331 281.676 172.39 281.017 171.858 280.412C171.326 279.806 170.647 279.793 170.647 279.9Z" fill="#263238"/>
<path d="M169.31 282.973C169.423 282.973 169.562 282.401 169.243 281.769C168.924 281.137 168.358 280.898 168.312 280.997C168.265 281.097 168.618 281.43 168.877 281.949C169.137 282.468 169.197 282.96 169.31 282.973Z" fill="#263238"/>
<path d="M173.255 275.936C173.308 276.036 173.84 275.856 174.505 275.883C175.171 275.91 175.696 276.096 175.749 275.996C175.802 275.896 175.297 275.49 174.512 275.47C173.727 275.451 173.188 275.843 173.255 275.936Z" fill="#263238"/>
<path d="M173.128 273.441C173.527 273.53 173.941 273.514 174.332 273.394C174.763 273.301 175.18 273.156 175.576 272.962C175.807 272.848 176.03 272.717 176.241 272.569C176.377 272.493 176.499 272.394 176.601 272.277C176.674 272.191 176.718 272.083 176.724 271.97C176.73 271.856 176.698 271.744 176.634 271.651C176.571 271.572 176.491 271.508 176.4 271.464C176.309 271.42 176.209 271.398 176.108 271.398C175.954 271.402 175.802 271.428 175.656 271.478C175.401 271.547 175.154 271.641 174.917 271.758C174.518 271.954 174.152 272.212 173.833 272.523C173.288 273.062 173.115 273.507 173.168 273.527C173.221 273.547 173.481 273.188 174.033 272.742C174.355 272.476 174.711 272.253 175.09 272.077C175.305 271.981 175.528 271.903 175.756 271.844C176.008 271.771 176.221 271.758 176.295 271.844C176.368 271.931 176.295 271.904 176.295 271.977C176.217 272.063 176.127 272.137 176.028 272.197C175.828 272.337 175.619 272.466 175.403 272.583C175.036 272.776 174.653 272.939 174.259 273.068C173.872 273.161 173.494 273.286 173.128 273.441Z" fill="#263238"/>
<path d="M173.282 273.593C173.328 273.593 173.548 273.181 173.561 272.422C173.568 271.971 173.499 271.521 173.355 271.092C173.27 270.841 173.159 270.6 173.022 270.374C172.952 270.217 172.843 270.081 172.706 269.979C172.569 269.876 172.407 269.811 172.237 269.788C172.13 269.794 172.027 269.83 171.94 269.893C171.853 269.955 171.785 270.041 171.745 270.141C171.686 270.283 171.648 270.433 171.632 270.586C171.591 270.855 171.591 271.129 171.632 271.398C171.714 271.848 171.906 272.271 172.191 272.629C172.683 273.234 173.175 273.36 173.182 273.294C173.189 273.227 172.803 273.021 172.424 272.429C172.203 272.092 172.06 271.71 172.004 271.312C171.971 271.08 171.971 270.845 172.004 270.613C172.004 270.36 172.124 270.147 172.217 270.174C172.31 270.201 172.55 270.354 172.656 270.553C172.78 270.766 172.887 270.989 172.976 271.218C173.124 271.602 173.216 272.006 173.248 272.416C173.328 273.134 173.222 273.58 173.282 273.593Z" fill="#263238"/>
<path d="M166.104 131.834L169.975 275.902L188.962 275.33L187.498 151.685L211.687 278.769L228.83 274.292L206.697 132.113L166.104 131.834Z" fill="#263238"/>
<path d="M176.508 276.101C176.408 276.101 176.335 246.238 176.335 209.403C176.335 172.567 176.408 142.704 176.508 142.704C176.608 142.704 176.681 172.561 176.681 209.403C176.681 246.244 176.601 276.101 176.508 276.101Z" fill="#455A64"/>
<path d="M217.103 278.722C217.009 278.722 212.579 250.116 207.203 214.784C201.828 179.453 197.531 150.794 197.644 150.78C197.757 150.767 202.168 179.386 207.543 214.731C212.918 250.076 217.202 278.709 217.103 278.722Z" fill="#455A64"/>
<path d="M193.306 41.7452C193.967 40.2648 194.503 38.7315 194.909 37.1616C195.135 35.9641 195.494 34.1746 195.015 33.0569C194.536 31.9393 193.372 30.8616 191.908 31.1676C191.757 29.992 191.307 28.8746 190.603 27.9212C189.899 26.9677 188.963 26.2098 187.884 25.7192C185.801 24.7117 183.541 24.124 181.231 23.9895C180.387 23.904 179.534 24.0109 178.736 24.3022C178.059 24.6456 177.526 25.2186 177.233 25.9187C176.535 25.4169 175.729 25.0852 174.88 24.95C174.031 24.8149 173.163 24.8801 172.343 25.1404C170.507 25.6327 168.418 26.6239 167.613 28.3403C167.037 29.6247 166.987 31.084 167.474 32.405C167.826 33.5226 169.01 35.2789 170.135 34.8664" fill="#263238"/>
<path d="M184.052 72.8194C182.951 72.7969 181.865 72.5532 180.86 72.1028C179.855 71.6525 178.951 71.0047 178.201 70.1979C177.452 69.3911 176.872 68.4418 176.496 67.4065C176.121 66.3711 175.957 65.2709 176.016 64.1711C176.129 61.8759 176.235 60.0199 176.235 60.0199C176.235 60.0199 169.968 59.2083 169.736 52.9682C169.503 46.7281 170.228 32.3852 170.228 32.3852C173.739 30.7773 177.616 30.1361 181.458 30.5279C185.3 30.9197 188.967 32.3303 192.081 34.6138L193.019 35.279L192.441 64.7565C192.42 65.8369 192.186 66.9027 191.753 67.8928C191.321 68.8829 190.697 69.778 189.918 70.5268C189.138 71.2757 188.219 71.8636 187.213 72.257C186.206 72.6503 185.132 72.8415 184.052 72.8194Z" fill="#FFBE9D"/>
<path d="M176.242 59.9541C179.124 59.9346 181.935 59.0594 184.318 57.4395C184.318 57.4395 182.395 62.2759 176.155 61.8701L176.242 59.9541Z" fill="#EB996E"/>
<path d="M192.414 41.7651C192.52 41.7185 196.672 40.388 196.638 44.659C196.605 48.9299 192.334 48.0185 192.327 47.8921C192.321 47.7657 192.414 41.7651 192.414 41.7651Z" fill="#FFBE9D"/>
<path d="M193.638 46.2829C193.638 46.2829 193.718 46.3361 193.838 46.3959C193.926 46.4333 194.021 46.4525 194.117 46.4525C194.213 46.4525 194.308 46.4333 194.397 46.3959C194.674 46.2242 194.901 45.9812 195.053 45.6922C195.205 45.4033 195.277 45.0789 195.261 44.7528C195.275 44.3869 195.204 44.0227 195.055 43.6884C195.017 43.555 194.947 43.4331 194.851 43.3333C194.754 43.2335 194.635 43.159 194.503 43.1162C194.418 43.092 194.327 43.0988 194.247 43.1354C194.166 43.1719 194.102 43.2359 194.064 43.3158C194.004 43.4356 194.031 43.5154 194.011 43.522C193.991 43.5287 193.918 43.4555 193.951 43.2759C193.977 43.1703 194.038 43.0766 194.124 43.0098C194.243 42.9244 194.39 42.8864 194.536 42.9034C194.71 42.9409 194.872 43.0214 195.007 43.1376C195.142 43.2539 195.245 43.402 195.308 43.5686C195.489 43.9385 195.574 44.3481 195.554 44.7594C195.572 45.1395 195.477 45.5163 195.282 45.8429C195.087 46.1694 194.8 46.4312 194.456 46.5955C194.343 46.6241 194.226 46.6282 194.111 46.6076C193.996 46.5869 193.887 46.542 193.791 46.4758C193.645 46.3893 193.625 46.2962 193.638 46.2829Z" fill="#EB996E"/>
<path d="M171.844 42.1452C171.849 42.3776 171.944 42.599 172.109 42.7628C172.274 42.9266 172.496 43.02 172.729 43.0233C172.842 43.0296 172.956 43.0131 173.063 42.9748C173.17 42.9365 173.268 42.8771 173.351 42.8002C173.435 42.7234 173.503 42.6305 173.55 42.5272C173.597 42.4238 173.623 42.312 173.627 42.1984C173.623 41.9655 173.529 41.7431 173.363 41.579C173.198 41.4149 172.975 41.322 172.742 41.3203C172.629 41.3149 172.515 41.3321 172.409 41.3707C172.302 41.4094 172.204 41.4688 172.121 41.5455C172.037 41.6222 171.97 41.7147 171.922 41.8176C171.875 41.9206 171.848 42.0319 171.844 42.1452Z" fill="#263238"/>
<path d="M171.625 41.1471C171.738 41.2602 172.403 40.748 173.361 40.728C174.319 40.7081 175.038 41.1671 175.137 41.0473C175.237 40.9276 175.071 40.7879 174.758 40.5684C174.336 40.2926 173.839 40.1532 173.335 40.1692C172.835 40.1802 172.353 40.3503 171.957 40.6548C171.665 40.8877 171.585 41.1006 171.625 41.1471Z" fill="#263238"/>
<path d="M181.238 42.1382C181.245 42.3694 181.341 42.5892 181.506 42.7515C181.671 42.9139 181.892 43.0063 182.123 43.0097C182.237 43.0169 182.351 43.001 182.458 42.963C182.566 42.9251 182.664 42.8658 182.748 42.7887C182.832 42.7117 182.899 42.6184 182.946 42.5146C182.993 42.4108 183.019 42.2986 183.021 42.1848C183.018 41.9529 182.924 41.7316 182.76 41.5676C182.596 41.4037 182.375 41.31 182.143 41.3066C182.029 41.3013 181.915 41.3186 181.807 41.3576C181.7 41.3966 181.601 41.4564 181.517 41.5338C181.433 41.6111 181.365 41.7043 181.317 41.8081C181.269 41.9118 181.243 42.024 181.238 42.1382Z" fill="#263238"/>
<path d="M181.051 41.0932C181.171 41.2063 181.83 40.6874 182.788 40.6675C183.746 40.6475 184.464 41.1066 184.564 40.9868C184.664 40.8671 184.497 40.7274 184.185 40.5145C183.764 40.2343 183.266 40.0925 182.761 40.1087C182.262 40.1196 181.779 40.2898 181.384 40.5943C181.091 40.8271 180.998 41.04 181.051 41.0932Z" fill="#263238"/>
<path d="M177.752 48.285C177.243 48.1414 176.718 48.061 176.189 48.0455C175.943 48.0455 175.71 47.9856 175.664 47.8193C175.642 47.5664 175.692 47.3125 175.81 47.0875C176.029 46.4888 176.256 45.8635 176.475 45.2049C177.413 42.5438 178.085 40.3285 177.979 40.2886C177.872 40.2487 177.021 42.3975 176.083 45.0718L175.417 46.9678C175.27 47.2668 175.232 47.6084 175.311 47.9324C175.352 48.0156 175.41 48.0894 175.481 48.149C175.552 48.2085 175.634 48.2526 175.723 48.2784C175.861 48.3115 176.001 48.3271 176.143 48.3249C176.679 48.3851 177.22 48.3717 177.752 48.285Z" fill="#263238"/>
<path d="M180.593 48.8823C180.433 48.8823 180.46 49.9135 179.589 50.6785C178.717 51.4436 177.593 51.3438 177.593 51.4968C177.593 51.6498 177.846 51.6897 178.318 51.6897C178.927 51.6842 179.514 51.4626 179.974 51.0644C180.419 50.6833 180.698 50.1441 180.753 49.5609C180.786 49.1285 180.666 48.869 180.593 48.8823Z" fill="#263238"/>
<path d="M180.713 37.3409C180.812 37.6003 181.77 37.454 182.895 37.5604C184.019 37.6669 184.944 37.9463 185.083 37.7134C185.15 37.6003 184.983 37.3542 184.611 37.1147C184.118 36.8117 183.559 36.6314 182.981 36.5892C182.402 36.5336 181.819 36.6156 181.278 36.8287C180.899 37.0083 180.673 37.2145 180.713 37.3409Z" fill="#263238"/>
<path d="M171.911 38.3655C172.084 38.5784 172.736 38.3655 173.534 38.3056C174.333 38.2458 175.005 38.4121 175.151 38.1859C175.218 38.0728 175.104 37.8533 174.805 37.6537C174.404 37.4181 173.942 37.3069 173.478 37.3341C173.014 37.3614 172.568 37.5258 172.197 37.8067C171.918 38.0329 171.831 38.2591 171.911 38.3655Z" fill="#263238"/>
<path d="M193.352 35.7708C193.312 37.5936 193.771 39.6093 193.492 41.3989C193.452 41.6716 192.773 42.41 192.713 42.6761C192.387 44.2661 191.749 44.958 190.771 43.3414C190.392 42.7227 190.106 40.9864 189.959 40.2812L188.682 34.5534C187.236 35.3501 185.616 35.7774 183.965 35.7974C183.141 35.7955 182.332 35.5838 181.612 35.1823C180.893 34.7807 180.288 34.2025 179.854 33.5023C179.48 34.1607 178.963 34.7263 178.34 35.1571C177.717 35.5878 177.005 35.8726 176.257 35.9902C175.509 36.1079 174.744 36.0553 174.02 35.8365C173.295 35.6177 172.628 35.2382 172.071 34.7263C171.778 35.1636 171.331 35.4747 170.82 35.5979C170.309 35.7212 169.769 35.6475 169.31 35.3916C168.864 35.1099 168.519 34.6942 168.324 34.2042C168.129 33.7141 168.095 33.1749 168.225 32.6641C168.618 31.134 170.221 30.2691 171.731 29.7835C177.619 27.8875 184.218 29.1182 189.627 32.0853C190.433 32.4959 191.173 33.0251 191.822 33.6553C192.447 34.3205 193.312 35.0656 193.359 35.9704" fill="#263238"/>
<path d="M188.881 35.2798C189.209 35.2786 189.535 35.3303 189.846 35.4328C190.172 35.5738 190.473 35.7671 190.738 36.0049C191.044 36.271 191.343 36.6169 191.709 36.9562C192.049 37.2996 192.463 37.5612 192.92 37.7213C193.307 37.8311 193.717 37.8311 194.104 37.7213C194.769 37.535 195.022 37.1758 194.995 37.1492C194.689 37.2789 194.373 37.3857 194.051 37.4685C193.707 37.5269 193.355 37.4971 193.026 37.382C192.623 37.2265 192.257 36.986 191.955 36.6768C191.609 36.3508 191.29 36.0116 190.957 35.7322C190.654 35.4823 190.307 35.2926 189.933 35.1733C189.247 34.9871 188.835 35.2798 188.881 35.2798Z" fill="#455A64"/>
<path d="M189.594 37.1415C189.594 37.1947 189.913 37.1415 190.259 37.4409C190.463 37.6267 190.646 37.8342 190.805 38.0596C191.022 38.362 191.298 38.6176 191.616 38.8113C192.196 39.1715 192.883 39.3174 193.559 39.2238C194.071 39.1439 194.337 38.9577 194.317 38.9177C194.297 38.8778 194.004 38.9577 193.532 38.9643C192.925 38.9802 192.326 38.8183 191.809 38.4986C191.197 38.1593 190.891 37.5074 190.405 37.228C189.92 36.9486 189.547 37.0949 189.594 37.1415Z" fill="#455A64"/>
<path d="M173.142 25.0074C173.142 25.0074 172.936 24.9542 172.59 25.0607C172.102 25.2236 171.682 25.5413 171.392 25.9654C170.627 27.0365 170.447 28.9325 171.04 30.7752C171.563 32.3618 172.652 33.7 174.1 34.5339C174.528 34.7831 174.986 34.9775 175.463 35.1127C175.635 35.1783 175.818 35.2099 176.002 35.2058C175.402 34.9373 174.815 34.6375 174.246 34.3077C172.907 33.454 171.903 32.1638 171.405 30.6555C170.84 28.9192 170.973 27.103 171.618 26.1051C171.869 25.7075 172.229 25.391 172.656 25.1937C172.949 25.054 173.142 25.0407 173.142 25.0074Z" fill="#455A64"/>
<path d="M167.972 27.5949C167.901 27.9953 167.919 28.4064 168.025 28.799C168.408 30.7385 169.544 32.447 171.185 33.5489C171.507 33.7998 171.879 33.9769 172.276 34.0678C171.185 33.3016 170.225 32.3623 169.436 31.2871C168.192 29.4509 168.092 27.5749 167.972 27.5949Z" fill="#455A64"/>
<path d="M133.572 114.537L124.445 114.996C123.885 115.025 123.358 115.27 122.974 115.68C122.591 116.089 122.381 116.631 122.389 117.191C122.435 119.28 122.788 122.134 124.385 121.848L125.422 117.305L133 123.957C133.766 124.648 134.711 125.109 135.727 125.288L137.51 125.101L133.572 114.537Z" fill="#FFBE9D"/>
<path d="M177.219 65.6473L172.449 67.224L170.081 106.84V141.985L199.372 145.225L199.712 94.546L197.822 69.3262L193.345 63.9775L177.219 65.6473Z" fill="#E0E0E0"/>
<path d="M175.75 67.5433V63.7047L193.16 61.2832L192.461 70.1245L188.463 77.0564L181.924 77.4223L177.2 74.5085L175.75 67.5433Z" fill="#E0E0E0"/>
<path d="M177.313 67.0988C177.164 66.5257 177.13 65.9289 177.213 65.3426C177.183 64.7512 177.267 64.1597 177.459 63.5996C177.607 64.1728 177.641 64.7696 177.559 65.3559C177.588 65.9472 177.505 66.5388 177.313 67.0988Z" fill="#263238"/>
<path d="M181.664 66.7781C181.533 66.132 181.513 65.4684 181.604 64.8156C181.586 64.1559 181.686 63.4983 181.897 62.873C182.031 63.5301 182.049 64.2056 181.95 64.8688C181.968 65.5172 181.871 66.1636 181.664 66.7781Z" fill="#263238"/>
<path d="M185.875 66.3394C185.761 65.6523 185.761 64.951 185.875 64.2638C185.868 63.5674 185.979 62.8749 186.201 62.2148C186.311 62.9023 186.311 63.603 186.201 64.2904C186.203 64.9865 186.093 65.6784 185.875 66.3394Z" fill="#263238"/>
<path d="M189.919 65.6736C189.654 64.3771 189.716 63.0352 190.099 61.7686C190.187 62.4175 190.187 63.0754 190.099 63.7244C190.125 64.3792 190.065 65.0346 189.919 65.6736Z" fill="#263238"/>
<path d="M187.984 82.4189C187.938 82.6505 187.859 82.8745 187.751 83.0842C187.584 83.4967 187.325 84.0821 186.986 84.8006C186.32 86.2309 185.303 88.1801 184.065 90.2557C182.828 92.3312 181.597 94.154 180.659 95.4313C180.193 96.0966 179.808 96.5822 179.528 96.9282C179.395 97.1178 179.239 97.2899 179.062 97.4404C179.489 96.6993 179.955 95.982 180.46 95.2916C181.344 93.9611 182.535 92.1516 183.786 90.0827C185.036 88.0137 186.054 86.0912 186.786 84.6875C187.146 83.911 187.545 83.1538 187.984 82.4189Z" fill="#263238"/>
<path d="M193.259 63.3594L197.982 65.6345L207.11 67.8765C209.038 68.2117 210.763 69.2778 211.925 70.8527C213.088 72.4277 213.598 74.3902 213.35 76.3319L208.566 113.586L214.274 149.71L191.656 149.044L190.325 135.606V98.3518L193.259 63.3594Z" fill="#455A64"/>
<path d="M190.325 106.934C190.336 106.777 190.358 106.621 190.392 106.468C190.458 106.135 190.545 105.703 190.651 105.138L191.656 100.334L195.108 84.5213C195.488 82.8249 195.853 81.195 196.206 79.5851L196.253 79.7448L194.683 78.1016L194.596 78.0084L194.663 77.902L197.29 73.5313V73.6577L194.39 66.6326C194.064 65.8143 193.798 65.1557 193.605 64.6368C193.502 64.409 193.417 64.1732 193.352 63.9316C193.486 64.1414 193.597 64.3643 193.685 64.5969L194.55 66.5328L197.53 73.5645L197.563 73.6311L197.523 73.6976C196.718 75.0281 195.847 76.5249 194.922 78.0949V77.8953L196.492 79.5252L196.559 79.5917V79.6782C196.206 81.2682 195.84 82.918 195.468 84.6144C194.084 90.768 192.807 96.3362 191.915 100.408C191.456 102.403 191.077 104.02 190.804 105.191L190.485 106.481C190.447 106.637 190.394 106.789 190.325 106.934Z" fill="#263238"/>
<path d="M133.958 113.034L153.969 101.878L163.662 75.7264C164.333 73.9199 165.369 72.2708 166.704 70.8815C168.04 69.4921 169.647 68.3923 171.425 67.6502L174 66.5791V135.426L174.512 151.738L163.668 148.492L169.203 115.708L167.287 99.5758L165.391 107.379C165.058 108.764 164.448 110.067 163.599 111.21C162.749 112.353 161.678 113.313 160.448 114.032L139.653 124.836L133.958 113.034Z" fill="#455A64"/>
<path d="M134.198 113.54L132.515 114.046L137.251 125.342L139.46 124.483L134.198 113.54Z" fill="#E0E0E0"/>
<path d="M157.615 106.521C157.203 105.628 156.702 104.779 156.119 103.987C155.446 103.27 154.704 102.621 153.903 102.051C154.872 102.385 155.73 102.979 156.384 103.767C157.039 104.555 157.465 105.508 157.615 106.521Z" fill="#263238"/>
<path d="M136.361 113.18C136.361 113.227 136.261 113.313 136.247 113.506C136.234 113.699 136.361 113.925 136.627 113.845C136.677 113.834 136.723 113.809 136.76 113.773C136.798 113.737 136.824 113.692 136.838 113.642C136.852 113.593 136.852 113.54 136.838 113.49C136.824 113.441 136.797 113.395 136.76 113.36C136.647 113.2 136.5 113.193 136.494 113.14C136.487 113.087 136.68 112.994 136.933 113.18C137.005 113.238 137.064 113.312 137.103 113.396C137.142 113.481 137.161 113.573 137.159 113.666C137.148 113.785 137.101 113.898 137.023 113.99C136.946 114.082 136.842 114.147 136.726 114.178C136.626 114.213 136.517 114.219 136.413 114.195C136.309 114.171 136.214 114.118 136.138 114.042C136.063 113.966 136.011 113.871 135.988 113.766C135.965 113.662 135.972 113.553 136.008 113.453C136.121 113.154 136.327 113.114 136.361 113.18Z" fill="#263238"/>
<path d="M137.969 112.502C137.969 112.549 137.87 112.635 137.863 112.828C137.856 113.021 137.976 113.247 138.242 113.167C138.292 113.154 138.338 113.129 138.375 113.092C138.412 113.056 138.439 113.01 138.452 112.96C138.466 112.91 138.466 112.857 138.452 112.807C138.439 112.757 138.412 112.711 138.375 112.675C138.262 112.522 138.116 112.509 138.102 112.462C138.089 112.416 138.289 112.309 138.548 112.502C138.621 112.558 138.679 112.631 138.718 112.714C138.758 112.798 138.777 112.889 138.774 112.981C138.761 113.101 138.713 113.215 138.636 113.308C138.558 113.401 138.455 113.468 138.339 113.503C138.223 113.537 138.099 113.536 137.984 113.5C137.868 113.464 137.766 113.394 137.69 113.3C137.639 113.223 137.606 113.134 137.595 113.042C137.583 112.95 137.593 112.856 137.623 112.768C137.737 112.449 137.969 112.449 137.969 112.502Z" fill="#263238"/>
<path d="M174 107.991C173.955 107.856 173.926 107.715 173.914 107.572C173.867 107.253 173.8 106.847 173.727 106.342C173.574 105.231 173.368 103.681 173.115 101.825C172.623 97.9661 171.958 92.7039 171.219 86.8962C171.12 86.0713 171.02 85.2597 170.92 84.4548V84.4148V84.3749C171.426 83.091 171.918 81.847 172.383 80.6562V80.7825C171.878 79.6317 171.392 78.5273 170.94 77.4563V77.4097V77.3565C171.831 74.1566 172.576 71.4623 173.109 69.5198C173.375 68.6017 173.588 67.8699 173.741 67.3244C173.806 67.0607 173.893 66.8026 174 66.5527C173.965 66.8205 173.909 67.0852 173.834 67.3444C173.701 67.8966 173.514 68.6416 173.282 69.5663C172.776 71.5155 172.071 74.2231 171.239 77.4363V77.3365L172.709 80.6229V80.6828V80.7493L171.253 84.508V84.4215C171.352 85.2198 171.452 86.0381 171.559 86.863C172.224 92.6773 172.889 97.9395 173.348 101.798C173.561 103.681 173.734 105.217 173.854 106.335L173.973 107.566C173.999 107.706 174.008 107.849 174 107.991Z" fill="#263238"/>
<path d="M169.183 115.902C169.151 115.796 169.128 115.687 169.117 115.576C169.084 115.323 169.037 115.011 168.984 114.638C168.877 113.767 168.738 112.596 168.558 111.172C168.205 108.245 167.707 104.207 167.108 99.7496C166.509 95.2924 165.924 91.261 165.498 88.3472C165.292 86.9302 165.119 85.7593 164.992 84.8945C164.946 84.5153 164.906 84.2292 164.873 83.9498C164.855 83.8396 164.855 83.7274 164.873 83.6172C164.912 83.7204 164.941 83.8274 164.959 83.9365C165.012 84.1893 165.072 84.4953 165.145 84.8679C165.298 85.6795 165.511 86.8636 165.757 88.3072C166.25 91.2144 166.875 95.2392 167.474 99.7031C168.072 104.167 168.531 108.212 168.804 111.145C168.951 112.609 169.057 113.806 169.124 114.618C169.124 114.997 169.17 115.283 169.183 115.569C169.201 115.68 169.201 115.792 169.183 115.902Z" fill="#263238"/>
<path d="M166.423 140.39C166.551 140.596 166.705 140.784 166.882 140.949C167.135 141.153 167.432 141.296 167.749 141.368C168.066 141.439 168.395 141.437 168.711 141.361C169.174 141.216 169.595 140.964 169.942 140.625C170.289 140.287 170.551 139.871 170.707 139.412C171.073 138.254 171.261 137.048 171.266 135.833C171.41 134.63 171.285 133.41 170.9 132.261C170.475 131.371 169.854 130.588 169.084 129.972C168.563 129.527 168.099 129.02 167.7 128.462C167.545 128.267 167.434 128.04 167.374 127.797C167.374 127.797 167.514 128.023 167.807 128.396C168.241 128.911 168.725 129.383 169.25 129.806C170.077 130.422 170.743 131.227 171.193 132.154C171.619 133.342 171.763 134.613 171.612 135.866C171.606 137.117 171.402 138.359 171.007 139.545C170.826 140.04 170.531 140.486 170.144 140.844C169.758 141.203 169.292 141.464 168.785 141.608C168.433 141.689 168.066 141.683 167.718 141.587C167.369 141.492 167.05 141.312 166.789 141.062C166.654 140.927 166.543 140.77 166.463 140.596C166.423 140.443 166.41 140.39 166.423 140.39Z" fill="#263238"/>
<path d="M158.985 114.538C158.985 114.538 159.651 106.907 165.691 106.202C165.691 106.202 165.804 112.449 158.985 114.538Z" fill="#263238"/>
<path d="M191.37 143.11L208.966 154.619L210.962 153.029L211.9 127.237L195.142 114.537L192.84 115.329L191.37 143.11Z" fill="#FF725E"/>
<path d="M194.949 114.903L195.634 142.817H191.936L193.173 115.455L194.949 114.903Z" fill="#E0E0E0"/>
<path d="M200.484 149.23C200.648 149.624 200.925 149.961 201.281 150.198C201.636 150.434 202.053 150.561 202.48 150.561C202.512 150.57 202.542 150.586 202.567 150.607C202.592 150.629 202.613 150.657 202.626 150.687C202.791 150.989 203.032 151.244 203.324 151.426C203.617 151.608 203.952 151.711 204.296 151.725C204.964 151.724 205.619 151.535 206.185 151.179C207.103 150.621 208.74 146.948 208.74 146.948L212.618 138.3L206.099 136.537L197.81 139.118C197.81 139.271 195.867 147.101 195.867 147.101C196.339 147.213 196.836 147.15 197.265 146.922C197.693 146.694 198.024 146.318 198.196 145.864C198.617 144.916 199.106 144 199.659 143.123L200.278 146.656L197.916 147.461C197.84 147.832 197.9 148.218 198.086 148.548C198.272 148.878 198.57 149.13 198.927 149.257L200.484 149.23Z" fill="#FFBE9D"/>
<path d="M203.41 88.5393L214.274 108.537L205.433 134.781L215.258 140.323L227.759 111.118C228.215 110.047 228.442 108.892 228.424 107.727C228.405 106.563 228.142 105.415 227.652 104.359L212.351 71.4355L203.41 88.5393Z" fill="#455A64"/>
<path d="M205.433 134.78L204.515 136.816L213.788 141.819L214.76 140.036L205.433 134.78Z" fill="#E0E0E0"/>
<path d="M205.433 134.78C205.433 134.78 205.433 134.734 205.433 134.647C205.433 134.561 205.5 134.421 205.546 134.261L206.019 132.778C206.451 131.447 207.063 129.591 207.821 127.263C209.391 122.553 211.58 115.994 214.082 108.483V108.622C212.818 106.474 211.514 104.205 210.203 101.863C207.808 97.5859 205.613 93.4613 203.73 89.6494C202.799 87.7401 201.934 85.9173 201.202 84.1677C200.483 82.5397 200.173 80.7607 200.297 78.9854C200.356 77.5256 200.683 76.089 201.262 74.7477C201.719 73.7416 202.373 72.8369 203.185 72.0867C203.694 71.6125 204.279 71.2259 204.914 70.9424C205.128 70.8403 205.351 70.758 205.58 70.6963C204.724 71.0485 203.939 71.5535 203.264 72.1865C202.48 72.9414 201.856 73.8463 201.428 74.8475C200.877 76.1718 200.571 77.585 200.524 79.0186C200.422 80.7537 200.739 82.4879 201.448 84.0746C202.193 85.8109 203.065 87.627 204.003 89.5297C205.892 93.3283 208.101 97.4395 210.496 101.71C211.826 104.052 213.097 106.321 214.354 108.469L214.394 108.536V108.609C211.84 116.107 209.618 122.653 208.014 127.349L206.178 132.818C205.952 133.437 205.779 133.922 205.653 134.281L205.506 134.661C205.485 134.702 205.461 134.742 205.433 134.78Z" fill="#263238"/>
<path d="M221.619 108.35C221.253 108.248 220.895 108.122 220.547 107.97C218.825 107.399 216.955 107.458 215.272 108.137C214.935 108.31 214.586 108.459 214.228 108.582C214.487 108.291 214.81 108.063 215.172 107.917C216.019 107.503 216.944 107.276 217.886 107.252C218.828 107.219 219.766 107.392 220.634 107.758C221.003 107.877 221.34 108.08 221.619 108.35Z" fill="#263238"/>
<path d="M201.235 83.7822L209.039 109.9L210.143 101.312L201.235 83.7822Z" fill="#263238"/>
<path d="M214.162 135.101C214.162 135.147 214.062 135.234 214.056 135.427C214.049 135.62 214.169 135.846 214.435 135.766C214.485 135.753 214.531 135.727 214.568 135.691C214.605 135.654 214.632 135.609 214.645 135.559C214.659 135.509 214.659 135.456 214.645 135.406C214.631 135.356 214.605 135.31 214.568 135.274C214.455 135.121 214.308 135.107 214.302 135.061C214.295 135.014 214.481 134.915 214.741 135.101C214.814 135.158 214.873 135.232 214.913 135.316C214.952 135.401 214.971 135.493 214.967 135.586C214.955 135.706 214.906 135.82 214.828 135.911C214.749 136.003 214.645 136.068 214.528 136.099C214.41 136.142 214.282 136.146 214.162 136.11C214.042 136.074 213.937 136 213.863 135.899C213.812 135.823 213.779 135.735 213.767 135.644C213.756 135.553 213.766 135.46 213.796 135.374C213.896 135.068 214.162 135.068 214.162 135.101Z" fill="#263238"/>
<path d="M214.913 133.218C214.913 133.265 214.813 133.351 214.807 133.551C214.798 133.601 214.802 133.653 214.818 133.701C214.835 133.75 214.864 133.793 214.902 133.827C214.94 133.861 214.986 133.885 215.036 133.896C215.086 133.907 215.138 133.905 215.187 133.89C215.236 133.876 215.28 133.849 215.316 133.812C215.352 133.775 215.377 133.73 215.391 133.681C215.404 133.632 215.404 133.58 215.392 133.53C215.379 133.481 215.354 133.435 215.319 133.398C215.206 133.238 215.053 133.232 215.046 133.178C215.039 133.125 215.232 133.032 215.492 133.218C215.565 133.276 215.623 133.35 215.662 133.434C215.702 133.519 215.721 133.611 215.718 133.704C215.715 133.789 215.694 133.873 215.656 133.949C215.618 134.026 215.564 134.093 215.498 134.147C215.432 134.2 215.354 134.239 215.272 134.26C215.189 134.281 215.103 134.284 215.019 134.268C214.935 134.253 214.855 134.219 214.785 134.17C214.715 134.121 214.657 134.057 214.614 133.983C214.571 133.909 214.545 133.827 214.537 133.742C214.529 133.657 214.539 133.572 214.567 133.491C214.68 133.192 214.913 133.172 214.913 133.218Z" fill="#263238"/>
<path d="M225.59 99.9492C224.426 100.561 224.02 102.278 224.153 103.588C224.286 104.899 224.772 106.169 224.739 107.48C224.652 108.417 224.485 109.345 224.24 110.254C223.989 111.166 224.017 112.132 224.32 113.028C224.481 113.471 224.785 113.848 225.183 114.099C225.582 114.351 226.052 114.463 226.522 114.419L227.446 112.556C228.167 111.098 228.53 109.489 228.507 107.863C228.484 106.237 228.075 104.639 227.313 103.202L225.59 99.9492Z" fill="#263238"/>
<path d="M282.549 240.376C283.148 238.307 284.432 236.298 286.408 235.447C288.384 234.595 290.858 235.061 292.967 235.832C295.076 236.604 297.152 237.622 299.394 237.762C301.635 237.901 304.157 236.837 304.829 234.695C305.461 232.699 304.25 230.53 302.727 229.067C301.118 227.528 299.148 226.418 296.999 225.838C294.85 225.258 292.59 225.226 290.425 225.745C288.261 226.265 286.261 227.32 284.61 228.812C282.958 230.305 281.708 232.188 280.973 234.289" fill="#FF725E"/>
<g opacity="0.5">
<path d="M282.549 240.376C283.148 238.307 284.432 236.298 286.408 235.447C288.384 234.595 290.858 235.061 292.967 235.832C295.076 236.604 297.152 237.622 299.394 237.762C301.635 237.901 304.157 236.837 304.829 234.695C305.461 232.699 304.25 230.53 302.727 229.067C301.118 227.528 299.148 226.418 296.999 225.838C294.85 225.258 292.59 225.226 290.425 225.745C288.261 226.265 286.261 227.32 284.61 228.812C282.958 230.305 281.708 232.188 280.973 234.289" fill="black"/>
</g>
<path d="M264.8 249.378C261.514 246.258 261.68 240.823 263.317 236.592C264.953 232.361 268.532 229.121 272.53 226.985C276.434 224.932 280.753 223.791 285.162 223.648C289.571 223.505 293.954 224.364 297.983 226.16C296.011 226.244 294.09 226.81 292.387 227.809C290.685 228.807 289.253 230.208 288.217 231.888C286.421 234.882 286.015 238.541 284.532 241.668C282.854 245.23 279.875 248.014 276.208 249.448C272.54 250.882 268.463 250.857 264.814 249.378" fill="#FF725E"/>
<path d="M263.217 230.617C259.579 226.319 259.1 219.427 259.632 213.819C260.164 208.211 261.468 202.576 260.583 197.014C260.058 193.721 258.78 190.581 258.348 187.269C257.915 183.956 258.527 180.223 261.095 178.088C264.036 175.633 268.679 176.212 271.739 178.52C274.8 180.829 276.582 184.441 277.88 188.047C280.727 195.977 281.771 204.765 279.43 212.854C277.088 220.944 271.6 228.155 263.537 230.617" fill="#FF725E"/>
<path d="M261.475 265.862C261.46 265.698 261.46 265.533 261.475 265.369C261.475 265.043 261.475 264.564 261.475 263.946C261.521 262.715 261.641 260.932 261.914 258.743C262.239 256.181 262.706 253.638 263.311 251.126C264.068 248.043 265.238 245.075 266.79 242.305C268.349 239.539 270.259 236.985 272.471 234.708C274.274 232.851 276.27 231.192 278.425 229.758C279.337 229.126 280.215 228.654 280.973 228.208C281.732 227.762 282.423 227.47 282.969 227.197L284.3 226.651C284.446 226.578 284.6 226.52 284.759 226.479C284.618 226.565 284.471 226.641 284.319 226.705L283.036 227.303C282.49 227.589 281.825 227.969 281.04 228.355C280.255 228.74 279.43 229.299 278.532 229.931C273.792 233.17 269.859 237.453 267.036 242.451C263.71 248.306 262.778 254.459 262.113 258.77C261.814 260.952 261.661 262.728 261.574 263.952L261.495 265.369C261.499 265.534 261.493 265.698 261.475 265.862Z" fill="#263238"/>
<path d="M230.087 213.672C223.355 217.737 223.375 221.429 224.499 224.921C225.624 228.414 229.755 230.835 233.148 229.532C235.083 228.793 236.474 227.11 237.685 225.414C238.895 223.717 240.006 221.914 241.676 220.697C243.346 219.48 245.787 219.021 247.477 220.225" fill="#FF725E"/>
<g opacity="0.5">
<path d="M230.087 213.671C223.355 217.736 223.375 221.428 224.499 224.92C225.624 228.413 229.755 230.834 233.148 229.531C235.083 228.792 236.474 227.109 237.685 225.413C238.895 223.716 240.006 221.913 241.676 220.696C243.346 219.479 245.787 219.02 247.477 220.224" fill="black"/>
</g>
<path d="M225.045 218.123C226.808 215.695 231.152 214.99 233.899 216.201C236.647 217.412 238.656 219.827 240.459 222.228C242.262 224.63 244.011 227.164 246.506 228.841C249.001 230.517 252.493 231.116 254.968 229.433C255.762 228.842 256.427 228.095 256.922 227.239C257.418 226.382 257.733 225.433 257.849 224.45C258.065 222.486 257.93 220.499 257.45 218.582C256.857 215.762 255.886 212.808 253.624 211.019C251.11 209.023 247.637 208.923 244.397 209.023C240.712 209.143 236.966 209.415 233.507 210.693C230.048 211.97 226.515 214.737 225.045 218.117" fill="#FF725E"/>
<path d="M255.88 260.474C255.872 260.423 255.872 260.371 255.88 260.321V259.888C255.88 259.482 255.88 258.924 255.82 258.218C255.774 256.741 255.714 254.646 255.641 252.071C255.567 249.497 255.454 246.39 255.268 242.964C255.082 239.538 254.822 235.773 254.303 231.854C254.071 229.943 253.684 228.055 253.146 226.206C252.119 222.954 250.544 219.901 248.489 217.179C247.623 216.066 246.671 215.023 245.642 214.059C244.141 212.673 242.444 211.516 240.606 210.626C240.28 210.473 239.987 210.327 239.734 210.22L239.069 209.967L238.663 209.801L238.53 209.741L238.677 209.774L239.089 209.908L239.754 210.14C240.014 210.234 240.306 210.373 240.639 210.52C242.514 211.379 244.246 212.521 245.775 213.906C246.825 214.863 247.793 215.907 248.669 217.026C249.673 218.316 250.564 219.692 251.33 221.137C252.182 222.73 252.886 224.398 253.432 226.12C253.962 227.982 254.34 229.884 254.563 231.808C255.082 235.739 255.328 239.511 255.508 242.944C255.687 246.377 255.76 249.464 255.814 252.058C255.867 254.653 255.887 256.755 255.893 258.205C255.893 258.917 255.893 259.476 255.893 259.882C255.893 260.054 255.893 260.201 255.893 260.314C255.893 260.427 255.88 260.474 255.88 260.474Z" fill="#263238"/>
<path d="M258.301 263.514C257.979 262.57 257.732 261.602 257.562 260.62C257.096 257.938 256.993 255.206 257.256 252.497C257.668 248.487 258.527 244.535 259.818 240.715C261.201 236.378 263.077 231.748 264.681 226.745C265.469 224.326 266.115 221.862 266.617 219.367C267.06 217.04 267.377 214.691 267.568 212.329C267.876 208.323 267.947 204.302 267.781 200.288C267.668 196.862 267.481 194.088 267.368 192.172C267.315 191.227 267.269 190.489 267.242 189.963C267.242 189.724 267.242 189.537 267.242 189.391C267.233 189.325 267.233 189.258 267.242 189.191C267.249 189.256 267.249 189.32 267.242 189.384C267.242 189.531 267.242 189.724 267.302 189.963C267.348 190.482 267.408 191.22 267.488 192.165C267.634 194.074 267.854 196.822 267.994 200.281C268.189 204.303 268.14 208.333 267.847 212.349C267.659 214.721 267.344 217.082 266.903 219.421C266.411 221.942 265.764 224.43 264.967 226.871C263.357 231.868 261.474 236.498 260.084 240.809C258.785 244.608 257.909 248.539 257.469 252.53C257.189 255.222 257.258 257.939 257.676 260.613C257.842 261.558 257.995 262.29 258.128 262.775C258.181 263.008 258.228 263.194 258.261 263.334C258.282 263.392 258.295 263.452 258.301 263.514Z" fill="#263238"/>
<path d="M274.992 266.553H243.379L242.654 260.466H274.992V266.553Z" fill="#455A64"/>
<path d="M246.771 265.861L250.723 284.116H267.9L271.599 265.861H246.771Z" fill="#455A64"/>
<path d="M274.992 266.554C274.992 266.64 268.04 266.687 259.471 266.66C250.903 266.634 243.944 266.554 243.944 266.467C243.944 266.381 250.896 266.334 259.471 266.361C268.047 266.388 274.992 266.474 274.992 266.554Z" fill="#455A64"/>
<path d="M269.564 275.568C268.709 274.92 267.774 274.384 266.784 273.972C265.703 273.551 264.557 273.325 263.397 273.306C261.975 273.307 260.564 273.564 259.233 274.065C257.796 274.557 256.445 275.123 255.135 275.435C253.971 275.683 252.772 275.719 251.596 275.542C250.804 275.426 250.035 275.184 249.321 274.823C249.131 274.718 248.949 274.6 248.775 274.471C248.655 274.384 248.595 274.331 248.602 274.324C248.609 274.318 248.868 274.477 249.374 274.717C250.092 275.029 250.852 275.235 251.629 275.329C252.778 275.477 253.945 275.42 255.075 275.162C256.339 274.85 257.689 274.271 259.14 273.779C260.503 273.267 261.948 273.012 263.404 273.027C264.594 273.065 265.767 273.322 266.863 273.785C267.602 274.091 268.296 274.496 268.926 274.989C269.095 275.12 269.257 275.26 269.411 275.409C269.524 275.502 269.571 275.555 269.564 275.568Z" fill="#263238"/>
<path d="M269.325 276.765C268.501 276.139 267.608 275.61 266.664 275.188C265.627 274.768 264.522 274.542 263.404 274.523C262.028 274.529 260.664 274.774 259.372 275.248C257.982 275.714 256.678 276.253 255.427 276.579C254.322 276.898 253.17 277.026 252.021 276.958C251.246 276.912 250.487 276.708 249.793 276.359C249.607 276.263 249.429 276.152 249.261 276.027C249.147 275.94 249.088 275.887 249.094 275.88C249.101 275.874 249.36 276.033 249.846 276.253C250.538 276.553 251.281 276.72 252.035 276.745C253.16 276.781 254.283 276.632 255.361 276.306C256.578 275.967 257.876 275.421 259.286 274.976C260.609 274.491 262.008 274.248 263.417 274.257C264.564 274.294 265.694 274.551 266.743 275.015C267.457 275.325 268.128 275.725 268.739 276.206C268.952 276.379 269.105 276.519 269.205 276.619C269.305 276.719 269.331 276.765 269.325 276.765Z" fill="white"/>
<path d="M269.876 274.358C268.993 273.687 268.036 273.119 267.022 272.668C265.92 272.196 264.746 271.915 263.55 271.837C262.082 271.808 260.622 272.066 259.252 272.595C257.868 273.138 256.453 273.6 255.015 273.979C253.804 274.185 252.567 274.185 251.356 273.979C250.54 273.85 249.748 273.599 249.007 273.234C248.807 273.132 248.616 273.014 248.435 272.881C248.315 272.788 248.256 272.735 248.262 272.728C248.269 272.721 248.535 272.894 249.061 273.127C249.803 273.453 250.586 273.677 251.389 273.792C252.575 273.968 253.782 273.945 254.961 273.726C256.384 273.335 257.785 272.868 259.159 272.329C260.564 271.784 262.064 271.529 263.57 271.577C265.625 271.744 267.587 272.505 269.218 273.766C269.394 273.903 269.563 274.049 269.723 274.205C269.83 274.291 269.89 274.351 269.876 274.358Z" fill="white"/>
<path d="M275.272 266.58C275.272 266.666 268.16 266.733 259.392 266.733C250.624 266.733 243.506 266.666 243.506 266.58C243.506 266.493 250.617 266.434 259.392 266.434C268.167 266.434 275.272 266.5 275.272 266.58Z" fill="#263238"/>
<path d="M33.6843 259.636C34.8219 261.259 37.0106 260.72 38.0617 259.729C39.1128 258.738 39.5186 257.308 39.9111 255.937C40.8092 252.804 41.7206 249.517 41.0487 246.331C40.8881 245.366 40.4646 244.463 39.8246 243.723C39.5025 243.36 39.0912 243.088 38.6315 242.933C38.1718 242.777 37.6796 242.745 37.2035 242.838C36.0859 243.131 35.394 244.222 34.895 245.26C33.4214 248.327 32.6488 251.683 32.6332 255.086C32.5262 256.673 32.8994 258.257 33.7042 259.629" fill="#FF725E"/>
<g opacity="0.2">
<path d="M33.6843 259.636C34.8219 261.259 37.0106 260.72 38.0617 259.729C39.1128 258.738 39.5186 257.308 39.9111 255.937C40.8092 252.804 41.7206 249.517 41.0487 246.331C40.8881 245.366 40.4646 244.463 39.8246 243.723C39.5025 243.36 39.0912 243.088 38.6315 242.933C38.1718 242.777 37.6796 242.745 37.2035 242.838C36.0859 243.131 35.394 244.222 34.895 245.26C33.4214 248.327 32.6488 251.683 32.6332 255.086C32.5262 256.673 32.8994 258.257 33.7042 259.629" fill="black"/>
</g>
<path d="M37.9484 267.857C39.8545 266.962 41.9977 266.703 44.0621 267.119C45.1888 267.214 46.2517 267.682 47.0824 268.449C47.8341 269.288 47.9805 270.751 47.0824 271.47C46.5235 271.846 45.8504 272.016 45.1797 271.949C43.5632 271.949 41.7736 271.649 40.483 272.614C39.7446 273.166 39.2523 274.091 38.3742 274.363C37.933 274.464 37.471 274.42 37.0573 274.236C36.6436 274.053 36.3004 273.74 36.0791 273.346C35.6637 272.534 35.5733 271.594 35.8263 270.718C35.9344 270.109 36.1823 269.534 36.5506 269.038C36.9188 268.541 37.3974 268.137 37.9484 267.857Z" fill="#FF725E"/>
<path d="M30.5511 261.963C31.136 261.201 31.5255 260.307 31.6855 259.36C31.8455 258.412 31.7713 257.44 31.4692 256.528C30.8463 254.708 29.7319 253.097 28.2493 251.871C26.5671 250.371 24.6077 249.214 22.4816 248.465C21.659 248.132 20.7736 247.982 19.8871 248.026C19.4435 248.054 19.0135 248.19 18.6343 248.421C18.2552 248.653 17.9385 248.974 17.7117 249.357C17.1063 250.514 17.7117 251.918 18.3171 253.062C19.4304 255.073 20.7006 256.992 22.1157 258.803C23.2533 260.267 24.5572 261.71 26.2868 262.376C28.0165 263.041 29.8127 262.961 30.7307 261.757" fill="#FF725E"/>
<path d="M33.6113 284.136C33.6681 283.894 33.7015 283.646 33.7111 283.398C33.7643 282.859 33.8309 282.18 33.9107 281.402C34.0085 280.41 34.1596 279.424 34.3631 278.448C34.6249 277.259 34.9831 276.093 35.4341 274.962C35.8699 273.826 36.4658 272.757 37.2037 271.789C37.8046 271.004 38.5727 270.363 39.4523 269.913C40.049 269.618 40.6891 269.42 41.3483 269.327C41.5971 269.314 41.8442 269.278 42.0867 269.221C41.8371 269.189 41.5845 269.189 41.3349 269.221C40.6444 269.271 39.9684 269.444 39.3392 269.733C38.4125 270.172 37.5997 270.818 36.9642 271.623C36.1938 272.599 35.5728 273.684 35.1215 274.842C34.6629 275.988 34.3067 277.173 34.0571 278.382C33.8647 279.37 33.7336 280.37 33.6646 281.375C33.598 282.227 33.5714 282.925 33.5648 283.371C33.5522 283.627 33.5678 283.883 33.6113 284.136Z" fill="#263238"/>
<path d="M33.7511 282.588C33.7596 282.472 33.7596 282.357 33.7511 282.242C33.7511 281.982 33.7511 281.663 33.7511 281.264C33.7511 280.412 33.7511 279.181 33.7977 277.665C33.8708 274.631 34.1303 270.433 34.6359 265.83C35.1415 261.226 35.82 257.075 36.4387 254.101C36.5784 253.35 36.7248 252.684 36.8645 252.106C37.0042 251.527 37.1106 251.008 37.2171 250.602L37.4433 249.651C37.4809 249.542 37.5012 249.427 37.5031 249.312C37.4549 249.414 37.417 249.521 37.39 249.631C37.3102 249.877 37.2171 250.19 37.104 250.569C36.9909 250.948 36.8445 251.48 36.6982 252.066C36.5518 252.651 36.3855 253.323 36.2258 254.061C35.3866 257.939 34.7559 261.858 34.3365 265.803C33.8309 270.42 33.6047 274.624 33.5781 277.671C33.5781 279.188 33.5781 280.425 33.6313 281.27C33.658 281.67 33.6779 281.996 33.6912 282.248C33.6964 282.364 33.7165 282.478 33.7511 282.588Z" fill="#263238"/>
<path d="M33.771 274.477C33.7942 274.136 33.7942 273.793 33.771 273.452C33.7311 272.787 33.638 271.842 33.4584 270.678C33.2291 269.316 32.9249 267.968 32.547 266.64C32.1005 265.009 31.5358 263.413 30.8572 261.864C29.6855 259.011 28.0038 256.396 25.8944 254.147C25.5308 253.76 25.1419 253.398 24.7302 253.062C24.5506 252.909 24.3909 252.756 24.2313 252.637L23.7789 252.33C23.5067 252.122 23.2174 251.938 22.9141 251.778C23.9088 252.556 24.8532 253.396 25.7414 254.293C27.7728 256.565 29.3996 259.168 30.5512 261.99C31.2217 263.528 31.7906 265.108 32.2542 266.72C32.6933 268.203 32.986 269.567 33.2122 270.711C33.4384 271.856 33.5448 272.8 33.618 273.452C33.6423 273.797 33.6935 274.14 33.771 274.477Z" fill="#263238"/>
<path d="M131.863 5.61373C131.976 5.60193 132.089 5.60193 132.202 5.61373H133.2C133.74 5.62384 134.278 5.67499 134.81 5.76674C135.129 5.81996 135.475 5.85322 135.835 5.9264L136.985 6.21246C138.953 6.72957 140.823 7.56555 142.52 8.68721C146.615 11.4102 149.511 15.5974 150.615 20.389C151.718 25.1807 150.945 30.213 148.454 34.4526C146.323 38.0626 143.078 40.8846 139.207 42.4955C137.169 43.3386 134.998 43.816 132.794 43.9058C130.527 44.0462 128.253 43.7642 126.089 43.0743L125.889 43.0077H126.042L114.832 46.8928L114.38 47.0525L114.52 46.5868L117.434 37.2732L117.48 37.4994C115.487 35.2692 114.042 32.604 113.261 29.7165C112.481 26.829 112.385 23.7989 112.983 20.868C113.48 18.4052 114.464 16.0665 115.877 13.9893C117.082 12.1974 118.582 10.6229 120.314 9.33251C121.696 8.26586 123.233 7.41569 124.871 6.81119C125.52 6.5426 126.187 6.32029 126.867 6.14594C127.434 5.98581 128.012 5.86576 128.597 5.7867C129.122 5.71352 129.588 5.63369 129.987 5.60043L131.011 5.56716H131.67C131.741 5.55574 131.812 5.55574 131.883 5.56716C131.813 5.58369 131.742 5.59481 131.67 5.60043L131.051 5.64699L130.04 5.72017C129.641 5.76674 129.182 5.85322 128.663 5.93971C128.087 6.03065 127.518 6.1618 126.96 6.33221C126.28 6.50544 125.613 6.72778 124.964 6.99746C124.216 7.30069 123.486 7.64492 122.776 8.02861C121.983 8.479 121.223 8.98358 120.5 9.53874C118.815 10.8222 117.354 12.3755 116.176 14.1357C114.801 16.1909 113.851 18.5002 113.382 20.9279C112.816 23.7908 112.924 26.7462 113.697 29.5601C114.471 32.374 115.889 34.9692 117.839 37.1402L117.933 37.24L117.893 37.3664C116.966 40.36 116.001 43.4645 114.999 46.6799L114.686 46.3806L125.882 42.5953H125.962H126.042L126.235 42.6551C128.344 43.3251 130.559 43.6002 132.768 43.4668C134.916 43.3796 137.032 42.9181 139.021 42.103C142.8 40.5363 145.972 37.7897 148.062 34.2729C150.497 30.1224 151.263 25.2013 150.204 20.507C149.146 15.8128 146.342 11.6967 142.361 8.99323C140.695 7.8734 138.863 7.02464 136.932 6.47856L135.801 6.17255C135.442 6.09272 135.103 6.0528 134.79 5.99293C134.264 5.88599 133.73 5.81927 133.193 5.79335L132.202 5.71352C132.087 5.68933 131.973 5.65596 131.863 5.61373Z" fill="#FF725E"/>
<path d="M120.593 26.0645L123.54 23.1108L129.228 28.1667L140.397 17.4229L143.132 20.3766L128.809 33.8547L120.593 26.0645Z" fill="#FF725E"/>
</svg>
