<svg width="44" height="36" viewBox="0 0 44 36" fill="none" xmlns="http://www.w3.org/2000/svg">
<ellipse cx="21.9945" cy="18" rx="21.9945" ry="18" fill="#D9D9D9"/>
<path d="M21.9944 18.4138C20.5912 18.4138 19.2194 18.0498 18.0526 17.3677C16.8859 16.6857 15.9765 15.7163 15.4395 14.5822C14.9025 13.448 14.762 12.2 15.0357 10.996C15.3095 9.79197 15.9852 8.68601 16.9775 7.81796C17.9697 6.94991 19.234 6.35876 20.6103 6.11927C21.9865 5.87977 23.4131 6.00269 24.7096 6.47247C26.006 6.94226 27.1141 7.73781 27.8937 8.75853C28.6733 9.77925 29.0894 10.9793 29.0894 12.2069C29.0894 13.8531 28.3419 15.4318 27.0113 16.5958C25.6808 17.7599 23.8761 18.4138 21.9944 18.4138ZM21.9944 8.48276C21.1525 8.48276 20.3294 8.70118 19.6294 9.11039C18.9293 9.51961 18.3837 10.1012 18.0615 10.7817C17.7393 11.4622 17.655 12.211 17.8192 12.9334C17.9835 13.6559 18.3889 14.3194 18.9843 14.8403C19.5796 15.3611 20.3381 15.7158 21.1639 15.8595C21.9897 16.0032 22.8456 15.9294 23.6235 15.6476C24.4014 15.3657 25.0662 14.8884 25.534 14.2759C26.0017 13.6635 26.2514 12.9435 26.2514 12.2069C26.2514 11.2192 25.8029 10.2719 25.0046 9.57354C24.2062 8.87512 23.1234 8.48276 21.9944 8.48276Z" fill="#3E4148"/>
<path d="M35.2386 29.9999C34.8638 29.9956 34.5057 29.8635 34.2406 29.6316C33.9756 29.3997 33.8245 29.0865 33.8196 28.7586C33.8196 25.531 31.8141 23.3792 21.9946 23.3792C12.1751 23.3792 10.1695 25.531 10.1695 28.7586C10.1695 29.0878 10.02 29.4035 9.75393 29.6363C9.48782 29.8691 9.12689 29.9999 8.75055 29.9999C8.3742 29.9999 8.01327 29.8691 7.74716 29.6363C7.48104 29.4035 7.33154 29.0878 7.33154 28.7586C7.33154 20.8965 17.6051 20.8965 21.9946 20.8965C26.384 20.8965 36.6576 20.8965 36.6576 28.7586C36.6527 29.0865 36.5016 29.3997 36.2366 29.6316C35.9715 29.8635 35.6134 29.9956 35.2386 29.9999Z" fill="#3E4148"/>
</svg>
