<svg width="488" height="474" viewBox="0 0 488 474" fill="none" xmlns="http://www.w3.org/2000/svg">
<path d="M244 473.252C378.757 473.252 488 410.181 488 332.378C488 254.576 378.757 191.504 244 191.504C109.243 191.504 0 254.576 0 332.378C0 410.181 109.243 473.252 244 473.252Z" fill="#F0F0F0"/>
<path d="M384.128 381.259C368.128 372.021 368.128 357.046 384.128 347.809C400.128 338.571 426.07 338.571 442.07 347.809C458.071 357.046 458.071 372.021 442.07 381.259C426.07 390.497 400.128 390.497 384.128 381.259Z" fill="#E0E0E0"/>
<path d="M58.6979 382.543L16.6107 358.248C14.2391 356.881 14.2391 354.654 16.6107 353.287L261.418 211.947C262.749 211.273 264.22 210.922 265.711 210.922C267.203 210.922 268.673 211.273 270.004 211.947L312.101 236.242C314.473 237.609 314.473 239.836 312.101 241.203L67.2934 382.543C65.9611 383.217 64.4889 383.569 62.9956 383.569C61.5024 383.569 60.0302 383.217 58.6979 382.543Z" fill="#E0E0E0"/>
<path d="M209.98 339.234L246.165 318.314C249.893 316.16 251.757 313.343 251.757 310.516C251.757 307.689 251.757 305.483 251.757 305.483L214.226 284.315C213.178 283.637 212.305 282.721 211.679 281.641C211.052 280.561 210.69 279.348 210.622 278.102V233.477L147.45 269.993V314.596C147.523 315.842 147.887 317.053 148.513 318.132C149.139 319.211 150.009 320.129 151.054 320.81L182.992 339.203C190.428 343.542 202.524 343.542 209.98 339.234Z" fill="#C53F3F"/>
<g opacity="0.6">
<path d="M209.98 339.234L246.165 318.314C249.893 316.16 251.757 313.343 251.757 310.516C251.757 307.689 251.757 305.483 251.757 305.483L214.226 284.315C213.178 283.637 212.305 282.721 211.679 281.641C211.052 280.561 210.69 279.348 210.622 278.102V233.477L147.45 269.993V314.596C147.523 315.842 147.887 317.053 148.513 318.132C149.139 319.211 150.009 320.129 151.054 320.81L182.992 339.203C190.428 343.542 202.524 343.542 209.98 339.234Z" fill="black"/>
</g>
<path opacity="0.3" d="M162.6 322.498V327.511L151.022 320.831C149.978 320.15 149.108 319.233 148.484 318.153C147.859 317.074 147.498 315.862 147.429 314.617V269.993L159.462 263.044C159.711 266.099 159.98 269.258 160.239 272.364L151.778 277.232V312.08C151.845 313.327 152.207 314.54 152.833 315.62C153.46 316.7 154.333 317.616 155.382 318.294L162.6 322.498Z" fill="black"/>
<path d="M151.778 312.09C151.849 313.336 152.213 314.548 152.839 315.627C153.465 316.707 154.336 317.624 155.382 318.304L182.95 334.19C190.407 338.488 202.502 338.498 209.969 334.19L246.216 313.271C253.682 308.963 253.682 301.983 246.216 297.675L218.627 281.788C217.583 281.106 216.715 280.189 216.09 279.109C215.466 278.03 215.104 276.819 215.033 275.575V240.716L151.861 277.232L151.778 312.09Z" fill="#C53F3F"/>
<path opacity="0.3" d="M151.778 312.09C151.849 313.336 152.213 314.548 152.839 315.627C153.465 316.707 154.336 317.624 155.382 318.304L182.95 334.19C190.407 338.488 202.502 338.498 209.969 334.19L246.216 313.271C253.682 308.963 253.682 301.983 246.216 297.675L218.627 281.788C217.583 281.106 216.715 280.189 216.09 279.109C215.466 278.03 215.104 276.819 215.033 275.575V240.716L151.861 277.232L151.778 312.09Z" fill="black"/>
<path opacity="0.5" d="M225.929 286.045L218.586 281.809C217.543 281.127 216.674 280.209 216.05 279.13C215.425 278.051 215.063 276.84 214.993 275.595V240.716L151.82 277.232V312.09C151.891 313.336 152.255 314.548 152.881 315.627C153.507 316.707 154.378 317.624 155.424 318.304L162.674 322.446L225.929 286.045Z" fill="black"/>
<path d="M251.767 305.494V310.527C251.767 313.354 249.893 316.16 246.175 318.325L209.928 339.234C205.962 341.351 201.532 342.451 197.035 342.434V337.422C201.532 337.438 205.962 336.339 209.928 334.221L246.175 313.292C249.893 311.148 251.767 308.321 251.767 305.494Z" fill="#C53F3F"/>
<path opacity="0.5" d="M251.767 305.494V310.527C251.767 313.354 249.893 316.16 246.175 318.325L209.928 339.234C205.962 341.351 201.532 342.451 197.035 342.434V337.422C201.532 337.438 205.962 336.339 209.928 334.221L246.175 313.292C249.893 311.148 251.767 308.321 251.767 305.494Z" fill="black"/>
<path d="M50.2889 355.41C51.6546 356.07 53.1561 356.399 54.6725 356.372C56.1889 356.345 57.6778 355.963 59.0191 355.255L303.423 214.153C304.733 213.298 305.824 212.147 306.607 210.792C307.39 209.437 307.842 207.917 307.928 206.355V8.6362C307.881 7.11631 307.476 5.62899 306.745 4.29543C306.015 2.96187 304.979 1.81981 303.723 0.962334C302.359 0.301983 300.859 -0.0271752 299.344 0.00161658C297.828 0.0304084 296.341 0.416338 295.003 1.12803L50.5996 142.271C49.2937 143.131 48.2096 144.288 47.4357 145.647C46.6618 147.006 46.22 148.528 46.1465 150.09V347.778C46.1927 349.285 46.5915 350.761 47.3108 352.086C48.0302 353.412 49.0502 354.55 50.2889 355.41Z" fill="#C53F3F"/>
<path d="M59.0498 355.244L303.454 214.142C304.766 213.29 305.858 212.139 306.641 210.783C307.424 209.428 307.875 207.907 307.959 206.344V8.63607C307.959 5.76743 305.939 4.59719 303.454 6.03669L59.0498 147.139C57.7388 147.993 56.6476 149.144 55.8648 150.499C55.0821 151.854 54.6299 153.374 54.5449 154.937V352.645C54.5449 355.514 56.5644 356.684 59.0498 355.244Z" fill="#C53F3F"/>
<path opacity="0.5" d="M59.0498 355.244L303.454 214.142C304.766 213.29 305.858 212.139 306.641 210.783C307.424 209.428 307.875 207.907 307.959 206.344V8.63607C307.959 5.76743 305.939 4.59719 303.454 6.03669L59.0498 147.139C57.7388 147.993 56.6476 149.144 55.8648 150.499C55.0821 151.854 54.6299 153.374 54.5449 154.937V352.645C54.5449 355.514 56.5644 356.684 59.0498 355.244Z" fill="black"/>
<path d="M58.3874 360.381C57.1058 360.94 55.7181 361.215 54.32 361.187C52.9219 361.158 51.5466 360.827 50.2889 360.215C49.0474 359.353 48.0257 358.211 47.3062 356.882C46.5867 355.553 46.1895 354.073 46.1465 352.562V334.563L54.5867 339.451V357.45C54.5349 360.07 56.2023 361.261 58.3874 360.381Z" fill="#C53F3F"/>
<path opacity="0.5" d="M58.3874 360.381C57.1058 360.94 55.7181 361.215 54.32 361.187C52.9219 361.158 51.5466 360.827 50.2889 360.215C49.0474 359.353 48.0257 358.211 47.3062 356.882C46.5867 355.553 46.1895 354.073 46.1465 352.562V334.563L54.5867 339.451V357.45C54.5349 360.07 56.2023 361.261 58.3874 360.381Z" fill="black"/>
<path d="M54.5352 339.451V357.45C54.5352 360.319 56.6064 361.479 59.0401 360.05L303.444 218.948C304.749 218.097 305.836 216.952 306.619 215.605C307.401 214.258 307.857 212.746 307.949 211.191V193.109L54.5352 339.451Z" fill="#C53F3F"/>
<path opacity="0.3" d="M54.5449 339.41V357.45C54.5449 360.319 56.6161 361.479 59.0498 360.05L303.454 218.948C304.757 218.096 305.842 216.951 306.623 215.603C307.403 214.256 307.857 212.745 307.948 211.191V193.109L54.5449 339.41Z" fill="black"/>
<path d="M62.9854 316.823V157.743C63.0336 156.806 63.3026 155.893 63.7705 155.08C64.2384 154.266 64.892 153.575 65.6779 153.062L296.764 19.6031C298.255 18.7436 299.467 19.4375 299.467 21.1566V180.319C299.417 181.257 299.146 182.17 298.676 182.984C298.206 183.797 297.551 184.488 296.764 185L65.6883 318.428C64.197 319.288 62.9854 318.584 62.9854 316.823Z" fill="#C53F3F"/>
<path d="M62.9854 316.823V157.743C63.0336 156.806 63.3026 155.893 63.7705 155.08C64.2384 154.266 64.892 153.575 65.6779 153.062L296.764 19.6031C298.255 18.7436 299.467 19.4375 299.467 21.1566V180.319C299.417 181.257 299.146 182.17 298.676 182.984C298.206 183.797 297.551 184.488 296.764 185L65.6883 318.428C64.197 319.288 62.9854 318.584 62.9854 316.823Z" fill="#263238"/>
<path d="M181.242 272.012C180.012 272.812 178.988 273.892 178.254 275.162C177.519 276.433 177.096 277.859 177.017 279.324C177.017 282.016 178.912 283.114 181.242 281.768C182.473 280.967 183.498 279.886 184.232 278.614C184.967 277.341 185.39 275.913 185.467 274.446C185.467 271.753 183.572 270.666 181.242 272.012Z" fill="#C53F3F"/>
<path opacity="0.7" d="M55.8709 150.484C55.0683 151.833 54.6095 153.358 54.5349 154.926V339.451L46.1465 334.563V150.09C46.2008 148.517 46.6572 146.984 47.4721 145.637L55.8709 150.484Z" fill="black"/>
<path opacity="0.3" d="M307.907 7.89051C307.586 5.57074 305.712 4.78368 303.444 6.03677L59.04 147.139C57.7149 147.967 56.6212 149.118 55.8607 150.484L47.4102 145.606C48.1757 144.241 49.2726 143.09 50.5998 142.261L295.004 1.16941C296.343 0.457613 297.832 0.0716652 299.349 0.0428759C300.866 0.0140867 302.368 0.343267 303.734 1.00371C304.882 1.78596 305.849 2.80562 306.569 3.99374C307.289 5.18186 307.745 6.51074 307.907 7.89051Z" fill="black"/>
<path d="M321.09 32.2275C320.727 32.0454 320.322 31.9655 319.917 31.9965C319.511 32.0275 319.123 32.1683 318.791 32.4036L88.1818 165.624C87.2719 166.226 86.5165 167.034 85.9767 167.982C85.437 168.93 85.1281 169.992 85.075 171.082V329.189C85.0427 329.722 85.1487 330.255 85.3827 330.736C85.6168 331.217 85.9709 331.629 86.411 331.933C86.9184 332.213 89.6317 333.787 90.4395 334.222C90.7253 334.367 91.0446 334.434 91.3648 334.416C91.685 334.398 91.9947 334.295 92.2621 334.118L322.82 200.897C323.73 200.295 324.485 199.488 325.025 198.539C325.565 197.591 325.874 196.529 325.927 195.44V36.515C325.973 36.1134 325.906 35.7068 325.735 35.341C325.563 34.9751 325.292 34.6644 324.953 34.4437C324.435 34.102 321.67 32.5693 321.09 32.2275Z" fill="#C53F3F"/>
<path d="M92.2103 167.861L322.83 34.6922C324.57 33.6565 325.937 34.5057 325.937 36.5148V195.439C325.884 196.529 325.575 197.591 325.035 198.539C324.496 199.487 323.74 200.295 322.83 200.897L92.2103 334.118C90.4705 335.154 89.1035 333.486 89.1035 331.477V173.319C89.1582 172.23 89.4678 171.168 90.0074 170.22C90.547 169.272 91.3016 168.464 92.2103 167.861Z" fill="#FAFAFA"/>
<path d="M324.239 35.2928C324.85 35.2928 324.943 36.0592 324.943 36.5148V195.439C324.887 196.352 324.619 197.239 324.161 198.03C323.703 198.821 323.066 199.494 322.302 199.996L91.7132 333.217C91.5585 333.317 91.3797 333.375 91.1954 333.383C90.6155 333.383 90.1598 332.492 90.1598 331.477V173.319C90.2098 172.407 90.4694 171.518 90.9184 170.723C91.3674 169.927 91.9938 169.245 92.7489 168.731L323.348 35.5828C323.615 35.4106 323.922 35.3107 324.239 35.2928ZM324.239 34.2572C323.74 34.2784 323.254 34.4283 322.83 34.6922L92.2103 167.861C91.3016 168.464 90.547 169.272 90.0074 170.22C89.4678 171.168 89.1582 172.23 89.1035 173.319V331.477C89.1035 333.072 89.9941 334.418 91.1747 334.418C91.5404 334.411 91.8977 334.308 92.2103 334.118L322.82 200.897C323.73 200.295 324.485 199.487 325.025 198.539C325.565 197.591 325.874 196.529 325.927 195.439V36.5148C325.927 35.0857 325.223 34.2572 324.187 34.2572H324.239Z" fill="#E0E0E0"/>
<path d="M86.3493 331.933C86.691 332.109 89.1454 333.507 90.2224 334.128C89.8357 333.808 89.5294 333.401 89.328 332.94C89.1266 332.48 89.0357 331.979 89.0626 331.477V183.644L85.0237 181.283V329.189C84.9902 329.721 85.0946 330.254 85.3268 330.734C85.559 331.215 85.9111 331.628 86.3493 331.933Z" fill="#F0F0F0"/>
<path d="M325.978 36.4839C325.978 34.4955 324.56 33.6877 322.872 34.6923L92.2103 167.861C91.3016 168.464 90.547 169.272 90.0074 170.22C89.4678 171.168 89.1582 172.23 89.1035 173.319V183.675L325.978 46.84V36.4839Z" fill="#C53F3F"/>
<g opacity="0.4">
<path d="M322.83 34.6922L92.2103 167.851C91.2848 168.435 90.5223 169.243 89.9941 170.202L85.9863 167.872C86.5136 166.947 87.2696 166.173 88.1818 165.624L318.791 32.4035C319.122 32.1665 319.51 32.0239 319.915 31.9911C320.32 31.9582 320.726 32.0364 321.09 32.2171C321.65 32.5692 324.27 34.0501 324.943 34.4125C324.595 34.2834 324.22 34.2414 323.852 34.2901C323.484 34.3389 323.133 34.4769 322.83 34.6922Z" fill="white"/>
</g>
<path opacity="0.15" d="M85.0234 181.293V171.03C85.066 169.912 85.3978 168.823 85.9866 167.872L90.0047 170.191C89.4244 171.127 89.0995 172.198 89.0623 173.298V183.654L85.0234 181.293Z" fill="black"/>
<path d="M277.347 155.703L139.227 235.445C138.556 235.881 137.996 236.469 137.595 237.162C137.194 237.855 136.962 238.633 136.918 239.432V279.034C136.962 279.833 137.194 280.611 137.595 281.304C137.996 281.997 138.556 282.585 139.227 283.021L143.256 285.341C143.972 285.703 144.763 285.892 145.565 285.892C146.368 285.892 147.159 285.703 147.875 285.341L285.973 205.599C286.645 205.161 287.204 204.57 287.606 203.876C288.007 203.181 288.239 202.402 288.283 201.601V161.989C288.239 161.19 288.007 160.412 287.605 159.719C287.204 159.026 286.645 158.438 285.973 158.002L281.934 155.682C281.222 155.326 280.435 155.142 279.638 155.146C278.841 155.15 278.056 155.34 277.347 155.703Z" fill="#C53F3F"/>
<path opacity="0.5" d="M288.283 161.637C288.117 160.446 287.154 160.011 285.994 160.684L147.875 240.426C147.194 240.85 146.634 241.442 146.249 242.146L137.602 237.154C137.989 236.461 138.545 235.877 139.217 235.455L277.347 155.714C278.061 155.351 278.85 155.161 279.651 155.161C280.452 155.161 281.241 155.351 281.955 155.714L285.994 158.033C286.61 158.437 287.132 158.967 287.527 159.588C287.922 160.21 288.179 160.908 288.283 161.637Z" fill="white"/>
<path d="M147.481 285.537C146.805 285.804 146.08 285.925 145.354 285.893C144.628 285.861 143.916 285.676 143.266 285.351L139.227 283.031C138.557 282.594 137.998 282.006 137.597 281.313C137.196 280.621 136.963 279.843 136.918 279.044V239.442C136.949 238.634 137.184 237.847 137.601 237.154L146.249 242.145C145.829 242.83 145.593 243.611 145.565 244.413V284.025C145.565 285.341 146.394 285.952 147.481 285.537Z" fill="#263238"/>
<path d="M147.875 240.426L285.994 160.684C287.268 159.949 288.303 160.539 288.303 162.01V201.622C288.259 202.423 288.027 203.202 287.626 203.897C287.225 204.591 286.666 205.181 285.994 205.619L147.895 285.361C146.622 286.097 145.586 285.496 145.586 284.025V244.424C145.628 243.625 145.856 242.847 146.254 242.152C146.651 241.458 147.207 240.867 147.875 240.426Z" fill="#C53F3F"/>
<path d="M240.727 176.85L139.238 235.455C138.565 235.877 138.01 236.461 137.622 237.154L146.269 242.146C146.654 241.442 147.214 240.85 147.895 240.426L249.385 181.832L240.727 176.85Z" fill="#455A64"/>
<path d="M249.365 181.832L147.875 240.426C147.203 240.864 146.644 241.455 146.243 242.149C145.841 242.844 145.609 243.623 145.565 244.424V284.015C145.565 285.486 146.601 286.086 147.875 285.351L249.365 226.756V181.832Z" fill="#37474F"/>
<path d="M171.28 235.6L223.651 205.371C225.815 204.118 227.576 205.009 227.576 207.359C227.479 208.68 227.072 209.959 226.388 211.092C225.705 212.226 224.763 213.182 223.64 213.884L171.28 244.123C169.116 245.377 167.345 244.486 167.345 242.135C167.442 240.814 167.849 239.534 168.533 238.398C169.217 237.263 170.158 236.305 171.28 235.6Z" fill="#C53F3F"/>
<path d="M182.008 245.615C182.018 245.604 182.03 245.595 182.043 245.589C182.057 245.583 182.071 245.58 182.086 245.58C182.1 245.58 182.115 245.583 182.128 245.589C182.142 245.595 182.154 245.604 182.163 245.615C182.21 245.685 182.232 245.769 182.226 245.853V251.746C182.226 252.315 182.178 252.883 182.081 253.444C181.995 253.956 181.849 254.457 181.646 254.935C181.46 255.373 181.216 255.784 180.921 256.157C180.629 256.503 180.279 256.794 179.885 257.017C179.577 257.218 179.217 257.326 178.849 257.328C178.709 257.316 178.572 257.277 178.447 257.211C178.323 257.145 178.213 257.054 178.125 256.944C177.897 256.64 177.748 256.284 177.69 255.909C177.591 255.408 177.545 254.897 177.555 254.386V248.483C177.555 248.38 177.576 248.278 177.617 248.183C177.642 248.098 177.698 248.024 177.772 247.976L178.425 247.593C178.446 247.573 178.474 247.562 178.503 247.562C178.531 247.562 178.559 247.573 178.58 247.593C178.628 247.662 178.65 247.747 178.642 247.831V253.651C178.634 253.971 178.666 254.291 178.736 254.604C178.764 254.804 178.851 254.991 178.984 255.142C179.031 255.198 179.09 255.242 179.156 255.271C179.223 255.299 179.295 255.312 179.367 255.308C179.544 255.296 179.716 255.239 179.864 255.142C180.049 255.032 180.216 254.896 180.361 254.738C180.523 254.552 180.656 254.343 180.755 254.117C180.872 253.851 180.959 253.574 181.014 253.289C181.074 252.947 181.102 252.6 181.097 252.253V246.423C181.1 246.319 181.125 246.216 181.169 246.122C181.195 246.037 181.25 245.963 181.325 245.915L182.008 245.615Z" fill="#FAFAFA"/>
<path d="M186.068 251.186C186.074 251.11 186.056 251.035 186.017 250.969C185.992 250.942 185.961 250.921 185.927 250.909C185.893 250.896 185.856 250.892 185.82 250.897C185.693 250.879 185.564 250.879 185.437 250.897L184.836 251.01C184.642 251.059 184.44 251.059 184.246 251.01C184.094 250.962 183.962 250.863 183.873 250.731C183.772 250.563 183.705 250.376 183.676 250.182C183.575 249.627 183.575 249.059 183.676 248.504C183.754 248.186 183.865 247.877 184.008 247.583C184.149 247.288 184.323 247.011 184.525 246.754C184.721 246.51 184.96 246.303 185.23 246.143C185.447 246.01 185.691 245.926 185.944 245.895C186.128 245.875 186.313 245.915 186.472 246.008C186.624 246.101 186.744 246.239 186.814 246.402C186.898 246.595 186.943 246.803 186.949 247.013C186.959 247.117 186.938 247.222 186.887 247.313C186.861 247.399 186.806 247.472 186.731 247.52L186.11 247.883C186.082 247.899 186.049 247.908 186.017 247.908C185.984 247.908 185.952 247.899 185.923 247.883L185.789 247.779C185.735 247.737 185.67 247.712 185.602 247.707C185.469 247.722 185.341 247.768 185.23 247.841C185.067 247.939 184.923 248.066 184.805 248.214C184.68 248.377 184.614 248.578 184.619 248.784C184.604 248.863 184.604 248.943 184.619 249.022C184.638 249.051 184.664 249.076 184.695 249.094C184.725 249.112 184.759 249.123 184.795 249.126C184.908 249.145 185.023 249.145 185.136 249.126L185.716 249.022C186.203 248.929 186.534 249.022 186.752 249.291C186.98 249.675 187.085 250.12 187.052 250.565C187.05 250.873 187.008 251.179 186.928 251.476C186.846 251.799 186.728 252.112 186.576 252.408C186.424 252.715 186.232 253.001 186.006 253.258C185.792 253.509 185.536 253.723 185.25 253.889C185.023 254.035 184.763 254.124 184.494 254.148C184.3 254.155 184.108 254.101 183.945 253.993C183.786 253.884 183.663 253.728 183.593 253.548C183.51 253.351 183.467 253.14 183.469 252.926C183.459 252.819 183.481 252.711 183.531 252.616C183.557 252.53 183.612 252.457 183.687 252.408L184.308 252.046C184.391 252.046 184.453 251.994 184.494 252.046L184.629 252.191C184.656 252.222 184.69 252.247 184.727 252.265C184.765 252.283 184.805 252.293 184.846 252.295C184.992 252.295 185.134 252.248 185.25 252.16C185.437 252.054 185.605 251.917 185.747 251.756C185.818 251.671 185.877 251.577 185.923 251.476C185.997 251.394 186.047 251.294 186.068 251.186Z" fill="#FAFAFA"/>
<path d="M188.181 248.38C188.179 247.842 188.224 247.305 188.316 246.775C188.402 246.276 188.537 245.787 188.72 245.314C188.872 244.891 189.081 244.491 189.341 244.124C189.558 243.808 189.841 243.543 190.169 243.347C190.409 243.185 190.702 243.122 190.987 243.171C191.241 243.229 191.462 243.381 191.609 243.595C191.804 243.876 191.941 244.193 192.013 244.527C192.112 244.962 192.161 245.407 192.158 245.853V246.495C192.161 246.603 192.136 246.71 192.085 246.806C192.06 246.891 192.005 246.965 191.93 247.013L189.237 248.577C189.231 248.759 189.255 248.941 189.31 249.115C189.35 249.232 189.422 249.336 189.517 249.415C189.602 249.483 189.709 249.516 189.817 249.509C189.942 249.494 190.063 249.451 190.169 249.384C190.326 249.299 190.466 249.187 190.584 249.053C190.69 248.934 190.78 248.801 190.853 248.659C190.897 248.578 190.946 248.498 190.998 248.421C191.042 248.369 191.095 248.323 191.153 248.287L191.795 247.914C191.817 247.896 191.845 247.887 191.873 247.887C191.901 247.887 191.929 247.896 191.951 247.914C191.978 247.947 191.997 247.985 192.008 248.026C192.019 248.067 192.021 248.11 192.013 248.152C192.001 248.354 191.96 248.553 191.888 248.742C191.799 249.03 191.681 249.307 191.536 249.571C191.374 249.874 191.18 250.159 190.956 250.42C190.734 250.687 190.468 250.914 190.169 251.093C189.925 251.253 189.632 251.323 189.341 251.29C189.086 251.229 188.864 251.073 188.72 250.855C188.516 250.541 188.378 250.189 188.316 249.819C188.221 249.345 188.176 248.863 188.181 248.38ZM190.169 245.076C190.01 245.162 189.872 245.282 189.765 245.428C189.651 245.573 189.556 245.734 189.486 245.905C189.413 246.076 189.354 246.252 189.31 246.433C189.273 246.597 189.249 246.763 189.237 246.93L191.06 245.894C191.049 245.752 191.029 245.61 190.998 245.47C190.982 245.345 190.932 245.226 190.853 245.128C190.822 245.083 190.782 245.046 190.736 245.017C190.689 244.988 190.638 244.97 190.584 244.962C190.436 244.95 190.29 244.99 190.169 245.076Z" fill="#FAFAFA"/>
<path d="M195.409 242.187C195.095 242.366 194.848 242.642 194.705 242.974C194.544 243.411 194.47 243.875 194.487 244.341V248.079C194.489 248.186 194.468 248.292 194.425 248.39C194.4 248.476 194.345 248.549 194.27 248.597L193.659 248.949C193.649 248.96 193.637 248.969 193.624 248.975C193.61 248.981 193.596 248.984 193.581 248.984C193.567 248.984 193.552 248.981 193.539 248.975C193.525 248.969 193.513 248.96 193.504 248.949C193.457 248.879 193.435 248.795 193.441 248.711V242.011C193.442 241.904 193.463 241.799 193.504 241.7C193.533 241.617 193.587 241.544 193.659 241.493L194.27 241.141C194.291 241.121 194.319 241.11 194.348 241.11C194.376 241.11 194.404 241.121 194.425 241.141C194.473 241.207 194.495 241.288 194.487 241.369V241.7C194.611 241.422 194.764 241.158 194.943 240.913C195.107 240.686 195.319 240.499 195.564 240.364L195.937 240.147C195.957 240.128 195.983 240.117 196.01 240.117C196.037 240.117 196.063 240.128 196.082 240.147C196.132 240.216 196.158 240.3 196.155 240.385V241.327C196.153 241.435 196.128 241.541 196.082 241.638C196.056 241.72 196.005 241.792 195.937 241.845L195.409 242.187Z" fill="#FAFAFA"/>
<path d="M203.135 241.69C203.145 241.679 203.157 241.67 203.17 241.664C203.184 241.658 203.198 241.655 203.213 241.655C203.228 241.655 203.242 241.658 203.256 241.664C203.269 241.67 203.281 241.679 203.291 241.69C203.337 241.76 203.359 241.844 203.353 241.928V242.964C203.352 243.07 203.331 243.176 203.291 243.274C203.255 243.351 203.202 243.419 203.135 243.471L199.593 245.542C199.572 245.562 199.545 245.573 199.516 245.573C199.487 245.573 199.459 245.562 199.438 245.542C199.392 245.476 199.37 245.395 199.376 245.314V235.994C199.377 235.887 199.398 235.782 199.438 235.683C199.467 235.603 199.522 235.533 199.593 235.487L200.246 235.103C200.267 235.084 200.295 235.073 200.324 235.073C200.352 235.073 200.38 235.084 200.401 235.103C200.448 235.17 200.47 235.25 200.463 235.331V243.212L203.135 241.69Z" fill="#FAFAFA"/>
<path d="M206.314 234.026C206.547 233.865 206.829 233.788 207.111 233.809C207.354 233.828 207.58 233.939 207.743 234.12C207.936 234.341 208.078 234.603 208.157 234.886C208.268 235.253 208.331 235.632 208.344 236.015C208.344 236.098 208.344 236.211 208.344 236.346V237.143C208.344 237.268 208.344 237.382 208.344 237.475C208.323 237.925 208.261 238.372 208.157 238.811C208.062 239.238 207.923 239.654 207.743 240.054C207.579 240.425 207.367 240.773 207.111 241.089C206.893 241.375 206.622 241.618 206.314 241.804C206.074 241.96 205.792 242.036 205.506 242.021C205.267 242.001 205.045 241.889 204.885 241.711C204.686 241.497 204.544 241.237 204.471 240.955C204.36 240.588 204.297 240.208 204.284 239.826C204.284 239.743 204.284 239.639 204.284 239.505V238.707C204.284 238.573 204.284 238.459 204.284 238.376C204.296 237.922 204.355 237.471 204.46 237.03C204.561 236.599 204.703 236.18 204.885 235.776C205.049 235.407 205.258 235.06 205.506 234.741C205.726 234.452 206 234.209 206.314 234.026ZM207.287 236.698C207.287 236.469 207.248 236.242 207.174 236.025C207.135 235.893 207.055 235.777 206.946 235.694C206.857 235.634 206.751 235.609 206.645 235.621C206.527 235.643 206.414 235.689 206.314 235.756C206.192 235.822 206.081 235.906 205.983 236.004C205.864 236.128 205.763 236.267 205.682 236.419C205.578 236.607 205.501 236.809 205.454 237.019C205.386 237.284 205.345 237.554 205.33 237.827C205.33 237.91 205.33 238.003 205.33 238.117V238.852C205.33 238.966 205.33 239.059 205.33 239.122C205.34 239.351 205.382 239.577 205.454 239.795C205.492 239.927 205.572 240.043 205.682 240.126C205.725 240.157 205.774 240.178 205.826 240.188C205.878 240.199 205.931 240.199 205.983 240.188C206.1 240.168 206.212 240.126 206.314 240.064C206.434 239.995 206.545 239.911 206.645 239.815C206.761 239.689 206.862 239.55 206.946 239.401C207.045 239.211 207.122 239.009 207.174 238.8C207.241 238.536 207.279 238.265 207.287 237.993C207.294 237.896 207.294 237.799 207.287 237.703V236.978C207.293 236.885 207.293 236.791 207.287 236.698Z" fill="#FAFAFA"/>
<path d="M211.513 240.085C211.645 240.004 211.764 239.902 211.865 239.784C211.989 239.638 212.097 239.478 212.186 239.308C212.289 239.1 212.369 238.881 212.424 238.655C212.488 238.401 212.519 238.141 212.517 237.879V237.351C212.517 237.454 212.414 237.578 212.341 237.723C212.27 237.875 212.187 238.02 212.093 238.158C211.984 238.304 211.867 238.442 211.74 238.573C211.611 238.709 211.46 238.824 211.295 238.914C211.189 238.987 211.069 239.037 210.942 239.062C210.816 239.087 210.686 239.086 210.56 239.059C210.33 238.987 210.132 238.837 210.001 238.635C209.832 238.367 209.709 238.073 209.638 237.765C209.55 237.374 209.501 236.975 209.493 236.574C209.493 236.439 209.493 236.274 209.493 236.077C209.493 235.88 209.493 235.714 209.493 235.569C209.506 235.114 209.555 234.66 209.638 234.213C209.723 233.772 209.844 233.339 210.001 232.918C210.147 232.553 210.335 232.205 210.56 231.883C210.751 231.597 211.002 231.357 211.295 231.178C211.433 231.096 211.583 231.036 211.74 231.002C211.857 230.981 211.976 230.981 212.093 231.002C212.184 231.028 212.269 231.074 212.341 231.137C212.407 231.188 212.467 231.247 212.517 231.313V230.982C212.518 230.875 212.539 230.769 212.579 230.671C212.608 230.59 212.663 230.521 212.735 230.474L213.346 230.112C213.367 230.092 213.394 230.081 213.423 230.081C213.452 230.081 213.48 230.092 213.501 230.112C213.551 230.181 213.576 230.265 213.573 230.35V237.081C213.601 238.09 213.414 239.092 213.025 240.022C212.719 240.754 212.19 241.37 211.513 241.783C211.282 241.926 211.018 242.008 210.746 242.021C210.531 242.034 210.318 241.98 210.135 241.866C209.96 241.735 209.818 241.565 209.721 241.369C209.62 241.133 209.564 240.88 209.555 240.623C209.546 240.516 209.567 240.408 209.617 240.312C209.643 240.227 209.698 240.154 209.773 240.105L210.322 239.795C210.334 239.781 210.349 239.77 210.366 239.763C210.383 239.756 210.402 239.752 210.42 239.752C210.438 239.752 210.457 239.756 210.474 239.763C210.491 239.77 210.506 239.781 210.518 239.795C210.569 239.848 210.615 239.907 210.653 239.971C210.716 240.082 210.82 240.164 210.943 240.198C211.067 240.292 211.254 240.188 211.513 240.085ZM210.539 235.062C210.539 235.338 210.539 235.607 210.539 235.87C210.51 236.283 210.627 236.694 210.871 237.03C210.963 237.109 211.08 237.153 211.202 237.153C211.324 237.153 211.441 237.109 211.533 237.03C211.834 236.834 212.068 236.553 212.206 236.222C212.395 235.79 212.5 235.326 212.517 234.855C212.517 234.699 212.517 234.513 212.517 234.296C212.517 234.078 212.517 233.892 212.517 233.757C212.538 233.386 212.428 233.019 212.206 232.721C212.115 232.637 211.995 232.59 211.87 232.59C211.745 232.59 211.625 232.637 211.533 232.721C211.239 232.916 211.008 233.193 210.871 233.519C210.658 234.006 210.545 234.53 210.539 235.062Z" fill="#FAFAFA"/>
<path d="M215.987 225.866C216.007 225.849 216.033 225.84 216.059 225.84C216.086 225.84 216.111 225.849 216.132 225.866C216.186 225.933 216.212 226.018 216.204 226.104V227.233C216.205 227.341 216.18 227.447 216.132 227.543C216.103 227.621 216.052 227.689 215.987 227.74L215.293 228.144C215.283 228.155 215.271 228.164 215.258 228.17C215.244 228.176 215.23 228.179 215.215 228.179C215.2 228.179 215.186 228.176 215.173 228.17C215.159 228.164 215.147 228.155 215.138 228.144C215.11 228.113 215.09 228.077 215.078 228.038C215.065 227.999 215.061 227.957 215.065 227.916V226.787C215.064 226.68 215.089 226.573 215.138 226.477C215.166 226.396 215.221 226.327 215.293 226.28L215.987 225.866ZM216.163 235.59C216.163 235.693 216.142 235.796 216.101 235.89C216.068 235.972 216.014 236.043 215.945 236.098L215.324 236.45C215.315 236.461 215.304 236.469 215.292 236.475C215.279 236.481 215.265 236.484 215.251 236.484C215.238 236.484 215.224 236.481 215.211 236.475C215.199 236.469 215.188 236.461 215.179 236.45C215.125 236.383 215.099 236.297 215.106 236.212V229.511C215.106 229.403 215.131 229.297 215.179 229.2C215.208 229.12 215.258 229.048 215.324 228.993L215.945 228.641C215.966 228.622 215.994 228.611 216.023 228.611C216.052 228.611 216.08 228.622 216.101 228.641C216.147 228.708 216.169 228.788 216.163 228.869V235.59Z" fill="#FAFAFA"/>
<path d="M221.61 232.432C221.61 232.538 221.589 232.644 221.548 232.742C221.519 232.823 221.465 232.892 221.393 232.939L220.772 233.301C220.752 233.32 220.726 233.331 220.699 233.331C220.672 233.331 220.646 233.32 220.627 233.301C220.572 233.235 220.546 233.149 220.554 233.063V229.418C220.586 228.988 220.507 228.556 220.326 228.165C220.181 227.906 219.953 227.865 219.632 228.051C219.312 228.266 219.075 228.584 218.959 228.952C218.786 229.441 218.702 229.956 218.711 230.474V234.13C218.71 234.237 218.689 234.342 218.649 234.441C218.623 234.526 218.568 234.6 218.493 234.648L217.882 235C217.872 235.011 217.86 235.02 217.847 235.026C217.834 235.032 217.819 235.035 217.804 235.035C217.79 235.035 217.775 235.032 217.762 235.026C217.748 235.02 217.737 235.011 217.727 235C217.679 234.934 217.657 234.853 217.665 234.772V228.072C217.663 227.965 217.684 227.859 217.727 227.761C217.752 227.676 217.807 227.602 217.882 227.554L218.493 227.202C218.503 227.191 218.515 227.182 218.528 227.176C218.542 227.17 218.556 227.167 218.571 227.167C218.586 227.167 218.6 227.17 218.613 227.176C218.627 227.182 218.639 227.191 218.649 227.202C218.695 227.272 218.717 227.356 218.711 227.44V227.761C218.847 227.445 219.013 227.144 219.208 226.86C219.378 226.599 219.609 226.382 219.881 226.228C220.117 226.056 220.41 225.982 220.699 226.021C220.814 226.05 220.921 226.103 221.014 226.176C221.106 226.249 221.183 226.341 221.238 226.446C221.388 226.726 221.486 227.031 221.528 227.347C221.583 227.759 221.61 228.174 221.61 228.589V232.432Z" fill="#FAFAFA"/>
<path d="M273.846 202.285L263.79 208.084L265.354 193.979C264.142 193.337 263.376 191.773 263.376 189.526C263.376 185.518 265.82 180.868 268.823 179.17C271.827 177.472 274.26 179.274 274.26 183.312C274.198 185.689 273.52 188.008 272.293 190.044L273.846 202.285Z" fill="#455A64"/>
<path d="M273.857 202.285L265.003 197.179L263.791 208.095L273.857 202.285Z" fill="#37474F"/>
<path d="M268.803 179.139C266.613 180.619 264.98 182.787 264.163 185.301L272.272 189.982C273.499 187.946 274.177 185.627 274.24 183.25C274.26 179.243 271.827 177.41 268.803 179.139Z" fill="#37474F"/>
<path d="M219.922 132.174C216.473 130.186 211.72 130.465 206.459 133.5C195.958 139.568 187.445 154.305 187.445 166.432C187.445 172.522 189.599 176.788 193.058 178.756L199.759 182.65C203.197 184.638 207.95 184.348 213.222 181.314C223.723 175.256 232.235 160.509 232.235 148.382C232.235 142.323 230.102 138.025 226.664 136.089" fill="#C53F3F"/>
<path d="M213.211 137.404C202.71 143.473 194.197 158.22 194.197 170.336C194.197 182.453 202.71 187.383 213.211 181.314C223.712 175.245 232.235 160.508 232.225 148.381C232.214 136.254 223.702 131.346 213.211 137.404Z" fill="#C53F3F"/>
<path d="M223.702 164.309V165.697C221.186 170.187 217.578 173.97 213.211 176.695C209.12 179.046 205.423 179.305 202.71 177.803V174.945C202.849 171.971 203.698 169.074 205.186 166.496C206.674 163.917 208.759 161.733 211.264 160.125L214.029 158.53C216.473 157.122 218.855 156.936 220.719 158.023C222.583 159.11 223.702 161.399 223.702 164.309Z" fill="#C53F3F"/>
<path opacity="0.4" d="M219.923 132.174L226.654 136.089C223.216 134.09 218.462 134.37 213.191 137.404C206.315 141.381 200.287 149.075 196.953 157.319L190.211 153.414C193.556 145.13 199.531 137.476 206.449 133.5C211.731 130.476 216.484 130.186 219.923 132.174Z" fill="white"/>
<path opacity="0.2" d="M199.521 182.494L193.069 178.756C189.61 176.788 187.456 172.542 187.456 166.432L194.198 170.347C194.239 176.25 196.228 180.454 199.521 182.494Z" fill="black"/>
<path opacity="0.1" d="M190.231 153.415L196.973 157.319C195.245 161.446 194.318 165.863 194.239 170.336L187.497 166.422C187.58 161.952 188.508 157.539 190.231 153.415Z" fill="black"/>
<path d="M210.808 157.878C210.166 157.885 209.533 157.721 208.975 157.402C208.303 156.953 207.764 156.332 207.416 155.603C207.068 154.874 206.923 154.064 206.997 153.259C207.085 151.372 207.624 149.534 208.568 147.898C209.512 146.262 210.834 144.876 212.424 143.856C213.063 143.346 213.84 143.041 214.655 142.98C215.47 142.919 216.284 143.106 216.991 143.515C217.698 143.925 218.265 144.538 218.618 145.275C218.971 146.012 219.093 146.839 218.969 147.646C218.88 149.533 218.34 151.37 217.396 153.006C216.452 154.642 215.131 156.028 213.542 157.05C212.72 157.563 211.777 157.849 210.808 157.878Z" fill="white"/>
<path d="M220.719 158.013C218.855 156.925 216.473 157.112 214.029 158.52L211.264 160.115C208.757 161.723 206.672 163.909 205.184 166.49C203.696 169.07 202.847 171.969 202.71 174.945V177.813C205.423 179.315 209.12 179.056 213.211 176.705C217.578 173.98 221.186 170.198 223.702 165.707V164.319C223.702 161.399 222.625 159.11 220.719 158.013Z" fill="white"/>
<path d="M433.62 337.173C433.62 337.173 434.997 325.077 441.014 315.684C447.031 306.291 455.295 300.44 463.011 299.829C470.726 299.218 476.96 306.322 468.707 311.221C460.453 316.119 445.789 321.07 439.036 339.296L433.62 337.173Z" fill="#C53F3F"/>
<path opacity="0.1" d="M433.62 337.173C433.62 337.173 434.997 325.077 441.014 315.684C447.031 306.291 455.295 300.44 463.011 299.829C470.726 299.218 476.96 306.322 468.707 311.221C460.453 316.119 445.789 321.07 439.036 339.296L433.62 337.173Z" fill="black"/>
<path d="M435.889 334.025H435.806C435.704 333.984 435.623 333.904 435.581 333.803C435.538 333.702 435.537 333.588 435.578 333.486C443.718 313.447 459.211 305.069 466.273 303.454C466.326 303.441 466.381 303.44 466.435 303.449C466.489 303.458 466.54 303.477 466.586 303.506C466.632 303.535 466.672 303.573 466.704 303.617C466.736 303.661 466.758 303.711 466.77 303.764C466.783 303.817 466.784 303.872 466.775 303.926C466.766 303.98 466.747 304.031 466.718 304.077C466.689 304.123 466.652 304.164 466.607 304.195C466.563 304.227 466.513 304.249 466.46 304.262C459.542 305.856 444.35 314.079 436.344 333.807C436.304 333.89 436.237 333.957 436.155 333.996C436.072 334.036 435.978 334.046 435.889 334.025Z" fill="white"/>
<path d="M477.084 334.263C476.39 335.837 474.671 336.666 473.077 337.308C471.482 337.95 469.742 338.644 468.872 340.135C467.132 343.138 469.99 347.384 468.126 350.294C467.687 350.88 467.135 351.371 466.501 351.738C465.867 352.104 465.166 352.339 464.44 352.428C463.249 352.645 462.037 352.645 460.836 352.749C460.26 352.741 459.686 352.696 459.116 352.614C457.443 352.241 455.693 352.426 454.135 353.142C451.743 354.489 451.028 357.502 449.558 359.832C448.659 361.204 447.475 362.366 446.087 363.238C444.698 364.11 443.137 364.673 441.511 364.886C440.476 365.021 438.404 365.217 437.369 364.606C437.288 364.567 437.211 364.518 437.141 364.461C436.986 364.296 436.799 364.078 436.716 363.964C436.711 363.94 436.711 363.916 436.716 363.892C436.292 362.328 436.986 360.713 437.017 359.097V358.807C436.944 356.933 436.892 355.068 436.851 353.204C436.761 349.752 436.727 346.3 436.747 342.848C436.747 340.611 436.499 338.167 437.452 336.065C438.487 333.745 441.097 333.693 442.081 331.426C442.474 330.514 442.681 329.551 443.065 328.629C443.657 327.289 444.605 326.138 445.807 325.299C447.008 324.461 448.417 323.969 449.879 323.876C454.425 323.648 458.495 327.324 463.041 326.983C464.212 326.89 465.361 326.527 466.521 326.32C470.198 325.626 474.454 326.672 476.525 329.789C476.98 330.431 477.269 331.175 477.366 331.956C477.464 332.736 477.367 333.529 477.084 334.263Z" fill="#C53F3F"/>
<path d="M436.261 356.715C436.164 356.686 436.081 356.62 436.03 356.531C435.98 356.442 435.966 356.337 435.992 356.239C442.268 332.689 467.06 329.313 472.891 329.706C472.942 329.709 472.992 329.722 473.039 329.744C473.085 329.767 473.126 329.798 473.16 329.837C473.194 329.875 473.219 329.92 473.235 329.969C473.252 330.018 473.258 330.069 473.253 330.121C473.243 330.221 473.194 330.314 473.117 330.38C473.04 330.445 472.94 330.479 472.839 330.473C467.154 330.069 442.879 333.393 436.738 356.446C436.709 356.544 436.643 356.626 436.554 356.677C436.465 356.727 436.36 356.741 436.261 356.715Z" fill="white"/>
<path d="M463.839 344.785C463.76 344.774 463.688 344.738 463.632 344.681C461.34 342.695 458.637 341.239 455.718 340.417C452.798 339.595 449.733 339.428 446.741 339.928C446.64 339.937 446.539 339.908 446.459 339.847C446.378 339.786 446.324 339.696 446.306 339.596C446.291 339.495 446.316 339.392 446.376 339.309C446.436 339.225 446.526 339.169 446.627 339.151C449.747 338.632 452.944 338.809 455.988 339.67C459.031 340.531 461.847 342.055 464.232 344.132C464.269 344.168 464.298 344.211 464.318 344.258C464.338 344.305 464.348 344.356 464.348 344.407C464.348 344.458 464.338 344.509 464.318 344.556C464.298 344.603 464.269 344.646 464.232 344.681C464.186 344.737 464.123 344.777 464.052 344.796C463.982 344.814 463.907 344.81 463.839 344.785Z" fill="white"/>
<path d="M376.631 52.743L379.924 54.0064V46.7571C379.924 40.9992 384.512 39.6218 389.493 42.5008C394.485 45.3798 398.524 52.3701 398.524 58.1281V59.1637C399.218 58.9516 399.951 58.8992 400.669 59.0104C401.386 59.1216 402.069 59.3935 402.666 59.8058C404.558 61.0392 406.132 62.7014 407.26 64.6574C408.388 66.6134 409.039 68.808 409.159 71.0629V71.5393L413.758 74.1904C415.002 75.0025 416.037 76.0959 416.78 77.3822C417.523 78.6686 417.953 80.1118 418.035 81.595C418.035 84.3291 416.119 85.4372 413.758 84.0702L376.631 62.6227C375.386 61.8126 374.351 60.7194 373.609 59.4324C372.867 58.1455 372.441 56.7014 372.364 55.2181C372.364 52.4944 374.259 51.3863 376.631 52.743Z" fill="#E6E6E6"/>
<path d="M420.738 47.0054L426.713 50.454C426.681 50.1929 426.663 49.93 426.662 49.6669V47.9374C426.662 44.8306 428.816 43.6086 431.488 45.1516C432.636 45.8546 433.618 46.7979 434.367 47.9167C434.801 44.0435 437.846 42.604 441.533 44.727C443.64 46.0979 445.394 47.9458 446.654 50.1211C447.913 52.2964 448.642 54.7379 448.782 57.2476V59.8366C448.809 60.871 448.6 61.898 448.171 62.8399L453.142 65.6981C453.917 66.2119 454.56 66.9002 455.021 67.7078C455.481 68.5154 455.746 69.4196 455.793 70.348C455.793 72.0568 454.592 72.7506 453.111 71.9014L420.738 53.2605C419.955 52.7503 419.304 52.0622 418.838 51.2522C418.371 50.4423 418.103 49.5335 418.056 48.6002C418.056 46.85 419.257 46.1562 420.738 47.0054Z" fill="#E6E6E6"/>
<path d="M397.601 204.18C393.251 211.533 389.068 217.923 386.127 220.988C380.545 223.577 367.434 227.574 362.307 228.237C361.407 228.352 360.495 228.139 359.739 227.637C357.72 226.311 356.156 226.094 354.033 225.358C352.366 224.789 351.661 223.991 351.351 224.323C351.03 224.699 350.869 225.186 350.901 225.679C350.934 226.172 351.159 226.633 351.527 226.963C352.323 227.72 353.206 228.381 354.157 228.931C351.883 229.495 349.511 229.538 347.219 229.055C342.776 227.885 340.684 230.019 343.687 234.844C344.723 236.564 348.99 239.329 357.564 238.583C360.623 238.418 363.67 238.072 366.688 237.547C374.911 235.787 384.055 234.088 389.679 232.369C391.77 231.547 393.642 230.249 395.147 228.579C404.602 217.798 407.74 210.114 411.882 203.134L411.53 191.742C404.819 191.515 401.236 198.029 397.601 204.18Z" fill="#FFA8A7"/>
<path d="M412.68 191.515C410.734 191.241 408.75 191.504 406.943 192.277C405.136 193.049 403.575 194.3 402.427 195.895C397.829 201.788 389.689 215.934 389.689 215.934C389.689 215.934 392.351 223.028 399.538 224.219L411.085 208.623C411.085 208.623 416.553 197.79 412.68 191.515Z" fill="#455A64"/>
<path d="M437.648 350.522H430.119V363.944H437.648V350.522Z" fill="#FFA8A7"/>
<path d="M411.551 349.807L404.033 350.077L403.649 335.868L411.551 335.599V349.807Z" fill="#FFA8A7"/>
<path d="M438.705 234.337C438.705 241.814 437.607 302.056 437.607 302.056C437.773 304.21 439.678 308.186 439.295 316.461C438.726 327.697 437.97 357.233 437.97 357.233C436.677 357.894 435.251 358.253 433.8 358.282C432.348 358.31 430.909 358.008 429.591 357.399C429.591 357.399 423.481 315.974 422.135 304.883C420.954 295.158 417.93 262.972 417.93 262.972L413.861 301.02C414.723 305.102 415.037 309.282 414.793 313.447C414.44 318.625 412.017 345.427 412.017 345.427C410.716 346.194 409.258 346.655 407.753 346.776C406.247 346.896 404.734 346.672 403.328 346.121C403.328 346.121 399.041 305.732 398.958 300.989C398.855 295.604 401.464 234.275 401.464 234.275L438.705 234.337Z" fill="#37474F"/>
<path d="M430.12 360.07V358.952C429.395 359.273 427.727 365.921 424.735 368.759C422.363 371.017 419.132 373.616 418.303 376.133C417.475 378.649 422.808 380.192 425.035 379.788C427.603 379.312 432.077 377.417 433.195 375.646C434.314 373.875 434.842 371.307 435.753 370.022C436.665 368.738 438.767 367.309 439.254 365.818C439.406 364.423 439.261 363.011 438.829 361.675C438.477 360.288 438.104 358.765 437.649 358.9V359.749C436.587 360.621 435.252 361.09 433.879 361.075C432.781 361.168 430.109 360.94 430.12 360.07Z" fill="#263238"/>
<path d="M403.95 347.653C403.557 347.653 403.236 348.244 402.376 349.217C401.098 350.561 399.603 351.682 397.954 352.531C395.137 354.002 389.669 356.259 387.173 357.429C385.62 358.154 385.692 360.101 387.298 361.209C388.903 362.318 392.766 363.115 397.405 362.038C399.932 361.448 403.225 359.014 405.317 359.149C407.409 359.283 411.293 359.242 412.836 358.113C414.379 356.984 413.757 354.644 413.322 352.624C412.846 350.408 412.287 346.959 411.552 347.115V347.892C410.651 349.321 405.98 349.901 403.992 348.855L403.95 347.653Z" fill="#263238"/>
<path d="M417.931 262.972C414.014 261.69 410.434 259.549 407.45 256.706C407.45 256.706 409.521 260.652 415.487 264.328L414.202 298.307L417.931 262.972Z" fill="#263238"/>
<path d="M434.5 192.612C434.5 192.612 440.714 194.041 440.268 205.267L438.974 223.132V249.954C433.444 256.23 408.941 255.774 400.501 249.457C400.501 249.457 401.454 217.715 402.023 205.495C402.427 196.817 404.426 192.447 412.959 191.494L423.45 191.949L434.5 192.612Z" fill="#C53F3F"/>
<path d="M426.589 169.29C426.624 170.793 426.362 172.288 425.817 173.69C425.273 175.091 424.456 176.37 423.414 177.454C422.373 178.538 421.127 179.405 419.748 180.005C418.37 180.606 416.886 180.927 415.383 180.951C409.17 180.951 405.524 175.587 404.178 169.29C401.693 157.764 409.19 157.619 415.383 157.619C418.417 157.682 421.301 158.946 423.402 161.135C425.504 163.323 426.65 166.257 426.589 169.29Z" fill="#263238"/>
<path d="M432.305 174.002C432.305 174.002 430.585 182.411 429.892 183.799C429.455 184.634 428.713 185.269 427.82 185.57L427.945 179.657L432.305 174.002Z" fill="#263238"/>
<path d="M430.141 161.958C430.141 161.958 431.373 161.648 432.688 163.698C433.807 165.448 434.065 169.384 432.305 174.054L429.063 174.448L430.141 161.958Z" fill="#263238"/>
<path d="M431.331 163.667L435.308 163.739C435.335 163.482 435.309 163.223 435.231 162.976C435.153 162.73 435.025 162.502 434.854 162.308C434.684 162.113 434.476 161.956 434.242 161.846C434.008 161.736 433.754 161.675 433.495 161.668C432.952 161.676 432.43 161.884 432.031 162.253C431.631 162.622 431.382 163.126 431.331 163.667Z" fill="#263238"/>
<path d="M431.818 162.725L434.759 159.897C434.59 159.698 434.381 159.535 434.145 159.42C433.91 159.305 433.653 159.24 433.392 159.23C433.13 159.219 432.869 159.263 432.625 159.358C432.381 159.453 432.159 159.598 431.974 159.783C431.584 160.165 431.351 160.679 431.322 161.224C431.294 161.769 431.471 162.304 431.818 162.725Z" fill="#263238"/>
<path d="M428.09 174.396C428.742 174.8 429.664 173.505 430.472 172.625C431.28 171.745 433.786 170.937 435.091 173.795C436.396 176.654 434.169 179.481 432.305 180.413C428.96 182.07 427.904 179.657 427.904 179.657L427.624 192.975C422.922 200.224 412.256 199.996 416.098 192.623V188.573C414.517 188.836 412.912 188.92 411.313 188.822C408.703 188.408 407.067 186.264 406.27 183.323C405.006 178.601 404.519 174.79 405.597 165.5C406.777 155.33 418.148 155.216 424.237 159.286C430.327 163.356 428.09 174.396 428.09 174.396Z" fill="#FFA8A7"/>
<path d="M413.923 163.916C416.636 163.646 419.319 163.087 422.042 162.88C422.63 162.809 423.225 162.837 423.803 162.963C425.874 163.532 425.625 165.956 425.957 167.644C426.526 170.564 426.992 175.504 428.09 175.525C428.422 175.525 429.664 173.381 430.472 172.615C430.916 171.954 431.167 171.183 431.197 170.388C431.404 169.187 431.508 167.954 431.601 166.732C431.684 165.697 431.787 164.661 431.787 163.626C431.835 162.455 431.741 161.283 431.508 160.136C431.248 159.159 430.75 158.262 430.058 157.526L429.851 157.298C428.486 155.871 426.829 154.755 424.994 154.026C422.353 153.036 419.584 152.433 416.771 152.234C413.962 152.035 411.166 151.689 408.393 151.198C408.234 151.152 408.065 151.152 407.906 151.198C407.794 151.261 407.699 151.35 407.63 151.459C407.561 151.567 407.521 151.691 407.513 151.82C407.399 152.463 407.47 153.126 407.717 153.731C407.965 154.335 408.379 154.858 408.911 155.237C407.036 155.382 404.882 154.409 403.08 153.912C402.934 153.85 402.778 153.818 402.619 153.818C402.461 153.818 402.304 153.85 402.159 153.912C401.978 154.038 401.849 154.226 401.796 154.44C401.665 154.926 401.647 155.437 401.744 155.931C401.909 157.43 402.466 158.859 403.36 160.073C404.756 161.891 406.728 163.18 408.952 163.729C410.59 164.045 412.266 164.108 413.923 163.916Z" fill="#263238"/>
<path d="M416.107 188.573C416.107 188.573 421.928 187.351 423.957 186.223C425.166 185.561 426.148 184.551 426.774 183.323C426.469 184.556 425.923 185.718 425.169 186.74C423.688 188.729 416.107 190.179 416.107 190.179V188.573Z" fill="#F28F8F"/>
<path d="M417.506 172.874C417.494 173.193 417.61 173.504 417.827 173.739C418.045 173.974 418.346 174.113 418.666 174.127C418.919 174.148 419.173 174.091 419.394 173.965C419.616 173.839 419.794 173.649 419.905 173.42C420.016 173.192 420.056 172.934 420.019 172.683C419.982 172.431 419.869 172.196 419.696 172.009C419.523 171.822 419.298 171.692 419.05 171.636C418.802 171.579 418.542 171.599 418.305 171.692C418.069 171.786 417.865 171.948 417.723 172.159C417.58 172.37 417.504 172.619 417.506 172.874Z" fill="#263238"/>
<path d="M419.37 167.851L421.866 169.29C422.048 168.935 422.089 168.525 421.981 168.141C421.874 167.757 421.625 167.428 421.286 167.219C421.12 167.126 420.937 167.069 420.749 167.051C420.56 167.032 420.369 167.054 420.189 167.113C420.009 167.172 419.843 167.269 419.702 167.396C419.561 167.523 419.448 167.678 419.37 167.851Z" fill="#263238"/>
<path d="M416.625 181.272L413.964 182.308C414.017 182.491 414.108 182.66 414.23 182.806C414.352 182.952 414.502 183.072 414.672 183.157C414.842 183.243 415.028 183.292 415.218 183.303C415.408 183.314 415.598 183.285 415.776 183.219C416.138 183.063 416.428 182.775 416.586 182.414C416.743 182.052 416.757 181.644 416.625 181.272Z" fill="#F28F8F"/>
<path d="M406.798 168.918L409.076 167.095C408.974 166.936 408.839 166.8 408.681 166.696C408.523 166.593 408.345 166.523 408.159 166.493C407.972 166.463 407.781 166.472 407.598 166.521C407.416 166.569 407.245 166.655 407.098 166.774C406.793 167.032 406.595 167.393 406.539 167.788C406.484 168.184 406.576 168.586 406.798 168.918Z" fill="#263238"/>
<path d="M407.802 172.532C407.82 172.758 407.904 172.975 408.043 173.155C408.182 173.334 408.37 173.47 408.585 173.544C408.8 173.619 409.032 173.629 409.252 173.574C409.473 173.519 409.673 173.401 409.827 173.234C409.981 173.067 410.084 172.859 410.122 172.635C410.16 172.411 410.132 172.18 410.042 171.972C409.951 171.763 409.801 171.586 409.612 171.461C409.422 171.336 409.199 171.269 408.972 171.268C408.812 171.274 408.655 171.311 408.509 171.377C408.363 171.444 408.232 171.538 408.124 171.656C408.015 171.773 407.93 171.911 407.875 172.062C407.82 172.212 407.795 172.372 407.802 172.532Z" fill="#263238"/>
<path d="M414.047 171.558L413.912 178.922L409.729 177.969L414.047 171.558Z" fill="#F28F8F"/>
<path d="M314.69 233.229L321.184 229.48L323.752 226.363L317.269 230.112L314.69 233.229Z" fill="#C53F3F"/>
<path opacity="0.4" d="M314.69 233.229L321.184 229.48L323.752 226.363L317.269 230.112L314.69 233.229Z" fill="black"/>
<path d="M332.348 243.419L338.841 239.67L344.257 234.875L337.774 238.614L332.348 243.419Z" fill="#C53F3F"/>
<path opacity="0.4" d="M332.348 243.419L338.841 239.67L344.257 234.875L337.774 238.614L332.348 243.419Z" fill="black"/>
<path d="M387.504 256.354C389.04 258.412 389.969 260.859 390.186 263.417C388.658 261.355 387.729 258.911 387.504 256.354ZM402.593 256.551C400.408 241.69 392.423 226.995 382.916 221.495C378.349 218.855 374.124 218.761 370.738 220.739L364.628 224.261L364.286 224.468C364.014 224.617 363.751 224.783 363.499 224.965C362.997 225.31 362.526 225.698 362.09 226.125L361.883 226.321C361.697 226.508 361.5 226.725 361.324 226.932C361.148 227.14 360.879 227.461 360.671 227.74C360.232 228.319 359.834 228.928 359.481 229.563C359.294 229.884 359.118 230.226 358.952 230.598L305.587 199.799L299.104 203.538V207.68L299.653 207.991L300.171 208.291V209.12L299.136 209.731V212.134L306.975 228.703L314.721 233.187L317.3 230.081L324.135 234.171L328.06 240.892L332.389 243.388L337.805 238.583L344.454 242.425L346.691 251.652L357.865 258.115C358.417 260.463 359.109 262.777 359.936 265.043C360.009 265.271 360.102 265.509 360.195 265.768C363.903 275.503 369.795 283.839 376.444 287.681C377.241 288.154 378.075 288.559 378.94 288.893C379.396 289.075 379.863 289.23 380.338 289.359C380.752 289.469 381.166 289.563 381.58 289.639C382.888 289.877 384.229 289.877 385.536 289.639L386.075 289.504C386.332 289.452 386.585 289.379 386.831 289.286L387.411 289.059C387.616 288.985 387.814 288.891 388.001 288.779C388.193 288.696 388.379 288.603 388.56 288.499L388.83 288.334C388.879 288.318 388.924 288.293 388.964 288.261C390.445 287.412 394.091 285.299 395.085 284.74C400.014 281.882 403.204 274.653 403.204 264.432C403.196 261.793 402.991 259.159 402.593 256.551Z" fill="#C53F3F"/>
<path d="M385.609 268.895C383.04 267.414 380.969 263.024 380.969 259.088C380.969 255.153 383.04 253.154 385.609 254.625C388.177 256.095 390.238 260.497 390.238 264.442C390.238 268.388 388.167 270.376 385.609 268.895ZM396.099 260.289C393.925 245.439 385.94 230.733 376.423 225.244C372.011 222.697 367.931 222.51 364.617 224.261L364.275 224.468C364.003 224.618 363.74 224.784 363.488 224.965C362.986 225.31 362.515 225.698 362.08 226.125L361.872 226.321C361.686 226.508 361.489 226.725 361.313 226.933C361.137 227.14 360.868 227.461 360.661 227.74C360.221 228.319 359.823 228.928 359.47 229.563C359.283 229.884 359.107 230.226 358.942 230.599C357.976 232.6 357.28 234.721 356.87 236.905L299.094 203.538V207.681L299.643 207.991L300.16 208.292V209.12L299.125 209.731V212.134L306.964 228.703L314.711 233.188L317.289 230.081L324.124 234.171L328.049 240.893L332.378 243.388L337.794 238.583L344.443 242.425L346.68 251.653L357.865 258.115C358.417 260.463 359.109 262.777 359.936 265.043C360.008 265.271 360.102 265.509 360.195 265.768C363.902 275.503 369.795 283.839 376.443 287.681C377.24 288.154 378.075 288.559 378.939 288.893C379.396 289.075 379.863 289.23 380.337 289.359C380.752 289.47 381.166 289.563 381.58 289.639C382.888 289.877 384.228 289.877 385.536 289.639L386.075 289.504C386.332 289.452 386.585 289.379 386.831 289.287L387.411 289.059C387.616 288.985 387.813 288.891 388.001 288.779C388.192 288.696 388.379 288.603 388.56 288.499L388.829 288.334C388.878 288.318 388.924 288.293 388.964 288.261C393.686 285.279 396.721 278.154 396.721 268.181C396.703 265.539 396.496 262.902 396.099 260.289Z" fill="#C53F3F"/>
<path opacity="0.4" d="M390.238 264.432C390.238 268.378 388.167 270.376 385.609 268.895C383.051 267.414 380.97 263.034 380.97 259.088C380.97 255.142 383.041 253.144 385.609 254.625C386.349 255.075 386.993 255.666 387.504 256.364C387.727 258.922 388.656 261.367 390.187 263.427C390.225 263.761 390.242 264.096 390.238 264.432Z" fill="black"/>
<path opacity="0.4" d="M403.183 264.422C403.183 274.643 399.994 281.872 395.064 284.73C394.029 285.289 390.425 287.402 388.944 288.251C393.666 285.268 396.7 278.143 396.7 268.171C396.689 265.533 396.489 262.899 396.1 260.29C393.925 245.439 385.94 230.733 376.423 225.245C372.011 222.697 367.931 222.51 364.617 224.261L370.727 220.74C374.114 218.762 378.339 218.855 382.906 221.496C392.423 226.995 400.408 241.69 402.583 256.551C402.977 259.156 403.178 261.787 403.183 264.422Z" fill="white"/>
<path d="M396.7 268.15C396.7 278.123 393.666 285.248 388.943 288.23C390.424 287.381 394.07 285.268 395.064 284.709C399.993 281.851 403.183 274.622 403.183 264.401C403.183 264.028 403.183 263.645 403.183 263.262L396.7 267.01C396.69 267.414 396.7 267.787 396.7 268.15Z" fill="#C53F3F"/>
<path opacity="0.1" d="M396.7 268.15C396.7 278.123 393.666 285.248 388.943 288.23C390.424 287.381 394.07 285.268 395.064 284.709C399.993 281.851 403.183 274.622 403.183 264.401C403.183 264.028 403.183 263.645 403.183 263.262L396.7 267.01C396.69 267.414 396.7 267.787 396.7 268.15Z" fill="black"/>
<path opacity="0.15" d="M357.119 241.141V243.243L299.104 209.752L300.171 209.13V208.26L357.119 241.141Z" fill="black"/>
<path opacity="0.15" d="M357.119 242.011V243.243L299.104 209.752L300.171 209.13V209.12L357.119 242.011Z" fill="black"/>
<path opacity="0.15" d="M382.347 284.719C380.148 284.662 378.004 284.023 376.133 282.866C366.678 277.408 358.983 261.17 358.983 246.671C358.983 238.21 361.541 231.893 366.005 229.314C369.112 227.512 372.788 227.74 376.651 229.967C386.096 235.424 393.79 251.715 393.79 266.213C393.79 274.664 391.232 280.991 386.769 283.56C385.422 284.328 383.897 284.729 382.347 284.719ZM370.489 229.159C369.109 229.151 367.751 229.509 366.554 230.195C362.484 232.545 360.05 238.707 360.05 246.661C360.05 260.828 367.506 276.693 376.682 281.954C380.193 284.026 383.517 284.212 386.282 282.617C390.352 280.266 392.786 274.115 392.786 266.161C392.786 251.984 385.329 236.129 376.164 230.857C374.451 229.815 372.494 229.244 370.489 229.2V229.159Z" fill="black"/>
<path opacity="0.4" d="M358.901 230.578C357.935 232.579 357.239 234.7 356.829 236.885L299.053 203.517L305.536 199.779L358.901 230.578Z" fill="white"/>
<path d="M433.992 233.819C437.016 228.092 440.475 215.23 442.194 208.737C444.638 199.52 440.682 193.72 436.188 193.482C433.381 193.917 424.133 227.543 424.133 227.543C423.098 228.362 409.045 235.497 404.529 237.288C403.722 237.594 402.831 237.594 402.023 237.288C399.859 236.501 398.378 236.646 396.255 236.439C394.587 236.274 393.749 235.683 393.531 236.035C393.334 236.472 393.308 236.968 393.46 237.423C393.611 237.878 393.929 238.259 394.349 238.49C395.263 239.022 396.237 239.446 397.249 239.753C395.434 240.304 393.542 240.559 391.646 240.509C387.297 240.416 385.733 242.301 389.109 246.723C391.18 249.478 394.608 250.348 402.261 247.707C404.457 246.94 407.439 245.459 410.225 244.455C415.962 242.384 417.474 242.135 421.845 240.654C428.214 238.5 432.646 236.367 433.992 233.819Z" fill="#FFA8A7"/>
<path d="M434.501 192.612C437.141 192.975 439.679 193.565 441.242 195.719C442.806 197.873 444.059 200.897 442.527 209.13C441.353 214.92 439.782 220.623 437.825 226.197C437.825 226.197 431.673 228.828 425.139 222.158L429.633 204.781C429.633 204.781 430.358 193.482 434.501 192.612Z" fill="#455A64"/>
</svg>
