<svg width="195" height="130" viewBox="0 0 195 130" fill="none" xmlns="http://www.w3.org/2000/svg">
<path d="M179.622 116.129H192.985" stroke="#263238" stroke-linecap="round" stroke-linejoin="round"/>
<path d="M10.3027 116.129H176.559" stroke="#263238" stroke-linecap="round" stroke-linejoin="round"/>
<path d="M3.9502 116.129H7.89409" stroke="#263238" stroke-linecap="round" stroke-linejoin="round"/>
<path d="M173.99 84.1733C174.448 84.2841 174.93 84.2089 175.333 83.9642C175.735 83.7195 176.024 83.3252 176.136 82.8679L177.271 78.1948C177.382 77.7372 177.307 77.2543 177.062 76.852C176.818 76.4498 176.423 76.1609 175.966 76.0489C175.509 75.9382 175.026 76.0135 174.624 76.2582C174.223 76.5029 173.934 76.8972 173.823 77.3543L172.685 82.0218C172.629 82.2488 172.618 82.4846 172.653 82.7158C172.688 82.9469 172.769 83.1688 172.89 83.3687C173.012 83.5686 173.171 83.7426 173.36 83.8806C173.549 84.0187 173.763 84.1182 173.99 84.1733Z" fill="white" stroke="#263238" stroke-linecap="round" stroke-linejoin="round"/>
<path d="M175.797 89.6319C175.951 89.6745 176.112 89.6817 176.269 89.653C176.426 89.6242 176.574 89.5603 176.703 89.466C176.832 89.3717 176.937 89.2495 177.012 89.1086C177.086 88.9676 177.128 88.8116 177.133 88.6522L177.604 82.7823C177.624 82.4294 177.523 82.0803 177.317 81.7928C177.112 81.5053 176.814 81.2966 176.474 81.2014C176.32 81.1587 176.158 81.1516 176.001 81.1805C175.844 81.2094 175.696 81.2735 175.567 81.3682C175.439 81.4628 175.333 81.5853 175.259 81.7266C175.184 81.8679 175.143 82.0243 175.138 82.1839L174.665 88.051C174.644 88.4043 174.746 88.754 174.952 89.0417C175.158 89.3293 175.456 89.5377 175.797 89.6319Z" fill="white" stroke="#263238" stroke-linecap="round" stroke-linejoin="round"/>
<path d="M163.251 83.1414L169.182 81.9084C171.269 81.8665 173.352 82.0948 175.38 82.5875L179.366 83.5561C179.575 83.6072 179.793 83.6165 180.006 83.5836C180.218 83.5507 180.423 83.4761 180.607 83.3642C180.791 83.2523 180.951 83.1052 181.078 82.9313C181.205 82.7575 181.297 82.5603 181.348 82.351L182.183 78.9164C182.285 78.4934 182.215 78.0472 181.989 77.6756C181.762 77.3041 181.398 77.0376 180.975 76.9347L177.746 76.1498C175.303 75.5562 172.969 74.5833 170.827 73.2664L166.613 69.2891L163.251 83.1414Z" fill="white" stroke="#263238" stroke-linecap="round" stroke-linejoin="round"/>
<path d="M175.52 75.4863C176.255 75.7424 176.998 75.9651 177.747 76.1487L180.97 76.9336C181.393 77.0365 181.758 77.303 181.984 77.6745C182.211 78.0461 182.28 78.4924 182.178 78.9153L181.343 82.3499C181.292 82.5592 181.201 82.7564 181.073 82.9302C180.946 83.1041 180.786 83.2512 180.602 83.3631C180.418 83.4751 180.214 83.5496 180.001 83.5825C179.788 83.6155 179.571 83.6061 179.361 83.555L175.376 82.5865C174.878 82.464 174.376 82.3582 173.867 82.2692L175.52 75.4863Z" fill="#263238" stroke="#263238" stroke-linecap="round" stroke-linejoin="round"/>
<path d="M162.46 84.8416L162.706 84.9015C163.413 85.0735 164.125 84.6402 164.297 83.9337L167.77 69.6658C167.942 68.9593 167.508 68.2472 166.802 68.0753L166.556 68.0154C165.849 67.8434 165.137 68.2767 164.965 68.9832L161.492 83.2512C161.32 83.9576 161.754 84.6697 162.46 84.8416Z" fill="#BF1523" stroke="#263238" stroke-linecap="round" stroke-linejoin="round"/>
<path d="M160.249 70.4443L161.641 72.6403" stroke="#263238" stroke-width="2" stroke-linecap="round" stroke-linejoin="round"/>
<path d="M158.007 79.6547L160.25 78.3438" stroke="#263238" stroke-width="2" stroke-linecap="round" stroke-linejoin="round"/>
<path d="M160.456 75.515L157.731 74.8525" stroke="#263238" stroke-width="2" stroke-linecap="round" stroke-linejoin="round"/>
<path d="M174.685 87.3809L173.731 88.1936C173.619 88.2907 173.54 88.42 173.505 88.5638C173.483 88.6539 173.478 88.7475 173.492 88.8393C173.506 88.9311 173.538 89.0193 173.586 89.0987C173.634 89.1781 173.698 89.2472 173.773 89.3021C173.848 89.3569 173.933 89.3964 174.023 89.4182L177.037 90.153L177.226 87.3976L174.685 87.3809Z" fill="#263238" stroke="#263238" stroke-linecap="round" stroke-linejoin="round"/>
<path d="M179.565 79.0995C179.585 79.0201 179.627 78.9483 179.688 78.8932C179.748 78.8381 179.824 78.8022 179.905 78.7899C179.986 78.7776 180.068 78.7895 180.143 78.8241C180.217 78.8588 180.279 78.9145 180.321 78.9845C180.364 79.0544 180.385 79.1354 180.381 79.2171C180.378 79.2989 180.35 79.3778 180.302 79.444C180.254 79.5101 180.187 79.5606 180.111 79.5889C180.034 79.6172 179.95 79.6222 179.871 79.6033C179.817 79.5909 179.767 79.5679 179.722 79.5357C179.678 79.5036 179.64 79.4628 179.612 79.4159C179.583 79.3689 179.564 79.3167 179.556 79.2624C179.548 79.2081 179.551 79.1527 179.565 79.0995Z" fill="#BF1523"/>
<path d="M161.854 96.9866V93.5047H162.875C163.052 93.4977 163.227 93.5371 163.384 93.6188C163.511 93.6983 163.608 93.8164 163.663 93.9556C163.728 94.126 163.759 94.3075 163.754 94.49C163.763 94.6821 163.724 94.8735 163.64 95.0466C163.568 95.1803 163.454 95.2861 163.315 95.3472C163.16 95.414 162.993 95.4463 162.825 95.4419H162.48V96.9866H161.854ZM162.488 94.9965H162.73C162.826 95.0029 162.921 94.9857 163.009 94.9464C163.041 94.9308 163.069 94.9086 163.092 94.8812C163.115 94.8539 163.132 94.8221 163.142 94.7878C163.17 94.6929 163.182 94.5943 163.178 94.4955C163.181 94.3928 163.172 94.29 163.151 94.1894C163.144 94.1534 163.13 94.1192 163.109 94.089C163.089 94.0588 163.062 94.0333 163.031 94.014C162.944 93.9731 162.848 93.954 162.753 93.9584H162.51L162.488 94.9965Z" fill="#263238"/>
<path d="M164.109 96.9864V93.5045H164.944C165.146 93.4994 165.347 93.5277 165.54 93.588C165.691 93.6349 165.821 93.7334 165.907 93.8663C166.002 94.0358 166.047 94.229 166.035 94.423C166.036 94.5493 166.023 94.6753 165.996 94.7987C165.973 94.8997 165.928 94.9946 165.866 95.077C165.798 95.1594 165.71 95.222 165.61 95.2579L166.094 96.9697H165.445L165.025 95.3776H164.747V96.9697L164.109 96.9864ZM164.747 94.9963H164.942C165.043 95.0014 165.144 94.9833 165.237 94.9434C165.309 94.9077 165.364 94.846 165.392 94.7709C165.428 94.6739 165.444 94.5708 165.44 94.4675C165.449 94.3301 165.416 94.193 165.345 94.075C165.298 94.0266 165.24 93.9897 165.177 93.967C165.113 93.9443 165.045 93.9365 164.978 93.9442H164.747V94.9963Z" fill="#263238"/>
<path d="M167.431 97.0325C167.227 97.0431 167.023 96.9958 166.844 96.8961C166.697 96.8043 166.586 96.6648 166.53 96.5009C166.464 96.3046 166.432 96.0984 166.435 95.8914V94.5916C166.431 94.3872 166.463 94.1837 166.53 93.9904C166.587 93.8301 166.698 93.6945 166.844 93.6063C167.028 93.5183 167.23 93.4727 167.434 93.4727C167.638 93.4727 167.84 93.5183 168.024 93.6063C168.169 93.6952 168.28 93.8305 168.339 93.9904C168.408 94.1831 168.441 94.3869 168.436 94.5916V95.8969C168.44 96.1016 168.407 96.3052 168.339 96.4981C168.28 96.661 168.17 96.8 168.024 96.8933C167.843 96.9939 167.638 97.0421 167.431 97.0325ZM167.431 96.5649C167.515 96.5723 167.599 96.5474 167.665 96.4953C167.718 96.4456 167.753 96.3802 167.765 96.3089C167.783 96.2227 167.791 96.1351 167.79 96.0472V94.4469C167.791 94.359 167.783 94.2713 167.765 94.1852C167.753 94.1148 167.717 94.0503 167.665 94.0015C167.596 93.958 167.516 93.935 167.434 93.935C167.352 93.935 167.272 93.958 167.203 94.0015C167.15 94.0501 167.114 94.1145 167.1 94.1852C167.083 94.2713 167.074 94.359 167.075 94.4469V96.0472C167.074 96.1351 167.083 96.2227 167.1 96.3089C167.11 96.381 167.146 96.4471 167.2 96.4953C167.266 96.547 167.348 96.5719 167.431 96.5649Z" fill="#263238"/>
<path d="M168.893 96.9862L168.954 93.5127H169.611L170.103 95.9174L170.618 93.5127H171.253L171.317 96.9862H170.846L170.794 94.5703L170.301 96.9862H169.92L169.416 94.562L169.371 96.9862H168.893Z" fill="#263238"/>
<path d="M172.775 97.0321C172.57 97.0427 172.366 96.9954 172.187 96.8957C172.041 96.8037 171.931 96.6641 171.876 96.5005C171.808 96.3045 171.776 96.0981 171.781 95.8909V94.5912C171.775 94.3867 171.807 94.1829 171.876 93.99C171.932 93.8299 172.042 93.6942 172.187 93.6059C172.367 93.5082 172.57 93.462 172.775 93.4723C172.982 93.4613 173.188 93.5075 173.37 93.6059C173.514 93.6951 173.624 93.8304 173.682 93.99C173.751 94.1827 173.784 94.3865 173.779 94.5912V95.8965C173.783 96.1011 173.75 96.3048 173.682 96.4977C173.625 96.6604 173.515 96.7994 173.37 96.8929C173.188 96.994 172.982 97.0422 172.775 97.0321ZM172.775 96.5645C172.858 96.5719 172.942 96.547 173.008 96.4949C173.061 96.4451 173.096 96.3797 173.109 96.3084C173.128 96.2226 173.137 96.1348 173.136 96.0468V94.4464C173.138 94.3584 173.128 94.2705 173.109 94.1848C173.096 94.1143 173.061 94.0499 173.008 94.0011C172.941 93.9512 172.858 93.9275 172.775 93.9343C172.694 93.9282 172.614 93.952 172.549 94.0011C172.495 94.0488 172.459 94.1136 172.446 94.1848C172.426 94.2705 172.417 94.3584 172.418 94.4464V96.0468C172.418 96.1346 172.426 96.2223 172.443 96.3084C172.455 96.3801 172.49 96.4458 172.544 96.4949C172.609 96.5463 172.692 96.5712 172.775 96.5645Z" fill="#263238"/>
<path d="M174.579 96.9858V93.9798H174.022V93.5039H175.754V93.9715H175.197V96.9774L174.579 96.9858Z" fill="#263238"/>
<path d="M176.094 96.9858V93.5039H176.72V96.9774L176.094 96.9858Z" fill="#263238"/>
<path d="M178.197 97.0326C177.993 97.042 177.79 96.9948 177.61 96.8962C177.464 96.8042 177.354 96.6646 177.298 96.501C177.231 96.305 177.199 96.0986 177.204 95.8914V94.5916C177.198 94.3871 177.23 94.1834 177.298 93.9905C177.355 93.8304 177.465 93.6947 177.61 93.6064C177.795 93.5183 177.997 93.4727 178.202 93.4727C178.406 93.4727 178.608 93.5183 178.793 93.6064C178.937 93.6955 179.047 93.8309 179.105 93.9905C179.174 94.1832 179.207 94.387 179.202 94.5916V95.897C179.206 96.1016 179.173 96.3053 179.105 96.4982C179.048 96.6609 178.938 96.7999 178.793 96.8934C178.611 96.9945 178.405 97.0427 178.197 97.0326ZM178.197 96.565C178.281 96.5724 178.365 96.5475 178.431 96.4954C178.484 96.4451 178.519 96.3801 178.534 96.3089C178.551 96.2228 178.56 96.1351 178.559 96.0473V94.4469C178.56 94.3591 178.552 94.2714 178.534 94.1853C178.519 94.115 178.484 94.0508 178.431 94.0016C178.364 93.9517 178.281 93.928 178.197 93.9348C178.117 93.9287 178.036 93.9525 177.972 94.0016C177.918 94.0493 177.881 94.1141 177.869 94.1853C177.849 94.271 177.84 94.3589 177.841 94.4469V96.0473C177.841 96.1351 177.849 96.2228 177.866 96.3089C177.878 96.3806 177.913 96.4463 177.966 96.4954C178.032 96.5468 178.114 96.5717 178.197 96.565Z" fill="#263238"/>
<path d="M179.669 96.9858V93.5039H180.111L180.946 95.4856V93.5039H181.47V96.9774H181.058L180.223 94.9011V96.9774L179.669 96.9858Z" fill="#263238"/>
<path d="M179.042 47.3291L177.704 46.3049L176.1 45.0775L171.605 41.6373V41.6346L171.6 41.6318L171.567 41.6067L166.676 45.147L164.995 46.3605L163.623 47.357L166.785 30.7742L168.291 22.8809L173.852 22.9978L174.266 23.0061L174.589 23.0117L175.917 30.2565L179.042 47.3291Z" fill="#BF1523" stroke="#263238" stroke-linecap="round" stroke-linejoin="round"/>
<path d="M175.917 30.2565C175.716 30.1897 175.499 30.1829 175.294 30.237C175.016 30.3873 174.943 31.0442 174.637 31.1611C174.331 31.278 173.847 30.8382 173.524 30.9245C173.201 31.0108 173.012 31.6398 172.689 31.6927C172.366 31.7456 171.982 31.2084 171.653 31.2279C171.325 31.2474 171.005 31.8207 170.676 31.804C170.348 31.7873 170.078 31.1861 169.758 31.136C169.438 31.0859 168.995 31.5814 168.684 31.5007C168.372 31.4199 168.227 30.7714 167.924 30.6657C167.62 30.5599 167.089 30.944 166.811 30.7937H166.791L168.283 22.8809L173.849 22.9978H174.264H174.587L175.917 30.2565Z" fill="#263238" stroke="#263238" stroke-linecap="round" stroke-linejoin="round"/>
<path d="M162.089 19.9492C162.106 19.618 161.568 19.2367 161.618 18.9166C161.669 18.5965 162.295 18.3878 162.376 18.0816C162.456 17.7755 162.014 17.2773 162.128 16.9683C162.242 16.6594 162.902 16.5954 163.046 16.3031C163.191 16.0109 162.86 15.4431 163.046 15.1703C163.233 14.8976 163.881 14.9644 164.082 14.7111C164.282 14.4578 164.082 13.8316 164.307 13.5978C164.533 13.364 165.164 13.57 165.42 13.3612C165.677 13.1525 165.599 12.5012 165.871 12.3203C166.144 12.1394 166.706 12.4706 167.004 12.3203C167.302 12.17 167.355 11.5131 167.661 11.3934C167.967 11.2738 168.454 11.7163 168.774 11.63C169.094 11.5437 169.284 10.9175 169.609 10.8646C169.935 10.8117 170.316 11.3461 170.645 11.3294C170.973 11.3127 171.29 10.7366 171.622 10.7533C171.953 10.77 172.22 11.3712 172.537 11.4185C172.855 11.4658 173.3 10.9759 173.612 11.0567C173.923 11.1374 174.068 11.7859 174.371 11.8916C174.675 11.9974 175.206 11.6133 175.485 11.7636C175.763 11.9139 175.763 12.568 176.041 12.7461C176.32 12.9242 176.915 12.6487 177.169 12.8547C177.422 13.0606 177.286 13.6896 177.519 13.9346C177.753 14.1795 178.393 14.0208 178.599 14.2741C178.805 14.5274 178.538 15.1286 178.719 15.4014C178.9 15.6741 179.554 15.6658 179.707 15.958C179.86 16.2502 179.468 16.7791 179.587 17.0713C179.707 17.3636 180.353 17.5055 180.439 17.8228C180.525 18.1401 180.033 18.5743 180.086 18.8999C180.138 19.2256 180.742 19.4816 180.759 19.8101C180.776 20.1385 180.202 20.4613 180.202 20.7926C180.202 21.1238 180.723 21.5051 180.676 21.8251C180.628 22.1452 179.999 22.354 179.916 22.6601C179.832 22.9663 180.278 23.4645 180.163 23.7734C180.049 24.0824 179.392 24.1492 179.245 24.4386C179.097 24.7281 179.431 25.2987 179.245 25.5742C179.058 25.8498 178.41 25.7774 178.207 26.0335C178.004 26.2895 178.207 26.913 177.981 27.1468C177.756 27.3806 177.124 27.1746 176.868 27.3806C176.612 27.5865 176.693 28.2434 176.42 28.4215C176.147 28.5996 175.585 28.2712 175.284 28.4215C174.984 28.5718 174.934 29.2259 174.627 29.3456C174.321 29.4652 173.834 29.0227 173.514 29.109C173.194 29.1953 173.002 29.8243 172.679 29.8772C172.356 29.93 171.975 29.3929 171.647 29.4123C171.318 29.4318 170.998 30.0052 170.667 29.9885C170.336 29.9718 170.071 29.3706 169.751 29.3205C169.431 29.2704 168.989 29.7658 168.677 29.6823C168.365 29.5988 168.22 28.9559 167.917 28.8473C167.614 28.7388 167.082 29.1257 166.79 28.9782C166.498 28.8306 166.511 28.171 166.233 27.9957C165.955 27.8203 165.359 28.0903 165.12 27.8871C164.88 27.6839 165.003 27.0354 164.772 26.8072C164.541 26.579 163.895 26.7209 163.689 26.4676C163.483 26.2144 163.75 25.6132 163.57 25.3543C163.389 25.0955 162.735 25.076 162.581 24.7977C162.428 24.5194 162.821 23.9627 162.701 23.6677C162.581 23.3726 161.939 23.2363 161.866 22.919C161.794 22.6017 162.27 22.1647 162.217 21.8418C162.164 21.519 161.56 21.2574 161.543 20.9289C161.527 20.6005 162.075 20.2776 162.089 19.9492Z" fill="#BF1523" stroke="#263238" stroke-linecap="round" stroke-linejoin="round"/>
<path d="M173.491 27.7244C177.545 26.4289 179.782 22.092 178.486 18.0375C177.191 13.9831 172.854 11.7465 168.799 13.042C164.745 14.3375 162.508 18.6745 163.804 22.7289C165.099 26.7834 169.436 29.0199 173.491 27.7244Z" fill="#263238" stroke="#263238" stroke-linecap="round" stroke-linejoin="round"/>
<path d="M176.848 24.1419C178.925 20.991 178.055 16.7531 174.904 14.6763C171.753 12.5995 167.515 13.4702 165.438 16.621C163.361 19.7719 164.232 24.0098 167.383 26.0866C170.534 28.1634 174.772 27.2927 176.848 24.1419Z" fill="white" stroke="#263238" stroke-linecap="round" stroke-linejoin="round"/>
<path d="M166.181 19.3291L166.403 20.0138H167.124L166.54 20.4368L166.763 21.1243L166.181 20.6985L165.596 21.1243L165.819 20.4368L165.237 20.0138H165.958L166.181 19.3291Z" fill="#FF6C6C" stroke="#263238" stroke-width="0.5" stroke-linecap="round" stroke-linejoin="round"/>
<path d="M168.653 19.3291L168.875 20.0138H169.596L169.014 20.4368L169.234 21.1243L168.653 20.6985L168.071 21.1243L168.293 20.4368L167.709 20.0138H168.43L168.653 19.3291Z" fill="#FF6C6C" stroke="#263238" stroke-width="0.5" stroke-linecap="round" stroke-linejoin="round"/>
<path d="M171.125 19.3291L171.348 20.0138H172.069L171.487 20.4368L171.71 21.1243L171.125 20.6985L170.544 21.1243L170.766 20.4368L170.185 20.0138H170.903L171.125 19.3291Z" fill="#FF6C6C" stroke="#263238" stroke-width="0.5" stroke-linecap="round" stroke-linejoin="round"/>
<path d="M173.598 19.3291L173.82 20.0138H174.541L173.957 20.4368L174.18 21.1243L173.598 20.6985L173.013 21.1243L173.236 20.4368L172.654 20.0138H173.375L173.598 19.3291Z" fill="#FF6C6C" stroke="#263238" stroke-width="0.5" stroke-linecap="round" stroke-linejoin="round"/>
<path d="M176.07 19.3291L176.293 20.0138H177.014L176.43 20.4368L176.655 21.1243L176.07 20.6985L175.489 21.1243L175.711 20.4368L175.127 20.0138H175.848L176.07 19.3291Z" fill="#FF6C6C" stroke="#263238" stroke-width="0.5" stroke-linecap="round" stroke-linejoin="round"/>
<path d="M166.658 54.8149C166.574 54.7741 166.497 54.7227 166.427 54.6618C166.342 54.5889 166.262 54.5108 166.187 54.428C166.114 54.3467 166.046 54.2602 165.984 54.1691H165.906C165.702 54.1797 165.498 54.1325 165.319 54.0328C165.173 53.9408 165.063 53.8012 165.007 53.6375C164.94 53.4416 164.908 53.2352 164.913 53.028V51.7533C164.907 51.5488 164.939 51.345 165.007 51.1521C165.064 50.992 165.174 50.8563 165.319 50.768C165.499 50.6703 165.702 50.6241 165.906 50.6344C166.113 50.6234 166.319 50.6697 166.502 50.768C166.648 50.8562 166.759 50.9918 166.816 51.1521C166.885 51.345 166.917 51.5488 166.911 51.7533V53.0586C166.912 53.2102 166.896 53.3614 166.864 53.5095C166.837 53.6351 166.784 53.7535 166.708 53.8574C166.637 53.9576 166.541 54.0373 166.43 54.0884L166.544 54.2109L166.663 54.3334C166.7 54.3661 166.739 54.3959 166.78 54.4224L166.658 54.8149ZM165.906 53.7016C165.946 53.7074 165.985 53.7055 166.024 53.6957C166.062 53.686 166.098 53.6687 166.13 53.6448C166.162 53.621 166.188 53.5911 166.208 53.5569C166.228 53.5226 166.241 53.4848 166.246 53.4455C166.263 53.3594 166.272 53.2717 166.271 53.1839V51.5835C166.272 51.4956 166.263 51.4079 166.246 51.3219C166.232 51.2511 166.196 51.1867 166.143 51.1382C166.074 51.0888 165.991 51.0651 165.906 51.0714C165.824 51.065 165.742 51.0887 165.675 51.1382C165.621 51.1854 165.585 51.2506 165.575 51.3219C165.558 51.4079 165.549 51.4956 165.55 51.5835V53.1839C165.549 53.2717 165.558 53.3594 165.575 53.4455C165.586 53.5181 165.621 53.5849 165.675 53.6348C165.742 53.6842 165.824 53.708 165.906 53.7016Z" fill="#263238"/>
<path d="M168.333 54.182C168.124 54.194 167.916 54.1446 167.734 54.04C167.59 53.9453 167.485 53.8022 167.437 53.6364C167.379 53.4328 167.352 53.2218 167.356 53.0102V50.6611H167.974V53.0854C167.974 53.1878 167.981 53.2901 167.996 53.3915C168.006 53.4768 168.04 53.5573 168.096 53.6225C168.127 53.6535 168.164 53.6775 168.205 53.6929C168.246 53.7083 168.289 53.7146 168.333 53.7116C168.378 53.7157 168.423 53.7098 168.465 53.6944C168.508 53.679 168.546 53.6545 168.578 53.6225C168.63 53.5557 168.664 53.4759 168.675 53.3915C168.692 53.2904 168.701 53.1879 168.7 53.0854V50.6611H169.313V53.0102C169.317 53.2218 169.289 53.4328 169.232 53.6364C169.184 53.8014 169.079 53.9443 168.937 54.04C168.754 54.1452 168.544 54.1946 168.333 54.182Z" fill="#263238"/>
<path d="M169.616 54.1347L170.312 50.6611H170.988L171.684 54.1347H171.097L170.961 53.3331H170.354L170.212 54.1347H169.616ZM170.418 52.9295H170.891L170.654 51.4711L170.418 52.9295Z" fill="#263238"/>
<path d="M172.016 54.1347V50.6611H172.65V53.7032H173.485V54.1402L172.016 54.1347Z" fill="#263238"/>
<path d="M173.821 54.1347V50.6611H174.448V54.1347H173.821Z" fill="#263238"/>
<path d="M175.331 54.1347V51.1287H174.774V50.6611H176.508V51.1287H175.952V54.1347H175.331Z" fill="#263238"/>
<path d="M177.313 54.1347V52.8098L176.608 50.6611H177.19L177.619 52.0528L178.022 50.6611H178.601L177.905 52.8098V54.1347H177.313Z" fill="#263238"/>
<path d="M108.722 8.08248L109.582 14.3838L105.571 15.3385C104.471 16.0831 103.323 16.7535 102.134 17.3452C100.508 18.1078 99.3644 18.3945 98.7939 18.3945C98.2233 18.3945 96.1191 17.5345 96.1191 17.5345C96.1191 17.5345 97.5525 9.79976 99.1807 8.93973C100.809 8.0797 105.087 6.84114 108.722 8.08248Z" fill="white" stroke="#263238" stroke-linecap="round" stroke-linejoin="round"/>
<path d="M88.3265 7.86271C88.3265 7.86271 95.4962 7.40625 96.5455 7.40625C97.5948 7.40625 99.9299 10.0058 99.9299 10.0058C99.9299 10.0058 104.205 17.1227 103.846 17.5485C102.944 18.6173 102.223 17.8435 102.223 17.8435L102.059 18.595C102.059 18.595 101.363 19.4578 97.8313 18.9819C94.2994 18.5059 93.1527 17.4399 92.301 17.2423C91.4493 17.0447 86.8096 15.7589 86.8096 15.7589L88.3265 7.86271Z" fill="white" stroke="#263238" stroke-linecap="round" stroke-linejoin="round"/>
<path d="M102.223 17.8295L101.043 15.5527" stroke="#263238" stroke-linecap="round" stroke-linejoin="round"/>
<path d="M101.043 18.8851L99.5791 16.3662" stroke="#263238" stroke-linecap="round" stroke-linejoin="round"/>
<path d="M106.71 8.65302C106.71 8.65302 99.5378 6.45702 98.1184 7.98503C96.6989 9.51305 93.6289 13.5237 94.2969 14.0025C94.9649 14.4812 97.3585 12.6637 97.9152 12.2824C98.3362 11.9775 98.7209 11.6254 99.0619 11.2331C99.7273 11.8901 100.554 12.3597 101.46 12.5943C102.365 12.8289 103.316 12.8202 104.217 12.5691" fill="white"/>
<path d="M106.71 8.65302C106.71 8.65302 99.5378 6.45702 98.1184 7.98503C96.6989 9.51305 93.6289 13.5237 94.2969 14.0025C94.9649 14.4812 97.3585 12.6637 97.9152 12.2824C98.3362 11.9775 98.7209 11.6254 99.0619 11.2331C99.7273 11.8901 100.554 12.3597 101.46 12.5943C102.365 12.8289 103.316 12.8202 104.217 12.5691" stroke="#263238" stroke-linecap="round" stroke-linejoin="round"/>
<path d="M98.8329 16.2288C98.8329 16.2288 98.1454 18.6837 98.4238 19.1012C98.5276 19.2758 98.6862 19.4114 98.8748 19.4869C99.0635 19.5623 99.2718 19.5735 99.4675 19.5187C99.7024 19.4218 99.9161 19.28 100.097 19.1012C100.097 19.1012 100.199 17.0137 99.8878 16.4905C99.576 15.9672 99.3033 15.6026 98.8329 16.2288Z" fill="white" stroke="#263238" stroke-linecap="round" stroke-linejoin="round"/>
<path d="M97.0048 16.5435C97.0048 16.5435 96.3257 18.9984 96.5873 19.4159C96.6917 19.5908 96.8507 19.7264 97.0399 19.8019C97.229 19.8773 97.4378 19.8884 97.6338 19.8334C97.8669 19.7346 98.0793 19.593 98.2601 19.4159C98.2601 19.4159 98.363 17.3256 98.0513 16.8052C97.7396 16.2847 97.4752 15.9173 97.0048 16.5435Z" fill="white" stroke="#263238" stroke-linecap="round" stroke-linejoin="round"/>
<path d="M95.1668 16.6296C95.1668 16.6296 94.6463 18.5139 94.8467 18.834C94.9258 18.9666 95.0462 19.0698 95.1894 19.1276C95.3327 19.1854 95.4909 19.1947 95.6399 19.154C95.8195 19.0793 95.983 18.9706 96.1214 18.834C96.1214 18.834 96.2022 17.2308 95.9628 16.83C95.7234 16.4292 95.5258 16.1509 95.1668 16.6296Z" fill="white" stroke="#263238" stroke-linecap="round" stroke-linejoin="round"/>
<path d="M92.998 16.7096C92.998 16.7096 92.5888 17.9565 92.7475 18.168C92.8207 18.2603 92.9191 18.3294 93.0307 18.3669C93.1423 18.4044 93.2624 18.4088 93.3765 18.3796C93.5143 18.3322 93.6425 18.2606 93.755 18.168C93.755 18.168 93.8191 17.1076 93.6298 16.8432C93.4405 16.5788 93.2819 16.4062 92.998 16.7096Z" fill="white" stroke="#263238" stroke-linecap="round" stroke-linejoin="round"/>
<path d="M110.003 6.13872L107.29 6.70703L109.507 17.2904L112.22 16.7221L110.003 6.13872Z" fill="white" stroke="#263238" stroke-linecap="round" stroke-linejoin="round"/>
<path d="M113.505 5.2643L109.163 6.17383L111.636 17.9803L115.978 17.0708L113.505 5.2643Z" fill="#BF1523" stroke="#263238" stroke-linecap="round" stroke-linejoin="round"/>
<path d="M85.0709 16.7208L87.7842 17.2891L90.0009 6.70571L87.2877 6.1374L85.0709 16.7208Z" fill="white" stroke="#263238" stroke-linecap="round" stroke-linejoin="round"/>
<path d="M81.3139 17.0709L85.6562 17.9805L88.1292 6.17397L83.7869 5.26445L81.3139 17.0709Z" fill="#263238" stroke="#263238" stroke-linecap="round" stroke-linejoin="round"/>
<path d="M83.6728 25.3703C83.4627 25.3822 83.254 25.3297 83.0744 25.22C82.9309 25.1208 82.8243 24.977 82.7711 24.8109C82.7116 24.617 82.6825 24.4152 82.6848 24.2125V22.9711C82.6817 22.7619 82.7108 22.5536 82.7711 22.3532C82.8228 22.1878 82.93 22.0453 83.0744 21.9497C83.2563 21.8465 83.4641 21.7981 83.6728 21.8105C83.8656 21.8015 84.0575 21.8427 84.2295 21.9302C84.358 22.0137 84.4557 22.1368 84.5078 22.2809C84.5663 22.4509 84.5946 22.6299 84.5913 22.8097V23.088H83.9846V22.8097C83.985 22.7213 83.9794 22.6329 83.9679 22.5453C83.9631 22.474 83.9347 22.4065 83.8872 22.3532C83.8554 22.3266 83.8185 22.3067 83.7788 22.2947C83.7391 22.2828 83.6974 22.279 83.6561 22.2836C83.6137 22.2799 83.5709 22.2847 83.5303 22.2976C83.4897 22.3105 83.4521 22.3313 83.4196 22.3588C83.3667 22.4136 83.3325 22.4837 83.3221 22.5592C83.3085 22.6513 83.302 22.7444 83.3027 22.8375V24.346C83.3 24.4507 83.3094 24.5553 83.3305 24.6578C83.3447 24.732 83.3858 24.7983 83.4459 24.844C83.506 24.8897 83.5809 24.9116 83.6561 24.9055C83.6969 24.9104 83.7383 24.9062 83.7773 24.8932C83.8163 24.8802 83.8519 24.8587 83.8816 24.8303C83.929 24.7735 83.9581 24.7036 83.9651 24.6299C83.9792 24.5379 83.9857 24.4448 83.9846 24.3516V24.0343H84.5913V24.3127C84.5966 24.5015 84.5693 24.6898 84.5106 24.8693C84.4626 25.0215 84.3645 25.1529 84.2323 25.2423C84.0619 25.3375 83.8677 25.382 83.6728 25.3703Z" fill="#263238"/>
<path d="M85.9997 25.3683C85.7907 25.3804 85.5827 25.331 85.4013 25.2264C85.2571 25.1317 85.1515 24.9886 85.1035 24.8228C85.0463 24.6191 85.0191 24.4081 85.0228 24.1966V21.8447H85.6407V24.269C85.6393 24.3715 85.6467 24.4739 85.6629 24.5751C85.6719 24.6614 85.7068 24.7429 85.7631 24.8089C85.8305 24.8646 85.9151 24.895 86.0025 24.895C86.0899 24.895 86.1745 24.8646 86.2419 24.8089C86.2958 24.7415 86.3305 24.6607 86.3421 24.5751C86.3583 24.4739 86.3657 24.3715 86.3643 24.269V21.8447H86.9794V24.1994C86.9836 24.4112 86.9554 24.6223 86.8959 24.8256C86.85 24.9908 86.7463 25.134 86.6037 25.2292C86.4202 25.3334 86.2103 25.3818 85.9997 25.3683Z" fill="#263238"/>
<path d="M88.3503 25.3699C88.1681 25.376 87.9876 25.3337 87.827 25.2474C87.6851 25.1654 87.5737 25.0394 87.5097 24.8884C87.4322 24.7051 87.3915 24.5084 87.3901 24.3095L87.9328 24.2009C87.9362 24.3212 87.953 24.4407 87.9829 24.5572C88.0032 24.6465 88.0464 24.7289 88.1081 24.7965C88.1371 24.8248 88.1716 24.8468 88.2094 24.8611C88.2472 24.8755 88.2876 24.8819 88.328 24.88C88.3694 24.8839 88.4111 24.8776 88.4494 24.8616C88.4878 24.8456 88.5216 24.8204 88.5479 24.7882C88.5925 24.7186 88.6149 24.637 88.6119 24.5544C88.6182 24.4223 88.5821 24.2916 88.5089 24.1814C88.4283 24.0731 88.3349 23.975 88.2306 23.8892L87.7936 23.5023C87.6759 23.4021 87.5761 23.2826 87.4986 23.1488C87.4218 23.0003 87.3844 22.8345 87.3901 22.6673C87.3833 22.5507 87.4012 22.4339 87.4424 22.3246C87.4836 22.2153 87.5473 22.1159 87.6294 22.0327C87.8113 21.8763 88.0468 21.7965 88.2863 21.8101C88.4262 21.8061 88.5654 21.8307 88.6954 21.8824C88.7985 21.9281 88.8878 22.0001 88.9543 22.0912C89.0195 22.1833 89.0684 22.2859 89.099 22.3946C89.1306 22.512 89.1502 22.6323 89.1574 22.7536L88.6175 22.8455C88.6132 22.7518 88.6012 22.6587 88.5813 22.5671C88.567 22.4916 88.5323 22.4213 88.4811 22.364C88.4534 22.3386 88.4209 22.3192 88.3855 22.3067C88.3501 22.2943 88.3126 22.2891 88.2751 22.2916C88.2344 22.2901 88.1939 22.2975 88.1564 22.3134C88.1189 22.3293 88.0853 22.3532 88.058 22.3834C88.0065 22.4491 87.9799 22.531 87.9829 22.6144C87.9822 22.712 88.0072 22.8079 88.0553 22.8928C88.1153 22.9796 88.1864 23.0581 88.2668 23.1266L88.6982 23.5079C88.8421 23.6287 88.9661 23.7715 89.0656 23.9309C89.1708 24.1074 89.2238 24.31 89.2187 24.5154C89.2218 24.6702 89.1834 24.8231 89.1073 24.958C89.0367 25.0848 88.9315 25.189 88.804 25.2586C88.6652 25.3351 88.5087 25.3735 88.3503 25.3699Z" fill="#263238"/>
<path d="M89.9424 25.3127V22.3123H89.3857V21.8447H91.1169V22.3123H90.5742V25.3127H89.9424Z" fill="#263238"/>
<path d="M92.3653 25.3695C92.1604 25.379 91.9569 25.3308 91.778 25.2304C91.6319 25.1394 91.5218 25.0008 91.4663 24.8379C91.399 24.6419 91.3669 24.4356 91.3717 24.2284V22.9286C91.3664 22.7232 91.3985 22.5186 91.4663 22.3246C91.5229 22.1645 91.633 22.0289 91.778 21.9405C91.9631 21.8536 92.165 21.8086 92.3695 21.8086C92.5739 21.8086 92.7758 21.8536 92.9609 21.9405C93.1052 22.0297 93.215 22.1651 93.2726 22.3246C93.3415 22.5184 93.3745 22.723 93.37 22.9286V24.2312C93.3742 24.4367 93.3412 24.6413 93.2726 24.8351C93.2147 24.9974 93.1052 25.1363 92.9609 25.2304C92.7792 25.3314 92.5729 25.3797 92.3653 25.3695ZM92.3653 24.9019C92.4491 24.908 92.5322 24.8832 92.5991 24.8323C92.6521 24.7814 92.6881 24.7153 92.7021 24.6431C92.7193 24.557 92.7277 24.4693 92.7271 24.3815V22.7811C92.728 22.6932 92.7196 22.6055 92.7021 22.5195C92.6867 22.4502 92.6508 22.3871 92.5991 22.3385C92.5318 22.2886 92.4487 22.2649 92.3653 22.2717C92.2845 22.2657 92.2043 22.2894 92.1398 22.3385C92.0861 22.3855 92.0499 22.4493 92.0368 22.5195C92.0169 22.6052 92.0076 22.6931 92.009 22.7811V24.3815C92.0084 24.4693 92.0168 24.557 92.0341 24.6431C92.046 24.7154 92.0812 24.7818 92.1343 24.8323C92.2005 24.8824 92.2824 24.907 92.3653 24.9019Z" fill="#263238"/>
<path d="M93.8291 25.3142L93.8876 21.8379H94.5444L95.0398 24.2454L95.5519 21.8379H96.1977L96.2533 25.3142H95.7802L95.7301 22.8983L95.2347 25.3142H94.8534L94.3524 22.89L94.305 25.3142H93.8291Z" fill="#263238"/>
<path d="M96.7539 25.3127V21.8447H98.2123V22.2928H97.3774V23.292H98.0259V23.7346H97.3774V24.8841H98.2123V25.3127H96.7539Z" fill="#263238"/>
<path d="M98.5771 25.3132V21.8453H99.4121C99.613 21.8404 99.8133 21.8686 100.005 21.9288C100.157 21.9759 100.288 22.0743 100.375 22.2071C100.468 22.3772 100.512 22.5701 100.5 22.7637C100.502 22.8909 100.49 23.0178 100.464 23.1423C100.44 23.2432 100.396 23.338 100.333 23.4206C100.266 23.5033 100.177 23.5667 100.077 23.6043L100.562 25.316H99.927L99.5068 23.724H99.2145V25.3132H98.5771ZM99.2117 23.3232H99.4094C99.5051 23.3251 99.6001 23.3061 99.6877 23.2675C99.7608 23.234 99.8178 23.173 99.8463 23.0977C99.8802 23.0003 99.8963 22.8975 99.8936 22.7944C99.9032 22.6566 99.8692 22.5192 99.7962 22.4019C99.7494 22.353 99.6918 22.3157 99.628 22.2929C99.5643 22.2702 99.496 22.2628 99.4288 22.2711H99.1978L99.2117 23.3232Z" fill="#263238"/>
<path d="M102.018 25.3127V21.8447H102.652V24.8841H103.487V25.3127H102.018Z" fill="#263238"/>
<path d="M104.722 25.3695C104.517 25.379 104.313 25.3308 104.134 25.2304C103.988 25.1394 103.878 25.0008 103.823 24.8379C103.755 24.6419 103.723 24.4356 103.728 24.2284V22.9286C103.723 22.7232 103.755 22.5186 103.823 22.3246C103.879 22.1645 103.989 22.0289 104.134 21.9405C104.32 21.8536 104.521 21.8086 104.726 21.8086C104.93 21.8086 105.132 21.8536 105.317 21.9405C105.462 22.0297 105.571 22.1651 105.629 22.3246C105.699 22.518 105.732 22.7229 105.726 22.9286V24.2312C105.732 24.4368 105.699 24.6417 105.629 24.8351C105.571 24.9974 105.462 25.1363 105.317 25.2304C105.136 25.3314 104.929 25.3797 104.722 25.3695ZM104.722 24.9019C104.806 24.908 104.889 24.8832 104.956 24.8323C105.009 24.7821 105.046 24.7157 105.058 24.6431C105.076 24.557 105.084 24.4693 105.084 24.3815V22.7811C105.084 22.6932 105.076 22.6055 105.058 22.5195C105.044 22.4497 105.008 22.3863 104.956 22.3385C104.888 22.2886 104.805 22.2649 104.722 22.2717C104.641 22.2657 104.561 22.2894 104.496 22.3385C104.443 22.3855 104.406 22.4493 104.393 22.5195C104.376 22.6055 104.367 22.6932 104.368 22.7811V24.3815C104.367 24.4692 104.374 24.5569 104.391 24.6431C104.402 24.7154 104.438 24.7818 104.491 24.8323C104.557 24.8824 104.639 24.907 104.722 24.9019Z" fill="#263238"/>
<path d="M106.644 25.3127V23.9851L105.938 21.8447H106.53L106.959 23.2224L107.363 21.8447H107.941L107.246 23.9934V25.3127H106.644Z" fill="#263238"/>
<path d="M107.94 25.3142L108.636 21.8379H109.315L110.008 25.3142H109.421L109.285 24.5126H108.678L108.536 25.3142H107.94ZM108.745 24.109H109.215L108.979 22.6506L108.745 24.109Z" fill="#263238"/>
<path d="M110.34 25.3127V21.8447H110.974V24.8841H111.809V25.3127H110.34Z" fill="#263238"/>
<path d="M112.321 25.3127V22.3123H111.765V21.8447H113.499V22.3123H112.942V25.3127H112.321Z" fill="#263238"/>
<path d="M114.303 25.3142V23.9866L113.599 21.8379H114.191L114.62 23.2156L115.024 21.8379H115.603L114.907 23.9866V25.3142H114.303Z" fill="#263238"/>
<path d="M27 28.6726V25.7919L24.1249 25.4718C23.97 24.8716 23.733 24.2956 23.4207 23.7601L25.2382 21.489L23.2009 19.4683L20.9409 21.2747C20.4059 20.9607 19.8311 20.7201 19.2319 20.5593L18.9118 17.6592H16.0395L15.7139 20.5315C15.1129 20.6881 14.5361 20.926 13.9994 21.2385L11.7282 19.421L9.69365 21.4583L11.5028 23.7184C11.1879 24.2532 10.9464 24.828 10.7847 25.4273L7.89844 25.7474V28.6253L10.7736 28.9454C10.9292 29.5462 11.1661 30.123 11.4777 30.6598L9.66025 32.931L11.6976 34.9656L13.9576 33.1564C14.492 33.4716 15.067 33.7123 15.6666 33.8717L15.9866 36.7608H18.8673L19.1846 33.8857C19.7855 33.73 20.3623 33.4931 20.8991 33.1815L23.1703 34.9962L25.2048 32.9616L23.3957 30.7016C23.7106 30.1667 23.9521 29.5919 24.1138 28.9927L27 28.6726ZM17.4506 30.6459C16.7707 30.6465 16.1058 30.4454 15.5402 30.068C14.9746 29.6906 14.5335 29.154 14.273 28.5259C14.0124 27.8979 13.9439 27.2067 14.0762 26.5397C14.2085 25.8727 14.5357 25.26 15.0163 24.779C15.4969 24.298 16.1094 23.9704 16.7762 23.8375C17.4431 23.7046 18.1344 23.7726 18.7626 24.0326C19.3909 24.2927 19.9279 24.7333 20.3057 25.2986C20.6835 25.8639 20.8852 26.5286 20.8852 27.2086C20.8852 28.1197 20.5234 28.9936 19.8794 29.6382C19.2354 30.2827 18.3618 30.6452 17.4506 30.6459Z" fill="#263238" stroke="#263238" stroke-linecap="round" stroke-linejoin="round"/>
<path d="M38.3043 22.8938L37.9843 20.9872L36.036 21.093C35.8651 20.7136 35.6442 20.3589 35.3791 20.0381L36.356 18.332L34.7835 17.2187L33.4865 18.666C33.0976 18.5182 32.6902 18.4246 32.2758 18.3876L31.7442 16.5117L29.8376 16.829L29.9462 18.7773C29.5656 18.9475 29.2098 19.1685 28.8885 19.4342L27.1712 18.46L26.0579 20.0242L27.5052 21.3184C27.3575 21.7074 27.2638 22.1147 27.2269 22.5292L25.3398 23.0858L25.6599 24.9896L27.6082 24.8838C27.7771 25.2636 27.9972 25.6185 28.2623 25.9387L27.3132 27.6448L28.8857 28.7581L30.1827 27.3108C30.5717 27.4586 30.9791 27.5522 31.3935 27.5891L31.9251 29.4651L33.8316 29.1478L33.7231 27.1995C34.1036 27.0293 34.4594 26.8083 34.7807 26.5426L36.4841 27.4945L37.5974 25.9192L36.1501 24.625C36.2965 24.2356 36.3901 23.8284 36.4284 23.4142L38.3043 22.8938ZM32.1978 25.2568C31.7484 25.3314 31.2869 25.271 30.8717 25.0835C30.4565 24.8959 30.1062 24.5894 29.8651 24.2029C29.624 23.8163 29.5029 23.3669 29.5171 22.9115C29.5313 22.4562 29.6801 22.0152 29.9448 21.6444C30.2095 21.2736 30.5782 20.9895 31.0043 20.8281C31.4304 20.6668 31.8947 20.6353 32.3386 20.7378C32.7826 20.8402 33.1862 21.0719 33.4985 21.4036C33.8108 21.7354 34.0178 22.1522 34.0932 22.6015C34.194 23.2037 34.052 23.8213 33.6983 24.319C33.3446 24.8167 32.808 25.1539 32.2062 25.2568H32.1978Z" fill="#BF1523" stroke="#263238" stroke-linecap="round" stroke-linejoin="round"/>
<path d="M33.7933 40.432L33.4732 38.5255L31.5249 38.6312C31.354 38.2519 31.1331 37.8971 30.8681 37.5764L31.82 35.873L30.2446 34.7597L28.9504 36.207C28.5609 36.0612 28.1538 35.9676 27.7397 35.9287L27.2053 34.0527L25.3015 34.3728L25.4073 36.3211C25.0274 36.4925 24.6717 36.7134 24.3496 36.978L22.6463 36.0289L21.533 37.6014L22.9803 38.8984C22.8328 39.2865 22.7392 39.6929 22.702 40.1064L20.8232 40.6213L21.1405 42.5278L23.0888 42.4193C23.258 42.8004 23.479 43.1563 23.7457 43.4769L22.7938 45.1803L24.3663 46.2936L25.6634 44.8463C26.0523 44.994 26.4597 45.0877 26.8741 45.1246L27.4057 47.0033L29.3122 46.6832L29.2065 44.7349C29.5863 44.5661 29.9412 44.346 30.2613 44.0809L31.9675 45.03L33.0808 43.4574L31.6335 42.1604C31.7799 41.7711 31.8736 41.3639 31.9118 40.9497L33.7933 40.432ZM27.6896 42.7978C27.2394 42.8736 26.7769 42.8142 26.3605 42.6271C25.9442 42.4399 25.5927 42.1335 25.3505 41.7465C25.1083 41.3596 24.9864 40.9095 25.0001 40.4532C25.0138 39.9969 25.1625 39.555 25.4275 39.1832C25.6924 38.8115 26.0617 38.5267 26.4886 38.365C26.9154 38.2032 27.3807 38.1716 27.8255 38.2743C28.2702 38.377 28.6746 38.6093 28.9873 38.9419C29.3 39.2744 29.507 39.6923 29.5822 40.1425C29.6829 40.7456 29.5401 41.3639 29.1852 41.8617C28.8304 42.3596 28.2925 42.6962 27.6896 42.7978Z" fill="white" stroke="#263238" stroke-linecap="round" stroke-linejoin="round"/>
<path d="M15.8069 54.1811C15.6246 54.1885 15.4437 54.1462 15.2837 54.0586C15.1432 53.9759 15.0323 53.8513 14.9664 53.7023C14.8891 53.519 14.8484 53.3223 14.8467 53.1234L15.4033 53.0149C15.4075 53.1349 15.4233 53.2542 15.4506 53.3711C15.4709 53.4596 15.5141 53.5412 15.5759 53.6077C15.6051 53.6357 15.6396 53.6575 15.6773 53.6719C15.7151 53.6862 15.7554 53.6928 15.7958 53.6912C15.8372 53.6956 15.8791 53.6895 15.9175 53.6735C15.9559 53.6574 15.9897 53.6319 16.0157 53.5994C16.0615 53.5303 16.0839 53.4483 16.0797 53.3656C16.0854 53.2335 16.0493 53.103 15.9767 52.9926C15.8962 52.8883 15.8026 52.7948 15.6984 52.7143L15.253 52.3107C15.136 52.2106 15.0371 52.091 14.9608 51.9572C14.884 51.8077 14.8466 51.641 14.8522 51.4729C14.8455 51.3563 14.8634 51.2396 14.9046 51.1302C14.9458 51.0209 15.0095 50.9215 15.0916 50.8384C15.2736 50.6822 15.509 50.6024 15.7485 50.6157C15.8877 50.6113 16.0263 50.6369 16.1548 50.6908C16.2579 50.7365 16.3472 50.8085 16.4137 50.8996C16.4794 50.9904 16.5284 51.0922 16.5584 51.2002C16.5892 51.3179 16.6096 51.438 16.6196 51.5592L16.063 51.6538C16.0584 51.5603 16.0463 51.4672 16.0268 51.3755C16.0152 51.3005 15.9812 51.2306 15.9294 51.1751C15.9014 51.1495 15.8684 51.1298 15.8325 51.1173C15.7966 51.1049 15.7585 51.0999 15.7206 51.1028C15.6799 51.1013 15.6394 51.1087 15.6019 51.1246C15.5644 51.1404 15.5308 51.1643 15.5035 51.1946C15.4522 51.2593 15.4255 51.3402 15.4284 51.4228C15.4268 51.5205 15.4518 51.6167 15.5007 51.7012C15.5608 51.7879 15.6319 51.8665 15.7123 51.935L16.1604 52.3107C16.3035 52.4316 16.4265 52.5744 16.525 52.7338C16.6315 52.9097 16.6846 53.1127 16.6781 53.3182C16.6811 53.4727 16.6437 53.6253 16.5695 53.7608C16.4979 53.8886 16.3918 53.9937 16.2634 54.0642C16.124 54.1423 15.9667 54.1826 15.8069 54.1811Z" fill="#263238"/>
<path d="M18.0027 54.182C17.7937 54.194 17.5857 54.1446 17.4043 54.04C17.2601 53.9453 17.1545 53.8022 17.1065 53.6364C17.0489 53.4328 17.0217 53.2218 17.0258 53.0102V50.6611H17.6437V53.0854C17.6429 53.1877 17.6494 53.2901 17.6632 53.3915C17.6749 53.4767 17.7106 53.5569 17.7661 53.6225C17.8328 53.6798 17.9177 53.7112 18.0055 53.7112C18.0933 53.7112 18.1782 53.6798 18.2449 53.6225C18.2984 53.5559 18.333 53.4761 18.3451 53.3915C18.3598 53.2901 18.3672 53.1878 18.3673 53.0854V50.6611H18.9824V53.0102C18.9871 53.222 18.9589 53.4333 18.8989 53.6364C18.8566 53.7996 18.758 53.9425 18.6206 54.04C18.4334 54.1479 18.2182 54.1974 18.0027 54.182Z" fill="#263238"/>
<path d="M19.4785 54.1335V50.66H20.4916C20.6684 50.653 20.844 50.6923 21.001 50.7741C21.1275 50.8535 21.2251 50.9716 21.2793 51.1109C21.3447 51.2812 21.3759 51.4628 21.3711 51.6452C21.3804 51.8374 21.3412 52.0289 21.257 52.2019C21.185 52.3356 21.0704 52.4413 20.9314 52.5025C20.7769 52.5693 20.6097 52.6016 20.4415 52.5971H20.0964V54.1418L19.4785 54.1335ZM20.1131 52.1434H20.3552C20.4507 52.1498 20.5463 52.1326 20.6336 52.0934C20.6657 52.0777 20.6941 52.0555 20.7172 52.0282C20.7402 52.0008 20.7572 51.969 20.7672 51.9347C20.7948 51.8398 20.807 51.7412 20.8034 51.6425C20.806 51.5397 20.7967 51.4369 20.7755 51.3363C20.7604 51.2643 20.7173 51.2013 20.6558 51.161C20.569 51.12 20.4734 51.1009 20.3775 51.1053H20.1354L20.1131 52.1434Z" fill="#263238"/>
<path d="M21.7227 54.1335V50.66H22.7441C22.9209 50.653 23.0965 50.6923 23.2535 50.7741C23.38 50.8535 23.4776 50.9716 23.5318 51.1109C23.5971 51.2812 23.6284 51.4628 23.6236 51.6452C23.6329 51.8374 23.5937 52.0289 23.5095 52.2019C23.4375 52.3356 23.3229 52.4413 23.1839 52.5025C23.0294 52.5693 22.8622 52.6016 22.694 52.5971H22.3517V54.1418L21.7227 54.1335ZM22.36 52.1434H22.5994C22.6949 52.1498 22.7904 52.1326 22.8777 52.0934C22.9098 52.0777 22.9383 52.0555 22.9613 52.0282C22.9843 52.0008 23.0013 51.969 23.0113 51.9347C23.0389 51.8398 23.0511 51.7412 23.0475 51.6425C23.0502 51.5397 23.0408 51.4369 23.0197 51.3363C23.0045 51.2643 22.9615 51.2013 22.9 51.161C22.8131 51.12 22.7176 51.1009 22.6217 51.1053H22.3823L22.36 52.1434Z" fill="#263238"/>
<path d="M24.9287 54.1823C24.724 54.1932 24.5203 54.1459 24.3414 54.0459C24.1944 53.9541 24.0834 53.8146 24.0269 53.6507C23.9596 53.4547 23.9275 53.2484 23.9323 53.0412V51.7553C23.9267 51.5508 23.9588 51.347 24.0269 51.1541C24.0846 50.9938 24.1956 50.8582 24.3414 50.77C24.5212 50.6724 24.7244 50.6262 24.9287 50.6364C25.1348 50.6251 25.3401 50.6714 25.5215 50.77C25.6667 50.8589 25.7775 50.9943 25.836 51.1541C25.9041 51.347 25.9362 51.5508 25.9306 51.7553V53.0607C25.9354 53.2651 25.9034 53.4688 25.836 53.6619C25.7778 53.8248 25.6672 53.9637 25.5215 54.0571C25.3393 54.1528 25.1341 54.1962 24.9287 54.1823ZM24.9287 53.7147C25.0121 53.7216 25.0952 53.6978 25.1625 53.6479C25.2145 53.5966 25.2495 53.5305 25.2627 53.4587C25.2799 53.3725 25.2883 53.2849 25.2877 53.197V51.5967C25.2886 51.5088 25.2802 51.4211 25.2627 51.335C25.25 51.2646 25.2148 51.2001 25.1625 51.1513C25.0933 51.1079 25.0132 51.0848 24.9314 51.0848C24.8497 51.0848 24.7696 51.1079 24.7004 51.1513C24.6472 51.1999 24.6111 51.2643 24.5975 51.335C24.5799 51.4211 24.5715 51.5088 24.5724 51.5967V53.197C24.5723 53.2847 24.5798 53.3723 24.5947 53.4587C24.597 53.4985 24.608 53.5374 24.6267 53.5727C24.6454 53.6079 24.6715 53.6387 24.7032 53.663C24.7348 53.6873 24.7714 53.7045 24.8103 53.7134C24.8492 53.7223 24.8896 53.7228 24.9287 53.7147Z" fill="#263238"/>
<path d="M26.3975 54.1333V50.6598H27.2324C27.4342 50.6547 27.6354 50.6829 27.8281 50.7432C27.9793 50.7901 28.1094 50.8886 28.1955 51.0216C28.2905 51.1911 28.3349 51.3843 28.3235 51.5782C28.3244 51.7045 28.3113 51.8305 28.2845 51.954C28.2616 52.0551 28.217 52.1501 28.1537 52.2323C28.0863 52.3147 27.9978 52.3772 27.8976 52.4132L28.3819 54.1249H27.7473L27.3271 52.5329H27.0487V54.1249L26.3975 54.1333ZM27.032 52.1432H27.2297C27.3307 52.1483 27.4316 52.1302 27.5247 52.0904C27.5966 52.0546 27.6523 51.993 27.6805 51.9178C27.7146 51.8213 27.7306 51.7194 27.7279 51.6172C27.7388 51.4793 27.7047 51.3415 27.6305 51.2248C27.5845 51.1755 27.5274 51.1379 27.464 51.1152C27.4006 51.0924 27.3326 51.0851 27.2658 51.0939H27.032V52.1432Z" fill="#263238"/>
<path d="M29.1358 54.1347V51.1287H28.5791V50.6611H30.3103V51.1287H29.7676V54.1347H29.1358Z" fill="#263238"/>
<path d="M12.5797 80.0469H9.71289V88.5999H12.5797V80.0469Z" fill="#263238" stroke="#263238" stroke-width="0.5" stroke-linecap="round" stroke-linejoin="round"/>
<path d="M17.0845 83.1211H14.2178V88.5986H17.0845V83.1211Z" fill="#BF1523" stroke="#263238" stroke-linecap="round" stroke-linejoin="round"/>
<path d="M21.5914 78.1738H18.7246V88.6H21.5914V78.1738Z" fill="#263238" stroke="#263238" stroke-width="0.5" stroke-linecap="round" stroke-linejoin="round"/>
<path d="M26.0972 80.3301H23.2305V88.5992H26.0972V80.3301Z" fill="#BF1523" stroke="#263238" stroke-linecap="round" stroke-linejoin="round"/>
<path d="M30.6031 78.4404H27.7363V88.5994H30.6031V78.4404Z" fill="#263238" stroke="#263238" stroke-width="0.5" stroke-linecap="round" stroke-linejoin="round"/>
<path d="M35.107 72.4209H32.2402V88.6001H35.107V72.4209Z" fill="#BF1523" stroke="#263238" stroke-linecap="round" stroke-linejoin="round"/>
<path d="M38.3301 72.248H40.0084" stroke="#263238" stroke-width="0.5" stroke-linecap="round" stroke-linejoin="round"/>
<path d="M38.3301 75.5176H40.0084" stroke="#263238" stroke-width="0.5" stroke-linecap="round" stroke-linejoin="round"/>
<path d="M38.3301 78.791H40.0084" stroke="#263238" stroke-width="0.5" stroke-linecap="round" stroke-linejoin="round"/>
<path d="M38.3301 82.0605H40.0084" stroke="#263238" stroke-width="0.5" stroke-linecap="round" stroke-linejoin="round"/>
<path d="M38.3301 85.332H40.0084" stroke="#263238" stroke-width="0.5" stroke-linecap="round" stroke-linejoin="round"/>
<path d="M38.3301 88.6025H40.0084" stroke="#263238" stroke-width="0.5" stroke-linecap="round" stroke-linejoin="round"/>
<path d="M11.3516 76.8933L15.7463 79.5486L20.3137 74.6556L24.8254 75.0369L29.2007 73.3001L34.1466 66.79" stroke="#263238" stroke-linecap="round" stroke-linejoin="round"/>
<path d="M11.9053 76.8926C11.9053 76.7825 11.8727 76.6749 11.8115 76.5833C11.7503 76.4918 11.6634 76.4204 11.5617 76.3783C11.46 76.3362 11.348 76.3252 11.24 76.3466C11.1321 76.3681 11.0329 76.4211 10.955 76.499C10.8772 76.5768 10.8242 76.676 10.8027 76.784C10.7812 76.892 10.7922 77.0039 10.8344 77.1056C10.8765 77.2073 10.9478 77.2943 11.0394 77.3554C11.1309 77.4166 11.2386 77.4492 11.3486 77.4492C11.4963 77.4492 11.6379 77.3906 11.7423 77.2862C11.8467 77.1818 11.9053 77.0402 11.9053 76.8926Z" fill="#263238"/>
<path d="M16.2998 79.5479C16.2998 79.4378 16.2672 79.3301 16.206 79.2386C16.1449 79.1471 16.0579 79.0757 15.9562 79.0336C15.8545 78.9914 15.7426 78.9804 15.6346 79.0019C15.5266 79.0234 15.4274 79.0764 15.3496 79.1543C15.2717 79.2321 15.2187 79.3313 15.1972 79.4393C15.1757 79.5472 15.1868 79.6592 15.2289 79.7609C15.271 79.8626 15.3424 79.9495 15.4339 80.0107C15.5255 80.0719 15.6331 80.1045 15.7432 80.1045C15.8908 80.1045 16.0324 80.0459 16.1368 79.9415C16.2412 79.8371 16.2998 79.6955 16.2998 79.5479Z" fill="#263238"/>
<path d="M20.8672 74.6553C20.8672 74.5452 20.8346 74.4376 20.7734 74.346C20.7122 74.2545 20.6253 74.1831 20.5236 74.141C20.4219 74.0989 20.3099 74.0878 20.202 74.1093C20.094 74.1308 19.9948 74.1838 19.9169 74.2617C19.8391 74.3395 19.7861 74.4387 19.7646 74.5467C19.7431 74.6547 19.7541 74.7666 19.7963 74.8683C19.8384 74.97 19.9098 75.057 20.0013 75.1181C20.0928 75.1793 20.2005 75.2119 20.3106 75.2119C20.4582 75.2119 20.5998 75.1533 20.7042 75.0489C20.8086 74.9445 20.8672 74.8029 20.8672 74.6553Z" fill="#263238"/>
<path d="M25.3799 75.0361C25.3799 74.9261 25.3473 74.8184 25.2861 74.7269C25.2249 74.6353 25.138 74.564 25.0363 74.5219C24.9346 74.4797 24.8226 74.4687 24.7147 74.4902C24.6067 74.5117 24.5075 74.5647 24.4296 74.6425C24.3518 74.7204 24.2988 74.8196 24.2773 74.9276C24.2558 75.0355 24.2668 75.1475 24.309 75.2492C24.3511 75.3509 24.4225 75.4378 24.514 75.499C24.6055 75.5602 24.7132 75.5928 24.8233 75.5928C24.9709 75.5928 25.1125 75.5342 25.2169 75.4298C25.3213 75.3254 25.3799 75.1838 25.3799 75.0361Z" fill="#263238"/>
<path d="M29.7549 73.2139C29.7549 73.1038 29.7223 72.9962 29.6611 72.9046C29.5999 72.8131 29.513 72.7417 29.4113 72.6996C29.3096 72.6575 29.1976 72.6464 29.0897 72.6679C28.9817 72.6894 28.8825 72.7424 28.8046 72.8203C28.7268 72.8981 28.6738 72.9973 28.6523 73.1053C28.6308 73.2133 28.6418 73.3252 28.684 73.4269C28.7261 73.5286 28.7975 73.6156 28.889 73.6767C28.9805 73.7379 29.0882 73.7705 29.1983 73.7705C29.3459 73.7705 29.4875 73.7119 29.5919 73.6075C29.6963 73.5031 29.7549 73.3615 29.7549 73.2139Z" fill="#263238"/>
<path d="M34.7041 66.7842C34.7041 66.6741 34.6715 66.5665 34.6103 66.4749C34.5492 66.3834 34.4622 66.312 34.3605 66.2699C34.2588 66.2278 34.1469 66.2168 34.0389 66.2382C33.9309 66.2597 33.8317 66.3127 33.7539 66.3906C33.676 66.4684 33.623 66.5676 33.6015 66.6756C33.58 66.7836 33.5911 66.8955 33.6332 66.9972C33.6753 67.0989 33.7467 67.1859 33.8382 67.247C33.9298 67.3082 34.0374 67.3408 34.1475 67.3408C34.2951 67.3408 34.4367 67.2822 34.5411 67.1778C34.6455 67.0734 34.7041 66.9318 34.7041 66.7842Z" fill="#263238"/>
<path d="M10.75 96.9858V93.5039H11.3762V96.9774L10.75 96.9858Z" fill="#263238"/>
<path d="M11.9111 96.9858L11.9724 93.5039H12.6264L13.1219 95.9087L13.6368 93.5039H14.2713L14.3354 96.9774H13.8622L13.8121 94.5699L13.3195 96.9858H12.9354L12.4344 94.5615L12.3871 96.9858H11.9111Z" fill="#263238"/>
<path d="M14.8232 96.9866V93.5047H15.8447C16.0215 93.4977 16.1971 93.5371 16.354 93.6188C16.4806 93.6983 16.5782 93.8164 16.6324 93.9556C16.6977 94.126 16.7289 94.3075 16.7242 94.49C16.7331 94.6821 16.6939 94.8735 16.6101 95.0466C16.5381 95.1803 16.4234 95.2861 16.2845 95.3472C16.13 95.414 15.9628 95.4463 15.7946 95.4419H15.4578V96.9866H14.8232ZM15.4578 94.9965H15.7C15.7955 95.0029 15.891 94.9857 15.9783 94.9464C16.0104 94.9308 16.0389 94.9086 16.0619 94.8812C16.0849 94.8539 16.1019 94.8221 16.1119 94.7878C16.1395 94.6929 16.1517 94.5943 16.1481 94.4955C16.1508 94.3928 16.1414 94.29 16.1202 94.1894C16.1137 94.1534 16.0996 94.1192 16.079 94.089C16.0584 94.0588 16.0317 94.0333 16.0006 94.014C15.9137 93.9731 15.8182 93.954 15.7222 93.9584H15.4801L15.4578 94.9965Z" fill="#263238"/>
<path d="M17.0693 96.9864V93.5045H17.9043C18.1061 93.4994 18.3073 93.5277 18.4999 93.588C18.6512 93.6349 18.7812 93.7334 18.8673 93.8663C18.9624 94.0358 19.0068 94.229 18.9954 94.423C18.9963 94.5493 18.9832 94.6753 18.9564 94.7987C18.933 94.8997 18.8884 94.9946 18.8256 95.077C18.7582 95.1594 18.6697 95.222 18.5695 95.2579L19.0566 96.9697H18.4137L17.9878 95.3943H17.7095V96.9864H17.0693ZM17.7095 94.9963H17.9043C18.0054 95.0014 18.1063 94.9833 18.1993 94.9434C18.2713 94.9077 18.327 94.846 18.3552 94.7709C18.3909 94.6739 18.407 94.5708 18.4025 94.4675C18.412 94.3301 18.379 94.193 18.3079 94.075C18.261 94.0263 18.2034 93.9891 18.1396 93.9664C18.0758 93.9437 18.0077 93.9361 17.9405 93.9442H17.7095V94.9963Z" fill="#263238"/>
<path d="M20.3991 97.0325C20.1944 97.0431 19.9909 96.9958 19.8118 96.8961C19.6648 96.8043 19.5538 96.6648 19.4973 96.5009C19.4313 96.3046 19.3993 96.0984 19.4027 95.8914V94.5916C19.3988 94.3872 19.4308 94.1837 19.4973 93.9904C19.555 93.8301 19.666 93.6945 19.8118 93.6063C19.9961 93.5183 20.1977 93.4727 20.4019 93.4727C20.606 93.4727 20.8076 93.5183 20.9919 93.6063C21.1371 93.6952 21.2479 93.8305 21.3064 93.9904C21.3755 94.1831 21.4085 94.3869 21.4038 94.5916V95.8969C21.4078 96.1016 21.3748 96.3052 21.3064 96.4981C21.2482 96.661 21.1376 96.8 20.9919 96.8933C20.8115 96.9951 20.6059 97.0433 20.3991 97.0325ZM20.3991 96.5649C20.483 96.5723 20.5666 96.5474 20.6329 96.4953C20.6854 96.4456 20.7206 96.3802 20.7331 96.3089C20.7503 96.2227 20.7587 96.1351 20.7581 96.0472V94.4469C20.759 94.359 20.7506 94.2713 20.7331 94.1852C20.7204 94.1148 20.6852 94.0503 20.6329 94.0015C20.5637 93.958 20.4836 93.935 20.4019 93.935C20.3201 93.935 20.24 93.958 20.1708 94.0015C20.1176 94.0501 20.0815 94.1145 20.0679 94.1852C20.0503 94.2713 20.0419 94.359 20.0428 94.4469V96.0472C20.0422 96.1351 20.0506 96.2227 20.0679 96.3089C20.078 96.381 20.1135 96.4471 20.1681 96.4953C20.2334 96.547 20.316 96.5719 20.3991 96.5649Z" fill="#263238"/>
<path d="M22.3869 96.9858L21.6855 93.5039H22.2422L22.7014 95.9615L23.1356 93.5039H23.7118L23.0132 96.9774L22.3869 96.9858Z" fill="#263238"/>
<path d="M24.0684 96.9858V93.5039H25.5268V93.9492H24.6918V94.9484H25.3375V95.391H24.6918V96.5405H25.5268V96.9774L24.0684 96.9858Z" fill="#263238"/>
<path d="M25.8936 96.9852L25.9548 93.5117H26.6144L27.1071 95.9165L27.622 93.5117H28.2566L28.3206 96.9852H27.8474L27.7973 94.5694L27.3047 96.9852H26.9206L26.4168 94.561L26.3695 96.9852H25.8936Z" fill="#263238"/>
<path d="M28.8096 96.9858V93.5039H30.268V93.9492H29.433V94.9484H30.0787V95.391H29.433V96.5405H30.268V96.9774L28.8096 96.9858Z" fill="#263238"/>
<path d="M30.6436 96.9858V93.5039H31.0861L31.9211 95.4856V93.5039H32.461V96.9774H32.0408L31.1891 94.9011V96.9774L30.6436 96.9858Z" fill="#263238"/>
<path d="M33.3291 96.9858V93.9798H32.7725V93.5039H34.5064V93.9715H33.9498V96.9774L33.3291 96.9858Z" fill="#263238"/>
<path d="M111.038 114.739H86.2559L89.9715 101.06H107.32L111.038 114.739Z" fill="#263238" stroke="#263238" stroke-linecap="round" stroke-linejoin="round"/>
<path d="M117.48 114.739H79.8115V116.128H117.48V114.739Z" fill="#263238" stroke="#263238" stroke-linecap="round" stroke-linejoin="round"/>
<path d="M152.215 34.4814H45.0732V102.496H152.215V34.4814Z" fill="#263238" stroke="#263238" stroke-linecap="round" stroke-linejoin="round"/>
<path d="M148.785 37.0752H48.5088V99.9048H148.785V37.0752Z" fill="#B2B2B2" stroke="#263238" stroke-linecap="round" stroke-linejoin="round"/>
<path d="M78.8038 52.9297L72.3076 54.0152L74.3561 83.9771L83.7719 84.7369C83.7719 84.7369 85.8176 73.217 85.9345 71.3466C86.0514 69.4762 82.5946 55.443 82.5946 55.443L78.8038 52.9297Z" fill="#BF1523" fill-opacity="0.7" stroke="#263238" stroke-linecap="round" stroke-linejoin="round"/>
<path d="M88.4027 99.9044C88.6163 99.1664 88.7222 98.4015 88.7172 97.6332C88.6421 96.5199 88.347 94.8193 88.347 94.8193L85.6807 95.042L86.7133 99.9044H88.4027Z" fill="white" stroke="#263238" stroke-linecap="round" stroke-linejoin="round"/>
<path d="M59.8138 99.9045H86.7781C86.7057 99.3116 86.4998 97.817 86.2855 96.3168C85.9932 94.388 84.006 80.878 84.006 80.878L64.1891 79.0049C64.1891 79.0049 59.5688 87.9531 58.9259 90.5833C58.283 93.2135 59.7358 99.4118 59.7358 99.4118L59.8138 99.9045Z" fill="#263238" stroke="#263238" stroke-linecap="round" stroke-linejoin="round"/>
<path d="M85.9351 32.5777C85.9351 32.5777 87.4548 32.227 88.0977 34.6234C88.7406 37.0198 87.9808 38.2417 88.2731 39.419C88.5653 40.5963 89.1943 43.3351 88.4317 46.0822C87.6691 48.8293 84.9415 50.8137 84.8134 51.8157L84.6965 52.8094C84.6965 52.8094 84.2874 53.2185 83.0015 53.1016C81.7157 52.9847 80.1348 52.0495 80.1348 52.0495L80.3101 50.0623C80.3101 50.0623 82.5367 50.0623 83.06 49.6531C83.5832 49.244 85.8655 45.1999 86.0409 44.0393C86.2162 42.8786 86.3331 39.5359 86.1578 38.5423C85.9824 37.5487 84.7661 35.5002 84.2874 35.3248C83.8087 35.1495 81.6544 33.6298 81.6544 33.6298C81.6544 33.6298 84.6492 31.8179 85.9351 32.5777Z" fill="#263238" stroke="#263238" stroke-linecap="round" stroke-linejoin="round"/>
<path d="M87.3959 57.7227C87.3959 57.7227 89.269 58.5994 89.3275 60.0606C89.3859 61.5218 88.331 68.0124 88.331 68.4828C88.331 68.9532 87.805 78.6557 87.805 78.6557L88.9378 95.5585L86.2742 95.7088C86.2742 95.7088 83.9502 83.2063 84.1812 81.6978C84.4122 80.1892 85.8178 72.6911 85.9347 71.3468C86.0516 70.0025 85.7593 64.2717 86.1684 62.5767C86.5776 60.8817 87.3959 57.7227 87.3959 57.7227Z" fill="white" stroke="#263238" stroke-linecap="round" stroke-linejoin="round"/>
<path d="M83.3933 33.8518C83.3933 33.8518 86.2823 35.0319 86.7499 37.0804C87.2175 39.1289 86.5161 41.6978 86.7499 43.3372C86.9837 44.9765 84.6457 49.0679 83.8274 50.0615C83.0092 51.0552 81.0191 50.7045 81.0191 50.7045L81.3197 53.9804C81.3197 53.9804 82.5444 58.0718 82.3662 59.1239C82.1881 60.176 80.2593 61.7207 77.8072 61.5787C74.7651 61.4034 73.8271 58.5728 73.8271 58.5728L74.2363 52.0822C74.3386 50.745 74.3003 49.4007 74.1222 48.0715C73.8299 45.6751 74.4729 42.0485 74.7067 41.464C74.9405 40.8795 77.1058 38.4831 78.4502 37.548C79.7945 36.6128 82.4247 33.9297 82.4247 33.9297C82.4247 33.9297 83.1984 33.6041 83.3933 33.8518Z" fill="white" stroke="#263238" stroke-linecap="round" stroke-linejoin="round"/>
<path d="M74.1199 53.3105C74.1199 53.3105 65.1188 54.1455 63.8218 55.0306C62.5248 55.9157 64.4063 74.6777 64.4063 74.6777C64.4063 74.6777 57.1698 90.5841 57.3897 90.701C57.6096 90.8179 61.0719 93.6819 64.757 94.3193C68.4421 94.9567 73.8193 95.4326 73.8193 95.4326C73.8193 95.4326 75.7481 79.6431 75.9819 78.4157C76.2157 77.1882 75.4559 65.0253 75.5728 63.3303C75.6897 61.6353 74.1199 53.3105 74.1199 53.3105Z" fill="white" stroke="#263238" stroke-linecap="round" stroke-linejoin="round"/>
<path d="M74.3789 72.333C74.6444 72.9576 74.9493 73.5646 75.2918 74.1505" stroke="#263238" stroke-linecap="round" stroke-linejoin="round"/>
<path d="M72.0713 57.2061C72.4582 60.7102 73.0538 66.1543 73.2458 68.1861C73.3806 69.4242 73.685 70.638 74.1504 71.7932" stroke="#263238" stroke-linecap="round" stroke-linejoin="round"/>
<path d="M71.7236 54.0723C71.7236 54.0723 71.8155 54.9072 71.9546 56.1625" stroke="#263238" stroke-linecap="round" stroke-linejoin="round"/>
<path d="M83.3934 33.8519C82.8116 34.8455 82.1605 35.797 81.4451 36.6992C80.4264 37.9211 76.5632 40.4288 76.5632 40.4288C76.5632 40.4288 76.63 41.787 76.3573 42.1934C76.0845 42.5997 75.205 42.3298 75.205 42.3298C75.205 42.3298 74.5955 45.6502 74.7987 48.0939C75.0018 50.5376 76.2237 51.2112 75.8841 51.8235C75.5446 52.4358 73.4042 54.0501 70.4901 52.9062C67.5761 51.7623 66.0814 50.5989 65.3355 48.7675C64.5896 46.9361 67.2031 37.1751 69.1013 34.0551C70.9995 30.935 75.5446 28.9005 78.3251 29.24C81.1055 29.5796 86.057 31.0714 86.4633 32.2237C86.8697 33.376 83.3934 33.8519 83.3934 33.8519Z" fill="#263238" stroke="#263238" stroke-linecap="round" stroke-linejoin="round"/>
<path d="M74.7075 41.4561C74.7075 41.4561 72.0912 44.3674 71.554 47.5097C71.0168 50.652 72.6311 51.9991 73.2602 52.2691" stroke="#5C5C5C" stroke-linecap="round" stroke-linejoin="round"/>
<path d="M66.9865 47.0811C66.9158 47.6809 66.9727 48.2888 67.1535 48.8651" stroke="#5C5C5C" stroke-linecap="round" stroke-linejoin="round"/>
<path d="M79.2188 35.6895C78.5607 36.2746 77.8581 36.8078 77.1174 37.2843C73.5632 39.6055 68.8149 42.3971 67.376 45.6564" stroke="#5C5C5C" stroke-linecap="round" stroke-linejoin="round"/>
<path d="M81.1676 32.2529C81.1676 32.2529 81.4682 33.1937 80.1211 34.7774" stroke="#5C5C5C" stroke-linecap="round" stroke-linejoin="round"/>
<path d="M81.3201 53.9795C81.3201 53.9795 86.2855 56.9604 87.396 57.7202C88.5065 58.48 86.6362 65.6136 86.8115 67.0163C86.9869 68.4191 87.5129 71.7479 86.9869 73.1562C86.4608 74.5646 86.1686 75.4385 86.1686 75.4385L85.175 81.8707C85.175 81.8707 86.8115 94.2089 86.7531 94.3954C86.6946 94.5819 80.9639 95.3306 80.9639 95.3306C80.9639 95.3306 82.0159 82.8058 82.6032 80.184C83.1905 77.5622 85.1082 73.6934 84.6489 69.3682C84.1897 65.043 81.3201 53.9795 81.3201 53.9795Z" fill="white" stroke="#263238" stroke-linecap="round" stroke-linejoin="round"/>
<path d="M85.8262 69.3643C85.7531 70.7728 85.4131 72.1546 84.8242 73.4362" stroke="#263238" stroke-linecap="round" stroke-linejoin="round"/>
<path d="M84.2285 56.374C84.2285 56.374 85.776 64.7405 85.8539 68.0415" stroke="#263238" stroke-linecap="round" stroke-linejoin="round"/>
<path d="M86.4551 65.6144C86.4551 65.6144 86.0988 62.6947 85.6201 61.1611" stroke="#263238" stroke-linecap="round" stroke-linejoin="round"/>
<path d="M82.003 41.9268C82.003 42.3888 81.7803 42.7618 81.502 42.7618C81.2236 42.7618 81.001 42.386 81.001 41.9268C81.001 41.4675 81.2236 41.0918 81.502 41.0918C81.7803 41.0918 82.003 41.4564 82.003 41.9268Z" fill="#263238"/>
<path d="M86.2587 41.9268C86.2587 42.3888 86.036 42.7618 85.7577 42.7618C85.4794 42.7618 85.2539 42.386 85.2539 41.9268C85.2539 41.4675 85.4794 41.0918 85.7577 41.0918C86.036 41.0918 86.2587 41.4564 86.2587 41.9268Z" fill="#263238"/>
<path d="M79.9814 40.3438C80.3962 40.0704 80.8659 39.8913 81.3573 39.8192C81.8488 39.7471 82.3501 39.7836 82.826 39.9264" stroke="#263238" stroke-linecap="round" stroke-linejoin="round"/>
<path d="M86.34 40.344C86.1974 40.18 86.0004 40.0729 85.7853 40.0423C85.5701 40.0116 85.3511 40.0594 85.1683 40.177C85.1683 40.177 84.4168 41.1818 84.5838 41.847" stroke="#263238" stroke-linecap="round" stroke-linejoin="round"/>
<path d="M84.6692 45.8613L83.0771 46.1118" stroke="#263238" stroke-linecap="round" stroke-linejoin="round"/>
<path d="M83.673 47.2006C83.673 47.2006 81.3295 47.8685 79.9072 46.1123" stroke="#263238" stroke-linecap="round" stroke-linejoin="round"/>
<path d="M81.0216 50.705L78.7227 49.9619L80.7322 52.3917L81.0216 50.705Z" fill="#263238" stroke="#263238" stroke-linecap="round" stroke-linejoin="round"/>
<path d="M122.599 53.9141C122.05 54.7615 121.649 55.696 121.414 56.6779C121.085 58.1892 120.757 59.9009 120.757 59.9009C120.757 59.9009 122.402 58.5844 122.599 58.5092C122.797 58.4341 122.469 56.8003 122.469 56.8003L123.582 55.8791L122.599 53.9141Z" fill="#263238" stroke="#263238" stroke-linecap="round" stroke-linejoin="round"/>
<path d="M123.256 31.7455C123.256 31.7455 121.611 32.3384 120.954 33.5212C120.297 34.7041 118.586 37.4679 118.85 38.3892C119.114 39.3105 119.243 39.7057 119.243 39.7057C119.243 39.7057 116.877 43.85 117.138 44.2452C117.459 44.6439 117.811 45.0162 118.19 45.3585C118.19 45.3585 119.243 50.2905 119.705 50.6189C120.167 50.9473 121.48 51.1449 121.48 51.1449L123.387 53.5135L133.846 49.2495L133.98 46.9478C133.98 46.9478 137.531 42.3414 137.991 39.7112C138.45 37.0811 135.096 32.5415 131.478 30.7658C127.86 28.9901 124.046 29.9698 123.256 31.7455Z" fill="white" stroke="#263238" stroke-linecap="round" stroke-linejoin="round"/>
<path d="M119.854 41.1221C120.306 41.495 120.862 41.7178 121.447 41.7594" stroke="#263238" stroke-linecap="round" stroke-linejoin="round"/>
<path d="M131.478 30.7592C127.859 28.9835 124.046 29.9687 123.256 31.7445C123.256 31.7445 123.584 32.0089 124.647 31.9421C125.711 31.8753 128.202 30.8288 128.859 31.7445C129.515 32.6602 126.885 33.4562 125.9 34.8367C124.915 36.2172 125.176 36.284 125.964 37.3416C126.752 38.3993 126.885 38.8557 126.754 39.315C126.624 39.7742 126.426 40.1694 127.28 40.303C128.135 40.4366 128.394 38.3297 129.713 38.9865C131.032 39.6434 131.227 41.6167 130.765 42.9332C130.652 43.3012 130.466 43.6425 130.218 43.9366C129.969 44.2308 129.664 44.4717 129.321 44.6449C129.321 44.6449 129.515 45.4994 130.963 46.2231C131.912 46.6702 132.942 46.9165 133.991 46.9467C133.991 46.9467 137.542 42.3404 138.002 39.7102C138.461 37.08 135.096 32.5488 131.478 30.7592Z" fill="#263238" stroke="#263238" stroke-linecap="round" stroke-linejoin="round"/>
<path d="M133.979 42.5439C134.195 43.0921 134.279 43.6831 134.224 44.2696" stroke="#5C5C5C" stroke-linecap="round" stroke-linejoin="round"/>
<path d="M126.499 35.708C126.499 35.708 126.964 36.6376 129.561 37.7537C131.025 38.3827 132.402 39.7187 133.279 41.1298" stroke="#5C5C5C" stroke-linecap="round" stroke-linejoin="round"/>
<path d="M133.665 38.5C133.665 38.5 135.992 39.8916 135.613 42.5942" stroke="#5C5C5C" stroke-linecap="round" stroke-linejoin="round"/>
<path d="M120.968 39.8692C120.968 40.3228 120.776 40.7041 120.539 40.7041C120.303 40.7041 120.113 40.334 120.113 39.8692C120.113 39.4044 120.303 39.0342 120.539 39.0342C120.776 39.0342 120.968 39.4155 120.968 39.8692Z" fill="#263238"/>
<path d="M119.576 38.0611C119.576 38.0611 120.759 36.6695 121.803 38.1279" stroke="#263238" stroke-linecap="round" stroke-linejoin="round"/>
<path d="M119.111 45.5586C119.111 45.5586 120.689 45.4278 121.678 44.4453" stroke="#263238" stroke-linecap="round" stroke-linejoin="round"/>
<path d="M129.317 44.6396L128.594 44.8345C128.271 45.8002 127.73 46.6785 127.013 47.4007" fill="white"/>
<path d="M129.317 44.6396L128.594 44.8345C128.271 45.8002 127.73 46.6785 127.013 47.4007" stroke="#263238" stroke-linecap="round" stroke-linejoin="round"/>
<path d="M134.049 48.2549C134.049 48.2549 123.787 52.5328 123.328 53.0588C122.869 53.5849 122.604 53.9133 122.604 53.9133L123.392 58.1244L135.36 50.2282L134.049 48.2549Z" fill="white" stroke="#263238" stroke-linecap="round" stroke-linejoin="round"/>
<path d="M104.205 77.2437L104.776 81.4325L102.109 82.0671C101.375 82.5621 100.609 83.0075 99.8158 83.4003C98.7387 83.9069 97.9761 84.0961 97.5892 84.0961C97.2023 84.0961 95.8135 83.5255 95.8135 83.5255C95.8135 83.5255 96.7654 78.3848 97.8453 77.8143C98.9252 77.2437 101.792 76.4171 104.205 77.2437Z" fill="white" stroke="#263238" stroke-linecap="round" stroke-linejoin="round"/>
<path d="M90.7809 78.9995C90.7809 78.9995 95.7908 78.2563 96.3474 78.1784C96.9041 78.1005 98.3625 79.3168 98.3625 79.3168C98.3625 79.3168 101.193 82.8237 101.032 83.0797C100.625 83.7227 100.183 83.3581 100.183 83.3581L100.149 83.7756C100.149 83.7756 99.8404 84.2932 97.9033 84.2988C95.9661 84.3044 95.2731 83.8284 94.7971 83.7895C94.3212 83.7505 90.5693 82.7931 90.5693 82.7931L90.7809 78.9995Z" fill="white" stroke="#263238" stroke-linecap="round" stroke-linejoin="round"/>
<path d="M89.0987 78.626L90.9384 78.9572L90.7352 83.1043L89.0625 82.9957L89.0987 78.626Z" fill="white" stroke="#263238" stroke-linecap="round" stroke-linejoin="round"/>
<path d="M68.7015 54.769C68.7015 54.769 63.469 54.4044 62.3724 55.2561C61.2757 56.1077 61.8157 67.3661 62.7397 71.4436C63.6638 75.5211 64.9302 82.0339 65.523 82.3373C66.1159 82.6407 89.3423 83.5814 89.3423 83.5814L89.5872 78.5298L71.6713 74.6694L70.3938 58.7268" fill="white"/>
<path d="M68.7015 54.769C68.7015 54.769 63.469 54.4044 62.3724 55.2561C61.2757 56.1077 61.8157 67.3661 62.7397 71.4436C63.6638 75.5211 64.9302 82.0339 65.523 82.3373C66.1159 82.6407 89.3423 83.5814 89.3423 83.5814L89.5872 78.5298L71.6713 74.6694L70.3938 58.7268" stroke="#263238" stroke-linecap="round" stroke-linejoin="round"/>
<path d="M100.196 83.3582L99.3887 82.2227" stroke="#263238" stroke-linecap="round" stroke-linejoin="round"/>
<path d="M99.64 84.0156L98.6631 82.7715" stroke="#263238" stroke-linecap="round" stroke-linejoin="round"/>
<path d="M102.877 77.6386C102.877 77.6386 98.1176 76.1774 97.1657 77.1933C96.2138 78.2092 94.182 80.8755 94.6274 81.1928C95.0727 81.5101 96.6564 80.3022 97.0377 80.0489C97.3178 79.846 97.5737 79.6116 97.8003 79.3503C98.2424 79.7874 98.792 80.0999 99.3937 80.2563C99.9953 80.4127 100.628 80.4074 101.227 80.2409" fill="white"/>
<path d="M102.877 77.6386C102.877 77.6386 98.1176 76.1774 97.1657 77.1933C96.2138 78.2092 94.182 80.8755 94.6274 81.1928C95.0727 81.5101 96.6564 80.3022 97.0377 80.0489C97.3178 79.846 97.5737 79.6116 97.8003 79.3503C98.2424 79.7874 98.792 80.0999 99.3937 80.2563C99.9953 80.4127 100.628 80.4074 101.227 80.2409" stroke="#263238" stroke-linecap="round" stroke-linejoin="round"/>
<path d="M97.6351 82.6489C97.6351 82.6489 97.1842 84.2827 97.3567 84.5582C97.4262 84.6745 97.5319 84.7646 97.6576 84.8149C97.7833 84.8652 97.9221 84.8728 98.0526 84.8366C98.2072 84.7709 98.3479 84.6764 98.4673 84.5582C98.4673 84.5582 98.5368 83.1666 98.3281 82.8243C98.1193 82.4819 97.9468 82.2426 97.6351 82.6489Z" fill="white" stroke="#263238" stroke-linecap="round" stroke-linejoin="round"/>
<path d="M96.4202 82.8655C96.4202 82.8655 95.9693 84.4965 96.1419 84.7748C96.2105 84.8911 96.3157 84.9815 96.4411 85.0319C96.5664 85.0822 96.7049 85.0897 96.8349 85.0531C96.9907 84.988 97.1324 84.8935 97.2524 84.7748C97.2524 84.7748 97.322 83.3832 97.1133 83.0408C96.9045 82.6985 96.7347 82.4508 96.4202 82.8655Z" fill="white" stroke="#263238" stroke-linecap="round" stroke-linejoin="round"/>
<path d="M95.1973 82.9267C95.1973 82.9267 94.8522 84.1791 94.9858 84.3907C95.0384 84.48 95.1191 84.5494 95.2152 84.5881C95.3113 84.6269 95.4176 84.6328 95.5174 84.605C95.6372 84.5554 95.746 84.4826 95.8375 84.3907C95.8375 84.3907 95.8904 83.3274 95.7317 83.0603C95.5731 82.7931 95.4367 82.6066 95.1973 82.9267Z" fill="white" stroke="#263238" stroke-linecap="round" stroke-linejoin="round"/>
<path d="M93.7577 82.9772C93.7577 82.9772 93.4794 83.8122 93.5907 83.9486C93.6394 84.0097 93.7047 84.0554 93.7788 84.0801C93.853 84.1048 93.9326 84.1075 94.0082 84.0878C94.1001 84.0564 94.1858 84.0093 94.2615 83.9486C94.2615 83.9486 94.3033 83.2416 94.178 83.0663C94.0528 82.8909 93.947 82.7657 93.7577 82.9772Z" fill="white" stroke="#263238" stroke-linecap="round" stroke-linejoin="round"/>
<path d="M103.823 76.7983L104.458 82.7016L106.551 82.3203L105.791 76.417L103.823 76.7983Z" fill="white" stroke="#263238" stroke-linecap="round" stroke-linejoin="round"/>
<path d="M105.156 76.0387L106.425 83.5257L115.118 82.3846L116.069 73.8789L105.156 76.0387Z" fill="#BF1523" fill-opacity="0.9" stroke="#263238" stroke-linecap="round" stroke-linejoin="round"/>
<path d="M111.98 82.7965L115.117 82.3846L116.069 73.8789L113.778 74.3326L111.98 82.7965Z" fill="#263238" stroke="#263238" stroke-linecap="round" stroke-linejoin="round"/>
<path d="M138.224 99.9047L137.514 86.2667C137.514 86.2667 140.498 73.1853 139.863 65.9488C139.228 58.7123 134.341 51.1641 134.341 51.1641C134.341 51.1641 122.854 58.3338 121.649 59.6029C120.444 60.8721 118.29 63.0264 117.655 65.0582C117.021 67.0899 114.546 79.5868 114.546 79.5868C114.546 79.5868 111.944 88.3458 111.12 93.6145C110.619 96.8181 110.68 98.8193 110.806 99.8992L138.224 99.9047Z" fill="#BF1523" fill-opacity="0.9" stroke="#263238" stroke-linecap="round" stroke-linejoin="round"/>
<path d="M133.91 53.5485C134.697 53.2293 135.467 52.8679 136.215 52.4658" stroke="#263238" stroke-linecap="round" stroke-linejoin="round"/>
<path d="M118.289 67.9543C119.28 66.1619 120.516 64.0327 121.072 63.3842C122.124 62.2013 130.018 55.2292 132.912 53.9795" stroke="#263238" stroke-linecap="round" stroke-linejoin="round"/>
<path d="M116.81 70.6807C116.81 70.6807 117.28 69.7901 117.923 68.6211" stroke="#263238" stroke-linecap="round" stroke-linejoin="round"/>
<path d="M124.106 71.3652C124.106 75.4455 123.55 79.484 123.828 83.5226C122.386 88.7162 119.789 93.3308 117.922 98.2043" stroke="#263238" stroke-linecap="round" stroke-linejoin="round"/>
<path d="M125.166 62.9932C125.166 62.9932 123.98 64.7689 124.111 68.0559C124.127 68.4595 124.133 69.0106 124.13 69.6647" stroke="#263238" stroke-linecap="round" stroke-linejoin="round"/>
<path d="M136.61 64.8359C136.61 64.8359 133.98 85.0982 133.716 86.7431C133.526 87.9204 129.494 94.3609 127.217 97.9207" stroke="#263238" stroke-linecap="round" stroke-linejoin="round"/>
<path d="M119.225 94.1536L113.845 93.2185L114.195 91.5791L119.459 92.5171" stroke="#263238" stroke-linecap="round" stroke-linejoin="round"/>
</svg>
