<svg width="211" height="33" viewBox="0 0 211 33" fill="none" xmlns="http://www.w3.org/2000/svg">
<path d="M59.455 0.0266113C57.7703 0.0266113 57.5093 2.21402 57.5093 2.21402L55.8475 11.5513H50.7596C49.7466 11.5837 48.75 11.8597 47.8317 12.3623C46.9135 12.8649 46.0931 13.5833 45.4217 14.473L47.4816 0.0266113H41.7934C40.162 0.0266113 39.8477 2.19363 39.8477 2.19363L34.9741 32.9347H40.7384C42.4003 32.9347 42.6733 30.7333 42.6733 30.7333L44.1524 21.3156H54.4749L52.688 32.9474H58.4131C60.0293 32.9474 60.3251 30.7192 60.3251 30.7192L65.1454 0.0393585C65.1574 0.0266113 61.1398 0.0266113 59.455 0.0266113Z" fill="white"/>
<path d="M15.7181 0.0266113C15.7181 0.0266113 14.8415 5.34855 14.5 7.5895C14.1585 9.83045 15.7747 9.79094 15.7747 9.79094H23.823C22.4279 10.672 21.3583 12.124 20.8179 13.87C20.2372 17.5514 17.7226 32.8251 17.7226 32.8251H23.5141C24.0115 32.8148 24.489 32.5947 24.859 32.2051C25.229 31.8154 25.4666 31.2824 25.5284 30.7039C26.6094 23.6344 28.1919 13.8165 28.4758 11.9656C28.5164 11.3896 28.7357 10.851 29.0923 10.4517C29.4488 10.0523 29.9178 9.82 30.4106 9.79858H34.5435C36.1597 9.79858 36.5012 7.62392 36.5012 7.62392L37.6834 0.0266113H15.7138H15.7181Z" fill="white"/>
<path d="M149.606 3.44159C147.933 14.7929 144.895 32.9882 144.895 32.9882H151.154C151.67 32.9867 152.166 32.7514 152.538 32.3315C152.91 31.9115 153.129 31.3394 153.149 30.7345C153.354 29.2673 156.257 12.2065 157.963 0.0138824H152.91C152.085 -0.0406153 151.275 0.288948 150.656 0.930873C150.038 1.5728 149.66 2.47514 149.606 3.44159Z" fill="white"/>
<path d="M4.71151 3.44158C3.0453 14.7942 0 32.9882 0 32.9882H6.25918C6.77505 32.9857 7.27019 32.75 7.6414 32.3301C8.0126 31.9103 8.23122 31.3387 8.25167 30.7345C8.46919 29.2673 11.3698 12.2193 13.0774 0.0138724H8.02327C7.19772 -0.0393516 6.38747 0.29041 5.76773 0.931849C5.14799 1.57329 4.76856 2.47485 4.71151 3.44158Z" fill="white"/>
<path d="M140.848 0.0139286H124.425C123.992 -0.0452839 123.556 0.0856189 123.201 0.381335C122.846 0.677051 122.597 1.11658 122.502 1.61497L117.682 32.908L135.333 32.9615C139.522 32.9615 142.367 30.9067 143.539 26.9589C143.687 26.5051 144.495 21.4228 144.495 21.0098C144.564 18.4489 143.767 17.0747 142.212 16.3813C144.387 15.3806 145.683 13.5935 146.229 10.1122L146.639 7.40473C147.432 2.26763 145.611 0.0139286 140.848 0.0139286ZM136.693 22.3431L136.499 24.0372C136.272 25.224 135.738 25.7313 134.473 25.8652H127.85C126.2 25.8652 126.461 24.3049 126.461 24.3049L127.035 20.4094H135.162C136.427 20.6095 136.859 21.1564 136.689 22.3431H136.693ZM138.957 8.89743L138.718 10.4844C138.581 11.5386 137.91 12.125 136.75 12.2691H133.506C132.015 12.3761 129.397 12.8962 127.918 15.2175L128.92 8.68072C129.017 8.19102 129.265 7.76025 129.615 7.47009C129.966 7.17993 130.395 7.05054 130.821 7.10645H137.49C137.802 7.10787 138.108 7.20453 138.378 7.38689C138.599 7.53345 138.774 7.75925 138.878 8.03112C138.981 8.303 139.008 8.60663 138.953 8.89743H138.957Z" fill="white"/>
<path d="M112.663 0.0139732H96.7289C96.3028 -0.0242854 95.8784 0.109688 95.5264 0.393581C95.1743 0.677474 94.9159 1.09415 94.7941 1.57423L89.8096 32.9756H96.2395C96.6598 33.0311 97.0829 32.9043 97.429 32.6192C97.775 32.3341 98.02 31.9104 98.1178 31.4281L99.8047 19.9964L105.826 31.4013C106.109 31.8716 106.482 32.2586 106.914 32.5317C107.347 32.8049 107.827 32.9568 108.318 32.9756H113.815C115.523 32.9756 114.703 31.4013 114.703 31.4013L108.842 19.9161L110.014 19.9697C110.449 19.9697 110.891 19.9161 111.319 19.8766C112.696 19.7787 114.022 19.2342 115.149 18.3038C116.277 17.3735 117.162 16.0939 117.704 14.6082C117.859 14.1823 117.962 13.7337 118.012 13.2748L118.957 6.68584C119.022 6.277 119.041 5.8601 119.014 5.44554C118.947 1.85466 116.851 0.0139732 112.663 0.0139732ZM111.092 9.08486L110.887 10.4055C110.67 11.7388 110.011 12.2729 108.603 12.2729H106.051C104.583 12.3532 101.862 12.8465 100.338 15.2341L101.327 8.69734C101.432 8.20375 101.686 7.77126 102.041 7.4796C102.397 7.18795 102.831 7.05679 103.262 7.11032C104.947 7.11032 109.373 7.12307 109.533 7.12307C110.808 7.31045 111.263 7.93761 111.092 9.08486Z" fill="white"/>
<path d="M86.8954 0.013932C86.4736 -0.0328701 86.0513 0.0968516 85.7034 0.380108C85.3554 0.663364 85.1042 1.08186 84.9943 1.56144L81.5683 22.194C81.3291 23.0073 80.6123 23.4343 78.8026 23.4343H76.3903C74.922 23.5146 72.2019 24.0079 70.6879 26.3827L74.9677 0.013932H69.1174C68.6854 -0.042641 68.2506 0.0873063 67.8944 0.379439C67.5383 0.671571 67.2852 1.10585 67.1826 1.60095L63.575 24.7842C62.6647 30.3738 64.9291 32.9883 70.1006 32.9883H79.7858C83.3368 32.9883 85.6132 31.9341 87.3881 29.3605C88.1625 28.2667 88.4757 27.3591 88.8901 24.7447L92.7794 0.013932H86.8954Z" fill="white"/>
<path d="M178.218 0.013916H160.304L154.975 32.9755H173.332C177.566 32.9755 180.264 30.9207 181.436 26.9334C181.527 26.5204 184.577 7.30274 184.577 7.30274C185.399 2.30841 183.328 0.013916 178.218 0.013916ZM174.587 22.4489C174.121 24.3699 173.586 24.7829 171.594 24.7829H167.998C166.239 25.004 164.62 26.0122 163.48 27.5975L166.648 8.05738H174.979C176.393 8.24476 176.732 8.631 176.789 9.5386C176.772 9.5386 174.633 22.2641 174.587 22.4489Z" fill="white"/>
<path d="M195.381 0.013916C191.34 0.013916 188.587 1.93491 187.312 5.64306C187.163 6.13636 187.056 6.64577 186.993 7.1638L184 26.1188C183.317 30.5612 185.685 32.9883 191.329 32.9883H204.099C204.528 33.0416 204.959 32.9117 205.312 32.6224C205.666 32.3332 205.918 31.9041 206.023 31.414L206.968 25.0914H193.598C192.232 24.9639 191.743 24.398 191.967 22.8505L192.502 19.9823H203.883C204.303 20.0222 204.723 19.888 205.068 19.6029C205.413 19.3179 205.662 18.9 205.772 18.4221L206.614 12.886H198.42C197.419 12.9254 196.437 13.205 195.533 13.7076C194.629 14.2101 193.822 14.9249 193.163 15.8077L194.063 9.83178C194.171 9.26978 194.43 8.76323 194.802 8.38635C195.174 8.00947 195.639 7.78205 196.129 7.73742H208.068C208.51 7.79666 208.955 7.65932 209.316 7.35252C209.676 7.04572 209.925 6.59176 210.013 6.08029L211 0.013916H195.381Z" fill="white"/>
</svg>
