<svg width="688" height="559" viewBox="0 0 688 559" fill="none" xmlns="http://www.w3.org/2000/svg">
<path d="M688 491.241H0V491.616H688V491.241Z" fill="#EBEBEB"/>
<path d="M434.361 501.458H399.328V501.834H434.361V501.458Z" fill="#EBEBEB"/>
<path d="M626.685 509.576H543.671V509.951H626.685V509.576Z" fill="#EBEBEB"/>
<path d="M391.871 501.639H306.104V502.014H391.871V501.639Z" fill="#EBEBEB"/>
<path d="M250.486 512.862H232.543V513.237H250.486V512.862Z" fill="#EBEBEB"/>
<path d="M349.629 512.862H267.922V513.237H349.629V512.862Z" fill="#EBEBEB"/>
<path d="M125.092 506.53H72.1846V506.905H125.092V506.53Z" fill="#EBEBEB"/>
<path d="M326.111 424.321H60.4194C58.338 424.317 56.343 423.413 54.8726 421.807C53.4021 420.201 52.5762 418.024 52.5762 415.754V8.49243C52.5943 6.23582 53.4282 4.07814 54.8967 2.48804C56.3653 0.897944 58.3498 0.00386569 60.4194 0H326.111C328.195 0 330.193 0.90264 331.667 2.50935C333.14 4.11606 333.968 6.29522 333.968 8.56745V415.754C333.968 418.026 333.14 420.205 331.667 421.812C330.193 423.419 328.195 424.321 326.111 424.321ZM60.4194 0.300087C58.4292 0.304062 56.5218 1.16893 55.1158 2.70486C53.7098 4.2408 52.9202 6.32228 52.9202 8.49243V415.754C52.9202 417.924 53.7098 420.006 55.1158 421.542C56.5218 423.078 58.4292 423.942 60.4194 423.946H326.111C328.103 423.942 330.012 423.078 331.42 421.542C332.828 420.007 333.621 417.926 333.624 415.754V8.49243C333.621 6.3209 332.828 4.23945 331.42 2.70395C330.012 1.16844 328.103 0.304053 326.111 0.300087H60.4194Z" fill="#EBEBEB"/>
<path d="M623.755 424.321H358.049C355.967 424.317 353.97 423.414 352.498 421.808C351.025 420.202 350.196 418.025 350.192 415.754V8.49243C350.214 6.23445 351.051 4.07678 352.522 2.4871C353.993 0.89742 355.978 0.00382353 358.049 0H623.755C625.822 0.00780898 627.803 0.903632 629.269 2.49331C630.734 4.08298 631.566 6.23841 631.584 8.49243V415.754C631.584 418.021 630.76 420.196 629.293 421.802C627.825 423.407 625.834 424.314 623.755 424.321ZM358.049 0.300087C356.058 0.304053 354.149 1.16844 352.741 2.70395C351.333 4.23945 350.54 6.3209 350.536 8.49243V415.754C350.54 417.926 351.333 420.007 352.741 421.542C354.149 423.078 356.058 423.942 358.049 423.946H623.755C625.746 423.942 627.655 423.078 629.063 421.542C630.472 420.007 631.264 417.926 631.268 415.754V8.49243C631.264 6.3209 630.472 4.23945 629.063 2.70395C627.655 1.16844 625.746 0.304053 623.755 0.300087H358.049Z" fill="#EBEBEB"/>
<path d="M269.641 361.108H178.275L172.729 291.338H264.096L269.641 361.108Z" fill="#E6E6E6"/>
<path d="M274.375 361.108H183.008L177.463 291.338H268.829L274.375 361.108Z" fill="#F0F0F0"/>
<path d="M195.502 346.119L192.447 306.312H256.335L259.39 346.119H195.502Z" fill="white"/>
<path d="M290.184 361.108H279.465V491.241H290.184V361.108Z" fill="#E6E6E6"/>
<path d="M293.569 361.108H286.125V491.241H293.569V361.108Z" fill="#F0F0F0"/>
<path d="M189.806 375.468H293.57V361.109H189.806V375.468Z" fill="#F0F0F0"/>
<path d="M193.466 375.468H182.747V491.241H193.466V375.468Z" fill="#E6E6E6"/>
<path d="M196.85 375.468H189.406V491.241H196.85V375.468Z" fill="#F0F0F0"/>
<path d="M117.166 375.468H106.447V491.241H117.166V375.468Z" fill="#E6E6E6"/>
<path d="M120.551 375.468H113.106V491.241H120.551V375.468Z" fill="#F0F0F0"/>
<path d="M222.348 375.468H211.629V491.241H222.348V375.468Z" fill="#E6E6E6"/>
<path d="M225.72 375.468H218.275V491.241H225.72V375.468Z" fill="#F0F0F0"/>
<path d="M189.805 361.108H106.447V375.467H189.805V361.108Z" fill="#E6E6E6"/>
<path d="M500.645 36.6255H178.207V232.372H500.645V36.6255Z" fill="#E0E0E0"/>
<path d="M518.353 36.6255H179.829V232.372H518.353V36.6255Z" fill="#F5F5F5"/>
<path d="M512.821 226.34V42.6572L185.361 42.6572V226.34L512.821 226.34Z" fill="white"/>
<path d="M317.952 226.34L379.776 42.6572H277.746L215.922 226.34H317.952Z" fill="#F5F5F5"/>
<path d="M416.158 226.34L477.982 42.6572H401.008L339.185 226.34H416.158Z" fill="#F5F5F5"/>
<path d="M602.84 304.287H575.43V491.241H602.84V304.287Z" fill="#E6E6E6"/>
<path d="M595.628 491.241H602.839V476.852H588.074L595.628 491.241Z" fill="#FAFAFA"/>
<path d="M350.124 304.287H322.714V491.241H350.124V304.287Z" fill="#E6E6E6"/>
<path d="M602.839 304.287H343.835V487.355H602.839V304.287Z" fill="#FAFAFA"/>
<path d="M597.941 363.359H348.747V311.654H597.941V363.359ZM350.123 361.859H596.565V313.155H350.123V361.859Z" fill="#E6E6E6"/>
<path d="M554.074 336.756H397.444C390.178 336.756 383.175 330.364 378.18 319.201L377.712 318.136H573.792L573.324 319.201C568.288 330.364 561.408 336.756 554.074 336.756ZM379.969 319.591C384.619 329.539 390.977 335.211 397.444 335.211H554.074C560.569 335.211 566.898 329.539 571.549 319.591H379.969Z" fill="#E6E6E6"/>
<path d="M351.045 491.241H343.835V476.852H358.599L351.045 491.241Z" fill="#FAFAFA"/>
<path d="M597.941 421.621H348.747V369.976H597.941V421.621ZM350.123 420.12H596.565V371.477H350.123V420.12Z" fill="#E6E6E6"/>
<path d="M554.074 395.078H397.444C390.178 395.078 383.175 388.671 378.18 377.523L377.712 376.443H573.792L573.324 377.523C568.288 388.611 561.408 395.078 554.074 395.078ZM379.969 377.943C384.619 387.891 390.977 393.578 397.444 393.578H554.074C560.569 393.578 566.898 387.891 571.549 377.943H379.969Z" fill="#E6E6E6"/>
<path d="M597.941 479.987H348.747V428.283H597.941V479.987ZM350.123 478.487H596.565V429.783H350.123V478.487Z" fill="#E6E6E6"/>
<path d="M554.074 453.385H397.444C390.178 453.385 383.175 446.993 378.18 435.845L377.712 434.765H573.792L573.324 435.845C568.288 446.993 561.408 453.385 554.074 453.385ZM379.969 436.265C384.619 446.213 390.977 451.885 397.444 451.885H554.074C560.569 451.885 566.898 446.213 571.549 436.265H379.969Z" fill="#E6E6E6"/>
<path d="M166.469 329.014V332.645H164.35L162.588 361.108H136.664L134.917 332.645H132.784V329.014H166.469Z" fill="#E6E6E6"/>
<path d="M157.937 258.389C155.818 241.434 134.834 236.603 108.208 235.973C82.8762 235.387 74.7578 225.62 74.7578 225.62C74.7578 225.62 74.8404 265.186 111.346 279.53C146.007 293.124 160.07 275.374 157.937 258.389Z" fill="#E6E6E6"/>
<path d="M145.003 296.815C145.443 289.853 155.653 277.04 180.215 282.861C197.965 287.077 204.57 277.04 204.57 277.04C204.57 277.04 202.919 305.368 176.224 313.875C150.865 321.962 144.219 309.089 145.003 296.815Z" fill="#E6E6E6"/>
<path d="M150.604 339.697C150.742 339.698 150.879 339.667 151.005 339.605C151.131 339.543 151.243 339.451 151.333 339.337C153.108 337.041 151.65 331.55 149.641 323.942C147.054 314.19 143.834 302.036 146.558 293.229C148.069 288.576 149.833 284.027 151.842 279.605C155.695 270.722 159.025 263.1 156.245 255.028C156.202 254.899 156.136 254.782 156.05 254.681C155.965 254.581 155.862 254.5 155.748 254.443C155.634 254.387 155.511 254.355 155.385 254.351C155.26 254.346 155.135 254.369 155.017 254.418C154.9 254.466 154.793 254.54 154.702 254.634C154.61 254.728 154.537 254.841 154.486 254.966C154.436 255.091 154.408 255.226 154.405 255.363C154.402 255.499 154.425 255.635 154.47 255.763C156.961 262.95 153.948 269.912 150.122 278.734C148.087 283.228 146.296 287.847 144.756 292.568C141.852 301.991 145.155 314.49 147.811 324.513C149.379 330.514 151.003 336.516 149.888 338.016C149.8 338.12 149.732 338.243 149.689 338.376C149.647 338.51 149.63 338.652 149.64 338.793C149.651 338.934 149.688 339.071 149.75 339.196C149.811 339.321 149.896 339.43 149.998 339.517C150.174 339.653 150.389 339.717 150.604 339.697Z" fill="#E6E6E6"/>
<path d="M344 559C491.345 559 610.792 551.396 610.792 542.015C610.792 532.635 491.345 525.03 344 525.03C196.654 525.03 77.207 532.635 77.207 542.015C77.207 551.396 196.654 559 344 559Z" fill="#F5F5F5"/>
<path d="M343.945 459.206H148.553L137.861 116.553H333.253L343.945 459.206Z" fill="#263238"/>
<path d="M353.701 448.569H158.309L147.604 105.916H342.995L353.701 448.569Z" fill="#BF1523"/>
<path opacity="0.3" d="M353.701 448.569H158.309L147.604 105.916H342.996L353.701 448.569Z" fill="white"/>
<path d="M288.234 246.917C309.155 223.71 308.265 185.764 286.246 162.161C264.228 138.558 229.418 138.237 208.497 161.443C187.576 184.649 188.466 222.596 210.485 246.199C232.504 269.801 267.314 270.123 288.234 246.917Z" fill="#BF1523"/>
<path d="M293.735 204.194C294.016 212.358 292.382 220.466 288.987 227.75C285.324 235.6 279.726 242.181 272.824 246.756C265.921 251.33 257.986 253.717 249.909 253.648C241.642 253.599 233.532 251.181 226.393 246.635C219.254 242.09 213.336 235.577 209.234 227.75C205.41 220.578 203.273 212.485 203.015 204.194C202.761 197.764 203.709 191.346 205.8 185.328C207.891 179.311 211.083 173.82 215.18 169.189C219.278 164.558 224.197 160.883 229.637 158.389C235.077 155.895 240.925 154.633 246.827 154.679C258.984 154.773 270.641 159.97 279.376 169.191C288.112 178.411 293.254 190.947 293.735 204.194Z" fill="white"/>
<path opacity="0.6" d="M288.961 227.75C285.297 235.6 279.7 242.181 272.797 246.755C265.895 251.329 257.96 253.716 249.883 253.647C241.616 253.599 233.506 251.18 226.367 246.635C219.227 242.089 213.31 235.577 209.208 227.75C220.845 219.099 234.615 214.5 248.699 214.561C263.01 214.595 277.002 219.178 288.961 227.75Z" fill="#BF1523"/>
<path opacity="0.6" d="M262.502 202.96C270.195 194.426 269.868 180.473 261.771 171.794C253.675 163.115 240.875 162.997 233.182 171.53C225.489 180.063 225.816 194.017 233.913 202.696C242.01 211.375 254.809 211.493 262.502 202.96Z" fill="#BF1523"/>
<path d="M314.443 324.483H189.805L188.966 297.475H313.604L314.443 324.483Z" fill="white"/>
<path d="M315.957 372.751H191.305L190.466 345.744H315.118L315.957 372.751Z" fill="white"/>
<path d="M267.853 349.465L237.815 353.967C237.528 354.002 237.251 354.102 237.002 354.26C236.752 354.418 236.535 354.63 236.365 354.884C236.194 355.138 236.074 355.427 236.011 355.734C235.948 356.041 235.943 356.359 235.998 356.667L239.947 378.619C240.077 379.263 240.422 379.831 240.916 380.211C241.41 380.592 242.017 380.757 242.617 380.674L272.655 376.173C272.941 376.134 273.216 376.03 273.464 375.87C273.712 375.71 273.927 375.496 274.096 375.241C274.265 374.987 274.385 374.697 274.447 374.39C274.509 374.083 274.513 373.766 274.458 373.457L270.522 351.506C270.393 350.863 270.047 350.296 269.552 349.918C269.058 349.54 268.451 349.379 267.853 349.465ZM259.225 371.702L253.721 372.497L253.185 365.415C252.617 365.147 252.118 364.735 251.727 364.213C251.337 363.691 251.067 363.074 250.942 362.414C250.841 361.903 250.839 361.374 250.937 360.863C251.035 360.351 251.23 359.867 251.51 359.443C251.79 359.019 252.149 358.663 252.563 358.4C252.977 358.136 253.437 357.97 253.914 357.913C254.891 357.776 255.88 358.043 256.685 358.663C257.49 359.282 258.053 360.209 258.262 361.259C258.381 361.893 258.345 362.55 258.156 363.164C257.968 363.778 257.634 364.327 257.189 364.755L259.225 371.702Z" fill="#BF1523"/>
<path d="M264.88 348.279C264.349 348.353 263.811 348.208 263.374 347.872C262.936 347.536 262.629 347.034 262.513 346.464L262.128 344.318C261.578 341.39 260.073 338.779 257.892 336.969C255.71 335.159 253.001 334.273 250.267 334.476C248.887 334.561 247.54 334.97 246.317 335.674C245.095 336.377 244.026 337.36 243.183 338.554C242.34 339.748 241.742 341.126 241.43 342.595C241.119 344.063 241.101 345.587 241.378 347.064L241.818 349.54C241.869 349.814 241.867 350.097 241.813 350.371C241.758 350.644 241.651 350.902 241.5 351.128C241.348 351.354 241.155 351.543 240.932 351.683C240.71 351.823 240.463 351.911 240.208 351.941C239.676 352.021 239.136 351.879 238.696 351.542C238.257 351.205 237.951 350.698 237.841 350.125L237.47 348.039C237.092 346.09 237.079 344.078 237.433 342.123C237.786 340.169 238.499 338.312 239.527 336.665C240.555 335.019 241.878 333.616 243.416 332.54C244.954 331.465 246.676 330.74 248.478 330.409C252.384 329.694 256.393 330.646 259.673 333.069C262.952 335.491 265.25 339.197 266.091 343.418L266.531 345.879C266.582 346.157 266.579 346.443 266.522 346.719C266.465 346.996 266.354 347.256 266.198 347.483C266.043 347.709 265.844 347.897 265.617 348.035C265.39 348.172 265.139 348.255 264.88 348.279Z" fill="#BF1523"/>
<path d="M295.386 410.578H214.244L213.707 392.993H294.836L295.386 410.578Z" fill="#BF1523"/>
<path d="M256.239 310.979C256.263 311.62 256.167 312.261 255.958 312.86C255.749 313.46 255.43 314.008 255.02 314.469C254.611 314.931 254.121 315.297 253.578 315.546C253.035 315.794 252.452 315.92 251.863 315.915C250.65 315.905 249.486 315.387 248.613 314.469C247.74 313.55 247.224 312.301 247.171 310.979C247.146 310.338 247.242 309.698 247.451 309.098C247.661 308.498 247.98 307.95 248.389 307.489C248.798 307.027 249.289 306.661 249.831 306.412C250.374 306.164 250.958 306.038 251.546 306.043C252.761 306.049 253.926 306.566 254.8 307.485C255.674 308.405 256.189 309.656 256.239 310.979Z" fill="#263238"/>
<path d="M236.672 310.979C236.698 311.621 236.604 312.262 236.396 312.863C236.187 313.464 235.868 314.012 235.458 314.474C235.049 314.936 234.557 315.302 234.014 315.55C233.47 315.798 232.886 315.922 232.296 315.915C231.084 315.905 229.923 315.387 229.052 314.468C228.181 313.549 227.667 312.299 227.618 310.979C227.594 310.338 227.689 309.698 227.899 309.098C228.108 308.498 228.427 307.95 228.836 307.489C229.245 307.027 229.736 306.661 230.279 306.412C230.822 306.164 231.405 306.038 231.994 306.043C233.207 306.049 234.37 306.567 235.242 307.486C236.114 308.406 236.626 309.657 236.672 310.979Z" fill="#263238"/>
<path d="M217.23 310.979C217.254 311.62 217.158 312.261 216.949 312.86C216.74 313.46 216.421 314.008 216.012 314.469C215.602 314.931 215.112 315.297 214.569 315.546C214.026 315.794 213.443 315.92 212.854 315.915C211.641 315.909 210.477 315.391 209.606 314.472C208.734 313.552 208.222 312.301 208.176 310.979C208.151 310.338 208.247 309.698 208.456 309.098C208.666 308.498 208.984 307.95 209.394 307.489C209.803 307.027 210.294 306.661 210.836 306.412C211.379 306.164 211.963 306.038 212.551 306.043C213.764 306.049 214.928 306.567 215.8 307.486C216.671 308.406 217.184 309.657 217.23 310.979Z" fill="#263238"/>
<path d="M275.736 310.979C275.761 311.62 275.665 312.26 275.456 312.86C275.246 313.46 274.928 314.008 274.518 314.469C274.109 314.931 273.618 315.297 273.076 315.545C272.533 315.794 271.949 315.92 271.361 315.915C270.148 315.908 268.984 315.391 268.112 314.471C267.241 313.552 266.728 312.3 266.682 310.979C266.662 310.339 266.761 309.702 266.973 309.105C267.185 308.509 267.506 307.965 267.916 307.508C268.327 307.05 268.818 306.689 269.36 306.444C269.903 306.2 270.485 306.079 271.072 306.087C272.276 306.097 273.43 306.61 274.298 307.52C275.165 308.43 275.68 309.668 275.736 310.979Z" fill="#263238"/>
<path d="M295.235 310.979C295.261 311.621 295.167 312.262 294.958 312.863C294.749 313.464 294.431 314.012 294.021 314.474C293.611 314.936 293.12 315.302 292.576 315.55C292.032 315.798 291.448 315.922 290.859 315.915C289.647 315.905 288.485 315.387 287.614 314.468C286.743 313.549 286.23 312.299 286.18 310.979C286.156 310.338 286.252 309.698 286.461 309.098C286.67 308.498 286.989 307.95 287.398 307.489C287.808 307.027 288.298 306.661 288.841 306.412C289.384 306.164 289.967 306.038 290.556 306.043C291.769 306.049 292.933 306.567 293.804 307.486C294.676 308.406 295.188 309.657 295.235 310.979Z" fill="#263238"/>
<path d="M459.459 178.971C461.289 182.182 462.817 185.243 464.385 188.439C465.954 191.635 467.371 194.846 468.761 198.132C471.597 204.785 473.943 211.674 475.779 218.733C476.026 219.618 476.205 220.563 476.412 221.478L476.714 222.874L476.866 223.564L477.045 224.704C477.355 227.291 477.21 229.919 476.618 232.446C475.668 236.371 474.223 240.133 472.325 243.625C468.929 249.97 464.825 255.831 460.106 261.075L454.313 256.303C457.221 250.475 459.808 244.462 462.06 238.298C463.063 235.582 463.77 232.747 464.165 229.851C464.292 228.966 464.254 228.063 464.055 227.195L463.505 225.364C463.285 224.614 463.078 223.864 462.817 223.099C460.724 216.909 458.303 210.857 455.565 204.974C452.813 198.972 449.855 192.97 446.896 187.239L459.459 178.971Z" fill="#FF8B7B"/>
<path d="M455.786 254.218L449.456 257.864L456.721 267.136C456.721 267.136 461.262 263.791 461.469 258.689L455.786 254.218Z" fill="#FF8B7B"/>
<path d="M440.968 263.581L448.742 270.318L456.723 267.137L449.458 257.864L440.968 263.581Z" fill="#FF8B7B"/>
<path d="M414.383 129.877C414.232 130.718 413.695 131.303 413.2 131.198C412.704 131.093 412.415 130.313 412.567 129.487C412.718 128.662 413.255 127.987 413.764 128.167C414.273 128.347 414.534 129.037 414.383 129.877Z" fill="#263238"/>
<path d="M413.763 131.318C412.378 133.668 410.702 135.799 408.782 137.65C409.235 138.162 409.785 138.561 410.393 138.82C411.001 139.079 411.653 139.192 412.305 139.15L413.763 131.318Z" fill="#FF5652"/>
<path d="M411.286 160.756V150.914L423.23 152.414C423.23 152.414 423.037 160.876 416.35 163.367L411.286 160.756Z" fill="#FF8B7B"/>
<path d="M414.726 143.832L423.133 146.472L423.284 152.489L411.341 150.914L414.726 143.832Z" fill="#FF8B7B"/>
<path opacity="0.2" d="M423.134 146.472L414.726 143.832L413.089 147.253C413.178 149.948 413.951 152.564 415.321 154.81C416.691 157.056 418.604 158.844 420.85 159.976C422.294 157.776 423.138 155.175 423.285 152.474L423.134 146.472Z" fill="black"/>
<path d="M418.042 125.871C418.13 125.869 418.216 125.839 418.289 125.786C418.363 125.732 418.421 125.657 418.457 125.569C418.493 125.481 418.505 125.384 418.493 125.289C418.48 125.194 418.443 125.104 418.386 125.031C417.903 124.436 417.296 123.975 416.616 123.688C415.936 123.401 415.203 123.296 414.478 123.381C414.36 123.403 414.254 123.475 414.185 123.582C414.115 123.689 414.087 123.821 414.107 123.951C414.127 124.081 414.193 124.197 414.291 124.276C414.388 124.354 414.51 124.388 414.63 124.371C415.204 124.309 415.783 124.399 416.319 124.631C416.856 124.863 417.333 125.232 417.712 125.706C417.754 125.756 417.805 125.797 417.862 125.825C417.919 125.853 417.98 125.869 418.042 125.871Z" fill="#263238"/>
<path d="M435.627 145.062C434.251 152.789 433.398 163.487 438.379 168.633C438.379 168.633 436.453 176.466 423.243 176.466C408.782 176.466 416.295 169.594 416.295 169.594C422.308 167.553 422.253 160.096 420.877 154.094L435.627 145.062Z" fill="#FF8B7B"/>
<path d="M441.062 173.795C442.356 171.815 442.301 165.528 440.925 164.418C438.71 162.632 429.201 162.212 416.418 165.423C417.794 171.515 414.836 174.695 414.836 174.695L441.062 173.795Z" fill="#263238"/>
<path d="M484.077 530.012C483.684 530.163 483.268 530.227 482.852 530.201C482.436 530.176 482.029 530.06 481.655 529.862C481.513 529.718 481.415 529.53 481.376 529.323C481.337 529.116 481.357 528.9 481.435 528.707C481.478 528.544 481.553 528.394 481.656 528.267C481.758 528.14 481.884 528.039 482.026 527.971C483.334 527.281 486.333 528.617 486.471 528.677C486.512 528.695 486.547 528.726 486.571 528.766C486.596 528.806 486.609 528.853 486.608 528.902C486.608 528.95 486.596 528.997 486.575 529.039C486.553 529.081 486.522 529.116 486.485 529.142C485.709 529.513 484.902 529.805 484.077 530.012ZM482.494 528.317C482.403 528.34 482.316 528.375 482.233 528.422C482.147 528.456 482.07 528.512 482.007 528.585C481.945 528.658 481.9 528.746 481.875 528.842C481.751 529.292 481.875 529.442 481.958 529.487C482.48 529.967 484.407 529.487 485.769 528.932C484.733 528.464 483.614 528.254 482.494 528.317Z" fill="#BF1523"/>
<path d="M486.43 529.157H486.32C485.219 528.812 482.88 526.996 482.853 525.811C482.852 525.623 482.91 525.439 483.017 525.292C483.125 525.145 483.276 525.042 483.444 525.001C483.607 524.934 483.782 524.908 483.956 524.923C484.129 524.939 484.298 524.996 484.449 525.091C485.742 525.811 486.568 528.722 486.595 528.857C486.615 528.893 486.625 528.935 486.625 528.977C486.625 529.019 486.615 529.06 486.595 529.097C486.574 529.12 486.548 529.138 486.519 529.148C486.491 529.159 486.46 529.162 486.43 529.157ZM483.678 525.421H483.568C483.293 525.526 483.293 525.676 483.293 525.751C483.293 526.456 484.862 527.882 486.045 528.452C485.756 527.611 485.123 525.946 484.284 525.451C484.097 525.358 483.885 525.348 483.692 525.421H483.678Z" fill="#BF1523"/>
<path d="M412.607 531.782C411.369 531.782 410.172 531.587 409.773 530.987C409.668 530.827 409.612 530.636 409.612 530.439C409.612 530.243 409.668 530.052 409.773 529.892C409.851 529.745 409.956 529.618 410.082 529.517C410.207 529.416 410.35 529.345 410.502 529.307C412.112 528.826 415.497 530.927 415.634 531.017C415.677 531.04 415.711 531.077 415.731 531.124C415.751 531.17 415.755 531.222 415.744 531.272C415.739 531.323 415.719 531.372 415.687 531.41C415.655 531.447 415.612 531.473 415.566 531.482C414.59 531.677 413.599 531.778 412.607 531.782ZM411.08 529.727C410.934 529.701 410.785 529.701 410.639 529.727C410.546 529.748 410.458 529.789 410.38 529.848C410.302 529.908 410.236 529.984 410.185 530.072C410.02 530.387 410.089 530.537 410.185 530.627C410.639 531.317 413.075 531.332 414.878 531.047C413.701 530.346 412.412 529.898 411.08 529.727Z" fill="#BF1523"/>
<path d="M415.553 531.482H415.457C414.287 530.912 411.975 528.631 412.154 527.431C412.154 527.146 412.374 526.801 413.007 526.741C413.234 526.712 413.463 526.734 413.681 526.807C413.899 526.879 414.1 526.999 414.273 527.161C415.155 528.311 415.684 529.733 415.787 531.227C415.787 531.27 415.778 531.312 415.761 531.351C415.745 531.39 415.721 531.424 415.691 531.452C415.648 531.476 415.601 531.486 415.553 531.482ZM413.186 527.206H413.049C412.636 527.206 412.608 527.416 412.608 527.476C412.498 528.196 414.067 529.997 415.264 530.777C415.159 529.573 414.712 528.434 413.984 527.521C413.758 527.311 413.469 527.199 413.173 527.206H413.186Z" fill="#BF1523"/>
<path d="M426.175 531.242H416.501L415.538 506.8H425.211L426.175 531.242Z" fill="#FF8B7B"/>
<path d="M497.218 526.351L487.765 528.587L478.257 505.825L487.724 503.589L497.218 526.351Z" fill="#FF8B7B"/>
<path d="M486.842 527.551L497.479 525.045C497.665 525.002 497.859 525.029 498.029 525.122C498.198 525.215 498.335 525.367 498.415 525.555L502.102 534.288C502.2 534.499 502.251 534.733 502.251 534.97C502.25 535.207 502.198 535.441 502.098 535.651C501.999 535.862 501.855 536.044 501.679 536.183C501.503 536.321 501.299 536.413 501.084 536.449C497.369 537.244 495.511 537.439 490.847 538.534C487.971 539.224 481.476 540.95 477.499 541.88C473.523 542.81 472.16 538.654 473.715 537.889C480.664 534.423 483.554 531.377 485.439 528.541C485.78 528.035 486.279 527.683 486.842 527.551Z" fill="#263238"/>
<path d="M416.57 530.012H427.138C427.33 530.013 427.516 530.085 427.665 530.216C427.815 530.346 427.92 530.528 427.964 530.732L429.876 540.11C429.932 540.336 429.939 540.574 429.895 540.804C429.852 541.034 429.759 541.25 429.626 541.433C429.492 541.617 429.32 541.764 429.125 541.863C428.929 541.961 428.715 542.008 428.5 542C424.689 541.925 419.185 541.685 414.396 541.685C408.782 541.685 403.952 542.015 397.375 542.015C393.398 542.015 392.298 537.634 393.963 537.229C401.531 535.428 407.723 535.233 414.259 530.837C414.945 530.336 415.745 530.05 416.57 530.012Z" fill="#263238"/>
<path d="M455.69 171.049C464.758 173.315 472.202 198.567 472.202 198.567L454.08 213.676C449.377 208.192 446.058 201.472 444.448 194.171C441.242 180.937 446.416 168.709 455.69 171.049Z" fill="#BF1523"/>
<path opacity="0.4" d="M455.69 171.049C464.758 173.315 472.202 198.567 472.202 198.567L454.08 213.676C449.377 208.192 446.058 201.472 444.448 194.171C441.242 180.937 446.416 168.709 455.69 171.049Z" fill="#BF1523"/>
<path d="M407.984 201.163C405.728 203.819 403.471 206.189 401.104 208.665C399.935 209.865 398.752 211.066 397.541 212.221L395.711 213.977L395.256 214.412L394.472 215.102C393.665 215.805 392.771 216.381 391.816 216.812C390.754 217.304 389.613 217.559 388.459 217.563C387.473 217.567 386.495 217.379 385.569 217.007C384.544 216.581 383.607 215.933 382.817 215.102C381.809 214.028 381.07 212.69 380.671 211.216C380.462 210.489 380.328 209.739 380.272 208.98C380.2 208.092 380.2 207.198 380.272 206.309C380.341 205.589 380.423 204.959 380.533 204.374C380.91 202.328 381.444 200.32 382.129 198.372C382.748 196.52 383.461 194.707 384.262 192.941C385.143 191.035 385.982 189.64 386.822 188.049C390.231 181.959 394.121 176.206 398.449 170.854C402.733 165.534 407.454 160.653 412.553 156.27L417.616 161.957C414.066 167.148 410.571 172.715 407.338 178.191C404.12 183.637 401.18 189.272 398.531 195.071C397.94 196.482 397.155 198.072 396.784 199.212C396.292 200.537 395.864 201.889 395.504 203.263C395.157 204.501 394.895 205.765 394.72 207.045C394.711 207.244 394.711 207.445 394.72 207.645C394.72 207.765 394.72 207.825 394.72 207.51C394.697 207.173 394.637 206.84 394.541 206.519C394.243 205.456 393.698 204.494 392.959 203.729C392.3 203.069 391.529 202.559 390.688 202.228C389.949 201.923 389.166 201.765 388.376 201.763C387.617 201.753 386.863 201.911 386.161 202.228C385.923 202.334 385.693 202.459 385.473 202.603L385.996 202.078L387.661 200.428L390.95 197.067C393.124 194.831 395.312 192.445 397.376 190.225L407.984 201.163Z" fill="#FF8B7B"/>
<path opacity="0.2" d="M447.916 189.594C452.842 194.906 454.452 204.599 454.796 213.001L453.998 213.676C449.294 208.192 445.976 201.471 444.366 194.171C444.187 193.39 444.022 192.67 443.898 191.815L447.916 189.594Z" fill="black"/>
<path d="M398.366 181.552C396.385 192.956 395.146 216.377 400.884 262.74H452.704C453.062 254.083 448.067 211.801 455.731 170.974C450.005 169.775 444.214 168.978 438.394 168.589C431.061 168.13 423.711 168.13 416.378 168.589C413.956 168.829 411.562 169.219 409.498 169.624C406.753 170.149 404.219 171.571 402.231 173.701C400.243 175.831 398.895 178.569 398.366 181.552Z" fill="#BF1523"/>
<path opacity="0.4" d="M398.366 181.552C396.385 192.956 395.146 216.377 400.884 262.74H452.704C453.062 254.083 448.067 211.801 455.731 170.974C450.005 169.775 444.214 168.978 438.394 168.589C431.061 168.13 423.711 168.13 416.378 168.589C413.956 168.829 411.562 169.219 409.498 169.624C406.753 170.149 404.219 171.571 402.231 173.701C400.243 175.831 398.895 178.569 398.366 181.552Z" fill="#BF1523"/>
<path opacity="0.2" d="M406.291 198.462L396.934 196.016C396.645 202.198 396.618 209.85 397.031 219.318C401.338 213.976 406.842 205.634 406.291 198.462Z" fill="black"/>
<path opacity="0.2" d="M415.538 506.8L416.033 519.404H425.721L425.225 506.8H415.538Z" fill="black"/>
<path opacity="0.2" d="M487.724 503.589L478.257 505.825L483.155 517.558L492.622 515.323L487.724 503.589Z" fill="black"/>
<path d="M440.223 133.778C437.747 143.891 436.756 149.953 431.032 154.154C422.432 160.546 411.699 153.224 411.424 142.541C411.121 132.893 415.235 117.964 425.184 115.923C427.37 115.476 429.625 115.643 431.735 116.409C433.846 117.174 435.743 118.513 437.248 120.3C438.752 122.086 439.815 124.261 440.336 126.619C440.856 128.977 440.818 131.441 440.223 133.778Z" fill="#FF8B7B"/>
<path d="M418.51 134.154C418.042 132.804 415.91 122.346 417.919 119.63C419.928 116.914 442.838 118.88 446.223 122.511C451.851 128.512 447.943 133.914 441.792 140.861C437.169 146.082 436.99 151.964 434.651 152.864C430.523 154.365 424.221 152.954 422.955 148.198C421.689 143.442 418.51 134.154 418.51 134.154Z" fill="#263238"/>
<path d="M443.444 110.612C435.353 106.861 420.176 111.017 411.975 108.856C411.871 112.182 412.874 115.436 414.798 118.017C416.723 120.599 419.44 122.333 422.447 122.9C429.25 124.314 436.161 125.013 443.087 124.986C452.086 124.536 450.324 113.808 443.444 110.612Z" fill="#263238"/>
<path d="M444.71 122.826C447.666 123.143 450.642 122.523 453.282 121.04C454.796 125.031 446.471 126.126 444.71 122.826Z" fill="#263238"/>
<path d="M422.914 134.574C422.728 137.176 421.761 139.639 420.162 141.581C418.043 144.117 415.841 142.526 415.47 139.45C415.139 136.66 415.827 131.948 418.414 130.598C421.001 129.247 423.093 131.438 422.914 134.574Z" fill="#FF8B7B"/>
<path d="M419.253 262.785C419.253 262.785 430.261 343.433 436.274 373.652C442.865 406.737 478.283 516.193 478.283 516.193L495.607 512.097C495.607 512.097 470.839 422.881 465.335 376.623C461.07 341.093 452.69 262.755 452.69 262.755L419.253 262.785Z" fill="#263238"/>
<path d="M474.127 509.906C474.058 509.906 477.361 516.748 477.361 516.748L496.845 512.142L495.207 505.75L474.127 509.906Z" fill="#263238"/>
<path opacity="0.3" d="M426.202 291.519C438.902 294.234 437.554 345.879 436.027 372.452C432.366 353.666 427 317.536 423.34 291.894C424.227 291.416 425.237 291.284 426.202 291.519Z" fill="black"/>
<path d="M400.884 262.786C400.884 262.786 399.508 341.693 400.608 373.817C401.709 407.292 412.428 516.898 412.428 516.898H428.83C428.83 516.898 429.422 409.243 430.206 376.368C431.004 340.538 434.967 262.726 434.967 262.726L400.884 262.786Z" fill="#263238"/>
<path d="M409.277 509.846C409.195 509.846 410.199 517.258 410.199 517.258H430.137L430.688 510.641L409.277 509.846Z" fill="#263238"/>
<path d="M418.648 185.063C423.285 198.702 396.027 214.772 396.027 214.772L384.221 198.267C384.221 198.267 392.16 181.132 401.792 173.42C413.695 163.907 415.112 174.68 418.648 185.063Z" fill="#BF1523"/>
<path opacity="0.4" d="M418.648 185.063C423.285 198.702 396.027 214.772 396.027 214.772L384.221 198.267C384.221 198.267 392.16 181.132 401.792 173.42C413.695 163.907 415.112 174.68 418.648 185.063Z" fill="#BF1523"/>
<path d="M525.453 81.5183C552.879 81.5183 575.113 66.0677 575.113 47.0084C575.113 27.9491 552.879 12.4985 525.453 12.4985C498.026 12.4985 475.793 27.9491 475.793 47.0084C475.793 66.0677 498.026 81.5183 525.453 81.5183Z" fill="#BF1523"/>
<path d="M507.537 64.3836C504.266 64.3721 501.103 63.1037 498.604 60.8015C496.105 58.4992 494.43 55.3102 493.874 51.795C493.326 47.9873 494.114 44.0945 496.08 40.8914C498.046 37.6884 501.046 35.4101 504.483 34.51C507.303 33.8014 510.256 34.0745 512.927 35.291C515.597 36.5075 517.851 38.6062 519.371 41.292L551.253 34.1199C552.478 33.8273 553.76 34.0495 554.841 34.7421C555.923 35.4347 556.725 36.5467 557.087 37.856C557.254 38.5444 557.29 39.2626 557.194 39.9668C557.098 40.671 556.871 41.3464 556.527 41.9517C556.183 42.557 555.729 43.0794 555.194 43.4871C554.659 43.8948 554.053 44.1792 553.413 44.3228L552.588 44.5029C552.465 44.5269 552.349 44.5813 552.249 44.662C552.149 44.7426 552.067 44.8473 552.01 44.968C551.959 45.0906 551.933 45.2236 551.933 45.3581C551.933 45.4927 551.959 45.6257 552.01 45.7482L552.574 47.3387C552.763 47.8542 552.781 48.4255 552.625 48.9541C552.47 49.4827 552.15 49.9355 551.721 50.2345C551.383 50.4624 551.096 50.7714 550.884 51.138C550.672 51.5046 550.539 51.9192 550.496 52.3501C550.456 52.8448 550.273 53.3128 549.974 53.6873C549.675 54.0619 549.275 54.3238 548.831 54.4357L548.185 54.5858C547.736 54.6761 547.273 54.6085 546.863 54.3927C546.452 54.1768 546.115 53.8241 545.9 53.3854C545.615 52.8621 545.186 52.449 544.675 52.2037C544.164 51.9584 543.596 51.8931 543.049 52.017C542.502 52.1409 542.004 52.4477 541.625 52.8947C541.246 53.3418 541.004 53.9067 540.933 54.5108C540.895 55.0022 540.714 55.4677 540.417 55.8399C540.12 56.2121 539.723 56.4717 539.282 56.5813L538.635 56.7314C538.187 56.8193 537.725 56.7506 537.314 56.5351C536.904 56.3195 536.567 55.9681 536.351 55.531C536.145 55.1589 535.867 54.8401 535.537 54.5965C535.207 54.353 534.832 54.1906 534.438 54.1206C533.909 54.0512 533.421 53.7736 533.067 53.3398C532.712 52.9061 532.515 52.3461 532.512 51.765V50.0545C532.506 49.9207 532.474 49.7897 532.418 49.6707C532.362 49.5516 532.283 49.4472 532.186 49.3645C532.089 49.2819 531.977 49.223 531.858 49.1919C531.738 49.1608 531.614 49.1582 531.494 49.1842L521.325 51.4649C520.91 54.5368 519.638 57.3948 517.68 59.6499C515.723 61.9051 513.176 63.4479 510.386 64.0685C509.448 64.2775 508.494 64.383 507.537 64.3836ZM504.785 35.8754C501.664 36.6704 498.936 38.7252 497.148 41.6262C495.361 44.5271 494.648 48.0588 495.153 51.5099C495.695 54.7206 497.272 57.6141 499.599 59.667C501.927 61.7199 504.852 62.7966 507.844 62.7024C510.837 62.6081 513.7 61.3491 515.915 59.1531C518.13 56.9571 519.551 53.9691 519.921 50.7297V50.1895L531.136 47.7138C531.458 47.629 531.793 47.6233 532.116 47.6972C532.44 47.7711 532.745 47.9227 533.009 48.1411C533.272 48.3595 533.488 48.6391 533.64 48.9597C533.792 49.2803 533.877 49.6338 533.888 49.9945V51.705C533.891 51.9086 533.958 52.1049 534.079 52.2607C534.199 52.4165 534.365 52.5222 534.548 52.5602C535.15 52.6542 535.724 52.8962 536.227 53.2679C536.73 53.6397 537.149 54.1314 537.452 54.7058C537.525 54.8677 537.642 55.0009 537.787 55.0869C537.933 55.173 538.099 55.2076 538.264 55.1859L538.897 55.0359C539.057 54.9909 539.2 54.8907 539.304 54.7501C539.408 54.6096 539.468 54.4362 539.474 54.2557C539.561 53.3216 539.918 52.4419 540.493 51.7435C541.069 51.0451 541.833 50.5643 542.675 50.3705C543.518 50.1768 544.395 50.2801 545.18 50.6657C545.965 51.0512 546.617 51.6989 547.042 52.5152C547.113 52.6759 547.228 52.8086 547.371 52.8946C547.514 52.9807 547.678 53.0159 547.841 52.9953L548.501 52.8453C548.659 52.7975 548.799 52.6961 548.9 52.5558C549.002 52.4155 549.059 52.2436 549.065 52.0651C549.133 51.4063 549.338 50.7732 549.665 50.2141C549.992 49.655 550.431 49.1847 550.95 48.8391C551.102 48.7199 551.213 48.5488 551.265 48.3531C551.317 48.1574 551.308 47.9483 551.239 47.7588L550.675 46.1684C550.558 45.8405 550.509 45.4888 550.53 45.1378C550.551 44.7869 550.642 44.4451 550.796 44.1365C550.951 43.8279 551.165 43.5597 551.425 43.3509C551.684 43.1421 551.983 42.9976 552.299 42.9274L553.138 42.7324C553.592 42.6268 554.022 42.4223 554.403 42.1313C554.783 41.8403 555.105 41.4686 555.35 41.0386C555.596 40.6085 555.759 40.129 555.83 39.6285C555.902 39.1281 555.88 38.6171 555.766 38.1261C555.498 37.1818 554.912 36.3833 554.125 35.8907C553.339 35.3981 552.412 35.2479 551.528 35.4703L518.752 42.8974L518.504 42.4323C517.187 39.876 515.143 37.8565 512.68 36.679C510.218 35.5015 507.471 35.23 504.854 35.9054L504.785 35.8754ZM507.537 58.802C505.828 58.8227 504.15 58.3015 502.708 57.3016C501.001 56.0801 499.736 54.251 499.128 52.1263C498.521 50.0016 498.607 47.7128 499.374 45.6499C500.14 43.5871 501.539 41.878 503.332 40.814C505.125 39.75 507.2 39.397 509.205 39.8151C511.21 40.2333 513.02 41.3966 514.326 43.107C515.632 44.8173 516.354 46.9687 516.368 49.1944C516.383 51.4201 515.688 53.5822 514.404 55.3123C513.12 57.0424 511.325 58.2333 509.326 58.682C508.741 58.7975 508.146 58.8478 507.551 58.832L507.537 58.802ZM507.537 41.0819C507.025 41.0851 506.513 41.1403 506.01 41.247C505.051 41.4696 504.142 41.896 503.335 42.5017C502.527 43.1074 501.837 43.8806 501.304 44.7772C500.77 45.6738 500.404 46.6762 500.226 47.7271C500.048 48.778 500.061 49.8569 500.265 50.9022C500.469 51.9475 500.86 52.9387 501.416 53.8192C501.971 54.6998 502.681 55.4523 503.503 56.034C504.325 56.6157 505.244 57.0151 506.208 57.2095C507.172 57.4038 508.161 57.3892 509.12 57.1665C510.559 56.8398 511.877 56.0559 512.908 54.9136C513.939 53.7712 514.637 52.3216 514.914 50.7474C515.19 49.1732 515.033 47.5449 514.463 46.0678C513.892 44.5907 512.933 43.331 511.707 42.4473C510.489 41.5639 509.055 41.0987 507.593 41.1119L507.537 41.0819Z" fill="white"/>
<path opacity="0.6" d="M485.04 101.759C494.053 101.759 501.359 96.6807 501.359 90.416C501.359 84.1513 494.053 79.0728 485.04 79.0728C476.027 79.0728 468.721 84.1513 468.721 90.416C468.721 96.6807 476.027 101.759 485.04 101.759Z" fill="#BF1523"/>
<path opacity="0.3" d="M459.075 106.411C462.776 106.411 465.776 104.328 465.776 101.759C465.776 99.1904 462.776 97.1079 459.075 97.1079C455.374 97.1079 452.374 99.1904 452.374 101.759C452.374 104.328 455.374 106.411 459.075 106.411Z" fill="#BF1523"/>
</svg>
