<svg width="688" height="587" viewBox="0 0 688 587" fill="none" xmlns="http://www.w3.org/2000/svg">
<path d="M344 587C533.986 587 688 508.769 688 412.266C688 315.764 533.986 237.533 344 237.533C154.014 237.533 0 315.764 0 412.266C0 508.769 154.014 587 344 587Z" fill="#F0F0F0"/>
<path d="M541.558 472.896C519 461.438 519 442.864 541.558 431.406C564.115 419.948 600.689 419.948 623.247 431.406C645.805 442.864 645.805 461.438 623.247 472.896C600.689 484.354 564.115 484.354 541.558 472.896Z" fill="#E0E0E0"/>
<path d="M82.7548 474.489L23.4188 444.354C20.0753 442.658 20.0753 439.896 23.4188 438.201L368.558 262.889C370.433 262.053 372.507 261.617 374.609 261.617C376.712 261.617 378.786 262.053 380.661 262.889L440.012 293.024C443.355 294.72 443.355 297.481 440.012 299.177L94.8731 474.489C92.9948 475.325 90.9191 475.761 88.8139 475.761C86.7087 475.761 84.6331 475.325 82.7548 474.489Z" fill="#E0E0E0"/>
<path d="M296.038 420.77L347.052 394.823C352.308 392.151 354.936 388.657 354.936 385.15C354.936 381.644 354.936 378.908 354.936 378.908L302.024 352.652C300.546 351.811 299.315 350.674 298.432 349.335C297.549 347.995 297.039 346.491 296.943 344.945V289.595L207.881 334.887V390.211C207.983 391.756 208.497 393.258 209.379 394.597C210.262 395.935 211.489 397.073 212.962 397.919L257.989 420.732C268.473 426.114 285.526 426.114 296.038 420.77Z" fill="#C53F3F"/>
<g opacity="0.6">
<path d="M296.038 420.77L347.052 394.823C352.308 392.151 354.936 388.657 354.936 385.15C354.936 381.644 354.936 378.908 354.936 378.908L302.024 352.652C300.546 351.811 299.315 350.674 298.432 349.335C297.549 347.995 297.039 346.491 296.943 344.945V289.595L207.881 334.887V390.211C207.983 391.756 208.497 393.258 209.379 394.597C210.262 395.935 211.489 397.073 212.962 397.919L257.989 420.732C268.473 426.114 285.526 426.114 296.038 420.77Z" fill="black"/>
</g>
<path opacity="0.3" d="M229.24 400.012V406.229L212.917 397.944C211.444 397.099 210.218 395.962 209.338 394.623C208.458 393.284 207.948 391.781 207.851 390.237V334.887L224.816 326.268C225.167 330.057 225.546 333.975 225.911 337.828L213.983 343.866V387.09C214.077 388.636 214.587 390.141 215.47 391.481C216.353 392.82 217.585 393.957 219.064 394.797L229.24 400.012Z" fill="black"/>
<path d="M213.982 387.103C214.083 388.648 214.595 390.151 215.478 391.49C216.36 392.829 217.589 393.966 219.063 394.81L257.93 414.515C268.442 419.846 285.495 419.858 296.022 414.515L347.123 388.567C357.65 383.224 357.65 374.566 347.123 369.222L308.228 349.518C306.757 348.672 305.532 347.534 304.652 346.195C303.772 344.856 303.261 343.355 303.162 341.811V298.574L214.099 343.866L213.982 387.103Z" fill="#C53F3F"/>
<path opacity="0.3" d="M213.982 387.103C214.083 388.648 214.595 390.151 215.478 391.49C216.36 392.829 217.589 393.966 219.063 394.81L257.93 414.515C268.442 419.846 285.495 419.858 296.022 414.515L347.123 388.567C357.65 383.224 357.65 374.566 347.123 369.222L308.228 349.518C306.757 348.672 305.532 347.534 304.652 346.195C303.772 344.856 303.261 343.355 303.162 341.811V298.574L214.099 343.866L213.982 387.103Z" fill="black"/>
<path opacity="0.5" d="M318.522 354.797L308.171 349.544C306.7 348.697 305.475 347.559 304.595 346.221C303.715 344.882 303.204 343.38 303.104 341.836V298.574L214.042 343.866V387.103C214.142 388.648 214.655 390.151 215.537 391.49C216.42 392.829 217.648 393.966 219.123 394.81L229.343 399.948L318.522 354.797Z" fill="black"/>
<path d="M354.95 378.92V385.163C354.95 388.67 352.308 392.151 347.066 394.836L295.965 420.77C290.372 423.396 284.126 424.76 277.787 424.739V418.522C284.126 418.543 290.372 417.179 295.965 414.553L347.066 388.593C352.308 385.934 354.95 382.427 354.95 378.92Z" fill="#C53F3F"/>
<path opacity="0.5" d="M354.95 378.92V385.163C354.95 388.67 352.308 392.151 347.066 394.836L295.965 420.77C290.372 423.396 284.126 424.76 277.787 424.739V418.522C284.126 418.543 290.372 417.179 295.965 414.553L347.066 388.593C352.308 385.934 354.95 382.427 354.95 378.92Z" fill="black"/>
<path d="M70.8988 440.835C72.8241 441.653 74.941 442.062 77.0789 442.028C79.2168 441.995 81.3158 441.52 83.2069 440.642L427.776 265.626C429.624 264.565 431.162 263.137 432.265 261.457C433.369 259.776 434.007 257.891 434.128 255.953V10.7121C434.062 8.8269 433.49 6.98209 432.46 5.328C431.43 3.67392 429.97 2.25736 428.2 1.19379C426.277 0.374718 424.161 -0.0335555 422.025 0.00215654C419.889 0.0378685 417.792 0.516557 415.906 1.39931L71.3368 176.467C69.4956 177.534 67.9672 178.968 66.8761 180.654C65.7851 182.339 65.1623 184.228 65.0586 186.165V431.368C65.1237 433.237 65.6859 435.068 66.7001 436.712C67.7143 438.356 69.1523 439.768 70.8988 440.835Z" fill="#C53F3F"/>
<path d="M83.2506 440.629L427.82 265.613C429.67 264.555 431.21 263.127 432.313 261.446C433.417 259.765 434.054 257.879 434.171 255.94V10.712C434.171 7.15391 431.324 5.7024 427.82 7.48788L83.2506 182.504C81.4022 183.564 79.8638 184.992 78.7603 186.672C77.6568 188.353 77.0192 190.239 76.8994 192.177V437.405C76.8994 440.963 79.7465 442.415 83.2506 440.629Z" fill="#C53F3F"/>
<path opacity="0.5" d="M83.2506 440.629L427.82 265.613C429.67 264.555 431.21 263.127 432.313 261.446C433.417 259.765 434.054 257.879 434.171 255.94V10.712C434.171 7.15391 431.324 5.7024 427.82 7.48788L83.2506 182.504C81.4022 183.564 79.8638 184.992 78.7603 186.672C77.6568 188.353 77.0192 190.239 76.8994 192.177V437.405C76.8994 440.963 79.7465 442.415 83.2506 440.629Z" fill="black"/>
<path d="M82.3163 447C80.5094 447.694 78.553 448.035 76.5819 448C74.6108 447.964 72.6719 447.553 70.8988 446.795C69.1484 445.725 67.708 444.309 66.6937 442.66C65.6793 441.012 65.1192 439.176 65.0586 437.302V414.977L76.9579 421.04V443.365C76.8849 446.615 79.2356 448.092 82.3163 447Z" fill="#C53F3F"/>
<path opacity="0.5" d="M82.3163 447C80.5094 447.694 78.553 448.035 76.5819 448C74.6108 447.964 72.6719 447.553 70.8988 446.795C69.1484 445.725 67.708 444.309 66.6937 442.66C65.6793 441.012 65.1192 439.176 65.0586 437.302V414.977L76.9579 421.04V443.365C76.8849 446.615 79.2356 448.092 82.3163 447Z" fill="black"/>
<path d="M76.8857 421.04V443.365C76.8857 446.923 79.8058 448.362 83.2369 446.589L427.806 271.573C429.646 270.518 431.179 269.098 432.282 267.427C433.385 265.756 434.028 263.881 434.157 261.952V239.524L76.8857 421.04Z" fill="#C53F3F"/>
<path opacity="0.3" d="M76.8994 420.988V443.365C76.8994 446.923 79.8195 448.362 83.2506 446.589L427.82 271.573C429.657 270.516 431.187 269.096 432.288 267.425C433.388 265.754 434.028 263.879 434.157 261.952V239.524L76.8994 420.988Z" fill="black"/>
<path d="M88.7988 392.973V195.657C88.8668 194.495 89.2461 193.363 89.9058 192.354C90.5655 191.345 91.4869 190.487 92.5949 189.851L418.388 24.3148C420.491 23.2487 422.199 24.1093 422.199 26.2416V223.66C422.128 224.823 421.746 225.956 421.084 226.964C420.422 227.973 419.498 228.831 418.388 229.466L92.6095 394.964C90.5071 396.03 88.7988 395.157 88.7988 392.973Z" fill="#C53F3F"/>
<path d="M88.7988 392.973V195.657C88.8668 194.495 89.2461 193.363 89.9058 192.354C90.5655 191.345 91.4869 190.487 92.5949 189.851L418.388 24.3148C420.491 23.2487 422.199 24.1093 422.199 26.2416V223.66C422.128 224.823 421.746 225.956 421.084 226.964C420.422 227.973 419.498 228.831 418.388 229.466L92.6095 394.964C90.5071 396.03 88.7988 395.157 88.7988 392.973Z" fill="#263238"/>
<path d="M255.521 337.392C253.787 338.384 252.344 339.723 251.309 341.299C250.273 342.875 249.676 344.643 249.564 346.461C249.564 349.801 252.236 351.162 255.521 349.492C257.258 348.499 258.702 347.158 259.737 345.58C260.773 344.002 261.369 342.23 261.478 340.411C261.478 337.071 258.807 335.722 255.521 337.392Z" fill="#C53F3F"/>
<path opacity="0.7" d="M78.7684 186.653C77.6368 188.327 76.99 190.219 76.8849 192.164V421.04L65.0586 414.977V186.165C65.1352 184.214 65.7786 182.312 66.9274 180.642L78.7684 186.653Z" fill="black"/>
<path opacity="0.3" d="M434.099 9.78727C433.647 6.90994 431.004 5.93371 427.807 7.48798L83.2371 182.504C81.3688 183.532 79.8268 184.96 78.7547 186.653L66.8408 180.603C67.9201 178.91 69.4666 177.483 71.3377 176.454L415.907 1.45072C417.796 0.567846 419.895 0.0891345 422.033 0.0534256C424.172 0.0177167 426.29 0.426016 428.215 1.2452C429.834 2.21547 431.197 3.48021 432.212 4.9539C433.227 6.42759 433.871 8.07587 434.099 9.78727Z" fill="black"/>
<path d="M452.685 39.9738C452.173 39.7479 451.601 39.6488 451.03 39.6873C450.459 39.7258 449.91 39.9003 449.443 40.1922L124.322 205.433C123.039 206.18 121.974 207.182 121.213 208.358C120.452 209.534 120.016 210.851 119.942 212.203V408.311C119.896 408.973 120.045 409.634 120.375 410.23C120.705 410.827 121.205 411.338 121.825 411.715C122.54 412.062 126.366 414.014 127.505 414.554C127.908 414.734 128.358 414.817 128.809 414.795C129.261 414.772 129.697 414.645 130.074 414.425L455.123 249.184C456.406 248.437 457.471 247.436 458.232 246.26C458.993 245.083 459.428 243.766 459.503 242.415V45.2918C459.568 44.7936 459.474 44.2894 459.232 43.8356C458.99 43.3818 458.608 42.9964 458.131 42.7227C457.401 42.2988 453.502 40.3977 452.685 39.9738Z" fill="#C53F3F"/>
<path d="M130.001 208.207L455.138 43.0306C457.59 41.7461 459.518 42.7994 459.518 45.2914V242.414C459.443 243.766 459.007 245.083 458.246 246.259C457.485 247.435 456.42 248.437 455.138 249.184L130.001 414.425C127.548 415.709 125.621 413.641 125.621 411.149V214.977C125.698 213.626 126.135 212.309 126.895 211.133C127.656 209.958 128.72 208.956 130.001 208.207Z" fill="#FAFAFA"/>
<path d="M457.123 43.7757C457.985 43.7757 458.116 44.7263 458.116 45.2915V242.414C458.037 243.546 457.66 244.646 457.014 245.627C456.367 246.608 455.47 247.444 454.393 248.066L129.3 413.307C129.082 413.432 128.83 413.503 128.57 413.513C127.753 413.513 127.11 412.408 127.11 411.149V214.977C127.181 213.845 127.547 212.743 128.18 211.757C128.813 210.77 129.696 209.924 130.76 209.287L455.868 44.1354C456.244 43.9219 456.676 43.7979 457.123 43.7757ZM457.123 42.4912C456.419 42.5176 455.736 42.7034 455.138 43.0307L130.001 208.208C128.72 208.956 127.656 209.958 126.895 211.134C126.135 212.309 125.698 213.626 125.621 214.977V411.149C125.621 413.127 126.877 414.797 128.541 414.797C129.057 414.789 129.56 414.66 130.001 414.425L455.123 249.184C456.406 248.437 457.471 247.435 458.232 246.259C458.993 245.083 459.428 243.766 459.503 242.414V45.2915C459.503 43.5188 458.51 42.4912 457.05 42.4912H457.123Z" fill="#E0E0E0"/>
<path d="M121.739 411.715C122.221 411.933 125.681 413.667 127.199 414.438C126.654 414.04 126.222 413.535 125.938 412.964C125.654 412.393 125.526 411.772 125.564 411.149V227.784L119.87 224.855V408.311C119.823 408.971 119.97 409.632 120.297 410.228C120.625 410.824 121.121 411.336 121.739 411.715Z" fill="#F0F0F0"/>
<path d="M459.576 45.2529C459.576 42.7866 457.576 41.7846 455.196 43.0306L130.001 208.207C128.72 208.956 127.656 209.958 126.895 211.134C126.135 212.309 125.698 213.626 125.621 214.977V227.822L459.576 58.0981V45.2529Z" fill="#C53F3F"/>
<g opacity="0.4">
<path d="M455.138 43.0308L130.001 208.195C128.696 208.919 127.622 209.922 126.877 211.111L121.227 208.22C121.97 207.073 123.036 206.114 124.322 205.433L449.444 40.192C449.909 39.898 450.457 39.7212 451.028 39.6805C451.599 39.6397 452.172 39.7366 452.685 39.9608C453.473 40.3975 457.167 42.2344 458.116 42.6839C457.625 42.5238 457.097 42.4716 456.578 42.5321C456.059 42.5925 455.564 42.7637 455.138 43.0308Z" fill="white"/>
</g>
<path opacity="0.15" d="M119.869 224.868V212.138C119.929 210.751 120.397 209.401 121.227 208.22L126.892 211.098C126.074 212.258 125.616 213.587 125.563 214.951V227.796L119.869 224.868Z" fill="black"/>
<path d="M391.014 193.127L196.288 292.035C195.341 292.576 194.553 293.306 193.987 294.165C193.421 295.024 193.094 295.989 193.032 296.981V346.101C193.094 347.093 193.421 348.057 193.987 348.917C194.553 349.776 195.341 350.506 196.288 351.046L201.968 353.924C202.977 354.373 204.092 354.607 205.224 354.607C206.355 354.607 207.47 354.373 208.479 353.924L403.176 255.016C404.123 254.472 404.911 253.74 405.477 252.879C406.043 252.017 406.37 251.051 406.432 250.057V200.924C406.37 199.933 406.043 198.968 405.477 198.108C404.911 197.249 404.123 196.519 403.176 195.979L397.482 193.101C396.477 192.66 395.368 192.432 394.244 192.436C393.121 192.441 392.014 192.677 391.014 193.127Z" fill="#C53F3F"/>
<path opacity="0.5" d="M406.432 200.488C406.198 199.011 404.84 198.471 403.205 199.306L208.48 298.214C207.519 298.739 206.73 299.474 206.187 300.347L193.996 294.155C194.543 293.296 195.326 292.572 196.274 292.049L391.014 193.14C392.02 192.69 393.133 192.456 394.262 192.456C395.392 192.456 396.505 192.69 397.511 193.14L403.205 196.018C404.073 196.518 404.81 197.176 405.367 197.947C405.923 198.717 406.286 199.584 406.432 200.488Z" fill="white"/>
<path d="M207.925 354.168C206.971 354.498 205.949 354.649 204.925 354.609C203.902 354.569 202.899 354.34 201.982 353.936L196.288 351.059C195.343 350.517 194.556 349.787 193.99 348.928C193.424 348.069 193.096 347.105 193.032 346.114V296.994C193.076 295.991 193.408 295.014 193.996 294.155L206.187 300.346C205.595 301.195 205.263 302.164 205.224 303.159V352.292C205.224 353.924 206.392 354.682 207.925 354.168Z" fill="#263238"/>
<path d="M208.479 298.214L403.204 199.306C405 198.394 406.46 199.126 406.46 200.95V250.083C406.398 251.076 406.071 252.043 405.505 252.904C404.94 253.766 404.151 254.498 403.204 255.041L208.508 353.949C206.712 354.861 205.252 354.116 205.252 352.292V303.172C205.311 302.181 205.633 301.216 206.194 300.355C206.754 299.493 207.537 298.76 208.479 298.214Z" fill="#C53F3F"/>
<path d="M339.386 219.357L196.302 292.049C195.354 292.572 194.571 293.296 194.024 294.155L206.216 300.347C206.758 299.474 207.548 298.739 208.508 298.214L351.592 225.536L339.386 219.357Z" fill="#455A64"/>
<path d="M351.563 225.536L208.48 298.214C207.532 298.757 206.744 299.489 206.178 300.351C205.613 301.212 205.286 302.179 205.224 303.172V352.28C205.224 354.104 206.684 354.849 208.48 353.937L351.563 281.258V225.536Z" fill="#37474F"/>
<path d="M241.477 292.228L315.311 254.733C318.363 253.178 320.845 254.283 320.845 257.199C320.708 258.836 320.135 260.423 319.171 261.829C318.207 263.235 316.879 264.421 315.296 265.291L241.477 302.799C238.425 304.354 235.929 303.249 235.929 300.333C236.066 298.694 236.64 297.106 237.604 295.698C238.568 294.29 239.895 293.101 241.477 292.228Z" fill="#C53F3F"/>
<path d="M256.601 304.65C256.615 304.636 256.632 304.625 256.651 304.618C256.67 304.61 256.69 304.606 256.711 304.606C256.731 304.606 256.752 304.61 256.771 304.618C256.79 304.625 256.807 304.636 256.82 304.65C256.886 304.737 256.916 304.841 256.908 304.945V312.254C256.909 312.96 256.84 313.665 256.703 314.361C256.583 314.997 256.377 315.618 256.09 316.211C255.829 316.754 255.485 317.264 255.068 317.726C254.657 318.155 254.163 318.516 253.608 318.793C253.174 319.042 252.667 319.175 252.148 319.178C251.95 319.164 251.757 319.115 251.581 319.033C251.406 318.951 251.251 318.839 251.126 318.703C250.806 318.325 250.595 317.884 250.513 317.418C250.373 316.796 250.31 316.163 250.323 315.53V308.208C250.323 308.08 250.352 307.953 250.411 307.836C250.446 307.73 250.524 307.638 250.63 307.579L251.549 307.103C251.579 307.079 251.618 307.065 251.659 307.065C251.7 307.065 251.739 307.079 251.769 307.103C251.836 307.19 251.867 307.294 251.856 307.399V314.618C251.845 315.015 251.889 315.412 251.988 315.8C252.028 316.048 252.15 316.28 252.338 316.468C252.404 316.536 252.487 316.591 252.58 316.627C252.674 316.662 252.776 316.678 252.878 316.673C253.128 316.659 253.369 316.588 253.579 316.468C253.839 316.331 254.075 316.162 254.28 315.967C254.508 315.736 254.695 315.476 254.835 315.196C254.999 314.866 255.122 314.522 255.2 314.168C255.285 313.744 255.324 313.314 255.316 312.884V305.652C255.321 305.523 255.356 305.396 255.419 305.279C255.454 305.173 255.532 305.082 255.638 305.022L256.601 304.65Z" fill="#FAFAFA"/>
<path d="M262.326 311.56C262.334 311.466 262.308 311.372 262.253 311.291C262.218 311.257 262.175 311.232 262.127 311.216C262.079 311.2 262.027 311.195 261.976 311.201C261.796 311.179 261.615 311.179 261.435 311.201L260.589 311.342C260.315 311.402 260.03 311.402 259.756 311.342C259.542 311.281 259.357 311.159 259.231 310.995C259.088 310.787 258.994 310.555 258.953 310.314C258.811 309.626 258.811 308.921 258.953 308.233C259.063 307.839 259.22 307.456 259.421 307.09C259.621 306.725 259.865 306.381 260.151 306.063C260.427 305.759 260.763 305.503 261.143 305.305C261.45 305.14 261.794 305.035 262.151 304.996C262.41 304.973 262.671 305.022 262.895 305.138C263.11 305.253 263.278 305.423 263.377 305.626C263.495 305.866 263.559 306.123 263.567 306.384C263.582 306.513 263.552 306.643 263.479 306.756C263.444 306.862 263.366 306.953 263.26 307.013L262.384 307.463C262.345 307.483 262.299 307.494 262.253 307.494C262.207 307.494 262.162 307.483 262.122 307.463L261.932 307.334C261.856 307.282 261.765 307.251 261.669 307.244C261.481 307.263 261.301 307.32 261.143 307.411C260.914 307.533 260.711 307.69 260.545 307.874C260.368 308.076 260.275 308.325 260.282 308.58C260.261 308.678 260.261 308.778 260.282 308.876C260.31 308.912 260.347 308.942 260.39 308.965C260.433 308.987 260.481 309 260.53 309.004C260.69 309.028 260.853 309.028 261.012 309.004L261.83 308.876C262.516 308.76 262.983 308.876 263.29 309.21C263.612 309.686 263.76 310.237 263.713 310.79C263.709 311.171 263.65 311.551 263.538 311.92C263.422 312.321 263.256 312.708 263.042 313.076C262.827 313.456 262.557 313.811 262.238 314.129C261.936 314.442 261.576 314.707 261.173 314.913C260.852 315.094 260.486 315.204 260.107 315.234C259.832 315.243 259.562 315.175 259.333 315.041C259.108 314.906 258.934 314.713 258.837 314.489C258.719 314.246 258.659 313.983 258.661 313.718C258.648 313.585 258.678 313.451 258.749 313.333C258.785 313.227 258.862 313.136 258.968 313.076L259.844 312.627C259.961 312.627 260.048 312.562 260.107 312.627L260.297 312.806C260.335 312.845 260.383 312.876 260.435 312.898C260.488 312.92 260.545 312.932 260.603 312.935C260.809 312.936 261.009 312.877 261.173 312.768C261.436 312.636 261.673 312.467 261.873 312.267C261.973 312.161 262.056 312.045 262.122 311.92C262.225 311.818 262.295 311.694 262.326 311.56Z" fill="#FAFAFA"/>
<path d="M265.304 308.079C265.301 307.412 265.365 306.745 265.494 306.088C265.616 305.469 265.807 304.863 266.063 304.277C266.278 303.752 266.573 303.255 266.939 302.8C267.245 302.408 267.644 302.08 268.107 301.836C268.446 301.636 268.859 301.558 269.261 301.618C269.618 301.691 269.93 301.878 270.137 302.144C270.412 302.493 270.605 302.886 270.706 303.301C270.846 303.84 270.915 304.392 270.911 304.945V305.741C270.915 305.875 270.88 306.008 270.809 306.127C270.773 306.232 270.695 306.324 270.59 306.383L266.793 308.323C266.784 308.549 266.819 308.775 266.896 308.991C266.952 309.136 267.053 309.265 267.188 309.363C267.307 309.447 267.458 309.488 267.611 309.479C267.787 309.461 267.957 309.408 268.107 309.325C268.328 309.22 268.526 309.08 268.691 308.914C268.841 308.766 268.968 308.602 269.071 308.426C269.133 308.324 269.202 308.226 269.275 308.13C269.338 308.065 269.412 308.009 269.494 307.963L270.4 307.501C270.431 307.479 270.469 307.467 270.509 307.467C270.549 307.467 270.588 307.479 270.619 307.501C270.657 307.541 270.685 307.589 270.7 307.64C270.715 307.691 270.717 307.744 270.706 307.796C270.69 308.047 270.631 308.294 270.531 308.529C270.405 308.885 270.239 309.229 270.035 309.556C269.806 309.932 269.532 310.285 269.217 310.609C268.903 310.94 268.528 311.223 268.107 311.444C267.762 311.643 267.349 311.73 266.939 311.688C266.58 311.613 266.267 311.42 266.063 311.149C265.776 310.759 265.582 310.322 265.494 309.864C265.361 309.277 265.298 308.678 265.304 308.079ZM268.107 303.981C267.883 304.088 267.688 304.237 267.538 304.418C267.376 304.598 267.243 304.797 267.144 305.009C267.042 305.221 266.959 305.44 266.896 305.664C266.844 305.867 266.81 306.073 266.793 306.281L269.363 304.996C269.348 304.819 269.319 304.643 269.275 304.469C269.253 304.314 269.182 304.168 269.071 304.046C269.027 303.99 268.971 303.943 268.906 303.908C268.84 303.872 268.767 303.849 268.691 303.84C268.484 303.825 268.277 303.875 268.107 303.981Z" fill="#FAFAFA"/>
<path d="M275.495 300.398C275.053 300.62 274.704 300.963 274.502 301.374C274.275 301.916 274.171 302.492 274.196 303.07V307.707C274.198 307.839 274.168 307.971 274.108 308.092C274.072 308.198 273.995 308.289 273.889 308.349L273.028 308.786C273.014 308.799 272.997 308.81 272.978 308.818C272.959 308.825 272.939 308.829 272.918 308.829C272.898 308.829 272.877 308.825 272.858 308.818C272.839 308.81 272.822 308.799 272.809 308.786C272.743 308.698 272.713 308.595 272.721 308.49V300.179C272.722 300.047 272.752 299.916 272.809 299.794C272.85 299.69 272.926 299.601 273.028 299.537L273.889 299.1C273.919 299.076 273.958 299.062 273.999 299.062C274.039 299.062 274.078 299.076 274.108 299.1C274.176 299.182 274.207 299.283 274.196 299.383V299.794C274.37 299.449 274.585 299.122 274.838 298.818C275.069 298.537 275.368 298.304 275.714 298.137L276.24 297.867C276.267 297.844 276.304 297.831 276.342 297.831C276.38 297.831 276.417 297.844 276.444 297.867C276.515 297.953 276.551 298.057 276.546 298.163V299.332C276.544 299.465 276.509 299.596 276.444 299.717C276.407 299.819 276.336 299.909 276.24 299.974L275.495 300.398Z" fill="#FAFAFA"/>
<path d="M286.387 299.781C286.401 299.768 286.418 299.757 286.437 299.749C286.456 299.742 286.476 299.738 286.497 299.738C286.518 299.738 286.538 299.742 286.557 299.749C286.576 299.757 286.593 299.768 286.606 299.781C286.672 299.869 286.702 299.972 286.694 300.077V301.361C286.693 301.493 286.663 301.624 286.606 301.747C286.556 301.842 286.481 301.926 286.387 301.991L281.394 304.56C281.364 304.584 281.325 304.598 281.284 304.598C281.244 304.598 281.205 304.584 281.175 304.56C281.11 304.477 281.079 304.377 281.087 304.277V292.716C281.088 292.584 281.118 292.453 281.175 292.331C281.216 292.231 281.293 292.145 281.394 292.087L282.314 291.612C282.344 291.587 282.383 291.574 282.423 291.574C282.464 291.574 282.503 291.587 282.533 291.612C282.598 291.694 282.629 291.794 282.62 291.894V301.67L286.387 299.781Z" fill="#FAFAFA"/>
<path d="M290.869 290.276C291.197 290.076 291.594 289.98 291.993 290.006C292.335 290.03 292.653 290.168 292.883 290.391C293.156 290.666 293.355 290.991 293.467 291.342C293.623 291.797 293.712 292.267 293.73 292.742C293.73 292.845 293.73 292.986 293.73 293.153V294.142C293.73 294.296 293.73 294.438 293.73 294.553C293.701 295.112 293.613 295.666 293.467 296.21C293.332 296.74 293.137 297.257 292.883 297.752C292.652 298.212 292.353 298.644 291.993 299.036C291.685 299.391 291.303 299.692 290.869 299.923C290.531 300.116 290.132 300.21 289.73 300.192C289.393 300.167 289.079 300.029 288.854 299.807C288.574 299.542 288.373 299.22 288.27 298.869C288.114 298.414 288.025 297.944 288.007 297.469C288.007 297.366 288.007 297.238 288.007 297.071V296.082C288.007 295.915 288.007 295.774 288.007 295.671C288.024 295.108 288.107 294.549 288.255 294.001C288.397 293.467 288.598 292.947 288.854 292.447C289.086 291.989 289.38 291.558 289.73 291.162C290.039 290.804 290.426 290.502 290.869 290.276ZM292.241 293.59C292.24 293.306 292.186 293.024 292.08 292.755C292.026 292.591 291.913 292.447 291.759 292.344C291.635 292.27 291.485 292.239 291.336 292.254C291.169 292.282 291.01 292.338 290.869 292.421C290.697 292.504 290.54 292.607 290.401 292.729C290.234 292.882 290.091 293.055 289.978 293.243C289.831 293.477 289.723 293.728 289.657 293.988C289.561 294.316 289.502 294.652 289.481 294.99C289.481 295.093 289.481 295.208 289.481 295.35V296.262C289.481 296.403 289.481 296.519 289.481 296.596C289.495 296.88 289.554 297.161 289.657 297.431C289.71 297.595 289.823 297.739 289.978 297.842C290.039 297.879 290.108 297.906 290.18 297.919C290.253 297.932 290.328 297.932 290.401 297.919C290.567 297.894 290.725 297.842 290.869 297.765C291.038 297.679 291.195 297.575 291.336 297.456C291.499 297.3 291.641 297.127 291.759 296.942C291.9 296.706 292.007 296.456 292.08 296.197C292.176 295.87 292.23 295.534 292.241 295.196C292.25 295.076 292.25 294.956 292.241 294.836V293.937C292.249 293.821 292.249 293.705 292.241 293.59Z" fill="#FAFAFA"/>
<path d="M298.198 297.79C298.384 297.689 298.552 297.564 298.694 297.417C298.87 297.236 299.022 297.038 299.147 296.826C299.292 296.568 299.404 296.297 299.483 296.017C299.572 295.702 299.616 295.378 299.614 295.054V294.399C299.614 294.527 299.468 294.681 299.366 294.861C299.266 295.049 299.148 295.229 299.015 295.401C298.863 295.581 298.697 295.753 298.519 295.914C298.336 296.083 298.124 296.226 297.891 296.338C297.741 296.428 297.572 296.491 297.394 296.522C297.216 296.552 297.032 296.551 296.854 296.518C296.53 296.429 296.251 296.242 296.066 295.991C295.828 295.66 295.655 295.295 295.555 294.912C295.431 294.427 295.362 293.932 295.351 293.435C295.351 293.268 295.351 293.063 295.351 292.819C295.351 292.575 295.351 292.369 295.351 292.189C295.369 291.624 295.437 291.062 295.555 290.506C295.675 289.96 295.846 289.423 296.066 288.901C296.272 288.448 296.537 288.017 296.854 287.616C297.124 287.262 297.477 286.964 297.891 286.743C298.085 286.64 298.297 286.566 298.519 286.524C298.683 286.498 298.851 286.498 299.015 286.524C299.145 286.557 299.264 286.614 299.366 286.691C299.459 286.754 299.543 286.828 299.614 286.91V286.499C299.615 286.367 299.644 286.236 299.702 286.113C299.742 286.013 299.819 285.928 299.921 285.869L300.782 285.42C300.812 285.395 300.851 285.382 300.891 285.382C300.932 285.382 300.971 285.395 301.001 285.42C301.071 285.506 301.107 285.609 301.103 285.715V294.065C301.142 295.315 300.879 296.559 300.329 297.713C299.898 298.62 299.152 299.384 298.198 299.896C297.872 300.074 297.5 300.176 297.117 300.192C296.814 300.208 296.513 300.141 296.256 299.999C296.009 299.837 295.809 299.625 295.672 299.383C295.529 299.09 295.45 298.776 295.438 298.458C295.425 298.325 295.455 298.191 295.526 298.072C295.562 297.966 295.639 297.875 295.745 297.815L296.519 297.43C296.536 297.413 296.558 297.4 296.582 297.391C296.606 297.382 296.631 297.377 296.657 297.377C296.683 297.377 296.709 297.382 296.733 297.391C296.757 297.4 296.778 297.413 296.796 297.43C296.868 297.497 296.932 297.57 296.986 297.648C297.075 297.786 297.222 297.888 297.395 297.931C297.57 298.047 297.833 297.918 298.198 297.79ZM296.825 291.56C296.825 291.902 296.825 292.236 296.825 292.562C296.784 293.075 296.949 293.584 297.292 294C297.422 294.099 297.588 294.153 297.76 294.153C297.931 294.153 298.097 294.099 298.227 294C298.651 293.758 298.981 293.409 299.176 292.998C299.442 292.463 299.59 291.887 299.614 291.303C299.614 291.11 299.614 290.879 299.614 290.609C299.614 290.339 299.614 290.108 299.614 289.941C299.644 289.481 299.489 289.027 299.176 288.657C299.047 288.552 298.877 288.494 298.701 288.494C298.526 288.494 298.356 288.552 298.227 288.657C297.811 288.898 297.486 289.242 297.292 289.646C296.993 290.25 296.834 290.901 296.825 291.56Z" fill="#FAFAFA"/>
<path d="M304.506 280.154C304.534 280.133 304.571 280.122 304.608 280.122C304.645 280.122 304.681 280.133 304.71 280.154C304.787 280.237 304.823 280.343 304.812 280.449V281.849C304.813 281.983 304.778 282.115 304.71 282.235C304.669 282.331 304.598 282.416 304.506 282.479L303.527 282.98C303.514 282.993 303.497 283.004 303.478 283.012C303.459 283.019 303.439 283.023 303.418 283.023C303.397 283.023 303.377 283.019 303.358 283.012C303.339 283.004 303.322 282.993 303.308 282.98C303.27 282.941 303.242 282.896 303.224 282.848C303.206 282.799 303.2 282.748 303.206 282.697V281.297C303.205 281.163 303.24 281.031 303.308 280.912C303.349 280.812 303.426 280.726 303.527 280.668L304.506 280.154ZM304.754 292.216C304.754 292.344 304.725 292.471 304.666 292.588C304.62 292.689 304.544 292.777 304.447 292.845L303.571 293.282C303.559 293.295 303.543 293.306 303.526 293.313C303.508 293.321 303.489 293.325 303.469 293.325C303.449 293.325 303.43 293.321 303.412 293.313C303.395 293.306 303.379 293.295 303.367 293.282C303.29 293.199 303.254 293.093 303.265 292.986V284.675C303.264 284.542 303.299 284.41 303.367 284.29C303.408 284.19 303.479 284.101 303.571 284.033L304.447 283.596C304.477 283.572 304.516 283.558 304.557 283.558C304.597 283.558 304.637 283.572 304.666 283.596C304.732 283.679 304.763 283.779 304.754 283.879V292.216Z" fill="#FAFAFA"/>
<path d="M312.434 288.297C312.433 288.43 312.404 288.561 312.347 288.683C312.306 288.783 312.229 288.869 312.128 288.927L311.252 289.376C311.224 289.4 311.188 289.413 311.149 289.413C311.111 289.413 311.074 289.4 311.047 289.376C310.971 289.293 310.934 289.187 310.945 289.081V284.56C310.99 284.026 310.879 283.491 310.624 283.005C310.419 282.684 310.098 282.633 309.645 282.864C309.194 283.131 308.859 283.525 308.696 283.981C308.453 284.587 308.334 285.227 308.346 285.87V290.404C308.345 290.536 308.316 290.667 308.258 290.789C308.223 290.895 308.145 290.986 308.039 291.046L307.178 291.483C307.164 291.497 307.147 291.508 307.129 291.515C307.11 291.523 307.089 291.527 307.069 291.527C307.048 291.527 307.027 291.523 307.008 291.515C306.99 291.508 306.973 291.497 306.959 291.483C306.891 291.402 306.86 291.301 306.871 291.2V282.89C306.869 282.757 306.899 282.626 306.959 282.504C306.995 282.398 307.072 282.307 307.178 282.247L308.039 281.811C308.053 281.797 308.07 281.786 308.089 281.779C308.108 281.771 308.128 281.767 308.149 281.767C308.17 281.767 308.19 281.771 308.209 281.779C308.228 281.786 308.245 281.797 308.258 281.811C308.324 281.898 308.355 282.002 308.346 282.106V282.504C308.538 282.113 308.773 281.739 309.047 281.387C309.287 281.062 309.613 280.794 309.996 280.603C310.328 280.39 310.742 280.297 311.149 280.346C311.311 280.382 311.462 280.447 311.593 280.538C311.724 280.629 311.831 280.743 311.909 280.873C312.12 281.221 312.259 281.599 312.317 281.99C312.395 282.501 312.434 283.016 312.434 283.532V288.297Z" fill="#FAFAFA"/>
<path d="M386.078 250.905L371.901 258.098L374.106 240.603C372.398 239.807 371.317 237.867 371.317 235.08C371.317 230.109 374.763 224.341 378.997 222.234C383.231 220.128 386.662 222.363 386.662 227.373C386.575 230.32 385.619 233.197 383.888 235.722L386.078 250.905Z" fill="#455A64"/>
<path d="M386.094 250.905L373.611 244.573L371.902 258.112L386.094 250.905Z" fill="#37474F"/>
<path d="M378.968 222.196C375.88 224.031 373.578 226.721 372.427 229.839L383.859 235.645C385.589 233.12 386.545 230.243 386.633 227.296C386.662 222.325 383.231 220.051 378.968 222.196Z" fill="#37474F"/>
<path d="M310.054 163.943C305.193 161.477 298.491 161.824 291.074 165.587C276.269 173.115 264.268 191.393 264.268 206.435C264.268 213.988 267.304 219.28 272.181 221.721L281.627 226.551C286.475 229.017 293.176 228.658 300.608 224.894C315.413 217.379 327.414 199.088 327.414 184.046C327.414 176.532 324.407 171.201 319.559 168.799" fill="#C53F3F"/>
<path d="M300.592 170.43C285.788 177.957 273.786 196.249 273.786 211.278C273.786 226.307 285.788 232.421 300.592 224.894C315.397 217.366 327.413 199.088 327.399 184.046C327.384 169.004 315.383 162.915 300.592 170.43Z" fill="#C53F3F"/>
<path d="M315.383 203.801V205.523C311.836 211.092 306.749 215.785 300.593 219.164C294.826 222.08 289.613 222.401 285.788 220.539V216.993C285.984 213.305 287.181 209.711 289.279 206.513C291.377 203.315 294.316 200.606 297.848 198.612L301.746 196.634C305.192 194.887 308.55 194.656 311.178 196.004C313.806 197.353 315.383 200.192 315.383 203.801Z" fill="#C53F3F"/>
<path opacity="0.4" d="M310.055 163.943L319.545 168.798C314.697 166.319 307.996 166.666 300.564 170.43C290.87 175.362 282.372 184.906 277.671 195.131L268.166 190.288C272.882 180.012 281.306 170.519 291.059 165.587C298.506 161.836 305.207 161.476 310.055 163.943Z" fill="white"/>
<path opacity="0.2" d="M281.292 226.358L272.196 221.72C267.319 219.28 264.282 214.013 264.282 206.435L273.787 211.29C273.846 218.612 276.649 223.827 281.292 226.358Z" fill="black"/>
<path opacity="0.1" d="M268.194 190.289L277.699 195.131C275.264 200.25 273.956 205.729 273.845 211.278L264.34 206.422C264.457 200.879 265.765 195.405 268.194 190.289Z" fill="black"/>
<path d="M297.205 195.825C296.299 195.833 295.407 195.629 294.621 195.234C293.673 194.678 292.914 193.907 292.423 193.002C291.932 192.098 291.728 191.094 291.832 190.096C291.956 187.755 292.715 185.475 294.046 183.446C295.378 181.417 297.242 179.698 299.483 178.432C300.383 177.8 301.479 177.421 302.628 177.346C303.777 177.271 304.925 177.502 305.922 178.01C306.919 178.518 307.718 179.279 308.216 180.193C308.713 181.107 308.886 182.132 308.71 183.134C308.584 185.473 307.824 187.753 306.493 189.782C305.162 191.811 303.299 193.53 301.06 194.797C299.901 195.433 298.571 195.788 297.205 195.825Z" fill="white"/>
<path d="M311.178 195.992C308.55 194.643 305.192 194.874 301.746 196.621L297.848 198.599C294.314 200.594 291.374 203.306 289.276 206.506C287.178 209.707 285.982 213.303 285.788 216.994V220.552C289.613 222.414 294.826 222.093 300.593 219.177C306.749 215.798 311.836 211.105 315.383 205.536V203.814C315.383 200.192 313.865 197.353 311.178 195.992Z" fill="white"/>
<path d="M611.333 418.214C611.333 418.214 613.275 403.211 621.758 391.56C630.241 379.909 641.892 372.652 652.769 371.894C663.646 371.136 672.436 379.948 660.799 386.024C649.163 392.099 628.488 398.24 618.969 420.847L611.333 418.214Z" fill="#C53F3F"/>
<path opacity="0.1" d="M611.333 418.214C611.333 418.214 613.275 403.211 621.758 391.56C630.241 379.909 641.892 372.652 652.769 371.894C663.646 371.136 672.436 379.948 660.799 386.024C649.163 392.099 628.488 398.24 618.969 420.847L611.333 418.214Z" fill="black"/>
<path d="M614.531 414.309H614.414C614.271 414.257 614.157 414.158 614.097 414.033C614.037 413.908 614.035 413.767 614.093 413.641C625.569 388.785 647.411 378.393 657.369 376.39C657.443 376.374 657.521 376.372 657.597 376.384C657.672 376.395 657.745 376.419 657.81 376.455C657.875 376.49 657.931 376.537 657.976 376.592C658.02 376.647 658.052 376.709 658.07 376.775C658.087 376.841 658.089 376.909 658.077 376.976C658.064 377.042 658.036 377.106 657.996 377.163C657.955 377.22 657.902 377.27 657.839 377.309C657.777 377.348 657.706 377.376 657.632 377.392C647.878 379.37 626.46 389.569 615.174 414.039C615.117 414.141 615.023 414.224 614.906 414.273C614.789 414.322 614.657 414.335 614.531 414.309Z" fill="white"/>
<path d="M672.611 414.605C671.632 416.557 669.209 417.585 666.96 418.381C664.712 419.178 662.259 420.038 661.032 421.888C658.58 425.613 662.609 430.88 659.981 434.489C659.363 435.216 658.583 435.825 657.69 436.28C656.797 436.735 655.808 437.026 654.784 437.135C653.104 437.405 651.396 437.405 649.703 437.534C648.891 437.524 648.082 437.468 647.279 437.367C644.92 436.903 642.453 437.134 640.256 438.022C636.883 439.692 635.876 443.43 633.803 446.32C632.536 448.021 630.867 449.462 628.909 450.544C626.951 451.626 624.751 452.323 622.458 452.588C620.998 452.755 618.078 452.999 616.618 452.241C616.504 452.192 616.396 452.132 616.297 452.062C616.078 451.856 615.815 451.586 615.698 451.445C615.691 451.415 615.691 451.385 615.698 451.355C615.1 449.415 616.078 447.412 616.122 445.408V445.048C616.019 442.723 615.946 440.411 615.888 438.099C615.762 433.817 615.713 429.535 615.742 425.254C615.742 422.479 615.392 419.448 616.735 416.84C618.195 413.963 621.874 413.898 623.261 411.085C623.816 409.955 624.108 408.76 624.648 407.617C625.483 405.955 626.82 404.526 628.514 403.487C630.208 402.447 632.194 401.836 634.255 401.721C640.665 401.439 646.403 405.999 652.812 405.575C654.462 405.459 656.083 405.01 657.718 404.753C662.901 403.892 668.902 405.189 671.822 409.056C672.463 409.852 672.87 410.775 673.008 411.743C673.145 412.711 673.009 413.694 672.611 414.605Z" fill="#C53F3F"/>
<path d="M615.057 442.453C614.919 442.417 614.802 442.335 614.731 442.225C614.66 442.114 614.641 441.984 614.677 441.862C623.525 412.652 658.478 408.464 666.698 408.952C666.771 408.955 666.841 408.971 666.907 408.999C666.972 409.027 667.03 409.066 667.077 409.114C667.125 409.162 667.161 409.218 667.184 409.278C667.207 409.339 667.215 409.403 667.209 409.466C667.194 409.591 667.126 409.706 667.017 409.787C666.908 409.869 666.768 409.91 666.625 409.903C658.61 409.402 624.386 413.525 615.728 442.119C615.687 442.24 615.595 442.343 615.469 442.405C615.344 442.467 615.196 442.484 615.057 442.453Z" fill="white"/>
<path d="M653.936 427.655C653.826 427.641 653.723 427.596 653.644 427.527C650.413 425.063 646.603 423.257 642.487 422.237C638.37 421.218 634.049 421.011 629.831 421.631C629.689 421.642 629.547 421.606 629.433 421.53C629.32 421.454 629.243 421.343 629.218 421.22C629.197 421.094 629.232 420.966 629.317 420.862C629.401 420.759 629.528 420.689 629.671 420.667C634.07 420.023 638.576 420.243 642.867 421.311C647.158 422.379 651.128 424.269 654.491 426.846C654.543 426.89 654.584 426.943 654.612 427.001C654.64 427.06 654.654 427.123 654.654 427.186C654.654 427.25 654.64 427.312 654.612 427.371C654.584 427.429 654.543 427.482 654.491 427.527C654.425 427.596 654.336 427.645 654.237 427.668C654.138 427.691 654.033 427.687 653.936 427.655Z" fill="white"/>
<path d="M530.988 65.4202L535.631 66.9873V57.9957C535.631 50.8537 542.099 49.1453 549.122 52.7163C556.159 56.2873 561.853 64.9578 561.853 72.0997V73.3842C562.832 73.1212 563.866 73.0561 564.877 73.194C565.888 73.332 566.851 73.6692 567.693 74.1807C570.36 75.7104 572.579 77.7722 574.17 80.1983C575.76 82.6245 576.678 85.3466 576.848 88.1434V88.7343L583.33 92.0227C585.084 93.0299 586.544 94.3861 587.591 95.9816C588.639 97.5772 589.245 99.3672 589.36 101.207C589.36 104.598 586.659 105.973 583.33 104.277L530.988 77.6746C529.233 76.6697 527.773 75.3138 526.727 73.7175C525.682 72.1213 525.081 70.3301 524.973 68.4902C524.973 65.1119 527.645 63.7375 530.988 65.4202Z" fill="#E6E6E6"/>
<path d="M593.171 58.3036L601.596 62.581C601.55 62.2572 601.525 61.9312 601.523 61.6048V59.4596C601.523 55.6061 604.559 54.0903 608.326 56.0043C609.945 56.8762 611.33 58.0462 612.385 59.4339C612.998 54.6298 617.291 52.8443 622.489 55.4776C625.459 57.178 627.932 59.4701 629.708 62.1682C631.484 64.8663 632.512 67.8946 632.709 71.0075V74.2188C632.747 75.5019 632.452 76.7757 631.848 77.9439L638.856 81.4892C639.948 82.1265 640.855 82.9802 641.504 83.9819C642.153 84.9836 642.526 86.1052 642.593 87.2567C642.593 89.3762 640.9 90.2368 638.812 89.1835L593.171 66.0621C592.067 65.4293 591.149 64.5758 590.492 63.5711C589.835 62.5665 589.457 61.4393 589.39 60.2817C589.39 58.1109 591.083 57.2503 593.171 58.3036Z" fill="#E6E6E6"/>
<path d="M560.552 253.255C554.42 262.375 548.522 270.301 544.375 274.103C536.505 277.314 518.021 282.273 510.794 283.095C509.525 283.237 508.239 282.972 507.173 282.35C504.326 280.705 502.121 280.436 499.128 279.524C496.778 278.817 495.785 277.828 495.347 278.239C494.894 278.706 494.667 279.309 494.713 279.921C494.76 280.533 495.076 281.105 495.595 281.515C496.718 282.453 497.963 283.273 499.304 283.955C496.098 284.655 492.754 284.708 489.521 284.109C483.258 282.658 480.308 285.304 484.543 291.29C486.003 293.422 492.018 296.852 504.107 295.927C508.42 295.722 512.715 295.293 516.97 294.642C528.563 292.459 541.455 290.352 549.383 288.22C552.332 287.2 554.971 285.59 557.092 283.518C570.422 270.147 574.846 260.615 580.686 251.958L580.19 237.828C570.729 237.545 565.677 245.625 560.552 253.255Z" fill="#FFA8A7"/>
<path d="M581.811 237.546C579.068 237.207 576.271 237.534 573.724 238.491C571.176 239.449 568.975 241.001 567.357 242.98C560.874 250.289 549.398 267.835 549.398 267.835C549.398 267.835 553.151 276.634 563.283 278.111L579.563 258.767C579.563 258.767 587.272 245.33 581.811 237.546Z" fill="#455A64"/>
<path d="M617.012 434.771H606.397V451.419H617.012V434.771Z" fill="#FFA8A7"/>
<path d="M580.219 433.885L569.619 434.219L569.079 416.596L580.219 416.262V433.885Z" fill="#FFA8A7"/>
<path d="M618.502 290.661C618.502 299.935 616.954 374.656 616.954 374.656C617.187 377.328 619.874 382.26 619.334 392.524C618.531 406.461 617.465 443.095 617.465 443.095C615.643 443.916 613.632 444.361 611.586 444.396C609.54 444.432 607.511 444.057 605.653 443.301C605.653 443.301 597.039 391.92 595.141 378.163C593.476 366.101 589.213 326.178 589.213 326.178L583.475 373.371C584.692 378.435 585.134 383.619 584.789 388.786C584.293 395.208 580.876 428.452 580.876 428.452C579.042 429.404 576.987 429.976 574.864 430.125C572.742 430.274 570.609 429.996 568.627 429.312C568.627 429.312 562.582 379.216 562.465 373.333C562.319 366.653 565.998 290.584 565.998 290.584L618.502 290.661Z" fill="#37474F"/>
<path d="M606.398 446.615V445.227C605.376 445.626 603.026 453.872 598.806 457.392C595.463 460.192 590.907 463.416 589.739 466.538C588.571 469.659 596.09 471.573 599.23 471.072C602.85 470.481 609.158 468.13 610.735 465.934C612.312 463.737 613.056 460.552 614.341 458.959C615.626 457.366 618.59 455.593 619.276 453.744C619.49 452.013 619.286 450.262 618.677 448.606C618.181 446.884 617.655 444.996 617.013 445.163V446.216C615.516 447.297 613.634 447.879 611.698 447.861C610.151 447.976 606.384 447.694 606.398 446.615Z" fill="#263238"/>
<path d="M569.503 431.213C568.948 431.213 568.496 431.945 567.284 433.153C565.482 434.82 563.375 436.21 561.05 437.263C557.078 439.087 549.369 441.888 545.851 443.339C543.66 444.238 543.763 446.653 546.026 448.028C548.289 449.402 553.735 450.391 560.276 449.055C563.838 448.323 568.481 445.305 571.43 445.472C574.38 445.638 579.855 445.587 582.03 444.187C584.206 442.787 583.33 439.884 582.717 437.379C582.045 434.63 581.257 430.353 580.22 430.545V431.509C578.95 433.281 572.365 434.001 569.562 432.703L569.503 431.213Z" fill="#263238"/>
<path d="M589.213 326.178C583.692 324.587 578.644 321.932 574.438 318.406C574.438 318.406 577.358 323.3 585.767 327.86L583.957 370.006L589.213 326.178Z" fill="#263238"/>
<path d="M612.574 238.907C612.574 238.907 621.334 240.68 620.706 254.604L618.881 276.762V310.031C611.084 317.816 576.54 317.25 564.641 309.415C564.641 309.415 565.984 270.044 566.787 254.887C567.356 244.122 570.174 238.702 582.205 237.52L596.995 238.085L612.574 238.907Z" fill="#C53F3F"/>
<path d="M601.42 209.98C601.47 211.844 601.101 213.699 600.333 215.437C599.564 217.174 598.413 218.761 596.944 220.106C595.476 221.451 593.719 222.526 591.776 223.271C589.833 224.015 587.741 224.414 585.622 224.444C576.862 224.444 571.723 217.79 569.825 209.98C566.32 195.683 576.891 195.503 585.622 195.503C589.899 195.581 593.965 197.15 596.928 199.864C599.89 202.579 601.506 206.217 601.42 209.98Z" fill="#263238"/>
<path d="M609.478 215.825C609.478 215.825 607.055 226.255 606.076 227.976C605.461 229.012 604.415 229.799 603.156 230.173L603.331 222.838L609.478 215.825Z" fill="#263238"/>
<path d="M606.428 200.886C606.428 200.886 608.165 200.5 610.019 203.044C611.596 205.214 611.961 210.096 609.479 215.889L604.909 216.377L606.428 200.886Z" fill="#263238"/>
<path d="M608.106 203.006L613.713 203.095C613.751 202.777 613.714 202.454 613.604 202.149C613.494 201.843 613.314 201.561 613.074 201.319C612.834 201.078 612.54 200.883 612.21 200.747C611.88 200.61 611.522 200.535 611.158 200.526C610.391 200.536 609.656 200.794 609.093 201.252C608.53 201.71 608.178 202.334 608.106 203.006Z" fill="#263238"/>
<path d="M608.793 201.836L612.94 198.329C612.701 198.081 612.406 197.88 612.074 197.737C611.742 197.595 611.38 197.514 611.011 197.501C610.642 197.488 610.274 197.542 609.93 197.66C609.586 197.778 609.273 197.958 609.012 198.188C608.462 198.661 608.135 199.299 608.094 199.974C608.054 200.65 608.303 201.315 608.793 201.836Z" fill="#263238"/>
<path d="M603.536 216.313C604.456 216.814 605.755 215.208 606.894 214.116C608.033 213.025 611.566 212.023 613.406 215.568C615.246 219.113 612.107 222.62 609.479 223.776C604.763 225.831 603.273 222.838 603.273 222.838L602.879 239.357C596.251 248.349 581.212 248.066 586.629 238.921V233.898C584.401 234.224 582.138 234.327 579.884 234.206C576.204 233.693 573.897 231.034 572.773 227.386C570.992 221.528 570.306 216.801 571.824 205.279C573.489 192.665 589.52 192.524 598.105 197.572C606.69 202.62 603.536 216.313 603.536 216.313Z" fill="#FFA8A7"/>
<path d="M583.564 203.314C587.389 202.98 591.17 202.286 595.01 202.029C595.838 201.941 596.677 201.976 597.492 202.132C600.413 202.838 600.062 205.844 600.529 207.938C601.332 211.56 601.989 217.687 603.537 217.713C604.004 217.713 605.756 215.054 606.895 214.104C607.521 213.285 607.875 212.328 607.917 211.342C608.209 209.852 608.355 208.323 608.487 206.808C608.603 205.523 608.749 204.238 608.749 202.954C608.816 201.502 608.684 200.049 608.355 198.625C607.989 197.414 607.287 196.301 606.311 195.388L606.019 195.106C604.095 193.335 601.759 191.951 599.171 191.046C595.449 189.819 591.544 189.071 587.579 188.824C583.619 188.577 579.676 188.149 575.767 187.54C575.543 187.482 575.305 187.482 575.081 187.54C574.922 187.617 574.788 187.728 574.691 187.863C574.594 187.997 574.538 188.151 574.526 188.31C574.366 189.109 574.466 189.93 574.815 190.681C575.164 191.431 575.747 192.079 576.497 192.549C573.854 192.729 570.818 191.522 568.277 190.905C568.072 190.828 567.851 190.789 567.627 190.789C567.404 190.789 567.183 190.828 566.978 190.905C566.723 191.062 566.541 191.295 566.467 191.56C566.282 192.164 566.257 192.797 566.394 193.41C566.626 195.269 567.412 197.041 568.671 198.548C570.639 200.802 573.419 202.401 576.555 203.082C578.864 203.474 581.228 203.552 583.564 203.314Z" fill="#263238"/>
<path d="M586.644 233.898C586.644 233.898 594.849 232.382 597.711 230.982C599.415 230.161 600.799 228.908 601.682 227.385C601.251 228.915 600.482 230.356 599.419 231.624C597.331 234.09 586.644 235.889 586.644 235.889V233.898Z" fill="#F28F8F"/>
<path d="M588.614 214.424C588.599 214.821 588.762 215.207 589.068 215.498C589.374 215.789 589.799 215.962 590.25 215.979C590.607 216.004 590.965 215.935 591.277 215.778C591.589 215.622 591.84 215.387 591.997 215.103C592.154 214.819 592.21 214.5 592.158 214.187C592.105 213.875 591.947 213.584 591.703 213.352C591.459 213.12 591.141 212.959 590.791 212.889C590.442 212.819 590.076 212.843 589.742 212.959C589.408 213.075 589.122 213.277 588.92 213.538C588.719 213.8 588.613 214.109 588.614 214.424Z" fill="#263238"/>
<path d="M591.243 208.194L594.762 209.98C595.018 209.54 595.076 209.031 594.924 208.555C594.773 208.078 594.423 207.67 593.944 207.411C593.711 207.296 593.453 207.224 593.187 207.202C592.92 207.179 592.652 207.205 592.397 207.279C592.143 207.353 591.91 207.472 591.711 207.63C591.512 207.787 591.353 207.98 591.243 208.194Z" fill="#263238"/>
<path d="M587.373 224.842L583.621 226.127C583.697 226.353 583.824 226.564 583.996 226.745C584.168 226.926 584.38 227.074 584.62 227.18C584.859 227.286 585.121 227.348 585.389 227.361C585.657 227.374 585.925 227.339 586.176 227.257C586.687 227.064 587.095 226.706 587.317 226.258C587.54 225.809 587.56 225.303 587.373 224.842Z" fill="#F28F8F"/>
<path d="M573.518 209.518L576.73 207.257C576.587 207.059 576.397 206.891 576.174 206.762C575.951 206.634 575.7 206.548 575.437 206.51C575.174 206.473 574.905 206.484 574.647 206.544C574.39 206.604 574.149 206.711 573.942 206.859C573.512 207.179 573.232 207.627 573.154 208.117C573.076 208.607 573.206 209.106 573.518 209.518Z" fill="#263238"/>
<path d="M574.934 214.001C574.96 214.282 575.078 214.55 575.274 214.773C575.47 214.996 575.736 215.164 576.038 215.257C576.341 215.349 576.668 215.362 576.979 215.293C577.29 215.225 577.571 215.078 577.789 214.871C578.007 214.665 578.152 214.406 578.205 214.128C578.259 213.85 578.22 213.565 578.092 213.306C577.964 213.048 577.753 212.827 577.486 212.672C577.218 212.517 576.905 212.434 576.584 212.434C576.358 212.44 576.136 212.486 575.931 212.569C575.726 212.651 575.541 212.769 575.388 212.914C575.234 213.06 575.115 213.231 575.037 213.418C574.96 213.604 574.924 213.802 574.934 214.001Z" fill="#263238"/>
<path d="M583.739 212.793L583.549 221.926L577.65 220.744L583.739 212.793Z" fill="#F28F8F"/>
<path d="M443.662 289.286L452.817 284.636L456.437 280.77L447.298 285.42L443.662 289.286Z" fill="#C53F3F"/>
<path opacity="0.4" d="M443.662 289.286L452.817 284.636L456.437 280.77L447.298 285.42L443.662 289.286Z" fill="black"/>
<path d="M468.556 301.926L477.71 297.276L485.346 291.329L476.206 295.966L468.556 301.926Z" fill="#C53F3F"/>
<path opacity="0.4" d="M468.556 301.926L477.71 297.276L485.346 291.329L476.206 295.966L468.556 301.926Z" fill="black"/>
<path d="M546.317 317.97C548.482 320.522 549.792 323.557 550.099 326.73C547.944 324.173 546.635 321.141 546.317 317.97ZM567.59 318.214C564.51 299.781 553.253 281.553 539.849 274.733C533.411 271.457 527.454 271.341 522.679 273.795L514.065 278.162L513.583 278.419C513.2 278.605 512.829 278.811 512.474 279.036C511.766 279.464 511.102 279.945 510.488 280.474L510.196 280.718C509.933 280.95 509.656 281.219 509.408 281.476C509.159 281.733 508.78 282.131 508.488 282.478C507.868 283.196 507.307 283.951 506.809 284.739C506.546 285.137 506.298 285.561 506.064 286.023L430.828 247.822L421.688 252.459V257.597L422.462 257.982L423.192 258.355V259.382L421.732 260.14V263.12L432.785 283.673L443.706 289.235L447.341 285.381L456.978 290.455L462.511 298.792L468.614 301.887L476.25 295.927L485.624 300.693L488.777 312.138L504.531 320.153C505.31 323.066 506.285 325.936 507.451 328.747C507.553 329.029 507.685 329.325 507.816 329.646C513.043 341.72 521.351 352.061 530.724 356.826C531.848 357.413 533.025 357.915 534.243 358.329C534.887 358.555 535.545 358.748 536.214 358.907C536.798 359.044 537.382 359.16 537.966 359.254C539.81 359.55 541.699 359.55 543.543 359.254L544.303 359.087C544.666 359.023 545.022 358.933 545.368 358.817L546.186 358.535C546.475 358.443 546.754 358.327 547.018 358.188C547.288 358.085 547.551 357.97 547.807 357.841L548.186 357.636C548.255 357.616 548.319 357.585 548.376 357.546C550.464 356.492 555.603 353.872 557.005 353.178C563.955 349.633 568.452 340.667 568.452 327.989C568.44 324.716 568.152 321.449 567.59 318.214Z" fill="#C53F3F"/>
<path d="M543.645 333.526C540.024 331.689 537.104 326.242 537.104 321.361C537.104 316.48 540.024 314.001 543.645 315.825C547.265 317.649 550.171 323.108 550.171 328.002C550.171 332.896 547.251 335.363 543.645 333.526ZM558.435 322.851C555.369 304.431 544.112 286.191 530.694 279.383C524.474 276.223 518.722 275.992 514.05 278.163L513.568 278.42C513.184 278.605 512.814 278.811 512.458 279.036C511.75 279.465 511.086 279.946 510.472 280.475L510.18 280.719C509.918 280.95 509.64 281.22 509.392 281.477C509.144 281.734 508.764 282.132 508.472 282.479C507.852 283.196 507.291 283.952 506.793 284.74C506.53 285.138 506.282 285.562 506.049 286.024C504.687 288.507 503.705 291.137 503.128 293.847L421.673 252.459V257.598L422.447 257.983L423.177 258.355V259.383L421.717 260.141V263.121L432.769 283.673L443.69 289.235L447.326 285.382L456.962 290.456L462.496 298.792L468.599 301.888L476.235 295.928L485.608 300.693L488.762 312.138L504.53 320.154C505.309 323.067 506.284 325.936 507.45 328.747C507.552 329.03 507.684 329.325 507.815 329.646C513.042 341.721 521.35 352.061 530.723 356.827C531.847 357.413 533.024 357.916 534.242 358.33C534.886 358.555 535.544 358.748 536.213 358.908C536.797 359.045 537.381 359.161 537.965 359.255C539.809 359.55 541.698 359.55 543.542 359.255L544.302 359.088C544.665 359.023 545.021 358.933 545.367 358.818L546.185 358.535C546.474 358.443 546.753 358.327 547.017 358.189C547.287 358.086 547.55 357.97 547.806 357.842L548.185 357.636C548.254 357.616 548.318 357.586 548.375 357.546C555.033 353.847 559.311 345.009 559.311 332.639C559.286 329.362 558.994 326.091 558.435 322.851Z" fill="#C53F3F"/>
<path opacity="0.4" d="M550.172 327.989C550.172 332.883 547.252 335.362 543.645 333.526C540.039 331.689 537.104 326.255 537.104 321.361C537.104 316.467 540.025 313.988 543.645 315.825C544.688 316.383 545.596 317.116 546.317 317.983C546.631 321.155 547.94 324.188 550.099 326.743C550.152 327.157 550.177 327.573 550.172 327.989Z" fill="black"/>
<path opacity="0.4" d="M568.423 327.976C568.423 340.654 563.926 349.62 556.976 353.166C555.516 353.859 550.435 356.48 548.347 357.533C555.005 353.834 559.283 344.996 559.283 332.626C559.267 329.354 558.984 326.087 558.436 322.851C555.37 304.431 544.113 286.191 530.695 279.383C524.476 276.223 518.723 275.991 514.051 278.162L522.665 273.795C527.439 271.341 533.396 271.457 539.835 274.733C553.253 281.553 564.51 299.781 567.576 318.214C568.132 321.445 568.415 324.708 568.423 327.976Z" fill="white"/>
<path d="M559.282 332.601C559.282 344.971 555.004 353.808 548.347 357.507C550.435 356.454 555.574 353.834 556.976 353.14C563.925 349.595 568.422 340.629 568.422 327.951C568.422 327.488 568.422 327.013 568.422 326.538L559.282 331.188C559.268 331.689 559.282 332.151 559.282 332.601Z" fill="#C53F3F"/>
<path opacity="0.1" d="M559.282 332.601C559.282 344.971 555.004 353.808 548.347 357.507C550.435 356.454 555.574 353.834 556.976 353.14C563.925 349.595 568.422 340.629 568.422 327.951C568.422 327.488 568.422 327.013 568.422 326.538L559.282 331.188C559.268 331.689 559.282 332.151 559.282 332.601Z" fill="black"/>
<path opacity="0.15" d="M503.48 299.1V301.708L421.688 260.166L423.192 259.395V258.316L503.48 299.1Z" fill="black"/>
<path opacity="0.15" d="M503.48 300.179V301.708L421.688 260.166L423.192 259.396V259.383L503.48 300.179Z" fill="black"/>
<path opacity="0.15" d="M539.046 353.153C535.946 353.082 532.923 352.289 530.286 350.854C516.956 344.084 506.107 323.943 506.107 305.96C506.107 295.465 509.714 287.629 516.006 284.431C520.387 282.196 525.57 282.479 531.016 285.24C544.331 292.01 555.179 312.215 555.179 330.199C555.179 340.68 551.573 348.529 545.28 351.714C543.382 352.668 541.232 353.164 539.046 353.153ZM522.328 284.238C520.383 284.229 518.469 284.672 516.78 285.523C511.042 288.439 507.611 296.082 507.611 305.947C507.611 323.519 518.124 343.198 531.06 349.723C536.009 352.292 540.696 352.524 544.594 350.545C550.332 347.63 553.763 339.999 553.763 330.134C553.763 312.549 543.251 292.883 530.33 286.345C527.915 285.052 525.155 284.343 522.328 284.29V284.238Z" fill="black"/>
<path opacity="0.4" d="M505.991 285.998C504.63 288.481 503.648 291.111 503.071 293.821L421.615 252.434L430.755 247.796L505.991 285.998Z" fill="white"/>
<path d="M611.858 290.019C616.121 282.916 620.998 266.962 623.421 258.908C626.867 247.476 621.29 240.282 614.953 239.987C610.997 240.526 597.958 282.235 597.958 282.235C596.498 283.25 576.686 292.1 570.32 294.322C569.181 294.701 567.925 294.701 566.787 294.322C563.735 293.346 561.647 293.526 558.654 293.269C556.303 293.063 555.121 292.331 554.814 292.768C554.536 293.31 554.5 293.924 554.714 294.489C554.927 295.053 555.375 295.526 555.968 295.812C557.256 296.473 558.628 296.999 560.056 297.379C557.497 298.062 554.83 298.379 552.157 298.317C546.025 298.201 543.82 300.539 548.58 306.024C551.5 309.441 556.333 310.52 567.122 307.244C570.218 306.294 574.423 304.457 578.35 303.211C586.439 300.642 588.57 300.334 594.732 298.497C603.711 295.825 609.96 293.179 611.858 290.019Z" fill="#FFA8A7"/>
<path d="M612.575 238.908C616.298 239.357 619.875 240.089 622.08 242.761C624.284 245.433 626.051 249.184 623.89 259.396C622.235 266.578 620.021 273.651 617.261 280.565C617.261 280.565 608.589 283.827 599.376 275.555L605.713 254.001C605.713 254.001 606.735 239.987 612.575 238.908Z" fill="#455A64"/>
</svg>
